<?xml version="1.0" encoding="UTF-8" standalone="no"?>
<!-- Created with Inkscape (http://www.inkscape.org/) -->

<svg
   xmlns:dc="http://purl.org/dc/elements/1.1/"
   xmlns:cc="http://creativecommons.org/ns#"
   xmlns:rdf="http://www.w3.org/1999/02/22-rdf-syntax-ns#"
   xmlns:svg="http://www.w3.org/2000/svg"
   xmlns="http://www.w3.org/2000/svg"
   xmlns:inkscape="http://www.inkscape.org/namespaces/inkscape"
   version="1.1"
   width="128"
   height="128"
   id="svg2">
  <metadata
     id="metadata10">
    <rdf:RDF>
      <cc:Work
         rdf:about="">
        <dc:format>image/svg+xml</dc:format>
        <dc:type
           rdf:resource="http://purl.org/dc/dcmitype/StillImage" />
      </cc:Work>
    </rdf:RDF>
  </metadata>
  <defs
     id="defs8" />
  <path
     d="m 103.025,82.324 c -1.104,-0.631 -2.44,-0.436 -3.66,-0.476 -1.65,0.06 -3.421,-0.221 -4.952,0.545 -1.187,0.592 -1.458,2.02 -2.331,2.919 -0.79,0.724 -1.957,0.8 -2.969,0.681 -1.954,-0.321 -3.451,-1.798 -4.615,-3.302 -2.069,-2.803 -3.478,-6.053 -4.453,-9.385 -0.426,-1.197 -0.139,-2.483 0.38,-3.6 1.947,-4.228 3.66,-8.555 5.296,-12.909 2.906,-7.874 5.603,-15.831 7.898,-23.907 0.192,-0.833 0.598,-1.729 0.241,-2.572 -0.321,-0.783 -1.233,-0.959 -1.95,-1.193 h -8 c -0.856,0.096 -1.818,0.288 -2.331,1.058 -1.002,1.488 -1.345,3.289 -1.904,4.969 C 77.883,41.238 75.86,47.258 73.559,53.175 71.609,47.892 69.255,42.686 65.823,38.187 63.33,34.921 60.15,32.058 56.299,30.511 54.468,29.734 52.494,29.4 50.534,29.126 H 47.698 C 41.566,29.506 35.715,32.557 31.867,37.341 26.34,44.043 24.41,52.912 24,61.405 v 4.744 c 0.182,2.985 0.4,5.98 0.975,8.922 1.183,6.38 3.755,12.731 8.456,17.339 3.792,3.769 8.949,6.03 14.264,6.466 h 2.34 c 2.509,-0.188 5.008,-0.694 7.336,-1.669 6.321,-2.585 11.167,-7.729 14.992,-13.243 1.689,3.772 3.719,7.488 6.714,10.39 2.562,2.562 5.993,4.198 9.61,4.522 h 1.977 c 2.298,-0.221 4.575,-0.896 6.493,-2.202 3.871,-2.582 6.278,-7.002 6.843,-11.57 v -0.509 c -0.073,-0.823 -0.195,-1.802 -0.975,-2.271 z M 59.273,80.605 c -2.221,2.37 -4.949,4.453 -8.179,5.17 -4.4,0.962 -9.23,-0.774 -12.083,-4.241 -3.028,-3.762 -3.894,-8.731 -4.221,-13.421 -0.258,-5.253 -0.198,-10.631 1.302,-15.719 0.912,-3.071 2.529,-6.073 5.18,-7.977 3.696,-2.721 9.028,-3.355 13.074,-1.038 3.147,1.795 5.24,4.916 6.843,8.076 2.674,5.435 4.248,11.309 5.964,17.094 -2.191,4.274 -4.594,8.512 -7.88,12.056 z"
     inkscape:connector-curvature="0"
     id="path4" />
</svg>
