<?xml version="1.0" encoding="UTF-8" standalone="no"?>
<!-- Created with Inkscape (http://www.inkscape.org/) -->

<svg
   xmlns:dc="http://purl.org/dc/elements/1.1/"
   xmlns:cc="http://creativecommons.org/ns#"
   xmlns:rdf="http://www.w3.org/1999/02/22-rdf-syntax-ns#"
   xmlns:svg="http://www.w3.org/2000/svg"
   xmlns="http://www.w3.org/2000/svg"
   xmlns:inkscape="http://www.inkscape.org/namespaces/inkscape"
   version="1.1"
   width="128"
   height="128"
   id="svg2">
  <metadata
     id="metadata12">
    <rdf:RDF>
      <cc:Work
         rdf:about="">
        <dc:format>image/svg+xml</dc:format>
        <dc:type
           rdf:resource="http://purl.org/dc/dcmitype/StillImage" />
      </cc:Work>
    </rdf:RDF>
  </metadata>
  <defs
     id="defs10" />
  <path
     d="m 93.28125,38.40625 c 2.342351,4.091594 2.902973,9.238968 1.8125,14.8125 -2.424854,12.587769 -16.008693,21.21976 -39.5,21.1875 0,0 -3.924619,0.05855 -4.59375,3.03125 l -3.375,14.90625 c -0.189491,0.841839 -0.848763,3.8125 -3.53125,3.8125 l -8.09375,0 -0.5,2.1875 c -0.801306,3.51493 1.443203,3.5 2.59375,3.5 l 11.5,0 c 2.682487,0 3.341759,-2.97066 3.53125,-3.8125 L 56.5,83.125 c 0.669131,-2.9727 4.59375,-3.03125 4.59375,-3.03125 23.491307,0.03226 37.075142,-8.599731 39.5,-21.1875 1.69076,-8.641683 -0.56682,-16.254883 -7.3125,-20.5 z"
     inkscape:connector-curvature="0"
     id="path4"
     style="fill-opacity:0.50196078" />
  <path
     d="m 44.59408,26.1875 c -3.25036,0 -3.55993,1.33879 -4.03125,3.40625 L 26.84408,89.6875 c -0.8013,3.514932 1.4432,3.5 2.59375,3.5 l 11.5,0 c 2.68249,0 3.34176,-2.970661 3.53125,-3.8125 l 3.375,-14.90625 c 0.66913,-2.9727 4.59375,-3.03125 4.59375,-3.03125 23.49131,0.03226 37.07515,-8.599731 39.5,-21.1875 C 94.52656,37.018715 87.8338,26.1875 70.00033,26.1875 l -25.40625,0 z m 16.1875,12.03125 c 7.30897,-0.05974 15.77069,1.686581 13.34375,11.84375 -2.58873,10.834314 -19.65625,8.71875 -19.65625,8.71875 0,0 -3.04325,-0.316034 -2.3125,-3.5625 l 2.875,-12.65625 c 0,0 0.9551,-4.185475 4.3125,-4.3125 0.47366,-0.01792 0.95024,-0.02727 1.4375,-0.03125 z"
     inkscape:connector-curvature="0"
     id="path6" />
</svg>
