<?xml version="1.0" encoding="UTF-8" standalone="no"?>
<!-- Created with Inkscape (http://www.inkscape.org/) -->

<svg
   xmlns:dc="http://purl.org/dc/elements/1.1/"
   xmlns:cc="http://creativecommons.org/ns#"
   xmlns:rdf="http://www.w3.org/1999/02/22-rdf-syntax-ns#"
   xmlns:svg="http://www.w3.org/2000/svg"
   xmlns="http://www.w3.org/2000/svg"
   xmlns:inkscape="http://www.inkscape.org/namespaces/inkscape"
   version="1.1"
   width="128"
   height="128"
   id="svg2">
  <metadata
     id="metadata10">
    <rdf:RDF>
      <cc:Work
         rdf:about="">
        <dc:format>image/svg+xml</dc:format>
        <dc:type
           rdf:resource="http://purl.org/dc/dcmitype/StillImage" />
      </cc:Work>
    </rdf:RDF>
  </metadata>
  <defs
     id="defs8" />
  <path
     d="m 49.905,76.533 c -12.01,3.861 -12.407,3.97 -13.046,3.937 -0.996,-0.036 -1.869,-0.624 -2.389,-1.613 -0.379,-0.715 -0.639,-1.913 -0.798,-3.349 -0.451,-4.352 0.097,-10.909 1.397,-12.992 0.617,-0.964 1.501,-1.465 2.497,-1.425 0.65,0.007 1.231,0.217 14.135,5.539 0.007,0 3.771,1.534 3.771,1.534 1.364,0.512 2.191,1.927 2.104,3.529 -0.087,1.563 -0.982,2.786 -2.313,3.125 -0.021,0.012 -5.358,1.715 -5.358,1.715 z m 12.093,3.208 c -1.49,-0.574 -3.096,-0.22 -3.998,0.902 0,0 -2.634,3.125 -2.642,3.125 -9.04,10.621 -9.419,11.111 -9.639,11.739 -0.134,0.368 -0.188,0.765 -0.144,1.158 0.054,0.563 0.31,1.119 0.733,1.638 2.097,2.49 12.151,6.189 15.362,5.64 1.115,-0.202 1.927,-0.83 2.27,-1.768 0.209,-0.606 0.235,-1.021 0.271,-13.637 0,0 0.029,-5.576 0.032,-5.63 0.086,-1.366 -0.798,-2.611 -2.245,-3.167 z m 31.479,2.469 c -0.509,-0.383 -0.895,-0.53 -12.898,-4.471 0,0 -5.265,-1.739 -5.334,-1.772 -1.274,-0.494 -2.728,-0.036 -3.706,1.169 -1.018,1.238 -1.169,2.873 -0.357,4.107 l 2.118,3.45 c 7.124,11.57 7.669,12.389 8.181,12.789 0.794,0.624 1.804,0.725 2.854,0.303 3.031,-1.209 9.643,-9.621 10.108,-12.858 0.164,-1.126 -0.19,-2.097 -0.966,-2.717 z M 74.141,68.951 74.072,69.066 c 0.671,-0.253 1.873,-0.549 4.06,-1.068 13.641,-3.306 14.168,-3.479 14.706,-3.833 0.826,-0.556 1.241,-1.487 1.169,-2.62 V 61.43 c -0.35,-3.349 -6.218,-12.06 -9.109,-13.475 -1.025,-0.491 -2.05,-0.458 -2.901,0.112 -0.527,0.343 -0.913,0.862 -8.217,10.852 0,0 -3.298,4.493 -3.338,4.536 -0.87,1.057 -0.884,2.573 -0.032,3.872 0.88,1.346 2.367,2.003 3.731,1.624 z M 62.388,26.144 c -0.274,-1.01 -1.065,-1.732 -2.198,-2.017 -3.482,-0.862 -16.792,2.865 -19.256,5.41 -0.794,0.826 -1.086,1.844 -0.848,2.746 0.39,0.798 16.878,26.741 16.878,26.741 2.436,3.952 4.424,3.338 5.078,3.132 0.646,-0.198 2.624,-0.812 2.4,-5.42 C 64.206,51.33 62.579,27.259 62.388,26.144 z"
     inkscape:connector-curvature="0"
     id="path4"
     style="fill:#000000" />
</svg>
