<?xml version="1.0" encoding="UTF-8" standalone="no"?>
<!-- Created with Inkscape (http://www.inkscape.org/) -->

<svg
   xmlns:dc="http://purl.org/dc/elements/1.1/"
   xmlns:cc="http://creativecommons.org/ns#"
   xmlns:rdf="http://www.w3.org/1999/02/22-rdf-syntax-ns#"
   xmlns:svg="http://www.w3.org/2000/svg"
   xmlns="http://www.w3.org/2000/svg"
   xmlns:inkscape="http://www.inkscape.org/namespaces/inkscape"
   version="1.1"
   width="128"
   height="128"
   id="svg2">
  <metadata
     id="metadata10">
    <rdf:RDF>
      <cc:Work
         rdf:about="">
        <dc:format>image/svg+xml</dc:format>
        <dc:type
           rdf:resource="http://purl.org/dc/dcmitype/StillImage" />
      </cc:Work>
    </rdf:RDF>
  </metadata>
  <defs
     id="defs8" />
  <path
     d="M 104.176,38.583 H 87.628 l 0.195,0.32 v 1.447 c 0,0.171 -0.124,0.314 0.027,0.421 0.154,0.113 0.213,0.174 0.381,0.174 l 1.324,0.07 c 1.697,0.07 2.134,0.407 2.791,0.976 0.654,0.584 0.72,1.578 0.211,2.979 l -14.652,34.762 -0.567,-0.154 -9.3,-19.025 0.213,-0.447 7.608,-14.229 c 0.886,-1.503 1.741,-2.842 2.174,-3.467 0.793,-1.142 1.098,-1.357 3.266,-1.459 0.442,0 0.525,-0.198 0.525,-0.596 v -1.441 l 0.135,-0.332 h -0.01 c 0,0 -9.541,0.06 -13.686,0.089 l -0.439,0.237 v 1.441 c 0,0.177 0.303,0.317 0.454,0.424 0.154,0.113 0.425,0.171 0.593,0.171 l 0.722,0.073 c 1.694,0.07 2.502,0.514 2.734,0.793 0.404,0.494 0.619,1.029 -0.361,3.165 L 66.12,56.649 60.831,45.821 C 59.093,42.36 58.668,41.29 61.283,41.087 l 0.912,-0.148 c 0.503,0 0.627,-0.177 0.627,-0.523 v -1.514 l -0.254,-0.125 c 0,0 -9.981,0 -14.407,0.006 l -0.338,0.148 v 1.52 c 0,0.34 0.549,0.427 1.234,0.517 2.45,0.323 2.495,0.749 4.918,5.553 0.363,0.721 1.531,3.06 1.531,3.06 h -0.002 l 5.515,10.669 c 0,0 0.625,1.303 1.606,3.47 l -8.024,15.96 -0.456,-0.141 c 0,0 -12.447,-26.257 -16.051,-35.036 -0.375,-0.91 -0.543,-1.589 -0.543,-2.005 0,-0.892 0.805,-1.377 2.415,-1.444 l 1.992,-0.08 c 0.497,0 0.865,-0.193 0.865,-0.591 V 38.942 L 42.54,38.794 c 0,0 -15.188,-0.017 -18.269,0 l -0.448,0.148 v 1.514 c 0,0.273 0.568,0.442 1.262,0.517 1.892,0.102 3.247,0.404 3.845,0.907 0.596,0.509 1.282,1.793 2.119,3.796 4.525,10.869 14.166,30.265 18.848,41.312 1.348,3.017 3.057,3.485 5.114,-0.093 2.116,-3.925 6.391,-12.639 9.507,-19.068 2.914,6.415 6.884,15.093 8.795,19.027 1.526,3.147 3.262,3.456 5.027,0.096 4.609,-10.247 18.08,-41.079 18.08,-41.079 0.584,-1.514 1.398,-2.68 2.442,-3.525 1.04,-0.84 2.387,-1.311 4.555,-1.407 0.442,0 0.405,-0.198 0.405,-0.59 v -1.447 l 0.354,-0.319 z"
     inkscape:connector-curvature="0"
     id="path4"
     style="fill:#ffffff" />
</svg>
