<?xml version="1.0" encoding="UTF-8" standalone="no"?>
<!-- Created with Inkscape (http://www.inkscape.org/) -->

<svg
   xmlns:dc="http://purl.org/dc/elements/1.1/"
   xmlns:cc="http://creativecommons.org/ns#"
   xmlns:rdf="http://www.w3.org/1999/02/22-rdf-syntax-ns#"
   xmlns:svg="http://www.w3.org/2000/svg"
   xmlns="http://www.w3.org/2000/svg"
   xmlns:inkscape="http://www.inkscape.org/namespaces/inkscape"
   version="1.1"
   width="128"
   height="128"
   id="svg2">
  <metadata
     id="metadata10">
    <rdf:RDF>
      <cc:Work
         rdf:about="">
        <dc:format>image/svg+xml</dc:format>
        <dc:type
           rdf:resource="http://purl.org/dc/dcmitype/StillImage" />
      </cc:Work>
    </rdf:RDF>
  </metadata>
  <defs
     id="defs8" />
  <path
     d="m 100.113,62.048 c -0.309,0.22 -1.005,0.433 -1.005,0.641 V 31.697 c 0,-4.302 -3.074,-7.693 -7.054,-7.693 h -56.14 c -3.98,0 -6.806,3.391 -6.806,7.693 v 31.021 c -1,-0.217 -0.847,-0.439 -1.17,-0.67 -2.391,-1.669 -4.062,0.603 -2.595,2.774 2.855,3.497 8.23,7.84 16.551,11.256 -8.803,29.988 21.459,34.753 21,19.38 0.001,-0.185 0.004,-8.897 0.016,-15.123 0.795,0.187 1.479,0.371 2.128,0.53 0.011,6.179 0.023,14.413 0.024,14.593 -0.459,15.373 29.847,10.608 21.024,-19.38 8.321,-3.416 13.708,-7.759 16.561,-11.256 1.466,-2.17 -0.142,-4.442 -2.534,-2.774 z m -29.969,7.639 c -3.706,-0.186 -5.001,1.406 -5.184,3.863 -0.89,-0.634 -1.762,-1.389 -2.695,-2.255 l -0.388,-0.362 c -0.809,-0.88 -2.09,-1.351 -4.202,-1.245 -4.965,0.156 -14.568,1.145 -24.568,-4.402 V 35.214 c 0,-5.447 1.259,-7.21 6.244,-7.21 h 49.688 c 4.723,0 6.069,2.085 6.069,7.21 v 29.815 c -11,5.834 -19.923,4.816 -24.964,4.658 z M 62.928,56.983 c 0,4.986 -4.321,9.025 -9.648,9.025 -5.326,0 -9.648,-4.039 -9.648,-9.025 0,-4.985 4.321,-9.025 9.648,-9.025 5.327,0 9.648,4.041 9.648,9.025 z m 22.453,0 c 0,4.986 -4.322,9.025 -9.648,9.025 -5.327,0 -9.649,-4.039 -9.649,-9.025 0,-4.985 4.322,-9.025 9.649,-9.025 5.326,0 9.648,4.041 9.648,9.025 z"
     inkscape:connector-curvature="0"
     id="path4"
     style="fill:#ffffff" />
</svg>
