<?xml version="1.0" encoding="UTF-8" standalone="no"?>
<!-- Created with Inkscape (http://www.inkscape.org/) -->

<svg
   xmlns:dc="http://purl.org/dc/elements/1.1/"
   xmlns:cc="http://creativecommons.org/ns#"
   xmlns:rdf="http://www.w3.org/1999/02/22-rdf-syntax-ns#"
   xmlns:svg="http://www.w3.org/2000/svg"
   xmlns="http://www.w3.org/2000/svg"
   xmlns:inkscape="http://www.inkscape.org/namespaces/inkscape"
   version="1.1"
   width="128"
   height="128"
   id="svg2">
  <metadata
     id="metadata10">
    <rdf:RDF>
      <cc:Work
         rdf:about="">
        <dc:format>image/svg+xml</dc:format>
        <dc:type
           rdf:resource="http://purl.org/dc/dcmitype/StillImage" />
      </cc:Work>
    </rdf:RDF>
  </metadata>
  <defs
     id="defs8" />
  <path
     d="M 95.731,42.393 H 67.595 C 67.53,42.128 67.438,41.874 67.323,41.634 L 93.638,26.86 C 94.391,26.437 94.65,25.5 94.215,24.767 93.78,24.034 92.816,23.782 92.063,24.206 L 64.76,39.533 64.747,39.541 c -0.299,-0.074 -0.611,-0.117 -0.933,-0.117 -0.242,0 -0.477,0.025 -0.707,0.067 L 35.927,24.206 c -0.752,-0.424 -1.715,-0.172 -2.149,0.561 -0.435,0.733 -0.177,1.67 0.576,2.093 l 26.02,14.633 c -0.15,0.281 -0.263,0.584 -0.34,0.901 H 32.269 c -2.562,0 -4.639,2.077 -4.639,4.639 v 52.329 c 0,2.562 2.077,4.639 4.639,4.639 h 63.462 c 2.562,0 4.639,-2.077 4.639,-4.639 v -52.33 c 0,-2.562 -2.077,-4.639 -4.639,-4.639 z M 33.568,84.145 V 52.97 c 0,-2.562 2.077,-4.639 4.639,-4.639 h 51.586 c 2.562,0 4.639,2.077 4.639,4.639 v 31.174 c 0,2.562 -2.077,4.639 -4.639,4.639 H 38.207 c -2.562,0.001 -4.639,-2.077 -4.639,-4.638 z m 5.102,14.474 c -0.973,0 -1.762,-0.79 -1.762,-1.762 0,-0.974 0.79,-1.763 1.762,-1.763 0.974,0 1.763,0.79 1.763,1.763 10e-4,0.972 -0.789,1.762 -1.763,1.762 z m 11.134,0 c -0.973,0 -1.762,-0.79 -1.762,-1.762 0,-0.974 0.79,-1.763 1.762,-1.763 0.974,0 1.763,0.79 1.763,1.763 0,0.972 -0.789,1.762 -1.763,1.762 z m 33.031,0.928 c -1.589,0 -2.877,-1.288 -2.877,-2.876 0,-1.589 1.288,-2.877 2.877,-2.877 1.588,0 2.876,1.288 2.876,2.877 0,1.588 -1.288,2.876 -2.876,2.876 z m 8.907,0 c -1.589,0 -2.877,-1.288 -2.877,-2.876 0,-1.589 1.288,-2.877 2.877,-2.877 1.588,0 2.876,1.288 2.876,2.877 0,1.588 -1.288,2.876 -2.876,2.876 z"
     inkscape:connector-curvature="0"
     id="path4"
     style="fill:#ffffff;fill-rule:evenodd" />
</svg>
