<?xml version="1.0" encoding="UTF-8" standalone="no"?>
<!-- Created with Inkscape (http://www.inkscape.org/) -->

<svg
   xmlns:dc="http://purl.org/dc/elements/1.1/"
   xmlns:cc="http://creativecommons.org/ns#"
   xmlns:rdf="http://www.w3.org/1999/02/22-rdf-syntax-ns#"
   xmlns:svg="http://www.w3.org/2000/svg"
   xmlns="http://www.w3.org/2000/svg"
   xmlns:inkscape="http://www.inkscape.org/namespaces/inkscape"
   version="1.1"
   width="128"
   height="128"
   id="svg2">
  <metadata
     id="metadata10">
    <rdf:RDF>
      <cc:Work
         rdf:about="">
        <dc:format>image/svg+xml</dc:format>
        <dc:type
           rdf:resource="http://purl.org/dc/dcmitype/StillImage" />
      </cc:Work>
    </rdf:RDF>
  </metadata>
  <defs
     id="defs8" />
  <path
     d="m 41.566,82.231 c 0.564,0.686 1.35,1.693 2.358,3.023 2.661,3.669 5.119,5.503 7.377,5.503 0.765,0 1.451,-0.242 2.056,-0.726 0.605,-0.484 0.907,-0.987 0.907,-1.512 0,-0.605 -0.403,-1.612 -1.209,-3.023 -0.807,-1.411 -1.915,-3.003 -3.326,-4.777 -1.613,-2.056 -2.954,-3.557 -4.021,-4.505 -1.069,-0.947 -1.926,-1.421 -2.57,-1.421 -1.412,0 -2.712,0.756 -3.9,2.268 -1.19,1.512 -1.784,3.296 -1.784,5.351 0,1.653 0.413,3.498 1.24,5.533 0.826,2.036 2.026,4.082 3.598,6.138 2.378,3.185 5.331,5.634 8.859,7.347 3.527,1.714 7.427,2.57 11.701,2.57 7.861,0 14.442,-2.933 19.743,-8.798 5.3,-5.865 7.952,-13.212 7.952,-22.041 0,-2.7 -0.202,-4.847 -0.605,-6.44 -0.403,-1.592 -1.069,-2.751 -1.995,-3.477 -1.653,-1.37 -4.868,-2.6 -9.645,-3.689 -4.777,-1.088 -9.766,-1.633 -14.966,-1.633 -1.451,0 -2.479,0.242 -3.084,0.726 -0.605,0.484 -0.907,1.31 -0.907,2.479 0,2.742 1.532,4.727 4.596,5.956 3.063,1.23 8.022,1.844 14.875,1.844 h 2.479 c 0.564,0 1.018,0.212 1.361,0.635 0.342,0.423 0.574,1.058 0.695,1.905 -0.686,0.645 -2.097,1.381 -4.233,2.207 -2.137,0.827 -3.77,1.643 -4.898,2.449 -2.419,1.774 -4.364,3.88 -5.835,6.319 -1.472,2.44 -2.207,4.747 -2.207,6.924 0,1.33 0.312,2.933 0.937,4.807 0.625,1.875 0.937,3.034 0.937,3.477 v 0.423 l -0.121,0.544 C 66.157,98.496 64.756,97.459 63.728,95.503 62.7,93.548 62.186,90.938 62.186,87.672 v -0.544 c -0.323,0.283 -0.635,0.484 -0.937,0.605 -0.302,0.121 -0.635,0.181 -0.998,0.181 -0.363,0 -0.706,-0.03 -1.028,-0.091 -0.323,-0.06 -0.686,-0.151 -1.088,-0.272 0.121,0.444 0.212,0.877 0.272,1.3 0.06,0.423 0.091,0.756 0.091,0.998 0,1.492 -0.585,2.772 -1.754,3.84 -1.17,1.069 -2.56,1.602 -4.172,1.602 -2.54,0 -5.12,-1.24 -7.74,-3.719 -2.621,-2.479 -3.93,-4.907 -3.93,-7.286 0,-0.443 0.05,-0.836 0.151,-1.179 0.099,-0.341 0.271,-0.634 0.513,-0.876 z m 18.141,1.452 c 0.685,0 1.31,-0.312 1.875,-0.937 0.564,-0.625 0.847,-1.3 0.847,-2.026 0,-0.765 -0.555,-2.549 -1.663,-5.351 -1.109,-2.801 -2.49,-5.553 -4.142,-8.254 -1.209,-2.015 -2.399,-3.537 -3.568,-4.565 -1.17,-1.028 -2.278,-1.542 -3.326,-1.542 -0.847,0 -1.784,0.535 -2.812,1.602 -1.028,1.069 -1.542,2.066 -1.542,2.993 0,0.968 0.504,2.419 1.512,4.354 1.007,1.935 2.358,3.991 4.051,6.168 1.773,2.379 3.447,4.233 5.019,5.563 1.572,1.329 2.821,1.995 3.749,1.995 z M 65.633,54.476 59.102,35.61 C 57.409,30.813 56.098,27.679 55.172,26.207 54.244,24.736 53.237,24 52.148,24 c -0.847,0 -1.533,0.323 -2.056,0.967 -0.524,0.645 -0.786,1.512 -0.786,2.6 0,1.855 0.705,5.079 2.116,9.675 1.411,4.596 3.527,10.623 6.349,18.08 0.242,-0.443 0.584,-0.756 1.028,-0.937 0.443,-0.181 1.048,-0.272 1.814,-0.272 0.242,0 0.726,0.021 1.451,0.06 0.727,0.041 1.915,0.143 3.569,0.303 z m 6.833,18.322 c -1.734,-0.08 -3.377,-0.262 -4.928,-0.544 -1.552,-0.282 -3.034,-0.685 -4.444,-1.209 0.644,1.291 1.219,2.58 1.723,3.87 0.504,1.291 0.916,2.56 1.24,3.81 0.967,-1.209 1.985,-2.307 3.054,-3.296 1.066,-0.988 2.185,-1.865 3.355,-2.631 z m 8.042,-16.266 c 2.7,-7.337 4.807,-13.394 6.319,-18.171 1.512,-4.777 2.268,-7.71 2.268,-8.798 0,-1.169 -0.252,-2.076 -0.756,-2.721 -0.505,-0.644 -1.2,-0.968 -2.086,-0.968 -1.129,0 -2.278,0.937 -3.447,2.812 -1.17,1.875 -2.459,4.889 -3.87,9.04 l -6.047,17.475 7.619,1.331 z"
     inkscape:connector-curvature="0"
     id="path4" />
</svg>
