<?xml version="1.0" encoding="UTF-8" standalone="no"?>
<!-- Created with Inkscape (http://www.inkscape.org/) -->

<svg
   xmlns:dc="http://purl.org/dc/elements/1.1/"
   xmlns:cc="http://creativecommons.org/ns#"
   xmlns:rdf="http://www.w3.org/1999/02/22-rdf-syntax-ns#"
   xmlns:svg="http://www.w3.org/2000/svg"
   xmlns="http://www.w3.org/2000/svg"
   xmlns:inkscape="http://www.inkscape.org/namespaces/inkscape"
   version="1.1"
   width="128"
   height="128"
   id="svg2">
  <metadata
     id="metadata10">
    <rdf:RDF>
      <cc:Work
         rdf:about="">
        <dc:format>image/svg+xml</dc:format>
        <dc:type
           rdf:resource="http://purl.org/dc/dcmitype/StillImage" />
      </cc:Work>
    </rdf:RDF>
  </metadata>
  <defs
     id="defs8" />
  <path
     d="m 40.13,57.815 v 1.894 h 0.113 c 3.401,-2.049 6.914,-2.212 9.013,-2.212 5.667,0 7.595,1.618 8.332,2.212 1.301,-0.753 4.135,-2.212 8.952,-2.212 9.637,0 9.637,3.803 9.637,5.341 v 8.959 h -7.766 v -7.983 c 0,-1.65 0,-3.484 -4.138,-3.484 -2.039,0 -4.137,0.621 -4.872,1.537 -0.68,0.781 -0.965,1.483 -0.965,3.21 v 6.72 h -7.764 v -7.665 c 0,-2.372 0.054,-3.802 -4.023,-3.802 -2.042,0 -4.138,0.539 -4.932,1.348 -0.623,0.62 -1.023,1.267 -1.023,3.323 v 6.796 H 32.935 V 57.815 h 7.195 z m 54.769,0.173 h -5.634 v -4.93 l -8.358,2.169 v 2.761 h -3.816 v 2.923 h 3.816 v 6.052 c 0,2.119 0.122,2.952 1.151,3.808 1.21,1.041 4.485,1.419 7.027,1.419 0.847,0 3.819,-0.054 6.542,-0.561 l -0.728,-2.843 -0.241,0.027 c -1.031,0.196 -1.997,0.324 -3.088,0.324 -2.305,0 -2.305,-0.647 -2.305,-2.626 v -5.599 h 5.634 v -2.924 z m -62.61,21.711 -0.103,-0.205 c -1.176,-2.541 -3.757,-8.15 -3.757,-15.427 0,-6.344 1.577,-10.703 3.893,-15.836 H 29.199 C 26.586,51.996 24,57.358 24,63.932 c 0,5.572 2.046,11.107 5.135,15.768 h 3.154 z M 95.714,48.301 c 0,0.032 0.067,0.167 0.1,0.2 1.176,2.55 3.761,8.149 3.761,15.431 0,6.339 -1.579,10.697 -3.895,15.837 h 3.123 c 2.616,-3.764 5.198,-9.127 5.198,-15.701 0,-5.567 -2.047,-11.108 -5.133,-15.767 h -3.154 z"
     inkscape:connector-curvature="0"
     id="path4" />
</svg>
