<?xml version="1.0" encoding="UTF-8" standalone="no"?>
<!-- Created with Inkscape (http://www.inkscape.org/) -->

<svg
   xmlns:dc="http://purl.org/dc/elements/1.1/"
   xmlns:cc="http://creativecommons.org/ns#"
   xmlns:rdf="http://www.w3.org/1999/02/22-rdf-syntax-ns#"
   xmlns:svg="http://www.w3.org/2000/svg"
   xmlns="http://www.w3.org/2000/svg"
   xmlns:inkscape="http://www.inkscape.org/namespaces/inkscape"
   version="1.1"
   width="128"
   height="128"
   id="svg2">
  <metadata
     id="metadata10">
    <rdf:RDF>
      <cc:Work
         rdf:about="">
        <dc:format>image/svg+xml</dc:format>
        <dc:type
           rdf:resource="http://purl.org/dc/dcmitype/StillImage" />
      </cc:Work>
    </rdf:RDF>
  </metadata>
  <defs
     id="defs8" />
  <path
     d="M 43.04,70.051 V 38.919 H 35.57 C 28.866,38.919 24,43.809 24,50.547 v 40.908 c 0,6.737 4.866,11.628 11.57,11.628 h 41.278 c 6.704,0 11.57,-4.89 11.57,-11.628 V 83.119 H 56.084 C 48.648,83.119 43.04,77.501 43.04,70.051 z M 98.639,24.918 H 76.108 c -3.156,0 -5.361,2.197 -5.361,5.343 v 22.18 c 0,3.146 2.205,5.343 5.361,5.343 h 22.531 c 3.156,0 5.361,-2.197 5.361,-5.343 v -22.18 c 0,-3.146 -2.204,-5.343 -5.361,-5.343 z M 76.108,61.98 c -5.449,0 -9.558,-4.101 -9.558,-9.54 V 30.26 c 0,-0.605 0.053,-1.197 0.153,-1.773 H 56.084 c -5.126,0 -8.847,3.731 -8.847,8.871 v 32.693 c 0,5.14 3.721,8.871 8.847,8.871 h 33.055 c 5.126,0 8.847,-3.731 8.847,-8.871 V 61.98 H 76.108 z"
     inkscape:connector-curvature="0"
     id="path4" />
</svg>
