<?xml version="1.0" encoding="UTF-8" standalone="no"?>
<!-- Created with Inkscape (http://www.inkscape.org/) -->

<svg
   xmlns:dc="http://purl.org/dc/elements/1.1/"
   xmlns:cc="http://creativecommons.org/ns#"
   xmlns:rdf="http://www.w3.org/1999/02/22-rdf-syntax-ns#"
   xmlns:svg="http://www.w3.org/2000/svg"
   xmlns="http://www.w3.org/2000/svg"
   xmlns:inkscape="http://www.inkscape.org/namespaces/inkscape"
   version="1.1"
   width="128"
   height="128"
   id="svg2">
  <metadata
     id="metadata10">
    <rdf:RDF>
      <cc:Work
         rdf:about="">
        <dc:format>image/svg+xml</dc:format>
        <dc:type
           rdf:resource="http://purl.org/dc/dcmitype/StillImage" />
      </cc:Work>
    </rdf:RDF>
  </metadata>
  <defs
     id="defs8" />
  <path
     d="m 45.889,65.508 2.159,9.206 h -4.446 l 2.239,-9.206 h 0.048 z M 104,74.027 v 1.343 c 0,6.654 -7.257,13.384 -16.179,13.384 H 40.177 C 31.239,88.754 24,82.024 24,75.37 v -1.343 c 0,-5.109 4.314,-12.163 10.369,-13.889 -0.018,-0.197 -0.031,-0.397 -0.031,-0.596 0,-11.212 9.152,-20.295 20.446,-20.295 8.306,0 15.454,4.939 18.662,12.005 1.663,-1.133 3.684,-1.807 5.867,-1.807 5.612,0 10.172,4.422 10.343,9.959 C 97.729,60.078 104,67.847 104,74.027 z M 52.838,81.665 47.891,62.999 h -3.844 l -5.342,18.666 h 3.132 l 1.208,-4.573 h 5.502 l 1.161,4.573 h 3.13 z M 71.684,62.999 H 68.709 L 66.264,77.584 H 66.211 L 63.684,62.999 H 60.525 L 58.053,77.507 H 57.998 L 55.529,62.999 h -3.028 l 3.629,18.666 h 3.476 l 2.396,-14.062 h 0.055 l 2.421,14.062 h 3.471 l 3.735,-18.666 z m 13.479,13.415 c 0,-2.565 -1.162,-4.005 -3.819,-4.943 l -2.026,-0.736 c -1.999,-0.756 -2.815,-1.567 -2.815,-3.159 0,-1.991 1.237,-2.695 2.523,-2.695 1.869,0 2.633,0.993 2.633,2.695 v 0.392 h 3.004 v -0.423 c 0,-1.931 -0.501,-4.912 -5.315,-4.912 -3.527,0 -5.843,1.884 -5.843,5.287 0,2.662 1.181,4.074 3.919,5.116 l 2.052,0.712 c 1.689,0.492 2.687,1.359 2.687,3.316 0,1.385 -0.951,2.722 -2.844,2.722 -2.075,0 -3.077,-1.153 -3.077,-3.425 v -0.474 h -3.003 v 0.445 c 0,2.616 1.055,5.697 5.71,5.697 3.789,0 6.214,-1.645 6.214,-5.615 z"
     inkscape:connector-curvature="0"
     id="path4"
     style="fill:#ffffff" />
</svg>
