<?xml version="1.0" encoding="UTF-8" standalone="no"?>
<svg version="1.1" width="128" height="128">
  <path fill="#ffffff"
     d="m 72.468455,37.99178 c -5.46578,0 -9.896451,4.430671 -9.896451,9.896451 0,1.497834 0.331153,2.897899 0.926758,4.170411 -13.213688,15.186267 -20.00365,35.703009 -16.946431,57.094918 a 2.3833303,2.3833303 0 1 0 4.699987,-0.66197 c -2.815426,-19.700034 3.30704,-38.58022 15.291506,-52.692818 1.654386,1.243292 3.695806,1.98591 5.924631,1.98591 5.46578,0 9.896451,-4.430671 9.896451,-9.896451 0,-5.46578 -4.430671,-9.896451 -9.896451,-9.896451 z M 72.966054,18.309245 C 67.356535,18.088734 61.624099,19.493241 56.506106,22.668502 42.858123,31.135867 38.643792,49.118159 47.111157,62.766141 a 2.3880918,2.3880918 0 0 0 4.058618,-2.517846 C 44.060371,48.78912 47.564776,33.836523 59.023951,26.727119 c 11.459176,-7.109403 26.449352,-3.604998 33.558756,7.854177 7.109404,11.459176 3.604998,26.449352 -7.854177,33.558755 -5.46533,3.390753 -12.033726,4.449924 -18.30136,3.006384 a 2.392818,2.392818 0 0 0 -1.089813,4.659894 C 72.829056,77.531793 80.713669,76.214055 87.246376,72.16109 100.89436,63.693725 105.10869,45.711433 96.641324,32.06345 91.349221,23.53346 82.315254,18.676765 72.966054,18.309245 z"
    />
</svg>
