<?xml version="1.0" encoding="UTF-8" standalone="no"?>
<!-- Created with Inkscape (http://www.inkscape.org/) -->

<svg
   xmlns:dc="http://purl.org/dc/elements/1.1/"
   xmlns:cc="http://creativecommons.org/ns#"
   xmlns:rdf="http://www.w3.org/1999/02/22-rdf-syntax-ns#"
   xmlns:svg="http://www.w3.org/2000/svg"
   xmlns="http://www.w3.org/2000/svg"
   xmlns:inkscape="http://www.inkscape.org/namespaces/inkscape"
   version="1.1"
   width="128"
   height="128"
   id="svg2">
  <metadata
     id="metadata10">
    <rdf:RDF>
      <cc:Work
         rdf:about="">
        <dc:format>image/svg+xml</dc:format>
        <dc:type
           rdf:resource="http://purl.org/dc/dcmitype/StillImage" />
      </cc:Work>
    </rdf:RDF>
  </metadata>
  <defs
     id="defs8" />
  <path
     d="m 64.721,24 c -21.522,0 -38.969,17.447 -38.969,38.97 0,7.362 2.043,14.248 5.592,20.123 L 24.309,104 45.884,97.093 c 5.583,3.087 12.003,4.847 18.836,4.847 21.522,0 38.97,-17.449 38.97,-38.97 C 103.691,41.447 86.243,24 64.721,24 z m 0,71.41 c -6.589,0 -12.725,-1.976 -17.848,-5.363 L 34.406,94.038 38.458,81.992 C 34.574,76.642 32.28,70.07 32.28,62.97 c 0,-17.889 14.553,-32.443 32.441,-32.443 17.888,0 32.441,14.554 32.441,32.443 0,17.888 -14.553,32.44 -32.441,32.44 z M 55.827,45.8 c -0.754,-2.022 -1.595,-1.721 -2.175,-1.744 -0.581,-0.022 -1.24,-0.13 -1.904,-0.154 -0.663,-0.025 -1.751,0.183 -2.699,1.145 -0.949,0.96 -3.609,3.27 -3.792,8.165 -0.183,4.894 3.203,9.758 3.675,10.438 0.473,0.683 6.467,11.292 16.43,15.655 9.964,4.362 10.014,3.032 11.843,2.935 1.83,-0.096 5.976,-2.187 6.892,-4.477 0.916,-2.291 0.991,-4.282 0.757,-4.707 -0.234,-0.423 -0.887,-0.699 -1.863,-1.232 -0.977,-0.535 -5.776,-3.125 -6.675,-3.491 -0.9,-0.365 -1.557,-0.556 -2.257,0.416 -0.701,0.968 -2.691,3.137 -3.296,3.78 -0.606,0.643 -1.189,0.702 -2.165,0.166 -0.976,-0.534 -4.143,-1.705 -7.814,-5.235 -2.858,-2.747 -4.732,-6.08 -5.276,-7.096 -0.544,-1.017 -0.004,-1.536 0.513,-2.012 0.464,-0.43 1.039,-1.125 1.558,-1.687 0.518,-0.562 0.7,-0.97 1.057,-1.622 0.356,-0.651 0.213,-1.238 -0.018,-1.745 -0.231,-0.507 -2.037,-5.476 -2.791,-7.498 z"
     inkscape:connector-curvature="0"
     id="path4"
     style="fill:#ffffff;fill-rule:evenodd" />
</svg>
