<?xml version="1.0" encoding="UTF-8" standalone="no"?>
<!-- Created with Inkscape (http://www.inkscape.org/) -->

<svg
   xmlns:dc="http://purl.org/dc/elements/1.1/"
   xmlns:cc="http://creativecommons.org/ns#"
   xmlns:rdf="http://www.w3.org/1999/02/22-rdf-syntax-ns#"
   xmlns:svg="http://www.w3.org/2000/svg"
   xmlns="http://www.w3.org/2000/svg"
   xmlns:inkscape="http://www.inkscape.org/namespaces/inkscape"
   version="1.1"
   width="128"
   height="128"
   id="svg2">
  <metadata
     id="metadata10">
    <rdf:RDF>
      <cc:Work
         rdf:about="">
        <dc:format>image/svg+xml</dc:format>
        <dc:type
           rdf:resource="http://purl.org/dc/dcmitype/StillImage" />
      </cc:Work>
    </rdf:RDF>
  </metadata>
  <defs
     id="defs8" />
  <path
     d="m 76.262,33.605 -2.455,0.76 C 72.741,31.216 71.284,28.975 69.455,27.68 68.101,26.721 66.613,26.305 65.01,26.43 64.676,25.987 64.307,25.6 63.905,25.274 62.13,23.84 59.842,23.616 57.104,24.609 48.893,27.591 45.406,38.233 44.151,43.549 l -7.155,2.216 c 0,0 -1.686,0.478 -2.082,0.953 -0.434,0.519 -0.519,1.924 -0.519,1.924 l -6.069,46.819 45.567,8.538 3.508,-70.434 c -0.501,-0.098 -1.014,0.01 -1.139,0.04 z m -11.577,3.584 -7.907,2.449 c 1.048,-4.105 3.062,-8.296 6.91,-9.932 0.799,2.094 1.02,4.959 0.997,7.483 z m -6.642,-9.997 c 1.672,-0.607 2.956,-0.578 3.924,0.075 -5.159,2.354 -7.413,8.28 -8.385,13.36 l -6.331,1.961 c 1.413,-5.112 4.568,-13.136 10.792,-15.396 z m 4.43,34.505 c -0.36,-0.176 -0.789,-0.362 -1.273,-0.542 -0.479,-0.178 -1.012,-0.348 -1.592,-0.49 -0.574,-0.141 -1.191,-0.254 -1.842,-0.321 -0.643,-0.065 -1.32,-0.087 -2.02,-0.048 -0.644,0.04 -1.228,0.153 -1.741,0.336 -0.508,0.182 -0.949,0.432 -1.314,0.741 -0.362,0.309 -0.649,0.679 -0.85,1.103 -0.202,0.423 -0.32,0.901 -0.341,1.431 -0.019,0.391 0.043,0.766 0.181,1.132 0.138,0.366 0.352,0.726 0.647,1.082 0.295,0.356 0.669,0.716 1.122,1.079 0.455,0.366 0.994,0.74 1.615,1.128 0.871,0.557 1.762,1.187 2.607,1.907 0.859,0.734 1.67,1.56 2.37,2.499 0.705,0.952 1.295,2.019 1.691,3.214 0.399,1.205 0.602,2.535 0.537,3.999 -0.104,2.396 -0.628,4.461 -1.499,6.174 -0.856,1.692 -2.04,3.021 -3.465,3.983 -1.395,0.942 -3.008,1.528 -4.766,1.761 -1.705,0.229 -3.534,0.127 -5.421,-0.289 l -0.045,-0.01 -0.044,-0.009 -0.045,-0.01 -0.045,-0.01 c -0.883,-0.216 -1.738,-0.493 -2.539,-0.818 -0.79,-0.319 -1.533,-0.683 -2.208,-1.077 -0.667,-0.387 -1.27,-0.805 -1.792,-1.234 -0.516,-0.426 -0.956,-0.868 -1.3,-1.309 l 2.08,-6.906 c 0.35,0.296 0.781,0.635 1.269,0.977 0.495,0.349 1.049,0.705 1.644,1.037 0.603,0.336 1.245,0.648 1.907,0.902 0.669,0.256 1.359,0.454 2.041,0.552 0.603,0.09 1.144,0.073 1.615,-0.033 0.476,-0.107 0.882,-0.305 1.212,-0.574 0.334,-0.27 0.594,-0.612 0.773,-1.004 0.18,-0.396 0.285,-0.839 0.304,-1.314 0.022,-0.476 -0.023,-0.923 -0.142,-1.358 -0.121,-0.434 -0.315,-0.856 -0.595,-1.278 -0.28,-0.42 -0.644,-0.84 -1.104,-1.275 -0.455,-0.435 -1.001,-0.878 -1.648,-1.351 -0.794,-0.592 -1.541,-1.235 -2.209,-1.935 -0.661,-0.691 -1.247,-1.438 -1.727,-2.251 -0.474,-0.803 -0.848,-1.673 -1.092,-2.618 -0.24,-0.939 -0.351,-1.957 -0.304,-3.066 0.081,-1.853 0.452,-3.562 1.071,-5.099 0.627,-1.554 1.515,-2.95 2.629,-4.15 1.135,-1.224 2.517,-2.256 4.107,-3.052 1.639,-0.817 3.509,-1.392 5.586,-1.663 0.961,-0.127 1.886,-0.184 2.759,-0.188 0.886,-0.004 1.719,0.048 2.487,0.146 0.778,0.099 1.486,0.244 2.112,0.42 0.632,0.179 1.181,0.391 1.632,0.622 l -3.035,9.057 z m 4.951,-25.355 c -0.004,-0.311 -0.009,-0.624 -0.022,-0.945 -0.092,-2.46 -0.426,-4.533 -0.994,-6.21 0.617,0.062 1.182,0.266 1.695,0.629 1.433,1.014 2.464,3.054 3.188,5.329 l -3.867,1.197 z m 23.527,3.315 c 0,0 -0.066,-0.361 -0.269,-0.492 -0.205,-0.13 -0.428,-0.156 -0.428,-0.156 L 83.823,38.53 79.089,33.826 C 78.912,33.689 78.705,33.609 78.492,33.567 L 74.983,104 99.673,98.656 90.951,39.657 z"
     inkscape:connector-curvature="0"
     id="path4" />
</svg>
