<?xml version="1.0" encoding="UTF-8" standalone="no"?>
<!-- Created with Inkscape (http://www.inkscape.org/) -->

<svg
   xmlns:dc="http://purl.org/dc/elements/1.1/"
   xmlns:cc="http://creativecommons.org/ns#"
   xmlns:rdf="http://www.w3.org/1999/02/22-rdf-syntax-ns#"
   xmlns:svg="http://www.w3.org/2000/svg"
   xmlns="http://www.w3.org/2000/svg"
   xmlns:inkscape="http://www.inkscape.org/namespaces/inkscape"
   version="1.1"
   width="128"
   height="128"
   id="svg2">
  <metadata
     id="metadata10">
    <rdf:RDF>
      <cc:Work
         rdf:about="">
        <dc:format>image/svg+xml</dc:format>
        <dc:type
           rdf:resource="http://purl.org/dc/dcmitype/StillImage" />
      </cc:Work>
    </rdf:RDF>
  </metadata>
  <defs
     id="defs8" />
  <path
     d="M 104,65.548 72.459,97.086 c -0.413,0.41 -0.967,0.643 -1.546,0.643 -0.582,0 -1.142,-0.233 -1.549,-0.643 l -0.039,-0.039 c -0.41,-0.409 -0.643,-0.968 -0.643,-1.543 V 86.77 c 0,-0.575 0.233,-1.133 0.643,-1.543 L 90.55,63.998 69.325,42.773 c -0.41,-0.412 -0.643,-0.967 -0.643,-1.547 v -8.728 c 0,-0.579 0.233,-1.137 0.643,-1.548 l 0.039,-0.035 c 0.427,-0.432 0.986,-0.643 1.549,-0.643 0.557,0 1.117,0.211 1.546,0.643 l 31.538,31.536 M 24,65.548 55.537,97.086 c 0.413,0.41 0.968,0.643 1.549,0.643 0.582,0 1.139,-0.233 1.55,-0.643 l 0.038,-0.039 c 0.41,-0.409 0.64,-0.968 0.64,-1.543 V 86.77 c 0,-0.575 -0.23,-1.133 -0.64,-1.543 L 37.449,63.998 58.674,42.773 c 0.41,-0.412 0.64,-0.967 0.64,-1.547 v -8.728 c 0,-0.579 -0.23,-1.137 -0.64,-1.548 l -0.038,-0.035 c -0.428,-0.432 -0.992,-0.643 -1.55,-0.643 -0.561,0 -1.122,0.211 -1.546,0.643 L 24,62.451"
     inkscape:connector-curvature="0"
     id="path4" />
</svg>
