<?xml version="1.0" encoding="UTF-8" standalone="no"?>
<!-- Created with Inkscape (http://www.inkscape.org/) -->

<svg
   xmlns:dc="http://purl.org/dc/elements/1.1/"
   xmlns:cc="http://creativecommons.org/ns#"
   xmlns:rdf="http://www.w3.org/1999/02/22-rdf-syntax-ns#"
   xmlns:svg="http://www.w3.org/2000/svg"
   xmlns="http://www.w3.org/2000/svg"
   xmlns:inkscape="http://www.inkscape.org/namespaces/inkscape"
   version="1.1"
   width="128"
   height="128"
   id="svg2">
  <metadata
     id="metadata10">
    <rdf:RDF>
      <cc:Work
         rdf:about="">
        <dc:format>image/svg+xml</dc:format>
        <dc:type
           rdf:resource="http://purl.org/dc/dcmitype/StillImage" />
      </cc:Work>
    </rdf:RDF>
  </metadata>
  <defs
     id="defs8" />
  <path
     d="M 86.265,63.616 H 86.044 C 83.701,73.795 73.281,79.729 63.442,79.729 47.444,79.729 39.494,66.962 39.494,52.193 39.494,36.751 48.016,24 64.223,24 c 10.976,0 19.588,7.275 21.821,16.673 h 0.221 V 25.341 h 2.241 V 80.952 C 88.506,96.615 79.55,104 64.55,104 52.919,104 42.953,98.746 42.618,85.868 h 2.248 c 0.45,11.418 9.177,15.892 19.573,15.892 13.883,0 21.825,-6.596 21.825,-20.807 V 63.616 z M 64.223,26.241 c -14.886,0 -22.496,11.97 -22.496,25.952 0,14.209 7.61,25.303 21.588,25.303 14.779,0 22.843,-11.433 22.843,-25.303 C 86.265,38.984 78.667,26.241 64.223,26.241 z"
     inkscape:connector-curvature="0"
     id="path4" />
</svg>
