<?xml version="1.0" encoding="UTF-8" standalone="no"?>
<svg version="1.1" width="128" height="128" >
  <path
     d="m 65.1875,17.4375 c -0.302208,0.0032 -0.618458,0.0076 -0.9375,0.03125 -3.474604,0.0182 -5.471965,0.421514 -7.78125,1.09375 -12.720806,3.70303 -20.935774,14.062311 -22,27.71875 -0.172478,2.213318 -0.240188,2.415143 -1.15625,3.375 -0.803528,0.841944 -1.014901,1.286311 -1.125,2.5 -0.07375,0.813038 -0.300759,1.676741 -0.5,1.90625 -0.75467,0.869306 -1.070144,3.030422 -0.71875,4.9375 l 0.34375,1.78125 -1.90625,2.40625 c -3.167747,4.054558 -4.748212,6.919314 -6.25,11.1875 -0.721645,2.050972 -0.854416,2.854601 -0.96875,6.125 -0.132672,3.794897 0.159776,6.072325 1.09375,8.03125 0.899092,1.885767 3.759782,0.337999 6.40625,-3.46875 L 31.125,83 32,85.15625 c 1.035382,2.54254 2.450124,4.999731 4.03125,7 0.628065,0.794561 1.113996,1.497069 1.0625,1.53125 -0.0515,0.03418 -0.655227,0.296993 -1.34375,0.59375 -2.259187,0.973727 -4.68452,3.66015 -4.375,4.84375 0.06851,0.261966 -0.04165,0.715082 -0.25,1 -0.208342,0.28492 -0.375,1.17093 -0.375,1.96875 0,3.93778 3.68485,6.48383 11.25,7.75 5.601795,0.93757 11.578497,0.0418 16.21875,-2.4375 0.930062,-0.49693 2.079787,-1.25741 2.5625,-1.6875 0.799017,-0.71193 1.090039,-0.80659 3.28125,-0.875 2.309628,-0.0721 2.44818,-0.0322 3.21875,0.71875 1.814387,1.76832 6.329586,3.62505 10.34375,4.28125 3.15891,0.5164 4.998024,0.51466 8.40625,0 5.990675,-0.90461 9.950064,-2.8688 11.0625,-5.53125 0.490175,-1.17315 0.517399,-3.32396 0.0625,-4.15625 -0.182631,-0.334203 -0.288787,-0.914358 -0.25,-1.3125 0.126285,-1.29601 -1.970238,-3.428111 -4.5625,-4.625 l -1.6875,-0.78125 1.5,-2.09375 c 1.675806,-2.333222 3.345303,-5.467586 4.09375,-7.75 l 0.5,-1.53125 0.6875,1.375 c 1.491524,2.934823 3.81445,5.412983 5.40625,5.8125 0.94046,0.236043 1.42265,-0.40896 2.28125,-2.96875 0.63339,-1.888404 0.71875,-2.565334 0.71875,-6 0,-3.31966 -0.0861,-4.236693 -0.6875,-6.34375 -1.15208,-4.036761 -3.4925,-8.541798 -6.46875,-12.46875 C 97.47292,59.866215 97.453517,59.802465 97.75,58.625 98.47739,55.736305 97.855124,52.396115 96.0625,49.59375 95.236683,48.30279 95.042679,47.748718 94.875,45.875 94.452736,41.156115 93.139235,36.9143 90.9375,33.15625 86.805017,26.102718 80.300511,20.961341 72.4375,18.5625 c -3.320257,-0.701606 -5.134541,-1.1476 -7.25,-1.125 z m -8.8125,9.96875 c 0.459802,-0.0026 0.906611,0.04971 1.375,0.1875 3.747111,1.102383 6.220451,6.47354 5.46875,11.96875 -0.712318,5.207309 -4.062216,8.71582 -7.65625,8.0625 l -0.5,-0.09375 C 51.315389,46.428867 48.873299,41.057709 49.625,35.5625 c 0.657738,-4.808308 3.531391,-8.138016 6.75,-8.15625 z m 15.40625,2.1875 c 0.36151,-0.002 0.725488,0.04792 1.09375,0.15625 2.946096,0.866729 4.841011,5.054494 4.25,9.375 -0.560047,4.09415 -3.174257,6.857411 -6,6.34375 L 70.71875,45.375 c -2.946096,-0.866729 -4.841011,-5.054494 -4.25,-9.375 0.517135,-3.780443 2.781928,-6.391913 5.3125,-6.40625 z M 58.4375,33.875 c -0.545257,0.04232 -1.092119,0.288896 -1.5625,0.78125 -1.598061,1.672745 -1.172992,5.268706 0.71875,6.1875 2.29539,1.114848 4.144061,-1.286677 3.53125,-4.5625 -0.2989,-1.59774 -1.48793,-2.499354 -2.6875,-2.40625 z m 12.40625,0.84375 c -1.193439,0 -1.930815,0.969664 -2.25,2.90625 l -0.125,0.78125 0.71875,0 c 0.628902,0 0.78125,-0.05915 0.78125,-0.375 0,-0.206272 0.104417,-0.647989 0.25,-1 0.442249,-1.069347 1.130296,-0.747343 1.3125,0.625 0.09694,0.730152 0.09604,0.75 0.8125,0.75 l 0.78125,0 -0.15625,-0.8125 c -0.228625,-1.685118 -1.09404,-2.875 -2.125,-2.875 z m -6.40625,15.3125 c 0.232329,-0.0061 0.456995,-0.0047 0.6875,0 0.92206,0.01827 1.905197,0.129287 3.375,0.3125 1.886339,0.235128 4.382721,0.697718 5.59375,1.03125 3.365357,0.926851 9.204766,4.0949 10.03125,5.46875 0.362153,0.602089 0.374259,0.744425 0.09375,1.5625 -0.37489,1.093592 -1.333866,1.961606 -3.15625,2.96875 -1.610892,0.890265 -3.413868,1.299398 -3.125,0.71875 0.09727,-0.195613 0.399131,-0.850813 0.71875,-1.46875 0.319633,-0.617935 0.625,-1.203836 0.625,-1.3125 0,-0.108662 -0.809184,0.411797 -1.75,1.15625 -3.134595,2.480398 -6.236625,4.065194 -9.46875,4.8125 C 64.479903,66.109592 60.751299,65.583032 56.875,63.6875 55.032333,62.786425 51.993505,60.777904 50.5,59.46875 50.054765,59.07843 50.02342,59.049285 50.15625,59.5 c 0.07716,0.2621 0.425744,0.996059 0.75,1.59375 0.324241,0.597691 0.5625,1.124985 0.5625,1.1875 0,0.303015 -1.149494,0.01406 -2.40625,-0.5625 -2.689943,-1.234077 -4.148893,-2.84876 -3.96875,-4.40625 0.101325,-0.875833 1.417332,-1.870024 4.875,-3.71875 4.029499,-2.154466 6.399473,-2.782823 12.0625,-3.34375 0.972139,-0.09628 1.709289,-0.200366 2.40625,-0.21875 z"
     />
</svg>
