<?xml version="1.0" encoding="UTF-8" standalone="no"?>
<svg version="1.1" width="128" height="128">
  <path
     d="m 43.660397,110.54272 c -5.10758,-0.65558 -9.927569,-2.50915 -11.839245,-4.55291 -1.590814,-1.70069 -1.754351,-3.50897 -0.490127,-5.41934 0.485864,-0.734186 0.510792,-0.863686 0.221923,-1.152566 -0.7231,-0.7231 0.850425,-2.72404 3.034146,-3.858304 l 0.914557,-0.475039 1.669311,1.626083 c 0.918112,0.89435 2.672293,2.38566 3.89817,3.314016 5.262682,3.98548 10.03741,6.09105 15.86282,6.99527 1.25645,0.19501 2.362767,0.42065 2.458481,0.5014 0.287537,0.2426 -2.671461,1.67266 -4.642247,2.24356 -3.223833,0.93389 -7.522445,1.23545 -11.087789,0.77783 z m 33.614024,0.007 c -0.837631,-0.11316 -2.396754,-0.45409 -3.464715,-0.75761 -2.038125,-0.57925 -5.056958,-2.01956 -4.75928,-2.27071 0.09571,-0.0807 1.202031,-0.30639 2.458482,-0.50141 5.910304,-0.91738 10.539509,-2.98436 16.099019,-7.188336 1.136292,-0.85924 2.80068,-2.283 3.698637,-3.16391 l 1.632644,-1.601665 0.914557,0.484313 c 1.35682,0.718516 2.690411,1.940572 3.045752,2.791022 0.275529,0.65943 0.274118,0.79085 -0.01161,1.07657 -0.288869,0.28886 -0.263942,0.41836 0.221922,1.152546 1.264224,1.91037 1.100688,3.71865 -0.490125,5.41935 -1.595254,1.70546 -5.045085,3.22479 -9.402718,4.14105 -2.454022,0.516 -7.614397,0.73335 -9.94257,0.41879 z M 58.97575,106.09193 C 52.436461,105.13746 47.817291,103.25232 42.46378,99.353224 37.181987,95.506361 34.151174,91.785123 31.57674,85.986115 31.074393,84.854554 30.577137,83.902711 30.471719,83.87091 c -0.105417,-0.03179 -0.534332,0.451369 -0.953153,1.073712 -1.093468,1.624848 -3.651355,4.262535 -4.605741,4.749428 -1.784942,0.910606 -2.330792,0.428908 -2.935224,-2.590235 C 21.42722,84.354599 21.509025,81.478724 22.21699,78.688139 23.667479,72.97082 26.781446,66.730243 30.0254,63.03963 l 0.941868,-1.07155 -0.6525,-1.539249 c -0.487472,-1.149937 -0.675551,-1.979461 -0.743632,-3.279777 -0.08398,-1.604626 -0.04083,-1.833969 0.553203,-2.937149 0.354377,-0.658138 0.717455,-1.637188 0.806834,-2.175666 0.08939,-0.538476 0.349248,-1.347504 0.577478,-1.797839 0.415309,-0.819459 1.949853,-2.118357 2.502672,-2.118357 0.217589,0 0.293711,-0.380977 0.293711,-1.469908 0,-2.46465 0.618674,-6.945903 1.196652,-8.667651 1.923783,-5.730848 6.642152,-12.018775 11.456486,-15.267455 2.275478,-1.535476 4.854888,-2.782471 7.773691,-3.758131 6.212279,-2.076568 10.131632,-2.229406 16.302278,-0.635723 9.155187,2.364493 15.392108,7.487674 19.72291,16.20096 0.773187,1.555599 1.601195,3.426008 1.840013,4.156464 0.468915,1.434266 1.321199,5.866525 1.321199,6.870848 0,0.462013 0.381098,1.027814 1.518623,2.254637 1.732666,1.868681 2.471053,3.033714 3.205973,5.058406 0.982807,2.707585 0.873494,6.404941 -0.263288,8.905862 l -0.517385,1.138232 0.732821,0.877128 c 2.661453,3.185557 5.705363,9.390919 7.056763,14.386037 0.75606,2.794609 0.90227,4.823351 0.54451,7.555456 -0.38639,2.950709 -0.80622,4.119581 -1.54637,4.305346 -1.25792,0.315719 -3.41579,-1.390993 -5.852994,-4.629283 -0.673809,-0.89527 -1.264188,-1.588668 -1.311978,-1.540884 -0.0478,0.04778 -0.811122,1.547009 -1.696303,3.331613 -2.682191,5.407518 -5.029913,8.244652 -9.771476,11.808497 -5.488786,4.125456 -10.228357,6.085536 -17.146968,7.091246 -2.755722,0.40057 -7.150799,0.40066 -9.894441,1.9e-4 z m 8.861655,-1.64343 c 7.675045,-1.30075 14.153634,-4.533126 17.697624,-8.829678 4.671964,-5.664034 7.177995,-13.731235 6.44379,-20.743277 -0.137403,-1.312313 -0.448742,-3.030027 -0.691858,-3.817145 l -0.442031,-1.431125 -0.523344,0.342911 c -4.917607,3.222141 -10.291103,5.507536 -15.189073,6.460053 -4.456215,0.866607 -11.493904,0.904601 -16.559894,0.0894 -1.175692,-0.189186 -2.196229,-0.285364 -2.267875,-0.213726 -0.07165,0.07163 -0.203107,2.350336 -0.292164,5.063774 -0.180557,5.501502 -0.357289,6.330477 -1.578101,7.402366 -1.099347,0.965234 -2.111825,1.229083 -4.573434,1.191821 -4.017516,-0.06081 -7.622716,-1.430784 -8.959649,-3.40464 -1.320144,-1.949069 -1.378156,-3.302995 -0.485229,-11.325258 0.238112,-2.139245 0.404614,-3.90906 0.370002,-3.93292 -0.03458,-0.02386 -0.825963,-0.496028 -1.758575,-1.049258 l -1.695651,-1.005871 -0.227238,0.587462 c -0.852445,2.203688 -1.112875,3.905978 -1.121684,7.332025 -0.01004,3.895697 0.392141,6.358723 1.605305,9.831486 1.126562,3.224855 3.333191,6.990338 5.460401,9.31785 3.521744,3.85334 9.907362,6.90426 17.03794,8.14037 3.139779,0.5443 4.50875,0.54317 7.750738,-0.006 z M 52.486654,87.616437 c 1.208688,-0.505021 1.341213,-1.097209 1.520027,-6.792601 l 0.158211,-5.039325 -0.955307,-0.244269 c -3.112752,-0.795913 -5.38663,-1.490794 -7.664395,-2.342178 -1.416422,-0.529432 -2.618775,-0.919135 -2.671908,-0.866008 -0.38755,0.387549 -1.154679,10.855212 -0.876702,11.962774 0.204769,0.815853 1.151445,1.850375 2.180711,2.38306 2.162716,1.119302 6.660798,1.627364 8.309363,0.938547 z M 71.835256,74.8707 c 4.547356,-0.52081 8.074191,-1.602364 12.505595,-3.835008 1.737553,-0.875425 4.089295,-2.251763 5.226079,-3.05853 2.530547,-1.795908 5.991321,-5.218157 6.797235,-6.721579 0.793415,-1.480101 1.129046,-3.872625 0.824364,-5.876439 -0.222281,-1.461835 -1.599785,-4.647656 -2.073649,-4.795817 -0.119668,-0.03742 -0.392821,0.358166 -0.607015,0.87907 -0.685138,1.666186 -2.574577,4.30251 -4.329694,6.041189 -4.65758,4.613969 -11.580335,7.517079 -20.192228,8.467757 -3.345119,0.369272 -10.071799,0.311916 -13.1724,-0.112318 C 50.87187,65.04607 45.926539,63.309486 42.036741,60.670068 39.022814,58.62497 35.548101,54.610096 34.327361,51.762216 34.084264,51.195092 33.79586,50.73108 33.686458,50.73108 c -0.258572,0 -0.600324,0.904081 -0.893624,2.363999 -0.128994,0.64206 -0.453422,1.474252 -0.720956,1.849315 -1.048144,1.46942 -0.382018,4.479009 1.695312,7.65949 1.057444,1.618982 3.517275,4.077236 5.17935,5.176019 4.784627,3.16308 13.603201,5.997987 21.684038,6.970768 3.040731,0.366047 8.542062,0.424979 11.204678,0.120029 z M 68.887944,61.924744 c 3.391551,-0.643366 6.674611,-2.00891 9.963835,-4.144318 0.987212,-0.64091 1.794922,-1.088746 1.794922,-0.995197 0,0.09355 -0.274405,0.605355 -0.609804,1.137343 -0.335389,0.531991 -0.693357,1.105039 -0.795478,1.273444 -0.303136,0.499889 1.597309,0.134722 3.287661,-0.63172 1.912267,-0.867065 2.877257,-1.624001 3.270632,-2.56549 0.294274,-0.70429 0.286661,-0.812763 -0.09341,-1.33111 -0.867252,-1.182767 -6.923339,-3.909843 -10.454696,-4.707782 -1.270773,-0.287142 -3.929985,-0.687697 -5.909358,-0.890122 -3.084617,-0.315457 -4.052351,-0.331194 -6.772586,-0.110131 -5.94236,0.48291 -8.461016,1.061825 -12.689268,2.916634 -3.628225,1.591594 -4.993327,2.448998 -5.09963,3.203016 -0.189034,1.340862 1.343607,2.739485 4.166239,3.801919 1.318742,0.496376 2.545781,0.715504 2.545781,0.454635 0,-0.05382 -0.27838,-0.51888 -0.618621,-1.033441 -0.340242,-0.51456 -0.684941,-1.120185 -0.765986,-1.345832 -0.139377,-0.388033 -0.120588,-0.391012 0.346666,-0.05498 1.567173,1.127067 4.775978,2.871201 6.709544,3.64695 4.067495,1.631888 7.964235,2.089311 11.723554,1.37618 z M 58.247834,47.462237 c 2.628817,-1.341123 4.321054,-5.80283 3.73249,-9.840973 -0.863988,-5.92782 -5.251462,-8.811166 -8.695618,-5.714565 -1.859473,1.671824 -2.873317,4.283652 -2.873317,7.402138 0,2.961654 0.825346,5.262788 2.548237,7.1047 1.567441,1.675714 3.361692,2.031531 5.288208,1.0487 z m -0.907596,-5.063844 c -1.832982,-1.395412 -1.662352,-5.454462 0.262806,-6.251886 0.818609,-0.339083 1.498075,-0.0573 2.226267,0.923252 0.538309,0.724864 0.73274,2.651219 0.376533,3.730543 -0.473168,1.43371 -1.978676,2.2733 -2.865606,1.598091 z m 2.077865,-2.45207 c 0.837631,-0.837636 0.54761,-2.516503 -0.459927,-2.662355 -1.012916,-0.14663 -1.543917,1.745691 -0.720823,2.568786 0.524551,0.524549 0.733233,0.541086 1.18075,0.09357 z m 15.334696,7.337414 c 1.103359,-0.664279 2.165799,-2.10225 2.879938,-3.897874 0.427584,-1.075139 0.496603,-1.641707 0.496603,-4.077026 0,-3.112671 -0.293675,-4.244215 -1.621923,-6.249511 -1.613043,-2.43525 -4.395613,-3.096274 -6.569515,-1.560644 -4.393003,3.103189 -4.401849,12.510668 -0.01465,15.609999 1.604171,1.133272 3.145219,1.18913 4.829576,0.175056 z m -6.391665,-7.702941 c 0.380151,-2.282971 1.282664,-3.426673 2.704054,-3.426673 1.227887,0 2.271537,1.382007 2.543824,3.368533 l 0.134704,0.982797 -0.871189,0 c -0.853302,0 -0.87361,-0.01805 -0.98906,-0.878798 -0.217,-1.617805 -1.05556,-2.020552 -1.582281,-0.759938 -0.173382,0.414972 -0.315243,0.95345 -0.315243,1.196616 0,0.372347 -0.140361,0.44212 -0.889389,0.44212 l -0.889388,0 0.153968,-0.924657 z"
    />
</svg>
