<?xml version="1.0" encoding="UTF-8" standalone="no"?>
<svg version="1.1" width="128" height="128" >
  <path fill="#20B2ED"
     d="m 65.1875,17.4375 c -0.302208,0.0032 -0.618458,0.0076 -0.9375,0.03125 -3.474604,0.0182 -5.471965,0.421514 -7.78125,1.09375 -12.720806,3.70303 -20.935774,14.062311 -22,27.71875 -0.172478,2.213318 -0.240188,2.415143 -1.15625,3.375 -0.803528,0.841944 -1.014901,1.286311 -1.125,2.5 -0.07375,0.813038 -0.300759,1.676741 -0.5,1.90625 -0.75467,0.869306 -1.070144,3.030422 -0.71875,4.9375 l 0.34375,1.78125 -1.90625,2.40625 c -3.167747,4.054558 -4.748212,6.919314 -6.25,11.1875 -0.721645,2.050972 -0.854416,2.854601 -0.96875,6.125 -0.132672,3.794897 0.159776,6.072325 1.09375,8.03125 0.899092,1.885767 3.759782,0.337999 6.40625,-3.46875 L 31.125,83 32,85.15625 c 1.035382,2.54254 2.450124,4.999731 4.03125,7 0.628065,0.794561 1.113996,1.497069 1.0625,1.53125 -0.0515,0.03418 -0.655227,0.296993 -1.34375,0.59375 -2.259187,0.973727 -4.68452,3.66015 -4.375,4.84375 0.06851,0.261966 -0.04165,0.715082 -0.25,1 -0.208342,0.28492 -0.375,1.17093 -0.375,1.96875 0,3.93778 3.68485,6.48383 11.25,7.75 5.601795,0.93757 11.578497,0.0418 16.21875,-2.4375 0.930062,-0.49693 2.079787,-1.25741 2.5625,-1.6875 0.799017,-0.71193 1.090039,-0.80659 3.28125,-0.875 2.309628,-0.0721 2.44818,-0.0322 3.21875,0.71875 1.814387,1.76832 6.329586,3.62505 10.34375,4.28125 3.15891,0.5164 4.998024,0.51466 8.40625,0 5.990675,-0.90461 9.950064,-2.8688 11.0625,-5.53125 0.490175,-1.17315 0.517399,-3.32396 0.0625,-4.15625 -0.182631,-0.334203 -0.288787,-0.914358 -0.25,-1.3125 0.126285,-1.29601 -1.970238,-3.428111 -4.5625,-4.625 l -1.6875,-0.78125 1.5,-2.09375 c 1.675806,-2.333222 3.345303,-5.467586 4.09375,-7.75 l 0.5,-1.53125 0.6875,1.375 c 1.491524,2.934823 3.81445,5.412983 5.40625,5.8125 0.94046,0.236043 1.42265,-0.40896 2.28125,-2.96875 0.63339,-1.888404 0.71875,-2.565334 0.71875,-6 0,-3.31966 -0.0861,-4.236693 -0.6875,-6.34375 -1.15208,-4.036761 -3.4925,-8.541798 -6.46875,-12.46875 C 97.47292,59.866215 97.453517,59.802465 97.75,58.625 98.47739,55.736305 97.855124,52.396115 96.0625,49.59375 95.236683,48.30279 95.042679,47.748718 94.875,45.875 94.452736,41.156115 93.139235,36.9143 90.9375,33.15625 86.805017,26.102718 80.300511,20.961341 72.4375,18.5625 c -3.320257,-0.701606 -5.134541,-1.1476 -7.25,-1.125 z m -8.8125,13.875 c 0.373797,-0.0021 0.744222,0.04423 1.125,0.15625 3.046223,0.896185 5.048597,5.251406 4.4375,9.71875 -0.579081,4.233295 -3.296971,7.093618 -6.21875,6.5625 L 55.3125,47.65625 c -3.046223,-0.896185 -5.017347,-5.251406 -4.40625,-9.71875 0.53471,-3.908926 2.852174,-6.610176 5.46875,-6.625 z m 15.40625,0 c 0.373797,-0.0021 0.744222,0.04423 1.125,0.15625 3.046223,0.896185 5.017347,5.251406 4.40625,9.71875 -0.579081,4.233295 -3.296971,7.093618 -6.21875,6.5625 L 70.6875,47.65625 c -3.046223,-0.896185 -5.017347,-5.251406 -4.40625,-9.71875 0.53471,-3.908926 2.883424,-6.610176 5.5,-6.625 z m -13.71875,5.25 c -0.443268,0.0344 -0.898853,0.22474 -1.28125,0.625 -1.299148,1.359862 -0.944146,4.284314 0.59375,5.03125 1.866043,0.906318 3.373186,-1.024412 2.875,-3.6875 -0.242991,-1.298887 -1.212306,-2.044439 -2.1875,-1.96875 z m 12.75,0.0625 c -1.233999,0 -2.013717,0.997597 -2.34375,3 l -0.125,0.8125 0.75,0 c 0.650277,0 0.8125,-0.07967 0.8125,-0.40625 0,-0.213282 0.09947,-0.667276 0.25,-1.03125 0.457279,-1.10569 1.186604,-0.762734 1.375,0.65625 0.10023,0.754967 0.102948,0.78125 0.84375,0.78125 l 0.78125,0 L 73,39.59375 C 72.763605,37.851361 71.878499,36.625 70.8125,36.625 z m -6.375,13.6875 c 0.224268,-0.0059 0.464992,-0.0045 0.6875,0 0.89007,0.01764 1.831191,0.104394 3.25,0.28125 1.820894,0.226971 4.237237,0.67804 5.40625,1 3.248599,0.894694 8.85844,3.955065 9.65625,5.28125 0.349588,0.5812 0.364527,0.710308 0.09375,1.5 -0.361883,1.055651 -1.272092,1.902798 -3.03125,2.875 -1.555003,0.859378 -3.310096,1.248003 -3.03125,0.6875 0.0939,-0.188826 0.41022,-0.809752 0.71875,-1.40625 0.308544,-0.596496 0.59375,-1.176356 0.59375,-1.28125 0,-0.104892 -0.779325,0.406375 -1.6875,1.125 -3.025842,2.394342 -6.036261,3.934871 -9.15625,4.65625 C 64.479199,65.830853 60.898064,65.329768 57.15625,63.5 55.377513,62.630187 52.441689,60.669983 51,59.40625 c -0.429788,-0.376778 -0.471972,-0.403831 -0.34375,0.03125 0.07448,0.253007 0.405744,0.954296 0.71875,1.53125 0.312991,0.576955 0.5625,1.095904 0.5625,1.15625 0,0.292502 -1.130596,0.02531 -2.34375,-0.53125 -2.596617,-1.191261 -3.986393,-2.746547 -3.8125,-4.25 0.09781,-0.845447 1.349793,-1.809164 4.6875,-3.59375 3.889698,-2.079718 6.189698,-2.708534 11.65625,-3.25 0.938411,-0.09294 1.639719,-0.169754 2.3125,-0.1875 z"
     />
</svg>
