<?xml version="1.0" encoding="UTF-8" standalone="no"?>
<svg version="1.1" width="128" height="128" >
  <path fill="#ffffff"
     d="m 64.088201,17.968276 c -2.042387,0.02775 -4.093762,0.225817 -5.806391,0.587391 -13.880074,2.930371 -23.555515,14.33143 -24.501641,28.768667 -0.05929,0.904916 -0.110614,1.211323 -0.114782,1.28956 -1.381493,1.244258 -2.063086,2.841042 -2.106502,4.678875 -0.493164,0.597865 -0.560142,1.113176 -0.695424,1.620389 -0.174487,0.654233 -0.269032,1.334157 -0.324078,2.045743 -0.08742,1.130101 -0.0893,2.280257 0.135033,3.423072 -0.124401,0.171684 -0.202641,0.290962 -0.513123,0.661659 -2.769179,3.306277 -5.191174,7.310598 -6.542319,10.924127 -1.132456,3.02866 -1.480638,5.118155 -1.471855,8.783862 0.0076,3.163055 0.163143,4.182857 0.783189,5.961684 0.311413,0.89342 0.382323,1.385286 0.951974,2.187526 0.28483,0.40112 0.843064,0.871253 1.357081,1.073508 0.514018,0.202255 0.850489,0.209422 1.060006,0.229555 1.744159,0.167616 3.039157,-0.642379 4.213012,-1.613638 0.64985,-0.537697 1.274313,-1.193901 1.883704,-1.924212 0.768676,1.554152 1.704155,3.105397 2.727656,4.530343 -0.961212,0.585016 -1.808333,1.289017 -2.511609,2.059241 -0.937695,1.026964 -1.912042,2.072236 -1.681151,4.044226 -0.0554,-0.473052 0.01123,-0.399758 0,-0.357838 -0.01123,0.0419 -0.05085,0.13507 -0.04725,0.128282 -0.767794,1.451494 -0.792346,2.966682 -0.519873,4.395302 0.272465,1.42862 0.87322,2.82257 2.005229,3.94295 2.653217,2.62595 6.814308,4.00272 11.592539,4.44932 a 2.3768091,2.3768091 0 0 0 0.027,0.007 c 0.06963,0.007 0.132678,0.021 0.202554,0.027 5.117615,0.44317 9.894166,-0.13251 13.624777,-1.86344 1.96458,-0.91153 3.582078,-1.76781 4.807156,-2.76817 0.201394,-0.0226 0.625175,-0.0496 1.377326,-0.054 l 1.377332,-0.007 0.47937,0.35784 c 1.993717,1.50527 5.327389,3.08466 7.757609,3.71339 3.796812,0.98227 9.480189,0.98779 13.699049,0.14178 2.396321,-0.48053 4.568832,-1.32416 6.346525,-2.45759 1.777691,-1.13342 3.258483,-2.5455 3.855174,-4.53709 0.538466,-1.79724 0.689693,-3.494578 -0.290318,-5.347282 0.0029,0.0059 -0.02509,-0.06208 -0.0405,-0.108023 0.101325,-1.961329 -0.971815,-2.981719 -1.998478,-4.010466 -0.758359,-0.759899 -1.659968,-1.447069 -2.660144,-2.005229 1.026202,-1.458007 1.932552,-3.016639 2.693904,-4.64512 0.404915,0.499568 0.834104,0.991437 1.269302,1.438096 1.154586,1.184991 1.961886,2.145519 3.706636,2.444088 0.87238,0.149283 1.992,-0.148724 2.6669,-0.688666 0.67489,-0.539942 1.01941,-1.138101 1.30305,-1.728415 1.62836,-3.388946 2.06691,-8.076491 1.36384,-12.09891 -0.91704,-5.246608 -3.52028,-10.72586 -7.379527,-15.80555 -0.102006,-0.134268 -0.125237,-0.174424 -0.189044,-0.270065 0.25192,-0.980748 0.307473,-1.873956 0.317327,-2.876192 0.02605,-2.649947 -0.826312,-5.338095 -2.342816,-7.609079 -0.384884,-0.576373 -0.408291,-0.630988 -0.45236,-0.783188 -0.04403,-0.1522 -0.122493,-0.663174 -0.222798,-1.78918 C 94.586342,38.966681 91.364486,32.29807 85.774435,26.82642 81.335463,22.481464 75.935411,19.636764 69.813599,18.413897 68.16215,18.084009 66.130616,17.940542 64.088222,17.96829 z m 0.08777,4.820659 c 1.830295,-0.02258 3.62633,0.06792 4.705883,0.283568 5.273861,1.053482 9.757629,3.417593 13.570766,7.149969 4.883665,4.780227 7.49513,10.228426 8.074937,16.737274 0.102659,1.152421 0.155585,1.871993 0.391598,2.687146 0.236012,0.815154 0.645316,1.468646 1.066755,2.099755 0.975405,1.460677 1.554338,3.404665 1.539369,4.928686 -0.0073,0.730927 -0.23365,2.057773 -0.175544,1.870199 -0.137425,0.443632 -0.410176,1.361092 -0.114774,2.315807 0.295403,0.954715 0.680148,1.288103 1.127519,1.876951 3.480892,4.581687 5.74091,9.470255 6.48831,13.746305 0.43492,2.488305 0.0588,6.033092 -0.63465,8.209974 -0.12422,-0.110052 -0.18658,-0.128945 -0.324078,-0.270064 -0.662934,-0.680391 -1.711015,-2.076495 -1.897206,-2.41033 -0.309593,-0.555078 -0.531114,-0.974044 -0.776438,-1.370579 -0.122662,-0.198267 -0.239894,-0.391288 -0.465862,-0.648156 -0.225967,-0.256869 -0.580907,-0.712403 -1.525866,-0.891215 -0.94496,-0.178811 -2.003293,0.414135 -2.363068,0.816947 -0.359775,0.402809 -0.44958,0.658429 -0.546883,0.877711 -0.194607,0.438564 -0.298184,0.781589 -0.459111,1.235547 -0.947455,2.67259 -2.438431,5.336327 -4.19276,7.501054 l -0.715669,0.884462 a 2.3768091,2.3768091 0 0 0 0.978984,3.706642 l 1.512366,0.594144 c 0.796881,0.312646 1.762525,0.971346 2.376568,1.586629 0.614044,0.615291 0.528268,1.347499 0.634655,0.43886 -0.08571,0.732002 0.03361,1.04519 0.135034,1.424586 0.10139,0.379403 0.234097,0.73369 0.438852,1.120775 -0.131599,-0.248794 0.11958,1.160238 -0.06076,1.762168 -0.09408,0.31401 -0.678307,1.14589 -1.856696,1.89721 -1.17839,0.75132 -2.854867,1.42743 -4.726135,1.80268 -3.253208,0.65236 -9.09322,0.56034 -11.572287,-0.081 -1.056087,-0.27322 -5.33108,-2.33699 -6.089966,-2.90995 l -1.120768,-0.84395 A 2.3768091,2.3768091 0 0 0 66.1542,100.43938 l -2.180773,0.0135 c -0.886692,0.005 -1.51453,0.0203 -2.133511,0.10802 -0.618982,0.0878 -1.411614,0.3196 -2.025489,0.87771 -0.217955,0.19815 -2.077724,1.38481 -3.996965,2.2753 -2.639935,1.22488 -6.740022,1.8329 -11.221192,1.44484 -4.133326,-0.35792 -7.516497,-1.77142 -8.885142,-3.12599 -0.224632,-0.22233 -0.556327,-0.83527 -0.675158,-1.45836 -0.118839,-0.623086 0.0059,-1.205064 0.04725,-1.282805 0.204754,-0.387078 0.337461,-0.741365 0.438852,-1.120768 0.101397,-0.379396 0.220743,-0.692592 0.135033,-1.424594 0.09432,0.805532 -0.02407,0.253029 0.465861,-0.283567 0.489951,-0.536588 1.297867,-1.162107 2.065999,-1.532617 0.392999,-0.189566 0.75885,-0.367069 1.039746,-0.506372 0.140456,-0.06963 0.260652,-0.125788 0.357838,-0.175544 0.04857,-0.02487 0.08771,-0.04887 0.135033,-0.07426 0.04733,-0.02539 -0.03801,0.06222 0.310577,-0.189045 0.751659,-0.541886 0.971236,-1.402919 0.992485,-1.822943 0.02128,-0.420023 -0.04505,-0.622599 -0.08777,-0.776438 -0.08542,-0.307664 -0.155424,-0.415342 -0.209296,-0.519873 -0.107737,-0.209062 -0.18713,-0.319438 -0.276817,-0.452358 -0.179381,-0.265839 -0.386227,-0.539129 -0.627904,-0.837201 -1.657781,-2.044632 -3.55823,-5.457945 -4.186002,-7.372773 -0.13642,-0.416109 -0.267094,-0.766304 -0.472612,-1.147776 -0.102763,-0.190735 -0.173981,-0.373683 -0.533382,-0.735927 -0.179704,-0.181123 -0.422298,-0.484183 -1.154527,-0.668411 -0.73223,-0.184227 -2.017777,0.265438 -2.471091,0.83045 -0.271798,0.338761 -0.272488,0.375591 -0.459111,0.648156 -0.186631,0.272564 -0.417324,0.616495 -0.654914,0.972233 -0.865479,1.295894 -1.743403,2.270357 -2.410328,2.822179 -0.05393,0.04463 -0.07118,0.03703 -0.121525,0.07427 -0.50817,-1.449844 -0.451927,-1.256642 -0.459111,-4.253522 -0.0082,-3.439379 0.147573,-4.362274 1.17478,-7.10946 1.090272,-2.915838 3.313097,-6.659885 5.725377,-9.540044 0.529273,-0.63193 0.909248,-1.095197 1.235549,-1.654148 0.326294,-0.558951 0.715845,-1.537948 0.384841,-2.592623 -0.09992,-0.318391 -0.223957,-1.550155 -0.148535,-2.525107 0.03771,-0.487477 0.115743,-0.932007 0.182295,-1.181534 0.02656,-0.09957 0.06883,-0.12305 0.08777,-0.128282 0.499644,-0.547865 0.48852,-0.908451 0.580636,-1.255801 0.113321,-0.427303 0.173093,-0.842818 0.175544,-1.303063 0.0015,-0.295714 0.488762,-1.281908 0.594144,-1.37058 0.361653,-0.304309 1.097867,-1.133655 1.330071,-1.951219 0.232197,-0.817565 0.226224,-1.417025 0.297068,-2.498101 0.821359,-12.53334 8.82256,-21.911143 20.74099,-24.427373 1.22,-0.257566 3.084884,-0.396019 4.915179,-0.418601 z M 31.552127,53.346782 c -4.33e-4,0.03015 -0.0066,0.0575 -0.0066,0.08777 -1.61e-4,0.03022 -0.01739,0.115916 -0.0135,0.101274 0.0022,-0.0078 -0.03735,-0.06048 0.02025,-0.189045 z"
  />
</svg>
