<?xml version="1.0" encoding="UTF-8" standalone="no"?>
<!-- Created with Inkscape (http://www.inkscape.org/) -->

<svg
   xmlns:dc="http://purl.org/dc/elements/1.1/"
   xmlns:cc="http://creativecommons.org/ns#"
   xmlns:rdf="http://www.w3.org/1999/02/22-rdf-syntax-ns#"
   xmlns:svg="http://www.w3.org/2000/svg"
   xmlns="http://www.w3.org/2000/svg"
   xmlns:inkscape="http://www.inkscape.org/namespaces/inkscape"
   version="1.1"
   width="128"
   height="128"
   id="svg2">
  <metadata
     id="metadata10">
    <rdf:RDF>
      <cc:Work
         rdf:about="">
        <dc:format>image/svg+xml</dc:format>
        <dc:type
           rdf:resource="http://purl.org/dc/dcmitype/StillImage" />
      </cc:Work>
    </rdf:RDF>
  </metadata>
  <defs
     id="defs8" />
  <path
     d="m 63.642,24.002 c -22.088,0.197 -39.836,18.264 -39.639,40.355 0.196,22.088 18.263,39.837 40.353,39.642 22.09,-0.198 39.838,-18.267 39.641,-40.356 C 103.801,41.553 85.733,23.805 63.642,24.002 z M 85.659,49.07 C 83.661,54.397 74.068,59.682 67.529,60.369 63.356,66.835 58.961,73.458 57.202,76.097 L 58,76.771 c 3.502,2.948 6.806,5.735 11.435,5.693 5.702,-0.052 8.674,-4.453 8.799,-4.639 0.534,-0.808 1.626,-1.04 2.437,-0.507 0.813,0.533 1.045,1.614 0.518,2.429 -0.162,0.252 -4.082,6.176 -11.723,6.244 -5.935,0.053 -10.081,-3.441 -13.739,-6.522 -0.176,-0.15 -2.515,-2.116 -3.446,-2.746 -1.756,-1.238 -3.367,-2.067 -5.313,-2.05 -1.691,0.012 -2.776,1.552 -2.762,2.947 0.015,1.823 1.675,2.759 2.767,2.75 2.617,-0.023 3.769,-1.173 4.783,-2.575 0.875,0.612 1.923,1.439 2.729,2.218 -1.423,1.898 -3.369,3.834 -7.436,3.868 -2.876,0.028 -6.339,-2.363 -6.372,-6.231 -0.031,-3.394 2.63,-6.473 6.115,-6.505 2.902,-0.027 5.358,1.171 7.623,2.775 1.617,-2.432 5.203,-7.836 8.846,-13.45 l -8.682,0.078 c -0.975,0.009 -1.772,-0.774 -1.781,-1.748 -0.01,-0.975 0.773,-1.773 1.748,-1.781 l 11.005,-0.1 h 0.001 c 1.692,-0.025 2.802,-0.12 4.643,-0.711 h -10e-4 c 4.975,-1.508 10.937,-5.101 12.144,-8.318 0.287,-0.77 0.19,-1.595 -0.365,-2.087 -0.712,-0.631 -1.429,-0.682 -2.152,-0.339 -2.209,1.051 -5.491,4.535 -8.599,9.161 -2.153,0.782 -3.33,0.988 -4.874,1.052 l 1.023,-1.602 c 1.956,-3.089 6.626,-9.847 11.129,-11.876 1.944,-0.876 4.09,-0.556 5.836,0.997 1.577,1.4 2.121,3.742 1.323,5.874 z"
     inkscape:connector-curvature="0"
     id="path4"
     style="fill:#ffffff" />
</svg>
