<?xml version="1.0" encoding="UTF-8" standalone="no"?>
<!-- Created with Inkscape (http://www.inkscape.org/) -->

<svg
   xmlns:dc="http://purl.org/dc/elements/1.1/"
   xmlns:cc="http://creativecommons.org/ns#"
   xmlns:rdf="http://www.w3.org/1999/02/22-rdf-syntax-ns#"
   xmlns:svg="http://www.w3.org/2000/svg"
   xmlns="http://www.w3.org/2000/svg"
   xmlns:inkscape="http://www.inkscape.org/namespaces/inkscape"
   version="1.1"
   width="128"
   height="128"
   id="svg2">
  <metadata
     id="metadata10">
    <rdf:RDF>
      <cc:Work
         rdf:about="">
        <dc:format>image/svg+xml</dc:format>
        <dc:type
           rdf:resource="http://purl.org/dc/dcmitype/StillImage" />
      </cc:Work>
    </rdf:RDF>
  </metadata>
  <defs
     id="defs8" />
  <path
     d="m 44.204,64.105 c 1.816,0 3.288,1.472 3.288,3.288 0,1.816 -1.472,3.288 -3.288,3.288 -1.816,0 -3.288,-1.472 -3.288,-3.288 0,-1.816 1.472,-3.288 3.288,-3.288 z m 36.304,3.288 c 0,1.816 1.472,3.288 3.288,3.288 1.816,0 3.288,-1.472 3.288,-3.288 0,-1.816 -1.472,-3.288 -3.288,-3.288 -1.815,0 -3.288,1.472 -3.288,3.288 z M 44.204,57.685 c 5.353,0 9.708,4.355 9.708,9.708 0,5.353 -4.355,9.707 -9.708,9.707 -2.593,0 -5.031,-1.009 -6.864,-2.843 -1.834,-1.833 -2.843,-4.27 -2.843,-6.864 0,-2.593 1.01,-5.031 2.843,-6.864 1.833,-1.834 4.271,-2.844 6.864,-2.844 z m 0,16.439 c 3.712,0 6.732,-3.02 6.732,-6.732 0,-3.712 -3.02,-6.732 -6.732,-6.732 -1.798,0 -3.489,0.7 -4.761,1.972 -1.272,1.272 -1.972,2.962 -1.972,4.761 0,1.798 0.7,3.489 1.972,4.761 1.272,1.271 2.962,1.97 4.761,1.97 z M 83.797,57.685 c 5.353,0 9.708,4.355 9.708,9.708 0,5.353 -4.355,9.707 -9.708,9.707 -2.593,0 -5.031,-1.009 -6.864,-2.843 -1.834,-1.833 -2.843,-4.27 -2.843,-6.864 0,-2.593 1.01,-5.031 2.843,-6.864 1.833,-1.834 4.27,-2.844 6.864,-2.844 z m 0,16.439 c 3.712,0 6.732,-3.02 6.732,-6.732 0,-3.712 -3.02,-6.732 -6.732,-6.732 -1.798,0 -3.489,0.7 -4.761,1.972 -1.272,1.272 -1.972,2.962 -1.972,4.761 0,1.798 0.7,3.489 1.972,4.761 1.272,1.271 2.962,1.97 4.761,1.97 z M 104,67.393 c 0,11.14 -9.063,20.204 -20.204,20.204 -6.295,0 -11.924,-2.896 -15.632,-7.422 l -3.959,6.673 -4.587,-6.423 C 55.909,84.806 50.379,87.598 44.204,87.598 33.063,87.596 24,78.533 24,67.393 24,62.84 25.532,58.649 28.082,55.267 27.331,52.879 26.104,49.841 24.339,48.076 h 13.837 c 0,0 3.836,-7.672 25.482,-7.672 19.724,0 24.658,6.368 25.38,7.498 l 0.672,0.173 h 13.267 c -1.61,1.61 -2.775,4.282 -3.537,6.551 2.847,3.484 4.56,7.928 4.56,12.767 z m -43.559,0 c 0,-8.953 -7.284,-16.237 -16.237,-16.237 -8.953,0 -16.237,7.284 -16.237,16.237 0,8.954 7.284,16.237 16.237,16.237 8.953,-10e-4 16.237,-7.284 16.237,-16.237 z m 39.592,0 c 0,-8.953 -7.284,-16.237 -16.237,-16.237 -8.953,0 -16.237,7.284 -16.237,16.237 0,8.954 7.284,16.237 16.237,16.237 8.953,0 16.237,-7.284 16.237,-16.237 z"
     inkscape:connector-curvature="0"
     id="path4"
     style="fill:#000000" />
</svg>
