<?xml version="1.0" encoding="UTF-8" standalone="no"?>
<!-- Created with Inkscape (http://www.inkscape.org/) -->

<svg
   xmlns:dc="http://purl.org/dc/elements/1.1/"
   xmlns:cc="http://creativecommons.org/ns#"
   xmlns:rdf="http://www.w3.org/1999/02/22-rdf-syntax-ns#"
   xmlns:svg="http://www.w3.org/2000/svg"
   xmlns="http://www.w3.org/2000/svg"
   xmlns:inkscape="http://www.inkscape.org/namespaces/inkscape"
   version="1.1"
   width="128"
   height="128"
   id="svg2">
  <metadata
     id="metadata10">
    <rdf:RDF>
      <cc:Work
         rdf:about="">
        <dc:format>image/svg+xml</dc:format>
        <dc:type
           rdf:resource="http://purl.org/dc/dcmitype/StillImage" />
      </cc:Work>
    </rdf:RDF>
  </metadata>
  <defs
     id="defs8" />
  <path
     d="m 72.085,57.647 v 4.324 h -2.449 v 14.81 h -5.74 v -14.81 h -2.105 v -4.324 h 2.105 v -0.995 c 0,-1.913 0.651,-3.482 1.799,-4.439 1.301,-1.071 2.602,-1.416 5.511,-1.454 h 0.842 v 4.286 h -0.651 c -1.11,0 -1.76,0.689 -1.76,1.837 v 0.765 h 2.448 z M 98.26,76.781 v -10.18 c 0,-2.985 -0.842,-4.248 -2.794,-4.248 -2.105,0 -3.176,1.339 -3.176,3.98 V 76.78 H 86.55 V 66.333 c 0,-2.641 -0.995,-3.98 -2.947,-3.98 -2.105,0 -3.215,1.378 -3.215,3.98 V 76.78 h -5.74 V 57.647 h 5.434 v 2.028 c 1.11,-1.799 2.832,-2.679 5.281,-2.679 2.449,0 4.286,1.148 5.511,3.406 1.378,-2.219 3.483,-3.406 6.047,-3.406 1.99,0 3.674,0.651 4.975,1.913 1.722,1.645 2.105,3.023 2.105,7.424 V 76.78 H 98.26 v 0.001 z M 26.525,68.25 c 0.191,3.75 3.52,6.811 7.385,6.811 2.717,0 5.548,-1.913 6.544,-4.439 h 2.64 c -1.339,3.865 -5.166,6.62 -9.184,6.62 -5.51,0 -9.91,-4.362 -9.91,-9.872 0,-5.51 4.362,-9.911 9.834,-9.911 3.597,0 6.926,2.028 8.648,5.242 0.804,1.492 1.11,2.908 1.186,5.548 H 26.525 v 0.001 z m 7.385,-8.61 c -3.635,0 -6.658,2.641 -7.309,6.429 H 41.104 C 40.186,62.166 37.354,59.64 33.91,59.64 z m 25.638,17.117 h -2.87 l -5.013,-7.538 -4.974,7.538 h -2.87 l 6.429,-9.604 -6.429,-9.26 h 2.908 l 4.936,7.27 4.936,-7.27 h 2.946 l -6.467,9.26 6.468,9.604 z"
     inkscape:connector-curvature="0"
     id="path4" />
</svg>
