<?xml version="1.0" encoding="UTF-8" standalone="no"?>
<!-- Created with Inkscape (http://www.inkscape.org/) -->

<svg
   xmlns:dc="http://purl.org/dc/elements/1.1/"
   xmlns:cc="http://creativecommons.org/ns#"
   xmlns:rdf="http://www.w3.org/1999/02/22-rdf-syntax-ns#"
   xmlns:svg="http://www.w3.org/2000/svg"
   xmlns="http://www.w3.org/2000/svg"
   xmlns:inkscape="http://www.inkscape.org/namespaces/inkscape"
   version="1.1"
   width="128"
   height="128"
   id="svg2">
  <metadata
     id="metadata10">
    <rdf:RDF>
      <cc:Work
         rdf:about="">
        <dc:format>image/svg+xml</dc:format>
        <dc:type
           rdf:resource="http://purl.org/dc/dcmitype/StillImage" />
      </cc:Work>
    </rdf:RDF>
  </metadata>
  <defs
     id="defs8" />
  <path
     d="M 51.005,103.914 H 32.422 c -0.752,0 -1.128,-0.192 -1.128,-0.863 v -78.09 c 0,-0.581 0.376,-0.962 1.128,-0.962 h 18.456 c 0.755,0 1.257,0.292 1.257,0.962 v 4.808 c 0,0.674 -0.38,0.864 -1.129,0.864 h -8.287 c -1.006,0 -1.382,0.388 -1.382,1.058 v 64.625 c 0,0.671 0.376,0.964 1.256,0.964 h 8.286 c 0.755,0 1.257,0.285 1.257,0.859 v 4.912 c -0.001,0.574 -0.381,0.863 -1.131,0.863 m 42.56,-31.622 c 2.261,-0.674 3.141,-1.054 3.141,-2.013 v -3.933 c 0,-1.436 -1.004,-1.531 -2.887,-2.107 -5.023,-1.725 -8.413,-4.412 -8.413,-9.109 V 42.767 c 0,-10.164 -9.792,-18.75 -21.844,-18.75 H 61.68 c -0.756,0 -1.255,0.284 -1.255,0.955 v 4.699 c 0,0.67 0.374,0.958 1.127,0.958 h 1.507 c 7.154,0 12.178,5.709 12.178,11.369 v 14.761 c 0,4.607 3.264,8.439 8.413,10.74 0.378,0.191 0.499,0.478 0.499,0.669 0,0.194 -0.121,0.385 -0.499,0.482 -5.648,2.011 -8.413,7.57 -8.413,11.599 v 12.915 c 0,5.751 -5.023,4.183 -12.178,4.183 h -1.507 c -0.753,0 -1.127,0.291 -1.127,0.96 v 4.698 c 0,0.67 0.499,0.959 1.255,0.959 h 1.882 c 12.052,0 21.718,1.114 21.718,-9.046 V 81.304 C 85.279,76.6 88.669,73.729 93.565,72.292 M 69.442,54.031 c 0,-1.092 -0.985,-1.984 -2.187,-1.984 H 62.33 c -1.204,0 -2.186,0.892 -2.186,1.984 v 4.458 c 0,1.089 0.983,1.982 2.186,1.982 h 4.925 c 1.202,0 2.187,-0.893 2.187,-1.982 v -4.458 z"
     inkscape:connector-curvature="0"
     id="path4"
     style="fill:#000000" />
</svg>
