<?xml version="1.0" encoding="UTF-8" standalone="no"?>
<!-- Created with Inkscape (http://www.inkscape.org/) -->

<svg
   xmlns:dc="http://purl.org/dc/elements/1.1/"
   xmlns:cc="http://creativecommons.org/ns#"
   xmlns:rdf="http://www.w3.org/1999/02/22-rdf-syntax-ns#"
   xmlns:svg="http://www.w3.org/2000/svg"
   xmlns="http://www.w3.org/2000/svg"
   xmlns:inkscape="http://www.inkscape.org/namespaces/inkscape"
   version="1.1"
   width="128"
   height="128"
   id="svg2">
  <metadata
     id="metadata10">
    <rdf:RDF>
      <cc:Work
         rdf:about="">
        <dc:format>image/svg+xml</dc:format>
        <dc:type
           rdf:resource="http://purl.org/dc/dcmitype/StillImage" />
      </cc:Work>
    </rdf:RDF>
  </metadata>
  <defs
     id="defs8" />
  <path
     d="m 100.66,69.791 c 0.299,-1.889 0.456,-3.821 0.456,-5.794 0,-20.499 -16.617,-37.116 -37.117,-37.116 -1.967,0 -3.905,0.162 -5.792,0.457 C 54.788,25.224 50.753,24 46.43,24 34.043,24 24.001,34.041 24.001,46.429 c 0,4.323 1.225,8.354 3.339,11.779 -0.292,1.892 -0.453,3.818 -0.453,5.79 0,20.5 16.617,37.112 37.112,37.112 1.969,0 3.907,-0.152 5.794,-0.45 3.422,2.111 7.453,3.339 11.777,3.339 12.39,0 22.431,-10.043 22.431,-22.432 C 104,77.245 102.776,73.214 100.66,69.791 z M 81.621,80.878 c -1.571,2.26 -3.876,4.027 -6.891,5.297 -3.02,1.273 -6.589,1.907 -10.711,1.907 -4.94,0 -9.031,-0.864 -12.259,-2.61 -2.289,-1.25 -4.15,-2.927 -5.581,-5.019 -1.434,-2.092 -2.161,-4.141 -2.161,-6.139 0,-1.179 0.45,-2.204 1.324,-3.04 0.884,-0.842 2.023,-1.264 3.367,-1.264 1.101,0 2.047,0.332 2.817,0.988 0.764,0.657 1.405,1.612 1.93,2.872 0.628,1.46 1.311,2.681 2.037,3.654 0.722,0.962 1.738,1.765 3.053,2.394 1.301,0.63 3.033,0.945 5.2,0.945 2.965,0 5.363,-0.641 7.196,-1.907 1.844,-1.276 2.73,-2.83 2.73,-4.708 0,-1.497 -0.478,-2.687 -1.457,-3.614 -0.988,-0.939 -2.264,-1.654 -3.847,-2.153 -1.589,-0.504 -3.724,-1.039 -6.398,-1.603 -3.591,-0.783 -6.595,-1.696 -9.027,-2.743 -2.436,-1.052 -4.375,-2.49 -5.812,-4.306 -1.441,-1.834 -2.159,-4.113 -2.159,-6.812 0,-2.574 0.758,-4.876 2.276,-6.88 1.517,-2.009 3.713,-3.547 6.575,-4.618 2.852,-1.071 6.211,-1.606 10.058,-1.606 3.076,0 5.738,0.356 7.99,1.064 2.247,0.714 4.119,1.655 5.616,2.836 1.489,1.179 2.583,2.422 3.276,3.727 0.692,1.308 1.042,2.587 1.042,3.834 0,1.16 -0.45,2.212 -1.325,3.133 -0.876,0.924 -1.996,1.394 -3.305,1.389 -1.18,0 -2.105,-0.272 -2.747,-0.848 -0.625,-0.557 -1.281,-1.444 -1.991,-2.681 -0.897,-1.725 -1.972,-3.069 -3.222,-4.031 -1.217,-0.943 -3.225,-1.435 -6.019,-1.428 -2.585,0 -4.653,0.528 -6.214,1.561 -1.571,1.05 -2.322,2.268 -2.325,3.694 0.003,0.894 0.26,1.648 0.777,2.292 0.525,0.651 1.256,1.214 2.196,1.69 0.94,0.483 1.895,0.856 2.856,1.124 0.972,0.276 2.584,0.674 4.825,1.201 2.811,0.606 5.361,1.283 7.651,2.02 2.286,0.741 4.237,1.636 5.85,2.7 1.625,1.062 2.895,2.416 3.802,4.052 0.912,1.638 1.367,3.639 1.367,5.993 0.003,2.837 -0.787,5.387 -2.36,7.643 z"
     inkscape:connector-curvature="0"
     id="path4" />
</svg>
