<?xml version="1.0" encoding="UTF-8" standalone="no"?>
<!-- Created with Inkscape (http://www.inkscape.org/) -->

<svg
   xmlns:dc="http://purl.org/dc/elements/1.1/"
   xmlns:cc="http://creativecommons.org/ns#"
   xmlns:rdf="http://www.w3.org/1999/02/22-rdf-syntax-ns#"
   xmlns:svg="http://www.w3.org/2000/svg"
   xmlns="http://www.w3.org/2000/svg"
   xmlns:inkscape="http://www.inkscape.org/namespaces/inkscape"
   version="1.1"
   width="128"
   height="128"
   id="svg2">
  <metadata
     id="metadata10">
    <rdf:RDF>
      <cc:Work
         rdf:about="">
        <dc:format>image/svg+xml</dc:format>
        <dc:type
           rdf:resource="http://purl.org/dc/dcmitype/StillImage" />
      </cc:Work>
    </rdf:RDF>
  </metadata>
  <defs
     id="defs8" />
  <path
     d="M 80.388,24.001 47.611,24 c -7.614,0 -13.842,6.228 -13.842,13.842 v 52.316 c 0,7.614 6.228,13.843 13.842,13.843 l 14.362,-0.002 V 88.459 L 53.14,82.27 c -0.978,0.549 -2.095,0.763 -3.206,0.56 -1.269,-0.227 -2.369,-0.933 -3.105,-1.992 -0.736,-1.058 -1.014,-2.338 -0.784,-3.606 0.227,-1.267 0.936,-2.369 1.993,-3.104 1.06,-0.734 2.341,-1.011 3.609,-0.78 1.263,0.226 2.366,0.932 3.099,1.99 0.567,0.817 0.865,1.767 0.865,2.742 0,0.264 -0.029,0.533 -0.073,0.799 l 6.436,4.509 V 68.862 l -8.837,-6.188 c -0.973,0.551 -2.092,0.761 -3.203,0.559 -1.269,-0.227 -2.369,-0.935 -3.105,-1.991 -0.736,-1.06 -1.014,-2.34 -0.784,-3.61 0.473,-2.615 2.986,-4.359 5.601,-3.886 2.592,0.474 4.326,2.949 3.893,5.54 l 6.434,4.506 V 50.197 l -8.834,-6.193 c -0.974,0.553 -2.095,0.765 -3.206,0.564 -2.618,-0.471 -4.362,-2.986 -3.889,-5.602 0.473,-2.614 2.986,-4.357 5.601,-3.882 1.263,0.225 2.366,0.933 3.101,1.991 0.565,0.818 0.862,1.768 0.862,2.74 0,0.267 -0.028,0.535 -0.072,0.8 l 6.436,4.513 V 32.529 h 4.155 v 22.292 l 6.337,-4.443 c -0.208,-1.244 0.068,-2.5 0.788,-3.541 0.736,-1.056 1.839,-1.762 3.104,-1.991 2.615,-0.47 5.128,1.276 5.598,3.889 0.475,2.613 -1.269,5.125 -3.886,5.598 -1.116,0.201 -2.234,-0.013 -3.208,-0.564 l -8.733,6.121 v 13.596 l 6.332,-4.437 c -0.434,-2.591 1.301,-5.068 3.893,-5.537 2.617,-0.47 5.131,1.275 5.601,3.889 0.228,1.267 -0.049,2.547 -0.783,3.604 -0.734,1.059 -1.837,1.766 -3.103,1.993 -1.152,0.209 -2.283,-0.011 -3.227,-0.548 l -8.714,6.107 v 14.524 l 6.335,-4.441 c -0.045,-0.264 -0.071,-0.527 -0.071,-0.786 0,-2.286 1.635,-4.321 3.962,-4.741 1.269,-0.23 2.545,0.047 3.605,0.779 1.059,0.734 1.768,1.837 1.998,3.107 0.468,2.612 -1.274,5.123 -3.886,5.598 -1.118,0.203 -2.238,-0.011 -3.214,-0.564 l -8.729,6.117 v 5.848 l 14.26,-0.002 c 7.614,0 13.842,-6.228 13.842,-13.842 V 37.844 C 94.231,30.23 88.002,24.001 80.388,24.001 z"
     inkscape:connector-curvature="0"
     id="path4"
     style="fill:#ffffff" />
</svg>
