<?xml version="1.0" encoding="UTF-8" standalone="no"?>
<!-- Created with Inkscape (http://www.inkscape.org/) -->

<svg
   xmlns:dc="http://purl.org/dc/elements/1.1/"
   xmlns:cc="http://creativecommons.org/ns#"
   xmlns:rdf="http://www.w3.org/1999/02/22-rdf-syntax-ns#"
   xmlns:svg="http://www.w3.org/2000/svg"
   xmlns="http://www.w3.org/2000/svg"
   xmlns:inkscape="http://www.inkscape.org/namespaces/inkscape"
   version="1.1"
   width="128"
   height="128"
   id="svg2">
  <metadata
     id="metadata10">
    <rdf:RDF>
      <cc:Work
         rdf:about="">
        <dc:format>image/svg+xml</dc:format>
        <dc:type
           rdf:resource="http://purl.org/dc/dcmitype/StillImage" />
      </cc:Work>
    </rdf:RDF>
  </metadata>
  <defs
     id="defs8" />
  <path
     d="M 63.997,24.988 C 41.911,24.988 24,42.896 24,64.99 c 0,17.671 11.46,32.663 27.356,37.953 2,0.367 2.73,-0.868 2.73,-1.928 0,-0.95 -0.035,-3.465 -0.054,-6.803 -11.127,2.417 -13.474,-5.362 -13.474,-5.362 -1.819,-4.621 -4.441,-5.851 -4.441,-5.851 -3.632,-2.482 0.275,-2.432 0.275,-2.432 4.014,0.283 6.127,4.122 6.127,4.122 3.568,6.113 9.362,4.348 11.641,3.324 0.363,-2.585 1.397,-4.348 2.54,-5.347 -8.882,-1.009 -18.22,-4.441 -18.22,-19.769 0,-4.367 1.559,-7.937 4.117,-10.734 -0.411,-1.012 -1.784,-5.079 0.392,-10.586 0,0 3.358,-1.076 11,4.101 3.191,-0.887 6.612,-1.331 10.014,-1.346 3.397,0.015 6.819,0.459 10.014,1.346 7.637,-5.176 10.989,-4.101 10.989,-4.101 2.182,5.507 0.809,9.574 0.398,10.586 2.564,2.796 4.112,6.367 4.112,10.734 0,15.366 -9.352,18.748 -18.263,19.738 1.436,1.235 2.716,3.676 2.716,7.407 0,5.347 -0.049,9.662 -0.049,10.973 0,1.07 0.72,2.314 2.75,1.923 C 92.549,97.639 104,82.656 104,64.99 104,42.896 86.089,24.988 63.997,24.988 z"
     inkscape:connector-curvature="0"
     id="path4"
     style="fill-rule:evenodd" />
</svg>
