<?xml version="1.0" encoding="UTF-8" standalone="no"?>
<!-- Created with Inkscape (http://www.inkscape.org/) -->

<svg
   xmlns:dc="http://purl.org/dc/elements/1.1/"
   xmlns:cc="http://creativecommons.org/ns#"
   xmlns:rdf="http://www.w3.org/1999/02/22-rdf-syntax-ns#"
   xmlns:svg="http://www.w3.org/2000/svg"
   xmlns="http://www.w3.org/2000/svg"
   xmlns:inkscape="http://www.inkscape.org/namespaces/inkscape"
   version="1.1"
   width="128"
   height="128"
   id="svg2">
  <metadata
     id="metadata10">
    <rdf:RDF>
      <cc:Work
         rdf:about="">
        <dc:format>image/svg+xml</dc:format>
        <dc:type
           rdf:resource="http://purl.org/dc/dcmitype/StillImage" />
      </cc:Work>
    </rdf:RDF>
  </metadata>
  <defs
     id="defs8" />
  <path
     d="M 100.017,24.008 27.909,24 27.885,69.899 h 12.471 c 10.263,0.195 9.305,7.169 10.206,13.519 0.917,6.463 7.088,9.63 12.276,9.63 6.788,0 12.155,-5.813 12.155,-12.756 0,-5.343 -2.452,-9.191 -13.007,-13.689 -11.968,-5.066 -14.98,-12.195 -14.98,-19.129 0,-11.351 8.671,-18.942 18.748,-18.942 5.278,0 11.034,1.689 14.931,6.081 3.158,3.556 4.295,7.137 4.165,11.562 -0.057,1.941 -0.284,4.425 3.646,4.482 l 11.521,0.024 V 24.008 z m 0.098,33.095 -10.872,-0.049 c 0,0 -11.497,0.893 -10.847,-7.924 0.309,-4.246 -0.942,-7.494 -1.827,-8.858 -2.29,-3.54 -6.114,-5.31 -10.726,-5.31 -6.788,0 -11.773,5.651 -11.773,11.562 0,5.156 2.501,10.912 13.145,15.045 9.232,3.564 14.972,9.768 14.972,18.398 0,9.094 -6.91,19.706 -19.34,19.706 -6.406,0 -12.203,-1.526 -16.645,-7.884 C 43.945,88.566 43.076,84.392 42.922,80.227 42.8,77.028 41.956,76.322 39.764,76.322 L 27.918,76.363 27.926,104 h 72.157 V 57.5 l 0.032,-0.397 z"
     inkscape:connector-curvature="0"
     id="path4"
     style="fill:#ffffff" />
</svg>
