<?xml version="1.0" encoding="UTF-8" standalone="no"?>
<!-- Created with Inkscape (http://www.inkscape.org/) -->

<svg
   xmlns:dc="http://purl.org/dc/elements/1.1/"
   xmlns:cc="http://creativecommons.org/ns#"
   xmlns:rdf="http://www.w3.org/1999/02/22-rdf-syntax-ns#"
   xmlns:svg="http://www.w3.org/2000/svg"
   xmlns="http://www.w3.org/2000/svg"
   xmlns:inkscape="http://www.inkscape.org/namespaces/inkscape"
   version="1.1"
   width="128"
   height="128"
   id="svg2">
  <metadata
     id="metadata10">
    <rdf:RDF>
      <cc:Work
         rdf:about="">
        <dc:format>image/svg+xml</dc:format>
        <dc:type
           rdf:resource="http://purl.org/dc/dcmitype/StillImage" />
      </cc:Work>
    </rdf:RDF>
  </metadata>
  <defs
     id="defs8" />
  <path
     d="m 28.895,44.991 h 20.802 v 6.194 H 34.326 c -0.561,2.782 -1.001,5.679 -1.53,8.49 0.733,-0.25 1.189,-0.936 1.912,-1.375 1.952,-1.196 5.317,-1.84 8.49,-1.071 3.537,0.855 5.961,3.382 7.341,6.194 2.032,-5.023 6.458,-8.729 13.461,-7.878 6.268,0.762 9.584,5.092 12.849,8.721 3.867,-4.228 7.693,-9.611 15.755,-8.795 6.875,0.691 11.322,5.714 11.397,13.309 0.071,7.371 -4.218,13.04 -10.861,13.84 C 85.09,83.593 80.835,78.683 76.928,74.438 73.386,77.72 70.285,82.107 63.925,82.696 57.062,83.333 52.8,79.698 50.694,74.896 48.431,79.355 44.735,82.852 38.38,83.002 30.5,83.191 24.302,79.218 24,71.224 h 7.57 c 0.544,3.699 2.826,5.858 6.654,5.583 3.408,-0.243 5.949,-3.333 5.968,-7.111 0.02,-4.601 -3.091,-7.566 -7.65,-7.037 -2.129,0.248 -3.483,1.559 -4.666,2.985 h -6.653 c 1.086,-6.717 2.385,-13.883 3.672,-20.653 z M 56.658,69.16 c -0.01,3.838 2.463,6.351 6.272,6.118 3.221,-0.198 5.721,-2.203 7.571,-4.054 0.248,-0.247 1.929,-1.686 1.912,-1.988 -0.002,-0.029 -0.765,-0.767 -1.071,-1.069 -2.221,-2.213 -5.591,-5.773 -9.712,-5.277 -3.016,0.359 -4.964,3.001 -4.972,6.27 z m 35.179,6.118 c 7.378,-0.568 6.62,-13.131 -1.299,-12.466 -4.429,0.373 -6.76,4.202 -9.253,6.5 2.693,2.471 5.417,6.362 10.552,5.966 z"
     inkscape:connector-curvature="0"
     id="path4"
     style="fill-rule:evenodd" />
</svg>
