<?xml version="1.0" encoding="UTF-8" standalone="no"?>
<!-- Created with Inkscape (http://www.inkscape.org/) -->

<svg
   xmlns:dc="http://purl.org/dc/elements/1.1/"
   xmlns:cc="http://creativecommons.org/ns#"
   xmlns:rdf="http://www.w3.org/1999/02/22-rdf-syntax-ns#"
   xmlns:svg="http://www.w3.org/2000/svg"
   xmlns="http://www.w3.org/2000/svg"
   xmlns:inkscape="http://www.inkscape.org/namespaces/inkscape"
   version="1.1"
   width="128"
   height="128"
   id="svg2">
  <metadata
     id="metadata10">
    <rdf:RDF>
      <cc:Work
         rdf:about="">
        <dc:format>image/svg+xml</dc:format>
        <dc:type
           rdf:resource="http://purl.org/dc/dcmitype/StillImage" />
      </cc:Work>
    </rdf:RDF>
  </metadata>
  <defs
     id="defs8" />
  <path
     d="m 99.635,62.731 c 2.411,0 4.365,1.955 4.365,4.365 0,2.411 -1.955,4.365 -4.365,4.365 -2.411,0 -4.365,-1.955 -4.365,-4.365 -10e-4,-2.411 1.954,-4.365 4.365,-4.365 z M 92.461,77.47 84.584,66.703 89.892,61.601 89.966,61.54 c 0.656,-0.727 1.056,-1.69 1.056,-2.747 0,-2.265 -1.836,-4.101 -4.101,-4.101 -1.076,0 -2.005,0.339 -2.736,1.017 l -0.067,0.06 -7.527,7.062 -0.002,-0.001 V 48.061 c 0,-2.271 -1.841,-4.112 -4.112,-4.112 -2.271,0 -4.112,1.841 -4.112,4.112 v 31.878 c 0,2.271 1.841,4.112 4.112,4.112 2.271,0 4.112,-1.841 4.112,-4.112 v -5.736 h 0.033 l 2.072,-1.954 7.178,10.133 0.056,0.051 c 0.744,1.019 1.914,1.615 3.273,1.615 2.259,0 4.091,-1.832 4.091,-4.092 0,-0.9 -0.291,-1.731 -0.783,-2.406 l -0.048,-0.08 z m -44.366,0 -7.877,-10.767 5.308,-5.102 0.074,-0.061 c 0.656,-0.727 1.056,-1.69 1.056,-2.747 0,-2.265 -1.836,-4.101 -4.101,-4.101 -1.076,0 -2.005,0.339 -2.736,1.017 l -0.067,0.06 -7.527,7.062 -0.002,-0.001 V 48.061 c 0,-2.271 -1.841,-4.112 -4.112,-4.112 C 25.84,43.949 24,45.79 24,48.061 v 31.878 c 0,2.271 1.841,4.112 4.112,4.112 2.271,0 4.112,-1.841 4.112,-4.112 v -5.736 h 0.033 l 2.073,-1.954 7.178,10.133 0.056,0.051 c 0.744,1.019 1.914,1.615 3.273,1.615 2.259,0 4.091,-1.832 4.091,-4.092 0,-0.9 -0.291,-1.731 -0.783,-2.406 l -0.05,-0.08 z m 14.179,2.469 V 58.721 c 0,-2.271 -1.841,-4.112 -4.112,-4.112 -2.271,0 -4.112,1.841 -4.112,4.112 v 21.218 c 0,2.271 1.841,4.112 4.112,4.112 2.271,0 4.112,-1.841 4.112,-4.112 z"
     inkscape:connector-curvature="0"
     id="path4"
     style="fill:#ffffff;fill-rule:evenodd" />
</svg>
