<?xml version="1.0" encoding="UTF-8" standalone="no"?>
<!-- Created with Inkscape (http://www.inkscape.org/) -->

<svg
   xmlns:dc="http://purl.org/dc/elements/1.1/"
   xmlns:cc="http://creativecommons.org/ns#"
   xmlns:rdf="http://www.w3.org/1999/02/22-rdf-syntax-ns#"
   xmlns:svg="http://www.w3.org/2000/svg"
   xmlns="http://www.w3.org/2000/svg"
   xmlns:inkscape="http://www.inkscape.org/namespaces/inkscape"
   version="1.1"
   width="128"
   height="128"
   id="svg2">
  <metadata
     id="metadata10">
    <rdf:RDF>
      <cc:Work
         rdf:about="">
        <dc:format>image/svg+xml</dc:format>
        <dc:type
           rdf:resource="http://purl.org/dc/dcmitype/StillImage" />
      </cc:Work>
    </rdf:RDF>
  </metadata>
  <defs
     id="defs8" />
  <path
     d="M 56.028,51.264 70.7,30.007 C 73.473,26.003 77.054,24 81.445,24 c 3.581,0 6.68,1.271 9.299,3.812 2.618,2.542 3.927,5.584 3.927,9.126 0,2.619 -0.692,4.93 -2.079,6.932 L 79.364,63.105 95.538,83.61 c 1.617,2.041 2.425,4.43 2.425,7.162 0,3.621 -1.27,6.729 -3.811,9.328 -2.542,2.6 -5.624,3.899 -9.242,3.899 -3.967,0 -6.99,-1.289 -9.07,-3.87 L 56.028,75.408 V 89.04 c 0,3.889 -0.674,6.912 -2.021,9.068 -2.465,3.928 -6.046,5.892 -10.743,5.892 -4.275,0 -7.587,-1.444 -9.935,-4.332 -2.195,-2.657 -3.292,-6.181 -3.292,-10.57 V 38.556 c 0,-4.158 1.116,-7.585 3.35,-10.281 C 35.735,25.425 38.969,24 43.09,24 c 3.928,0 7.201,1.425 9.82,4.275 1.462,1.579 2.387,3.176 2.771,4.794 0.232,1.002 0.348,2.868 0.348,5.603 v 12.592 z"
     inkscape:connector-curvature="0"
     id="path4"
     style="fill:#ffffff" />
</svg>
