<?xml version="1.0" encoding="UTF-8" standalone="no"?>
<!-- Created with Inkscape (http://www.inkscape.org/) -->

<svg
   xmlns:dc="http://purl.org/dc/elements/1.1/"
   xmlns:cc="http://creativecommons.org/ns#"
   xmlns:rdf="http://www.w3.org/1999/02/22-rdf-syntax-ns#"
   xmlns:svg="http://www.w3.org/2000/svg"
   xmlns="http://www.w3.org/2000/svg"
   xmlns:inkscape="http://www.inkscape.org/namespaces/inkscape"
   version="1.1"
   width="128"
   height="128"
   id="svg2">
  <metadata
     id="metadata10">
    <rdf:RDF>
      <cc:Work
         rdf:about="">
        <dc:format>image/svg+xml</dc:format>
        <dc:type
           rdf:resource="http://purl.org/dc/dcmitype/StillImage" />
      </cc:Work>
    </rdf:RDF>
  </metadata>
  <defs
     id="defs8" />
  <path
     d="m 96.95,41.312 c 2.133,1.206 3.879,4.198 3.879,6.648 v 32.079 c 0,2.451 -1.745,5.442 -3.879,6.648 l -29.019,16.407 c -2.133,1.206 -5.625,1.208 -7.759,0.005 L 31.052,86.683 C 28.918,85.479 27.171,82.49 27.171,80.039 V 47.96 c 0,-2.45 1.747,-5.44 3.881,-6.643 L 60.171,24.901 c 2.135,-1.203 5.626,-1.201 7.759,0.005 l 4.228,2.39 c 2.335,1.32 2.493,5.438 0.353,9.197 L 68.636,43.3 c -1.772,3.33 -6.218,6.563 -9.933,7.221 L 57.75,50.69 c -3.714,0.658 -8.153,-0.242 -9.84,-0.289 -0.992,-0.028 -2.001,0.258 -2.869,0.883 -2.103,1.515 -2.581,4.449 -1.065,6.553 1.515,2.104 4.449,2.581 6.553,1.065 0.366,-0.263 0.682,-0.57 0.948,-0.907 0.449,-0.571 2.824,-0.896 5.131,-1.152 0.786,-0.087 1.427,-0.022 1.427,-0.022 l 6.303,-3.406 -7.237,5.496 c -0.331,0.305 -0.738,0.633 -1.224,0.98 -2.71,1.939 -7.209,4.688 -8.532,4.975 -0.777,0.169 -1.528,0.518 -2.188,1.054 -2.251,1.827 -2.596,5.133 -0.769,7.384 1.827,2.252 5.133,2.596 7.385,0.769 0.576,-0.467 1.027,-1.031 1.348,-1.65 0.547,-1.051 1.58,-2.767 2.814,-3.65 0.657,-0.47 2.003,-1.617 2.817,-2.2 1.35,-0.966 1.966,-0.922 2.339,0.304 l 3.145,-6.455 -2.94,10.499 -0.155,0.566 -0.99,3.244 c -0.546,1.791 -1.176,3.308 -1.398,3.405 l -0.395,0.192 c -2.906,1.544 -4.009,5.152 -2.465,8.058 1.545,2.906 5.152,4.009 8.058,2.465 2.906,-1.544 4.009,-5.152 2.465,-8.058 -0.105,-0.198 -0.22,-0.388 -0.344,-0.568 -0.208,-0.303 0.487,-3.451 1.588,-7.059 L 67.711,73 c 1.101,-3.608 4.505,-7.116 6.17,-5.258 1.665,1.857 2.038,3.749 1.887,4.911 -0.089,0.684 -0.045,1.396 0.153,2.101 0.786,2.812 3.703,4.453 6.514,3.666 2.811,-0.787 4.452,-3.703 3.666,-6.515 -0.237,-0.847 -0.667,-1.587 -1.23,-2.187 -0.957,-1.02 -3.85,-3.881 -6.007,-6.975 l -0.136,-0.195 c -2.157,-3.094 -2.391,-7.103 -0.69,-10.469 l 4.655,-8.098 c 2.571,-4.472 6.804,-6.883 9.455,-5.384 l 4.802,2.715 z"
     inkscape:connector-curvature="0"
     id="path4"
     style="fill:#ffffff" />
</svg>
