<?xml version="1.0" encoding="UTF-8" standalone="no"?>
<!-- Created with Inkscape (http://www.inkscape.org/) -->

<svg
   xmlns:dc="http://purl.org/dc/elements/1.1/"
   xmlns:cc="http://creativecommons.org/ns#"
   xmlns:rdf="http://www.w3.org/1999/02/22-rdf-syntax-ns#"
   xmlns:svg="http://www.w3.org/2000/svg"
   xmlns="http://www.w3.org/2000/svg"
   xmlns:inkscape="http://www.inkscape.org/namespaces/inkscape"
   version="1.1"
   width="128"
   height="128"
   id="svg2">
  <metadata
     id="metadata10">
    <rdf:RDF>
      <cc:Work
         rdf:about="">
        <dc:format>image/svg+xml</dc:format>
        <dc:type
           rdf:resource="http://purl.org/dc/dcmitype/StillImage" />
      </cc:Work>
    </rdf:RDF>
  </metadata>
  <defs
     id="defs8" />
  <path
     d="m 86.171,71.157 c -1.694,0 -3.73,0.245 -6.108,0.734 -2.377,0.489 -4.068,0.734 -5.081,0.734 -2.245,0 -3.367,-0.652 -3.367,-1.956 0,-0.747 0.755,-1.471 2.269,-2.173 1.515,-0.7 2.385,-1.05 2.614,-1.05 l 2.004,0.292 c 1.465,0.163 2.636,0.245 3.516,0.245 5.538,0 10.122,-1.783 13.755,-5.349 3.63,-3.566 5.447,-8.329 5.447,-14.29 0,-4.167 -1.009,-7.783 -3.032,-10.845 l 5.813,-4.25 -8.451,-7.671 -4.784,5.57 C 87.603,29.39 83.678,28.51 78.992,28.51 c -5.918,0 -10.914,1.787 -14.99,5.36 -4.075,-3.572 -9.07,-5.36 -14.988,-5.36 -4.69,0 -8.614,0.88 -11.774,2.638 l -4.788,-5.57 -8.452,7.671 5.815,4.25 c -2.02,3.062 -3.031,6.678 -3.031,10.845 0,5.961 1.815,10.723 5.447,14.29 3.632,3.567 8.215,5.349 13.753,5.349 0.879,0 2.052,-0.082 3.518,-0.245 l 2.002,-0.292 c 0.226,0 1.098,0.35 2.611,1.05 1.515,0.701 2.272,1.426 2.272,2.173 0,1.304 -1.124,1.956 -3.37,1.956 -1.009,0 -2.702,-0.245 -5.079,-0.734 C 45.56,71.403 43.524,71.157 41.83,71.157 29.944,71.157 24,75.931 24,85.472 c 0,5.276 2.378,9.417 7.132,12.431 4.755,3.012 10.488,4.518 17.195,4.518 5.598,0 10.823,-1.154 15.674,-3.46 4.851,2.306 10.075,3.46 15.673,3.46 6.709,0 12.441,-1.507 17.193,-4.518 4.757,-3.014 7.134,-7.156 7.134,-12.431 C 104,75.931 98.057,71.157 86.171,71.157 z M 79.624,38.525 c 2.671,0 4.846,0.912 6.525,2.736 1.676,1.824 2.516,4.054 2.516,6.692 0,3.192 -0.783,5.7 -2.349,7.523 -1.563,1.825 -3.791,2.736 -6.692,2.736 -2.9,0 -5.203,-0.937 -6.913,-2.81 -1.374,-1.506 -2.197,-3.408 -2.466,-5.705 0.044,-0.586 0.068,-1.183 0.068,-1.793 0,-0.534 -0.019,-1.058 -0.056,-1.574 0.285,-2.043 1.128,-3.766 2.53,-5.169 1.757,-1.756 4.037,-2.636 6.837,-2.636 z M 61.373,64.369 c 0.952,-0.619 1.828,-1.28 2.628,-1.982 0.8,0.702 1.675,1.363 2.628,1.982 -0.934,0.393 -1.81,0.897 -2.628,1.513 -0.819,-0.616 -1.695,-1.121 -2.628,-1.513 z m -6.084,-8.966 c -1.71,1.872 -4.014,2.81 -6.913,2.81 -2.898,0 -5.129,-0.912 -6.692,-2.736 -1.563,-1.823 -2.345,-4.331 -2.345,-7.523 0,-2.638 0.838,-4.868 2.516,-6.692 1.676,-1.824 3.85,-2.736 6.521,-2.736 2.801,0 5.081,0.88 6.84,2.637 1.404,1.405 2.246,3.132 2.529,5.18 -0.037,0.512 -0.055,1.033 -0.055,1.563 0,0.606 0.023,1.198 0.067,1.78 -0.267,2.302 -1.089,4.209 -2.468,5.717 z m 33.324,34.71 c -2.28,1.041 -5.177,1.562 -8.695,1.562 -5.242,0 -11.5,-2.697 -15.766,-6.606 l -0.062,0.102 c -4.268,3.898 -10.769,6.504 -16.006,6.504 -3.517,0 -6.416,-0.521 -8.696,-1.562 -2.279,-1.043 -3.419,-2.477 -3.419,-4.301 0,-3.093 2.525,-4.639 7.57,-4.639 1.37,0 3.405,0.162 6.108,0.486 2.703,0.327 4.739,0.49 6.107,0.49 3.463,0 6.211,-0.513 8.246,-1.537 2.036,1.024 4.783,1.537 8.247,1.537 1.369,0 3.402,-0.162 6.107,-0.49 2.703,-0.325 4.741,-0.486 6.107,-0.486 5.046,0 7.57,1.546 7.57,4.639 10e-4,1.824 -1.137,3.258 -3.418,4.301 z"
     inkscape:connector-curvature="0"
     id="path4"
     style="fill:#ffffff" />
</svg>
