<?xml version="1.0" encoding="UTF-8" standalone="no"?>
<!-- Created with Inkscape (http://www.inkscape.org/) -->

<svg
   xmlns:dc="http://purl.org/dc/elements/1.1/"
   xmlns:cc="http://creativecommons.org/ns#"
   xmlns:rdf="http://www.w3.org/1999/02/22-rdf-syntax-ns#"
   xmlns:svg="http://www.w3.org/2000/svg"
   xmlns="http://www.w3.org/2000/svg"
   xmlns:inkscape="http://www.inkscape.org/namespaces/inkscape"
   version="1.1"
   width="128"
   height="128"
   id="svg2">
  <metadata
     id="metadata10">
    <rdf:RDF>
      <cc:Work
         rdf:about="">
        <dc:format>image/svg+xml</dc:format>
        <dc:type
           rdf:resource="http://purl.org/dc/dcmitype/StillImage" />
      </cc:Work>
    </rdf:RDF>
  </metadata>
  <defs
     id="defs8" />
  <path
     d="M 57.076,24 H 52.548 L 49.495,35.744 46.314,24 h -4.712 l 2.871,8.333 c 1.436,4.171 2.332,7.315 2.736,9.463 v 12.111 h 4.479 V 41.796 L 57.076,24 z m 11.969,22.692 v -7.807 c 0,-2.382 -0.408,-4.123 -1.253,-5.25 -1.118,-1.522 -2.688,-2.284 -4.712,-2.284 -2.012,0 -3.585,0.762 -4.702,2.284 -0.858,1.127 -1.265,2.869 -1.265,5.25 v 7.807 c 0,2.368 0.406,4.123 1.265,5.242 1.117,1.519 2.691,2.282 4.702,2.282 2.024,0 3.593,-0.762 4.712,-2.282 0.845,-1.118 1.253,-2.874 1.253,-5.242 z m -4.04,0.76 c 0,2.062 -0.623,3.094 -1.925,3.094 -1.303,0 -1.928,-1.032 -1.928,-3.094 v -9.376 c 0,-2.062 0.625,-3.088 1.928,-3.088 1.302,0 1.925,1.027 1.925,3.088 v 9.376 z M 83.98,53.907 V 31.621 h -4.04 v 17.033 c -0.894,1.266 -1.743,1.892 -2.55,1.892 -0.543,0 -0.858,-0.32 -0.947,-0.946 -0.049,-0.131 -0.049,-0.623 -0.049,-1.572 V 31.621 h -4.026 v 17.623 c 0,1.572 0.135,2.641 0.358,3.314 0.403,1.13 1.301,1.658 2.601,1.658 1.472,0 3.006,-0.896 4.613,-2.741 v 2.432 h 4.04 z m 4.129,25.689 v 2.039 H 84.1 v -2.039 c 0,-2.039 0.675,-3.061 2.01,-3.061 1.323,0 1.999,1.021 1.999,3.061 z m -15.124,-0.05 v 9.412 c 0,1.992 -0.543,2.974 -1.696,2.974 -0.657,0 -1.219,-0.314 -1.948,-0.982 V 77.506 c 0.729,-0.657 1.292,-0.971 1.948,-0.971 1.153,0 1.696,1.021 1.696,3.011 z M 95.918,65.323 C 95.11,61.809 92.233,59.216 88.772,58.829 80.571,57.911 72.271,57.908 64.009,57.911 c -8.263,-0.003 -16.563,0 -24.762,0.918 -3.462,0.387 -6.338,2.98 -7.145,6.494 -1.153,5.011 -1.166,10.475 -1.166,15.634 0,5.156 0,10.623 1.152,15.631 0.808,3.517 3.682,6.11 7.145,6.497 8.199,0.915 16.499,0.921 24.762,0.915 8.262,0.006 16.562,0 24.762,-0.915 3.461,-0.387 6.339,-2.98 7.146,-6.497 1.153,-5.008 1.16,-10.475 1.16,-15.631 10e-4,-5.159 0.007,-10.623 -1.145,-15.634 z m -46.075,4.468 h -4.92 V 95.302 H 40.55 V 69.791 H 35.812 V 65.6 h 14.031 v 4.191 z M 61.869,95.302 H 57.86 v -2.445 c -1.64,1.822 -3.09,2.71 -4.56,2.71 -1.288,0 -2.168,-0.523 -2.567,-1.641 -0.22,-0.668 -0.344,-1.72 -0.344,-3.278 V 73.253 h 4.009 v 16.192 c 0,0.935 -0.012,1.425 0.025,1.553 0.096,0.62 0.389,0.935 0.923,0.935 0.801,0 1.603,-0.618 2.514,-1.87 v -16.81 h 4.009 v 22.049 z m 15.125,-6.658 c 0,2.04 -0.107,3.508 -0.373,4.443 -0.534,1.641 -1.581,2.479 -3.174,2.479 -1.42,0 -2.831,-0.79 -4.106,-2.443 v 2.178 H 65.332 V 65.6 h 4.009 v 9.731 c 1.276,-1.589 2.652,-2.393 4.121,-2.393 1.593,0 2.629,0.837 3.163,2.49 0.266,0.887 0.369,2.346 0.369,4.432 v 8.784 z M 92.118,84.915 H 84.1 v 3.957 c 0,2.042 0.69,3.06 2.062,3.06 0.984,0 1.569,-0.521 1.797,-1.59 0.036,-0.217 0.097,-1.054 0.097,-2.694 h 4.061 v 0.559 c 0,1.285 -0.04,2.173 -0.076,2.574 -0.135,0.885 -0.445,1.686 -0.929,2.396 -1.107,1.6 -2.744,2.39 -4.831,2.39 -2.092,0 -3.717,-0.754 -4.872,-2.259 C 80.56,92.206 80.09,90.464 80.09,88.122 v -7.727 c 0,-2.357 0.421,-4.079 1.271,-5.195 1.153,-1.511 2.764,-2.262 4.803,-2.262 2.005,0 3.597,0.751 4.715,2.262 0.836,1.116 1.237,2.838 1.237,5.195 v 4.52 z"
     inkscape:connector-curvature="0"
     id="path4"
     style="fill:#000000;fill-rule:evenodd" />
</svg>
