<?xml version="1.0" encoding="UTF-8" standalone="no"?>
<!-- Created with Inkscape (http://www.inkscape.org/) -->

<svg
   xmlns:dc="http://purl.org/dc/elements/1.1/"
   xmlns:cc="http://creativecommons.org/ns#"
   xmlns:rdf="http://www.w3.org/1999/02/22-rdf-syntax-ns#"
   xmlns:svg="http://www.w3.org/2000/svg"
   xmlns="http://www.w3.org/2000/svg"
   xmlns:inkscape="http://www.inkscape.org/namespaces/inkscape"
   version="1.1"
   width="128"
   height="128"
   id="svg2">
  <metadata
     id="metadata10">
    <rdf:RDF>
      <cc:Work
         rdf:about="">
        <dc:format>image/svg+xml</dc:format>
        <dc:type
           rdf:resource="http://purl.org/dc/dcmitype/StillImage" />
      </cc:Work>
    </rdf:RDF>
  </metadata>
  <defs
     id="defs8" />
  <path
     d="m 88.44,51.866 c -1.958,0.528 -19.868,14.417 -21.049,17.825 -0.26,1.177 0.026,12.593 0.286,14.304 1.18,0.262 9.7,0.034 11.263,0.295 l -0.187,3.529 C 77.221,87.7 66.395,87.728 60.218,87.728 c -3.14,0 -13.231,0.347 -16.331,0.256 l 0.586,-3.358 C 46.174,84.5 53.212,84.939 54.754,83.295 55.521,82.477 55.28,71.629 55.02,69.795 54.368,67.833 38.672,48.167 34.571,44.944 H 24 V 40 h 35.652 v 0.341 l 0.121,0.012 -0.121,0.836 v 3.756 H 48.901 c 4.792,7.007 11.662,15.467 14.592,19.532 l 14.36,-13.013 h -8.535 l -1.203,-4.939 h 31.267 l -0.231,0.352 0.11,0.005 -2.234,3.24 -0.071,0.011 -0.9,1.331 h -5.768 l -1.848,0.402 z m 10.202,30.963 -2.76,-0.136 -3.079,-0.375 0.025,5.279 2.429,0.209 2.618,0.194 0.767,-5.171 z M 104,57.593 C 103.068,57.56 94.599,56.758 93.499,56.541 l 0.13,22.304 4.793,0.388 C 98.421,79.232 104,57.593 104,57.593 z"
     inkscape:connector-curvature="0"
     id="path4"
     style="fill:#000000" />
</svg>
