<?xml version="1.0" encoding="UTF-8" standalone="no"?>
<!-- Created with Inkscape (http://www.inkscape.org/) -->

<svg
   xmlns:dc="http://purl.org/dc/elements/1.1/"
   xmlns:cc="http://creativecommons.org/ns#"
   xmlns:rdf="http://www.w3.org/1999/02/22-rdf-syntax-ns#"
   xmlns:svg="http://www.w3.org/2000/svg"
   xmlns="http://www.w3.org/2000/svg"
   xmlns:inkscape="http://www.inkscape.org/namespaces/inkscape"
   version="1.1"
   width="128"
   height="128"
   id="svg2">
  <metadata
     id="metadata10">
    <rdf:RDF>
      <cc:Work
         rdf:about="">
        <dc:format>image/svg+xml</dc:format>
        <dc:type
           rdf:resource="http://purl.org/dc/dcmitype/StillImage" />
      </cc:Work>
    </rdf:RDF>
  </metadata>
  <defs
     id="defs8" />
  <path
     d="M 64,24 C 41.944,24 24,41.943 24,63.999 24,86.055 41.944,104 64,104 86.055,104 104,86.055 104,63.999 104,41.943 86.055,24 64,24 z M 28.037,63.999 c 0,-5.214 1.119,-10.164 3.114,-14.636 L 48.306,96.365 C 36.309,90.536 28.037,78.233 28.037,63.999 z M 64,99.964 c -3.53,0 -6.937,-0.518 -10.16,-1.465 L 64.631,67.145 75.685,97.43 c 0.073,0.178 0.162,0.341 0.258,0.496 -3.739,1.315 -7.755,2.038 -11.943,2.038 z m 4.956,-52.827 c 2.165,-0.114 4.116,-0.342 4.116,-0.342 1.938,-0.229 1.709,-3.077 -0.229,-2.964 0,0 -5.825,0.457 -9.585,0.457 -3.534,0 -9.472,-0.457 -9.472,-0.457 -1.939,-0.113 -2.167,2.849 -0.228,2.964 0,0 1.834,0.228 3.772,0.342 L 62.933,62.489 55.062,86.092 41.966,47.137 c 2.167,-0.114 4.116,-0.342 4.116,-0.342 1.937,-0.229 1.708,-3.077 -0.23,-2.964 0,0 -5.824,0.457 -9.585,0.457 -0.675,0 -1.47,-0.017 -2.315,-0.044 6.43,-9.761 17.483,-16.208 30.048,-16.208 9.362,0 17.887,3.58 24.285,9.442 l -0.466,-0.029 c -3.533,0 -6.039,3.077 -6.039,6.383 0,2.964 1.71,5.471 3.533,8.435 1.368,2.395 2.965,5.472 2.965,9.918 0,3.078 -1.184,6.649 -2.736,11.626 L 81.954,85.796 68.956,47.137 z m 26.601,-0.391 c 2.807,5.122 4.405,11 4.405,17.253 0,13.268 -7.19,24.851 -17.882,31.085 L 93.064,63.325 c 2.052,-5.131 2.735,-9.233 2.735,-12.881 0,-1.324 -0.087,-2.553 -0.242,-3.698 z"
     inkscape:connector-curvature="0"
     id="path4"
     style="fill:#000000" />
</svg>
