<?xml version="1.0" encoding="UTF-8" standalone="no"?>
<!-- Created with Inkscape (http://www.inkscape.org/) -->

<svg
   xmlns:dc="http://purl.org/dc/elements/1.1/"
   xmlns:cc="http://creativecommons.org/ns#"
   xmlns:rdf="http://www.w3.org/1999/02/22-rdf-syntax-ns#"
   xmlns:svg="http://www.w3.org/2000/svg"
   xmlns="http://www.w3.org/2000/svg"
   xmlns:inkscape="http://www.inkscape.org/namespaces/inkscape"
   version="1.1"
   width="128"
   height="128"
   id="svg2">
  <metadata
     id="metadata10">
    <rdf:RDF>
      <cc:Work
         rdf:about="">
        <dc:format>image/svg+xml</dc:format>
        <dc:type
           rdf:resource="http://purl.org/dc/dcmitype/StillImage" />
      </cc:Work>
    </rdf:RDF>
  </metadata>
  <defs
     id="defs8" />
  <path
     d="M 45.207,42.913 52.8,68.728 60.393,42.913 H 80.98 v 2.565 l -7.75,13.353 c 2.723,0.874 4.783,2.462 6.178,4.766 1.396,2.305 2.095,5.009 2.095,8.116 0,3.841 -1.022,7.071 -3.064,9.688 -2.042,2.618 -4.687,3.926 -7.933,3.926 -2.444,0 -4.574,-0.777 -6.388,-2.33 -1.816,-1.553 -3.16,-3.656 -4.032,-6.31 l 4.293,-1.779 c 0.629,1.606 1.458,2.872 2.488,3.796 1.03,0.925 2.243,1.387 3.639,1.387 1.466,0 2.706,-0.82 3.718,-2.46 1.013,-1.641 1.519,-3.613 1.519,-5.918 0,-2.548 -0.541,-4.521 -1.623,-5.917 -1.258,-1.64 -3.231,-2.461 -5.918,-2.461 h -2.094 v -2.513 l 7.331,-12.673 h -8.85 l -0.503,0.858 -10.762,36.32 H 52.8 L 44.945,59.041 37.091,85.327 H 36.567 L 24,42.913 h 5.498 l 7.593,25.815 5.132,-17.384 -2.513,-8.431 h 5.497 z m 57.605,-0.24 -3.107,6.191 c 0,0 -1.333,-2.461 -2.65,-3.587 -1.255,-1.072 -2.88,-2.063 -4.935,-1.85 -1.987,0.205 -4.228,1.953 -5.735,4.866 -1.713,3.313 -2.295,6.671 -2.307,10.373 -0.017,5.187 1.896,8.728 1.896,8.728 0,0 -0.439,-1.646 -0.366,-4.432 0.046,-1.738 0.059,-3.63 1.371,-7.539 1.097,-3.267 3.61,-5.918 5.826,-6.375 1.726,-0.356 2.829,-0.097 4.524,1.097 2.011,1.416 3.222,3.975 3.222,3.975 l 3.153,-6.032 -0.892,-5.415 z m 0.388,30.638 c 0,0 -1.393,2.49 -2.262,3.45 -0.868,0.959 -2.422,2.651 -4.341,3.496 -1.919,0.845 -2.924,1.005 -4.821,0.822 -1.895,-0.182 -3.655,-1.279 -4.272,-1.736 -0.617,-0.457 -2.194,-1.805 -3.085,-3.061 -0.891,-1.257 -2.285,-3.77 -2.285,-3.77 0,0 0.777,2.518 1.262,3.587 0.28,0.615 1.14,2.497 2.359,4.135 1.138,1.528 3.348,4.158 6.706,4.752 3.358,0.594 5.666,-0.914 6.237,-1.279 0.571,-0.366 1.775,-1.373 2.536,-2.188 0.795,-0.85 1.548,-1.936 1.964,-2.587 0.304,-0.475 0.8,-1.44 0.8,-1.44 L 103.2,73.311 z"
     inkscape:connector-curvature="0"
     id="path4"
     style="fill:#000000" />
</svg>
