<?xml version="1.0" encoding="UTF-8" standalone="no"?>
<!-- Created with Inkscape (http://www.inkscape.org/) -->

<svg
   xmlns:dc="http://purl.org/dc/elements/1.1/"
   xmlns:cc="http://creativecommons.org/ns#"
   xmlns:rdf="http://www.w3.org/1999/02/22-rdf-syntax-ns#"
   xmlns:svg="http://www.w3.org/2000/svg"
   xmlns="http://www.w3.org/2000/svg"
   xmlns:inkscape="http://www.inkscape.org/namespaces/inkscape"
   version="1.1"
   width="128"
   height="128"
   id="svg2">
  <metadata
     id="metadata10">
    <rdf:RDF>
      <cc:Work
         rdf:about="">
        <dc:format>image/svg+xml</dc:format>
        <dc:type
           rdf:resource="http://purl.org/dc/dcmitype/StillImage" />
      </cc:Work>
    </rdf:RDF>
  </metadata>
  <defs
     id="defs8" />
  <path
     d="m 36.082,87.198 h 2.459 c 6.106,0 11.311,0.167 16.951,3.069 4.333,2.228 7.915,5.796 12.136,8.279 4.003,2.353 8.572,4.823 13.26,5.378 C 90.324,105.04 94.116,93.631 92.546,86.232 88.342,89.62 82.479,89.533 77.105,88.061 72.047,86.375 64,81.135 64,81.135 v 0.003 c -3.61,-2.255 -7.848,-4.119 -12.104,-3.926 0,-1.923 0.056,-1.996 1.224,-3.353 l 4.823,-5.588 C 63,62.405 68.058,56.543 73.116,50.68 c 4.305,-4.989 8.608,-9.978 12.912,-14.968 0.412,-0.476 1.93,-1.703 2.006,-2.362 0.261,-2.266 0.524,-4.532 0.786,-6.796 0.183,-1.572 -1.447,-1.195 -1.447,-1.195 L 87.37,25.351 c -6.98,1.42 -14.152,2.16 -21.268,1.834 -3.958,-0.18 -8.124,-0.558 -11.84,-2.036 -0.133,-0.054 -0.92,-0.456 -1.659,-0.86 -1.07,-0.554 -1.788,-0.196 -2.167,0.126 -0.3,0.374 -0.618,0.734 -0.901,1.119 -1.87,2.553 -3.61,5.553 -3.927,8.758 -0.072,0.715 -0.16,2.222 0.233,3.13 l -0.004,0.001 c 0,0 0.044,0.11 0.162,0.286 l 0.057,0.084 c 0.891,1.23 4.991,4.932 21.005,1.723 C 56.64,51.814 46.219,64.112 35.799,76.412 l -0.002,0.003 c -0.58,0.685 -0.676,1.805 -0.676,1.805 v 6.545 l -0.011,1.076 c 0.204,1.099 0.692,1.32 0.972,1.357 z"
     inkscape:connector-curvature="0"
     id="path4"
     style="fill:#000000" />
</svg>
