<?xml version="1.0" encoding="UTF-8" standalone="no"?>
<!-- Created with Inkscape (http://www.inkscape.org/) -->

<svg
   xmlns:dc="http://purl.org/dc/elements/1.1/"
   xmlns:cc="http://creativecommons.org/ns#"
   xmlns:rdf="http://www.w3.org/1999/02/22-rdf-syntax-ns#"
   xmlns:svg="http://www.w3.org/2000/svg"
   xmlns="http://www.w3.org/2000/svg"
   xmlns:inkscape="http://www.inkscape.org/namespaces/inkscape"
   version="1.1"
   width="128"
   height="128"
   id="svg2">
  <metadata
     id="metadata10">
    <rdf:RDF>
      <cc:Work
         rdf:about="">
        <dc:format>image/svg+xml</dc:format>
        <dc:type
           rdf:resource="http://purl.org/dc/dcmitype/StillImage" />
      </cc:Work>
    </rdf:RDF>
  </metadata>
  <defs
     id="defs8" />
  <path
     d="m 92.333,59.581 c 0.171,1.37 0.27,2.763 0.27,4.182 V 64 c 0,18.216 -14.668,33 -34.42,33 C 38.547,97 24,82.452 24,64.237 V 64 c 0,-18.216 14.666,-33 34.42,-33 3.414,0 6.656,0.473 9.711,1.3 V 51.613 C 67.554,51.325 66.946,51.061 66.289,50.839 57.754,47.955 48.654,52.034 44.333,59.023 L 44.2,59.237 c -4.389,7.099 -2.176,15.126 6.113,17.926 8.535,2.883 17.635,-1.193 21.96,-8.186 l 0.131,-0.213 c 1.495,-2.417 2.205,-4.939 2.188,-7.33 h 0.013 V 34.73 c 0.468,0.233 0.937,0.465 1.39,0.718 0.414,0.212 0.824,0.446 1.225,0.699 4.329,2.733 15.498,9.992 24.75,9.722 4.894,0.384 0.651,11.03 -9.637,13.712 z"
     inkscape:connector-curvature="0"
     id="path4"
     style="fill:#ffffff" />
</svg>
