<?xml version="1.0" encoding="UTF-8" standalone="no"?>
<!-- Created with Inkscape (http://www.inkscape.org/) -->

<svg
   xmlns:dc="http://purl.org/dc/elements/1.1/"
   xmlns:cc="http://creativecommons.org/ns#"
   xmlns:rdf="http://www.w3.org/1999/02/22-rdf-syntax-ns#"
   xmlns:svg="http://www.w3.org/2000/svg"
   xmlns="http://www.w3.org/2000/svg"
   xmlns:inkscape="http://www.inkscape.org/namespaces/inkscape"
   version="1.1"
   width="128"
   height="128"
   id="svg2">
  <metadata
     id="metadata10">
    <rdf:RDF>
      <cc:Work
         rdf:about="">
        <dc:format>image/svg+xml</dc:format>
        <dc:type
           rdf:resource="http://purl.org/dc/dcmitype/StillImage" />
      </cc:Work>
    </rdf:RDF>
  </metadata>
  <defs
     id="defs8" />
  <path
     d="m 103.693,62.202 c -0.53,-0.596 -7.853,-9.763 -9.143,-11.318 -1.291,-1.555 -1.919,-1.274 -2.714,-1.158 -0.795,0.116 -10.06,1.671 -11.136,1.853 -1.076,0.182 -1.754,0.612 -1.092,1.539 0.589,0.824 6.68,9.46 8.022,11.362 l -24.218,5.802 -19.26,-32.2 c -0.767,-1.137 -0.926,-1.534 -2.671,-1.455 -1.745,0.079 -15.109,1.19 -16.061,1.269 -0.952,0.079 -1.997,0.503 -1.045,2.75 0.952,2.247 16.129,34.953 16.552,35.904 0.423,0.952 1.523,2.496 4.098,1.877 2.638,-0.634 11.788,-3.022 16.787,-4.331 2.642,4.784 8.029,14.488 9.026,15.878 1.33,1.856 2.246,1.549 4.288,0.931 1.594,-0.483 24.949,-8.882 26.001,-9.315 1.052,-0.433 1.702,-0.743 0.99,-1.795 -0.523,-0.773 -6.684,-9.027 -9.911,-13.345 2.21,-0.588 10.069,-2.681 10.907,-2.908 0.977,-0.264 1.11,-0.744 0.58,-1.34 z m -44.027,9.002 c -0.29,0.062 -13.854,3.308 -14.577,3.474 -0.724,0.166 -0.724,0.083 -0.806,-0.166 C 44.2,74.264 28.156,41.18 27.933,40.767 c -0.223,-0.414 -0.211,-0.741 0,-0.741 0.211,0 12.81,-1.126 13.256,-1.15 0.446,-0.023 0.399,0.07 0.563,0.352 l 18.081,31.211 c 0.309,0.538 0.123,0.703 -0.167,0.765 z m 38.244,7.168 c 0.216,0.34 0.433,0.557 -0.248,0.805 -0.681,0.247 -22.957,7.766 -23.39,7.951 -0.433,0.186 -0.773,0.247 -1.33,-0.557 L 65.138,73.224 88.752,67.08 c 0.588,-0.186 0.774,-0.309 1.145,0.278 0.371,0.588 7.797,10.674 8.013,11.014 z m 1.514,-16.765 c -0.53,0.116 -9.2,2.267 -9.2,2.267 l -7.091,-9.73 c -0.199,-0.281 -0.364,-0.563 0.132,-0.629 0.496,-0.066 8.555,-1.522 8.919,-1.605 0.364,-0.083 0.679,-0.182 1.125,0.43 0.447,0.612 6.578,8.373 6.81,8.67 0.232,0.299 -0.165,0.481 -0.695,0.597 z"
     inkscape:connector-curvature="0"
     id="path4"
     style="fill:#ffffff" />
</svg>
