<?xml version="1.0" encoding="UTF-8" standalone="no"?>
<!-- Created with Inkscape (http://www.inkscape.org/) -->

<svg
   xmlns:dc="http://purl.org/dc/elements/1.1/"
   xmlns:cc="http://creativecommons.org/ns#"
   xmlns:rdf="http://www.w3.org/1999/02/22-rdf-syntax-ns#"
   xmlns:svg="http://www.w3.org/2000/svg"
   xmlns="http://www.w3.org/2000/svg"
   xmlns:inkscape="http://www.inkscape.org/namespaces/inkscape"
   version="1.1"
   width="128"
   height="128"
   id="svg2">
  <metadata
     id="metadata10">
    <rdf:RDF>
      <cc:Work
         rdf:about="">
        <dc:format>image/svg+xml</dc:format>
        <dc:type
           rdf:resource="http://purl.org/dc/dcmitype/StillImage" />
      </cc:Work>
    </rdf:RDF>
  </metadata>
  <defs
     id="defs8" />
  <path
     d="m 103.999,59.037 h -6.37 v 10.629 c 0,0.481 -0.185,0.888 -0.481,1.223 -0.297,0.296 -0.704,0.444 -1.184,0.48 H 92.26 c -0.519,-0.037 -0.926,-0.185 -1.222,-0.48 -0.297,-0.333 -0.481,-0.741 -0.481,-1.223 V 59.037 h -6.37 v 11.185 c 0.037,1.482 0.297,2.777 0.926,3.814 0.629,1.038 1.444,1.815 2.518,2.333 1.111,0.519 2.37,0.816 3.814,0.816 h 6.186 v -0.074 c 1.334,0 2.481,-0.297 3.444,-0.852 0.926,-0.593 1.667,-1.407 2.149,-2.446 C 103.74,72.777 104,71.554 104,70.22 l -0.001,-11.183 z m -63.74,0.667 C 39.148,59.223 37.926,59 36.592,59.037 h -4.111 l -1.592,0.185 c -0.37,0.111 -0.556,0.185 -0.556,0.185 V 50.814 H 24 v 26.37 h 6.333 V 66.518 c 0.037,-0.445 0.185,-0.889 0.519,-1.185 0.334,-0.296 0.704,-0.481 1.222,-0.481 h 3.704 c 0.444,0 0.852,0.186 1.185,0.481 0.333,0.296 0.481,0.74 0.518,1.185 v 10.667 h 6.333 V 65.704 c 0,-1.593 -0.333,-2.889 -0.963,-3.889 -0.666,-0.963 -1.518,-1.667 -2.592,-2.111 z m 21.555,9.962 c -0.037,0.481 -0.185,0.888 -0.481,1.222 -0.334,0.296 -0.741,0.444 -1.222,0.48 h -3.704 c -0.481,-0.037 -0.889,-0.185 -1.185,-0.48 -0.333,-0.333 -0.481,-0.741 -0.519,-1.222 V 59.036 H 48.37 v 11.185 c 0,1.482 0.296,2.777 0.889,3.814 0.593,1.038 1.444,1.815 2.518,2.333 1.111,0.519 2.333,0.816 3.814,0.816 h 6.222 V 77.11 c 1.333,0 2.481,-0.297 3.407,-0.852 0.926,-0.593 1.667,-1.407 2.186,-2.446 0.481,-1.036 0.741,-2.259 0.777,-3.593 V 59.037 h -6.37 l 10e-4,10.629 z M 73,77.185 h 6.333 V 50.815 H 73 v 26.37 z"
     inkscape:connector-curvature="0"
     id="path4" />
</svg>
