<?xml version="1.0" encoding="UTF-8" standalone="no"?>
<!-- Created with Inkscape (http://www.inkscape.org/) -->

<svg
   xmlns:dc="http://purl.org/dc/elements/1.1/"
   xmlns:cc="http://creativecommons.org/ns#"
   xmlns:rdf="http://www.w3.org/1999/02/22-rdf-syntax-ns#"
   xmlns:svg="http://www.w3.org/2000/svg"
   xmlns="http://www.w3.org/2000/svg"
   xmlns:inkscape="http://www.inkscape.org/namespaces/inkscape"
   version="1.1"
   width="128"
   height="128"
   id="svg2">
  <metadata
     id="metadata10">
    <rdf:RDF>
      <cc:Work
         rdf:about="">
        <dc:format>image/svg+xml</dc:format>
        <dc:type
           rdf:resource="http://purl.org/dc/dcmitype/StillImage" />
      </cc:Work>
    </rdf:RDF>
  </metadata>
  <defs
     id="defs8" />
  <path
     d="m 59.281,81.365 c 0,0 -4.949,4.857 -15.304,4.857 C 31.148,86.222 24,78.708 24,64.779 24,50.3 31.148,41.778 44.618,41.778 c 12.188,0 18.328,4.399 22.177,16.312 l 3.024,9.163 c 2.2,6.69 6.048,11.546 15.303,11.546 6.232,0 9.53,-1.375 9.53,-4.765 0,-2.658 -1.557,-4.582 -6.231,-5.682 L 82.189,66.886 C 74.584,65.053 71.56,61.113 71.56,54.881 c 0,-9.988 8.064,-13.104 16.311,-13.104 9.347,0 15.029,3.39 15.762,11.638 l -9.163,1.1 c -0.367,-3.94 -2.749,-5.59 -7.148,-5.59 -4.033,0 -6.506,1.833 -6.506,4.948 0,2.749 1.191,4.399 5.223,5.315 l 5.865,1.283 c 7.88,1.834 12.096,5.683 12.096,13.106 0,9.163 -7.697,12.645 -19.061,12.645 -15.853,0 -21.351,-7.147 -24.283,-16.036 l -2.933,-9.164 c -2.2,-6.69 -4.765,-11.913 -12.829,-11.913 -5.591,0 -11.272,4.032 -11.272,15.303 0,8.797 4.49,14.296 10.814,14.296 7.147,0 11.912,-5.315 11.912,-5.315 l 2.933,7.972 z"
     inkscape:connector-curvature="0"
     id="path4"
     style="fill:#ffffff" />
</svg>
