<?xml version="1.0" encoding="UTF-8" standalone="no"?>
<!-- Created with Inkscape (http://www.inkscape.org/) -->

<svg
   xmlns:dc="http://purl.org/dc/elements/1.1/"
   xmlns:cc="http://creativecommons.org/ns#"
   xmlns:rdf="http://www.w3.org/1999/02/22-rdf-syntax-ns#"
   xmlns:svg="http://www.w3.org/2000/svg"
   xmlns="http://www.w3.org/2000/svg"
   xmlns:inkscape="http://www.inkscape.org/namespaces/inkscape"
   version="1.1"
   width="128"
   height="128"
   id="svg2">
  <metadata
     id="metadata10">
    <rdf:RDF>
      <cc:Work
         rdf:about="">
        <dc:format>image/svg+xml</dc:format>
        <dc:type
           rdf:resource="http://purl.org/dc/dcmitype/StillImage" />
      </cc:Work>
    </rdf:RDF>
  </metadata>
  <defs
     id="defs8" />
  <path
     d="m 102.069,72.644 c -1.532,-1.55 -3.712,-2.401 -6.047,-2.151 -5.411,-0.122 -6.213,-4.356 -4.686,-12.346 0.561,-1.416 0.805,-2.934 0.755,-4.451 C 92.24,49.612 90.186,45.585 86.406,43.394 85.945,43.128 85.47,42.91 84.989,42.713 l -0.393,-0.156 -0.447,-0.155 c -0.285,-0.096 -0.575,-0.182 -0.87,-0.256 l -2.873,-0.343 c -4.072,0.038 -7.617,2.213 -9.603,5.444 -2.726,2.988 -3.956,4.805 -6.759,4.805 -2.663,0 -4.036,-1.816 -6.76,-4.805 -1.987,-3.231 -5.532,-5.407 -9.605,-5.444 -1.31,-0.014 -2.564,0.202 -3.741,0.599 l -0.445,0.155 -0.396,0.156 c -0.479,0.197 -0.956,0.415 -1.413,0.681 -3.785,2.19 -5.837,6.218 -5.688,10.302 -0.051,1.517 0.196,3.036 0.755,4.451 1.525,7.99 0.725,12.224 -4.683,12.346 -2.65,-0.285 -4.627,0.807 -6.626,2.808 -2.002,2.001 -1.837,7.353 0,9.69 1.332,1.698 3.139,2.873 5.328,3.149 4.216,0.529 7.96,-2.54 8.359,-6.856 0.132,-1.457 -0.141,-2.87 -0.71,-4.121 C 32.511,62.2 61.658,61.904 56.734,74.141 L 56.7,74.193 c -2.329,3.722 -1.067,8.562 2.806,10.801 1.424,0.822 2.999,1.167 4.541,1.104 1.541,0.063 3.118,-0.282 4.54,-1.104 3.871,-2.239 5.132,-7.078 2.804,-10.801 L 71.357,74.141 C 66.435,61.904 95.582,62.2 89.672,75.163 c -0.571,1.251 -0.84,2.665 -0.71,4.121 0.399,4.316 4.141,7.386 8.36,6.856 1.875,-0.236 3.528,-1.144 4.751,-2.458 0,0 1.963,-1.627 1.931,-5.779 -0.032,-3.385 -1.935,-5.259 -1.935,-5.259 z M 69.088,68.402 c -0.755,0.716 -1.698,1.334 -2.852,1.601 -0.684,0.198 -1.413,0.36 -2.162,0.36 H 64.01 c -0.749,0 -1.475,-0.162 -2.163,-0.36 -1.151,-0.267 -2.098,-0.772 -2.851,-1.487 -1.732,-1.438 -2.835,-3.643 -2.835,-6.07 0,-4.338 3.516,-7.867 7.849,-7.867 l 0.034,-0.006 0.031,-0.008 c 4.333,0 7.848,3.51 7.848,7.847 0,2.428 -1.103,4.552 -2.835,5.99 z"
     inkscape:connector-curvature="0"
     id="path4" />
</svg>
