<?xml version="1.0" encoding="UTF-8" standalone="no"?>
<!-- Created with Inkscape (http://www.inkscape.org/) -->

<svg
   xmlns:dc="http://purl.org/dc/elements/1.1/"
   xmlns:cc="http://creativecommons.org/ns#"
   xmlns:rdf="http://www.w3.org/1999/02/22-rdf-syntax-ns#"
   xmlns:svg="http://www.w3.org/2000/svg"
   xmlns="http://www.w3.org/2000/svg"
   xmlns:inkscape="http://www.inkscape.org/namespaces/inkscape"
   version="1.1"
   width="128"
   height="128"
   viewBox="-14 -14 128 128"
   id="svg2">
  <metadata
     id="metadata10">
    <rdf:RDF>
      <cc:Work
         rdf:about="">
        <dc:format>image/svg+xml</dc:format>
        <dc:type
           rdf:resource="http://purl.org/dc/dcmitype/StillImage" />
      </cc:Work>
    </rdf:RDF>
  </metadata>
  <defs
     id="defs8" />
  <path
     d="m 57.316,32.348 c -1.937,0.153 -4.171,0.3 -6.404,0.601 -3.424,0.443 -6.849,1.044 -9.677,2.382 C 35.724,37.572 32,42.342 32,49.353 c 0,8.804 5.66,13.272 12.806,13.272 2.385,0 4.32,-0.293 6.104,-0.741 2.832,-0.896 5.212,-2.535 8.041,-5.519 1.64,2.241 2.084,3.284 4.916,5.667 0.745,0.301 1.489,0.301 2.084,-0.148 1.787,-1.492 4.911,-4.174 6.554,-5.667 0.742,-0.602 0.591,-1.492 0.148,-2.241 -1.641,-2.087 -3.276,-3.88 -3.276,-7.901 V 32.648 c 0,-5.672 0.444,-10.891 -3.723,-14.764 -3.422,-3.138 -8.784,-4.328 -12.953,-4.328 h -1.789 c -7.594,0.448 -15.635,3.725 -17.424,13.125 -0.294,1.19 0.601,1.639 1.196,1.793 l 8.338,1.044 c 0.894,-0.154 1.339,-0.897 1.485,-1.646 0.749,-3.278 3.428,-4.916 6.405,-5.218 h 0.598 c 1.782,0 3.719,0.748 4.764,2.234 1.187,1.794 1.043,4.181 1.043,6.268 l -10e-4,1.192 z m 0,8.656 c 0,3.432 0.144,6.115 -1.64,9.092 -1.042,2.087 -2.828,3.431 -4.764,3.88 -0.298,0 -0.74,0.154 -1.19,0.154 -3.275,0 -5.215,-2.536 -5.215,-6.268 0,-4.771 2.833,-7.012 6.405,-8.055 1.937,-0.448 4.171,-0.596 6.404,-0.596 v 1.793 z M 84.743,82.876 C 88.383,79.797 89.92,74.207 90,71.288 V 70.802 C 90,70.15 89.839,69.669 89.681,69.425 88.952,68.536 83.608,67.722 79,69.1 c -1.294,0.41 -2.428,0.973 -3.48,1.703 -0.809,0.57 -0.647,1.292 0.162,1.215 0.89,-0.165 2.024,-0.242 3.318,-0.41 2.831,-0.236 6.148,-0.319 6.956,0.732 1.129,1.375 -1.294,7.374 -2.349,9.968 -0.319,0.814 0.407,1.138 1.136,0.568 z M 10.401,71.289 c 10.434,9.481 24.185,15.156 39.558,15.156 9.546,0 20.545,-2.676 29.041,-7.78 1.134,-0.653 2.263,-1.382 3.315,-2.189 1.457,-1.051 0.163,-2.676 -1.294,-2.03 l -2.02,0.813 c -9.308,3.65 -19.089,5.352 -28.153,5.352 -14.401,0 -28.313,-3.974 -39.558,-10.537 -1.052,-0.565 -1.781,0.484 -0.889,1.215 z"
     inkscape:connector-curvature="0"
     id="path4"
     style="fill:#ff9900" />
</svg>
