<?xml version="1.0" encoding="UTF-8" standalone="no"?>
<!-- Created with Inkscape (http://www.inkscape.org/) -->

<svg
   xmlns:dc="http://purl.org/dc/elements/1.1/"
   xmlns:cc="http://creativecommons.org/ns#"
   xmlns:rdf="http://www.w3.org/1999/02/22-rdf-syntax-ns#"
   xmlns:svg="http://www.w3.org/2000/svg"
   xmlns="http://www.w3.org/2000/svg"
   xmlns:inkscape="http://www.inkscape.org/namespaces/inkscape"
   version="1.1"
   width="128"
   height="128"
   id="svg2">
  <metadata
     id="metadata10">
    <rdf:RDF>
      <cc:Work
         rdf:about="">
        <dc:format>image/svg+xml</dc:format>
        <dc:type
           rdf:resource="http://purl.org/dc/dcmitype/StillImage" />
      </cc:Work>
    </rdf:RDF>
  </metadata>
  <defs
     id="defs8" />
  <path
     d="m 103.961,45.403 c -0.357,7.791 -5.796,18.457 -16.316,31.996 -10.877,14.142 -20.08,21.213 -27.607,21.213 -4.662,0 -8.609,-4.305 -11.832,-12.92 L 41.749,62.006 c -2.394,-8.61 -4.961,-12.92 -7.706,-12.92 -0.598,0 -2.693,1.26 -6.278,3.77 L 24,48.007 c 3.948,-3.47 7.843,-6.94 11.675,-10.415 5.265,-4.551 9.218,-6.945 11.853,-7.186 6.226,-0.598 10.058,3.659 11.497,12.772 1.554,9.832 2.63,15.948 3.234,18.342 1.795,8.158 3.769,12.232 5.927,12.232 1.674,0 4.189,-2.646 7.544,-7.937 3.349,-5.292 5.145,-9.318 5.386,-12.085 0.478,-4.567 -1.318,-6.856 -5.386,-6.856 -1.916,0 -3.89,0.441 -5.922,1.313 3.932,-12.882 11.444,-19.14 22.531,-18.783 8.22,0.24 12.095,5.573 11.622,15.999 z"
     inkscape:connector-curvature="0"
     id="path4"
     style="fill:#ffffff" />
</svg>
