<?xml version="1.0" encoding="UTF-8" standalone="no"?>
<!-- Created with Inkscape (http://www.inkscape.org/) -->

<svg
   xmlns:dc="http://purl.org/dc/elements/1.1/"
   xmlns:cc="http://creativecommons.org/ns#"
   xmlns:rdf="http://www.w3.org/1999/02/22-rdf-syntax-ns#"
   xmlns:svg="http://www.w3.org/2000/svg"
   xmlns="http://www.w3.org/2000/svg"
   xmlns:inkscape="http://www.inkscape.org/namespaces/inkscape"
   version="1.1"
   width="128"
   height="128"
   id="svg2">
  <metadata
     id="metadata10">
    <rdf:RDF>
      <cc:Work
         rdf:about="">
        <dc:format>image/svg+xml</dc:format>
        <dc:type
           rdf:resource="http://purl.org/dc/dcmitype/StillImage" />
      </cc:Work>
    </rdf:RDF>
  </metadata>
  <defs
     id="defs8" />
  <path
     d="m 90.288,64.915 c -6.893,0 -12.48,-5.565 -12.48,-12.43 0,-6.864 5.587,-12.431 12.48,-12.431 6.888,0 12.475,5.567 12.475,12.431 0,6.865 -5.586,12.43 -12.475,12.43 m 1.103,2.886 -0.278,-0.023 -0.219,-0.015 -0.595,-0.013 h -0.021 l -0.6,0.013 -0.219,0.015 -0.277,0.023 c -7.056,0.607 -12.608,6.896 -12.608,14.074 v 4.823 c 0,0.687 0.558,1.248 1.248,1.248 h 24.931 c 0.688,0 1.248,-0.561 1.248,-1.248 V 81.875 C 104,74.697 98.447,68.408 91.391,67.801 M 61.382,67.218 c 6.2,0 11.23,-5.01 11.23,-11.187 0,-6.181 -5.03,-11.189 -11.23,-11.189 -6.204,0 -11.231,5.009 -11.231,11.189 0,6.177 5.027,11.187 11.231,11.187 m 0.992,2.596 -0.247,-0.022 -0.198,-0.011 -0.536,-0.014 H 61.37 l -0.537,0.014 -0.197,0.011 -0.249,0.022 C 54.038,70.361 49.038,76.02 49.038,82.479 v 4.345 c 0,0.62 0.504,1.12 1.124,1.12 H 72.6 c 0.618,0 1.123,-0.501 1.123,-1.12 v -4.345 c 0,-6.459 -4.997,-12.118 -11.349,-12.665 M 35.107,69.29 c 5.582,0 10.107,-4.506 10.107,-10.065 0,-5.564 -4.525,-10.07 -10.107,-10.07 C 29.524,49.154 25,53.661 25,59.224 c 0,5.56 4.524,10.066 10.107,10.066 m 0.895,2.337 -0.225,-0.017 -0.178,-0.01 -0.482,-0.013 h -0.018 l -0.486,0.013 -0.178,0.01 -0.223,0.017 C 28.497,72.119 24,77.214 24,83.026 v 3.911 c 0,0.553 0.453,1.008 1.009,1.008 h 20.193 c 0.56,0 1.011,-0.454 1.011,-1.008 V 83.026 C 46.214,77.214 41.719,72.119 36.002,71.627"
     inkscape:connector-curvature="0"
     id="path4"
     style="fill:#ffffff" />
</svg>
