<?xml version="1.0" encoding="UTF-8" standalone="no"?>
<!-- Created with Inkscape (http://www.inkscape.org/) -->

<svg
   xmlns:dc="http://purl.org/dc/elements/1.1/"
   xmlns:cc="http://creativecommons.org/ns#"
   xmlns:rdf="http://www.w3.org/1999/02/22-rdf-syntax-ns#"
   xmlns:svg="http://www.w3.org/2000/svg"
   xmlns="http://www.w3.org/2000/svg"
   xmlns:inkscape="http://www.inkscape.org/namespaces/inkscape"
   version="1.1"
   width="128"
   height="128"
   id="svg2">
  <metadata
     id="metadata10">
    <rdf:RDF>
      <cc:Work
         rdf:about="">
        <dc:format>image/svg+xml</dc:format>
        <dc:type
           rdf:resource="http://purl.org/dc/dcmitype/StillImage" />
      </cc:Work>
    </rdf:RDF>
  </metadata>
  <defs
     id="defs8" />
  <path
     d="m 99.067,63.771 c -2.061,0.475 -4.054,0.685 -5.849,0.685 -10.094,0 -17.865,-7.049 -17.865,-19.307 0,-6.008 2.323,-9.132 5.608,-9.132 3.125,0 5.208,2.804 5.208,8.492 0,3.234 -0.866,6.778 -1.506,8.875 0,0 3.11,5.426 11.616,3.761 1.806,-4.009 2.788,-9.202 2.788,-13.757 C 99.067,31.13 92.818,24 81.362,24 69.586,24 62.697,33.053 62.697,44.989 c 0,11.825 5.528,21.975 14.643,26.6 C 73.507,79.256 68.63,86.01 63.543,91.099 54.314,79.943 45.971,65.06 42.548,36.016 H 28.933 c 6.29,48.372 25.036,63.774 29.993,66.732 2.804,1.682 5.218,1.602 7.782,0.16 4.025,-2.288 16.109,-14.37 22.807,-28.523 2.812,-0.008 6.189,-0.33 9.553,-1.091 v -9.523 z"
     inkscape:connector-curvature="0"
     id="path4"
     style="fill:#000000" />
</svg>
