<?xml version="1.0" encoding="UTF-8" standalone="no"?>
<!-- Created with Inkscape (http://www.inkscape.org/) -->

<svg
   xmlns:dc="http://purl.org/dc/elements/1.1/"
   xmlns:cc="http://creativecommons.org/ns#"
   xmlns:rdf="http://www.w3.org/1999/02/22-rdf-syntax-ns#"
   xmlns:svg="http://www.w3.org/2000/svg"
   xmlns="http://www.w3.org/2000/svg"
   xmlns:inkscape="http://www.inkscape.org/namespaces/inkscape"
   version="1.1"
   width="128"
   height="128"
   id="svg2">
  <metadata
     id="metadata10">
    <rdf:RDF>
      <cc:Work
         rdf:about="">
        <dc:format>image/svg+xml</dc:format>
        <dc:type
           rdf:resource="http://purl.org/dc/dcmitype/StillImage" />
      </cc:Work>
    </rdf:RDF>
  </metadata>
  <defs
     id="defs8" />
  <path
     d="m 58.823,81.423 0.006,-0.002 0.033,0.04 -0.042,0.032 -0.089,0.076 -0.18,0.152 0.185,-0.199 0.047,-0.052 0.022,-0.027 0.011,-0.007 0.007,-0.013 z m 0.047,0.03 -0.243,-0.309 0.241,0.309 h 0.002 z m 2.749,3.509 -10e-4,0.002 v -0.001 l -0.007,0.01 0.002,-0.003 0.003,0.018 0.011,-0.018 0.016,0.02 h 0.015 l 0.033,-0.007 0.011,-0.001 -0.038,-0.052 -0.107,-0.135 -0.027,0.054 0.089,0.113 z m -2.791,-3.541 -0.592,-0.761 0.592,0.761 z m 1.265,0.642 -0.065,0.054 0.065,-0.054 z m -3.741,6.926 0.235,-0.086 h 0.044 c -0.085,-1 -0.135,-1.027 -0.164,-1.545 l 0.373,-0.91 -0.332,0.29 c -0.044,0.666 -0.203,1.453 -0.164,2.143 l 0.059,-0.015 -0.059,0.01 0.008,0.113 z m 2.275,-7.845 -0.418,-0.538 0.418,0.538 z m 2.967,3.61 h 0.003 l 0.002,0.002 0.103,0.141 -0.087,-0.12 0.091,0.113 -0.095,-0.119 -0.01,-0.015 H 61.6 l -0.013,-0.014 0.007,0.012 z m -1.99,-2.571 -0.128,-0.159 -0.041,0.03 0.127,0.168 0.042,-0.039 z m 14.372,12.106 -0.021,0.002 c 0,0 -0.463,0.074 -0.93,0.113 l 4.499,-0.099 -0.138,-0.039 -3.41,0.023 z M 59.704,82.317 h 0.003 l -0.101,-0.134 h -0.001 l 0.099,0.134 z m 0.98,7.774 -0.025,-0.046 0.025,0.073 v -0.027 z m 9.957,3.553 -0.693,-0.274 -0.016,0.002 0.709,0.272 z m -8.927,-9.818 z m 0,0.007 0.022,0.024 -0.022,-0.027 v 0.003 z M 58.09,82.769 c 0.028,0 0.146,-0.136 0.267,-0.301 0.155,-0.19 0.373,-0.441 0.592,-0.632 l 0.122,-0.1 -0.146,-0.193 -0.038,0.043 c -0.14,0.145 -0.282,0.295 -0.379,0.437 -0.366,0.554 -0.457,0.746 -0.418,0.746 z m 1.084,-0.236 -10e-4,0.002 0.003,-0.002 h -0.002 z m 0.341,-0.275 0.108,0.132 0.042,-0.033 -0.104,-0.134 -0.046,0.035 z m -0.413,-0.634 0.036,0.051 -0.005,0.005 -0.006,0.005 -0.027,0.026 0.039,0.054 -0.038,-0.048 0.083,0.107 -0.005,-0.005 0.008,0.01 0.073,0.097 0.036,-0.039 -0.194,-0.263 z m 0.143,0.312 0.006,0.012 0.016,-0.013 -0.005,-0.009 -0.017,0.01 z m -0.298,-0.416 0.003,0.003 -0.217,-0.28 0.214,0.277 z m -0.003,0.004 -0.007,0.006 -0.005,0.006 0.147,0.188 0.017,-0.009 0.004,-0.004 -0.151,-0.187 h -0.005 z m -0.211,-0.281 -0.049,-0.063 0.049,0.063 z m 2.406,2.106 0.105,0.135 -0.105,-0.135 z m 15.731,9.918 0.02,-10e-4 -0.034,10e-4 c -0.33,0.004 -6.722,0.052 -6.734,0.079 L 69.95,93.37 c -0.375,-0.143 -0.745,-0.281 -1.055,-0.389 l 1.039,0.391 c -0.811,0.117 -1.461,0.26 -3.428,0.418 0.067,0.059 0.385,0.08 0.785,0.078 0.63,-0.004 1.469,-0.056 1.908,-0.087 l 0.628,-0.162 c 0.186,0.093 0.519,0.127 0.889,0.127 l 0.163,-0.007 -0.236,-0.096 0.255,0.094 0.204,-0.008 c 0.363,-0.02 0.682,0.038 0.933,0.033 l 2.738,-0.045 c 0.122,-0.066 0.25,-0.124 0.586,-0.112 0.535,0.02 0.923,0.05 1.244,0.081 l 2.192,-0.036 -0.796,-0.005 c 0.142,-0.068 1.517,-0.09 0.731,-0.185 0.766,0.006 1.531,0.016 2.274,0.045 0.031,0.036 -0.384,0.072 -0.705,0.11 l 0.095,0.009 c 5.722,-0.093 12.284,-0.2 12.321,-0.192 -0.302,0.082 -5.818,0.186 -11.452,0.277 0.59,0.06 1.189,0.126 1.538,0.165 0.308,-0.004 0.595,-10e-4 0.989,-0.029 0.961,0.121 0.548,0.143 0.345,0.163 l 0.558,0.079 0.558,0.037 c 0.396,0.013 0.723,-0.115 1.007,-0.118 0.63,-0.005 0.916,-0.052 1.283,-0.079 0.266,-0.015 1.9,-0.01 2.001,-0.018 l 0.68,-0.028 c -0.169,0.041 -0.557,0.235 -0.557,0.235 l -0.704,0.035 -1.557,0.012 c -0.479,0.001 -1.003,0 -1.533,-0.014 l 0.959,0.104 c -0.141,0.021 -0.432,0.028 -0.794,0.032 0.478,0.069 0.888,0.12 1.117,0.129 l -1.065,0.184 C 85.747,94.585 84.88,94.438 83.88,94.261 l -1.487,-0.024 c -1.017,0.075 -3.143,0.196 -4.388,0.198 -0.099,0.002 -0.255,-0.06 -0.477,-0.128 l 2.556,-0.057 -2.694,0.018 c -0.199,-0.053 -0.439,-0.102 -0.73,-0.117 -0.69,-0.031 -2.082,0.091 -2.68,0.14 l -2.121,0.015 0.096,-0.002 c 0.156,-0.01 -0.217,-0.2 -0.786,-0.442 -1.145,0.018 -1.912,0.03 -2.107,0.038 -1.291,0.049 -0.72,0.074 -1.87,0.17 0.701,0.11 -0.255,0.198 0.939,0.201 0.593,0.002 1.221,-0.113 1.789,-0.1 0.249,0.015 0.427,0.026 0.767,0.029 l -0.051,0.012 c -0.282,0.004 -0.586,-0.007 -0.922,0.034 -3.717,0.437 -2.519,0.105 -5.12,-0.109 -0.48,-0.038 -2.507,0.018 -3.522,-0.075 0.9,0.123 0.944,0.18 0.62,0.18 -0.487,0.003 -1.797,-0.118 -2.299,-0.291 -0.51,-0.197 -0.68,-0.287 -0.631,-0.287 0.038,0 0.194,0.041 0.42,0.13 0.519,0.164 1.204,0.277 1.592,0.322 -0.513,-0.109 -1.107,-0.288 -1.805,-0.628 -0.305,-0.143 -0.656,-0.356 -0.981,-0.612 l -0.168,0.053 c -0.902,0.265 -1.798,0.431 -3.011,0.582 1.724,-0.322 0.148,-0.171 0.771,-0.396 -1.715,0.184 -2.306,0.773 -4.395,0.666 -0.202,-0.01 0.563,-0.243 0.613,-0.276 0.029,-0.019 0.113,-0.034 0.276,-0.043 l 0.295,-0.013 0.665,-0.026 c 0.099,-0.07 -0.119,-0.084 -0.4,-0.079 l -0.674,0.012 -0.539,0.015 c -0.302,0 -0.504,0.2 -0.55,0.121 -2.066,0.067 -2.795,0.096 -3.02,0.107 l -0.062,-0.003 -9.047,0.245 -2.641,0.179 c 0.561,-0.035 2.163,-0.507 1.638,-0.634 l 0.399,0.064 0.244,0.015 0.124,-0.015 0.062,-0.242 0.013,-0.307 h 0.226 l 0.76,0.318 0.213,0.21 0.972,0.038 c 0.35,0 0.701,0.029 1.057,0.043 0.139,-0.069 -0.422,-0.082 -0.668,-0.114 l 0.344,0.001 c 0.191,0 4.653,0.056 4.367,-0.116 -3.162,0.04 -1.595,-0.014 -0.987,-0.208 0,0 4.612,-0.041 3.7,-0.436 0.069,0.032 -0.112,-0.261 -2.05,-0.054 -0.195,0.099 -4.111,0.365 -4.366,0.38 -0.086,0.013 -1.465,0.24 -2.056,0.24 -0.456,0.005 -0.859,0 -1.22,-0.007 -1.08,-0.043 -3.329,0.086 -4.77,-0.045 -1.387,-0.126 -0.531,-0.365 -1.061,-0.57 0.588,0.102 1.586,0.212 3.047,0.12 0.4,-0.026 2.309,-0.141 3.113,-0.254 1.413,-0.198 -1.335,-0.537 -1.873,-0.587 -0.367,-0.033 2.745,-0.135 3.173,-0.152 0.398,-0.014 0.562,0.006 0.633,0.06 1.478,1.106 1.794,0.03 1.405,0.075 1.162,-0.124 2.68,0.09 3.949,0.073 0,0 5.231,-0.446 5.69,-0.492 0.439,-0.048 0.847,-0.179 1.351,-0.262 0.137,-0.006 2.706,-0.72 2.939,-0.764 -0.022,-0.393 -0.278,-1.135 -0.098,-1.19 l -0.01,-0.119 0.281,-0.086 0.017,0.096 0.06,-0.032 -0.003,-0.122 0.009,-0.044 h -0.009 l 0.002,-0.135 c 0.011,-1.257 0.277,-1.863 0.569,-2.902 l -0.095,-0.37 c 0.252,-1.086 0.84,-2.191 0.979,-2.191 0.043,0 0.043,0.107 -0.027,0.362 0.178,-0.417 0.378,-0.787 0.594,-1.102 0.172,-0.254 0.35,-0.462 0.504,-0.617 l 0.005,0.016 -0.205,0.25 c -0.11,0.151 -0.207,0.291 -0.259,0.403 -0.128,0.218 -0.176,0.37 -0.203,0.453 l -0.006,0.14 c 0.145,-0.248 0.311,-0.356 0.411,-0.463 l -0.019,0.157 h -10e-4 l -0.116,-0.211 c 0.063,-0.05 0.315,-0.38 0.315,-0.555 v -10e-4 l 0.098,-0.233 h 0.113 l 0.017,0.086 -0.046,0.219 -0.183,0.055 v 0.003 l 0.114,0.046 c -0.16,0.131 -0.2,0.228 -0.2,0.228 l 0.055,-0.006 0.009,0.023 -0.013,0.038 -0.106,0.183 c 0.133,-0.113 0.266,-0.205 0.335,-0.205 l 0.031,0.007 0.182,-0.146 -0.002,10e-4 0.05,-0.025 0.002,0.022 0.004,0.036 0.007,0.202 0.038,0.233 h -0.002 c 0.004,-1 0.241,-0.287 0.251,-0.291 l 0.246,-0.292 v -0.003 l -0.227,-0.009 -0.118,-0.013 -0.057,-0.025 0.051,-0.196 -0.019,-0.172 h 0.002 l -0.039,0.11 0.056,0.196 0.268,-0.199 0.06,-0.008 0.022,0.032 v 0.018 l 0.015,0.005 0.021,-0.046 -0.036,0.054 V 82.06 c 0,0.041 -0.112,0.106 -0.245,0.215 l -0.058,0.089 0.303,-0.196 v -0.265 h -0.017 l 0.008,-0.007 -0.007,0.007 h 0.005 l 0.052,0.112 0.127,0.056 0.021,0.009 0.007,0.006 h 0.231 c 0.783,1.012 0.573,1.517 1.573,1.744 v 0.004 l -0.239,0.019 -0.142,0.032 -0.108,0.067 -0.037,0.024 0.112,-0.087 0.05,-0.015 -0.873,-1.127 c -0.249,-0.326 -0.504,-0.844 -0.701,-0.844 h -0.004 l -0.01,-0.039 -0.098,-0.05 -0.091,0.068 -0.013,-0.009 -0.005,0.029 h -0.002 c -0.085,0 -0.192,0.127 -0.3,0.212 l -0.031,-0.037 -0.068,0.056 -0.129,-0.182 0.1,0.104 c 0.097,-0.08 0.209,-0.153 0.336,-0.153 h 0.003 l 0.004,-0.126 0.009,-0.012 0.017,-0.097 0.06,-0.146 0.012,-0.052 c -10e-4,0.029 0.019,0.249 0.06,0.26 l 0.033,0.173 h 0.005 l -0.019,-0.194 0.02,-0.023 c 0.139,0.18 0.19,0.195 0.19,0.195 l -0.017,-0.037 c 0.284,0.369 0.767,1.014 1.552,2.026 0.12,-0.095 0.014,0.271 0.014,0.271 0.11,0.133 0.221,-0.238 0.34,0.762 h -0.008 l -0.009,-1 h -0.051 c -0.064,0 -0.158,0.204 -0.26,0.305 -0.095,0.082 -0.191,0.369 -0.279,0.525 l -0.112,-0.154 -0.002,-0.01 0.114,0.12 -0.008,0.144 0.006,0.072 h 0.004 l -0.426,-0.257 v 0.111 l 0.212,0.002 0.09,0.01 0.038,0.027 0.017,-0.016 v 0.002 l -0.004,0.055 0.011,0.013 -0.007,0.023 -10e-4,-0.002 -0.003,0.007 0.002,0.003 -0.016,0.027 -0.061,0.2 -0.304,0.262 c 0.109,-0.173 0.027,-0.282 0.027,-0.362 v 0.004 l 0.227,0.02 0.113,-0.088 0.132,-0.042 h 0.008 l 0.117,0.217 0.044,-0.162 0.041,-0.055 h 0.003 l 0.158,-0.031 -0.038,0.057 -0.016,-0.026 h 0.001 l -0.161,0.232 -0.166,0.168 0.008,0.029 0.016,0.008 0.031,-0.016 0.131,-0.069 0.013,-0.171 0.005,-0.18 h 0.013 l -0.009,0.18 0.1,0.041 -0.023,0.098 -0.027,0.1 -0.005,0.017 c -0.224,0.56 -0.534,0.866 -0.581,1.802 0.056,-0.26 0.12,-0.522 0.194,-0.791 0.081,-0.129 0.17,-0.239 0.263,-0.351 0.057,-0.238 0.125,-0.463 0.204,-0.691 l 0.019,-0.061 0.103,0.131 -0.011,0.077 c -0.023,0.16 -0.077,0.4 -0.213,0.832 0.089,-0.063 0.171,-0.357 0.297,-0.723 0.085,-0.254 0.189,-0.54 0.326,-0.811 l 0.314,-0.25 -0.087,0.188 c -0.127,0.306 -0.238,0.601 -0.329,0.896 l 0.342,-0.432 c -0.219,0.489 -0.373,0.944 -0.494,1.46 l -10e-4,-0.373 c -0.266,1.225 -0.383,1.58 -0.528,1.775 -0.064,0.102 -0.131,0.223 -0.214,0.535 -0.098,0.245 -0.077,0.533 -0.343,1.261 0.039,-0.051 0.078,-0.074 0.252,-0.079 0.109,0 -0.492,0.519 -0.777,0.9 l 0.091,-0.167 -0.088,0.03 c -0.08,0.133 -0.18,0.277 -0.291,0.419 l 0.077,0.031 0.098,-0.15 -0.026,0.128 0.275,-0.278 -0.172,0.313 0.009,-0.059 h -0.01 c 0.869,1 2.231,0.445 3.424,0.485 0.678,0.014 1.515,0.208 2.215,0.205 l 0.657,-0.02 0.612,-0.012 c 0.728,-0.005 1.462,-0.004 2.204,0.011 0.88,0.263 -2.683,0.264 -2.448,0.401 -0.57,-0.005 -1.141,-0.01 -1.709,-0.024 0.091,-0.114 3.581,-0.118 2.028,-0.296 -1.075,0.06 -2.085,-0.016 -2.88,-0.009 l -0.933,-0.008 c -1.042,-0.044 -2.105,0.02 -3.399,-0.293 l -0.017,-0.05 c 0.744,0.652 3.825,0.61 5.624,0.61 h -0.241 c -0.681,0 -1.421,0.011 -1.997,0.036 1.755,0.071 3.796,0.329 5.614,0.082 0,0 2.63,0.481 3.337,0.476 0.03,-10e-4 1.726,0.012 3.605,0.018 -0.866,-0.188 -2.208,-0.402 -4.459,-0.694 0.175,0.022 9.033,0.256 8.134,0.277 2.001,-0.049 -1.088,-0.242 0.394,-0.249 l 1.872,0.216 c -0.198,0.259 -0.077,0.245 -0.555,0.235 -0.328,-0.006 -0.648,0.02 -0.953,0.067 l 0.585,0.165 -0.717,-0.143 c -0.226,0.039 -0.444,0.088 -0.651,0.143 l 1.383,0.004 -0.015,-0.004 c 0.479,0.09 0.983,0.179 1.095,0.211 0.654,0.035 11.968,0 11.968,0 -2.518,0.59 1.356,0.432 1.329,0.493 -10e-4,0.013 -18.608,0.031 -18.814,0.032 z m -15.337,-8.488 0.01,-0.004 -0.008,-0.01 -0.002,0.014 z m 0.041,-0.403 0.034,-0.003 c 0.056,10e-4 0.099,0.022 0.078,0.137 0.098,-0.218 0.205,-0.363 0.279,-0.428 l 0.009,-0.017 0.005,-0.006 0.005,-0.004 -0.156,-0.202 -0.038,0.074 0.051,0.066 -0.053,-0.066 -0.152,0.313 -0.062,0.136 z m -0.364,4.08 -0.05,-0.199 c -0.178,0.492 -0.051,0.879 -0.398,1.625 l 0.011,0.06 -0.025,-0.024 -0.027,0.05 0.02,-0.066 -0.086,-0.143 C 60.63,89.854 60.64,89.972 60.659,90.045 60.635,90 60.579,89.92 60.433,89.8 l -0.267,-0.15 -0.056,0.137 -0.003,0.002 0.653,0.391 0.027,-0.037 -0.015,0.04 0.044,0.029 c 0.36,-0.866 0.396,-1.382 0.394,-1.756 z m -0.933,-5.225 0.017,-0.052 -0.026,0.042 0.009,0.01 z m 0.534,4.077 -0.16,0.885 -0.024,-0.073 -0.105,0.379 c -0.039,0.882 0.072,0.274 0.236,1.34 0.148,-0.601 0.251,-1.166 0.354,-1.729 -0.106,-0.252 -0.216,-0.317 -0.301,-0.802 z m 0.152,-3.196 0.003,-0.002 0.024,-0.046 -0.107,-0.138 -0.022,0.056 0.102,0.13 z m 0.245,4.217 -0.003,-0.184 -0.016,0.04 0.019,0.144 z m 0.08,-1.646 c -0.018,0 -0.059,0.115 -0.135,0.426 -0.085,0.496 -0.057,0.684 -0.015,0.86 l 0.138,-0.712 c 10e-4,-0.218 0.038,-0.574 0.012,-0.574 z m -0.036,-1.498 0.025,-0.088 -0.051,0.135 0.026,-0.047 z m 0.174,-0.472 0.06,0.071 0.036,-0.037 -0.072,-0.087 -0.024,0.053 z m -1.276,-1.971 0.188,0.189 0.116,-0.091 0.008,-0.003 0.034,-0.017 0.064,-0.027 0.061,-0.029 0.027,-0.01 0.016,-0.015 0.286,0.374 0.188,0.237 -0.002,0.004 -0.004,0.002 -0.095,0.17 -0.078,0.202 0.139,0.183 0.225,-0.284 0.04,-0.051 0.013,-0.02 -0.02,-0.01 -0.094,-0.087 0.018,0.077 c -0.118,-0.154 -0.302,-0.471 -0.926,-1.079 v 0.209 h 0.178 l -0.007,-0.098 -0.011,-0.093 -0.023,0.016 -0.148,0.075 -0.019,0.038 -0.007,0.063 h -0.002 c -0.064,-0.001 -0.119,0.035 -0.165,0.075 z m -0.102,0.021 0.193,0.248 -0.19,-0.252 -0.003,0.004 z m -0.083,0.065 0.22,0.284 0.028,-0.052 -0.207,-0.265 -0.041,0.033 z m -0.071,7.696 c 0.106,0.183 0.187,0.268 0.419,0.388 0.106,-0.137 0.193,-0.271 0.26,-0.399 l -0.115,0.047 -0.098,0.041 -0.044,0.013 -0.027,0.007 h -0.016 l 0.007,0.007 -0.302,-0.181 c 0.032,0.058 0,0.096 -0.041,0.091 l -0.043,-0.014 z m -0.245,-8.099 0.067,0.085 0.044,-0.031 -0.073,-0.09 -0.038,0.036 z m -0.243,0.242 0.123,-0.154 -0.123,0.095 v 0.059 z m -0.015,-0.089 0.007,-0.006 -0.007,0.004 v 0.002 z m -1.565,1.866 0.003,0.077 c 0.094,-0.301 0.198,-0.585 0.311,-0.851 -0.084,0.037 -0.163,0.24 -0.291,0.552 l -0.023,0.222 z m -0.15,7.512 0.018,0.018 0.234,0.141 0.18,0.185 0.059,0.064 0.164,0.098 0.106,-0.043 -0.509,-0.304 -0.118,-0.159 -0.049,-0.045 -0.085,0.045 z m -0.792,-1.518 c 0.05,0.162 0.109,0.329 0.191,0.526 l 0.076,-0.025 -0.095,-0.24 -0.102,-0.298 -0.07,0.037 z m -3.897,2.34 c -0.18,-0.01 -0.264,-0.029 -0.173,-0.083 -1.29,0.009 -1.028,0.071 -1.221,0.16 0.485,-0.019 0.945,-0.018 1.394,-0.077 z m 3.053,-2.056 0.285,-0.216 c -0.624,0.229 -2.492,0.741 -2.899,0.807 -0.675,0.128 -1.291,0.173 -1.488,0.284 l 0.342,0.007 c 0.923,0 2.689,-0.604 3.76,-0.882 z m -0.252,0.181 0.141,-0.099 c -1.308,0.461 -2.803,0.851 -2.763,0.862 l 0.214,0.014 c 0.419,-0.004 0.948,-0.155 1.597,-0.23 l -0.317,-0.043 0.465,-0.102 0.663,-0.402 z m 1.957,1.764 C 57.611,92.548 57.492,92.434 57.378,92.283 L 57.271,92.15 c -0.47,0.213 -1.062,0.467 -1.415,0.602 0.72,-0.123 1.04,-0.16 1.16,-0.168 L 56.9,92.771 c -0.217,0.043 -0.598,0.113 -0.633,0.145 l -0.025,0.042 0.21,-0.018 0.233,-0.015 0.066,0.002 c 0.341,-0.091 0.632,-0.149 0.994,-0.26 z m 0.271,-0.086 -0.216,-0.141 -0.368,-0.318 -0.048,-0.029 0.013,-0.004 -0.028,-0.029 -0.046,-0.026 0.006,0.003 -0.052,-0.031 0.046,0.028 -0.197,-0.118 0.02,0.027 0.012,0.02 0.226,0.131 -0.091,0.045 c 0.121,0.147 0.28,0.34 0.475,0.497 l 0.023,0.018 0.225,-0.073 z m 4.387,0.663 C 61.974,93.229 61.538,93.203 61.084,93.146 60.681,93.127 60.255,93.094 59.76,92.982 59.51,92.908 59.221,92.831 58.913,92.681 l -0.07,-0.019 -0.123,-0.067 -0.042,0.013 -0.103,0.057 -0.128,0.053 c 0.237,0.137 0.507,0.122 0.815,0.308 l 0.103,-0.122 H 59.32 l -0.164,0.079 C 58.868,92.872 58.6,92.823 58.355,92.661 l -0.009,0.042 -0.3,0.129 c 0.48,0.34 1.047,0.575 1.53,0.7 1.18,0.298 2.193,0.291 2.998,0.331 -0.359,-0.027 -0.717,-0.057 -1.101,-0.113 0.788,0.013 0.921,0.044 1.954,0.104 -1.006,-0.148 -0.542,-0.216 -0.415,-0.223 l 0.458,-0.076 c 0.356,-0.006 0.716,0.006 0.604,-0.038 0.723,-0.178 -1.102,-0.123 -1.671,-0.273 z m 14.933,0.525 c 0.594,0.067 1.155,0.109 2.625,0.026 -0.286,0.017 1.197,0.074 1.847,0.098 l -1.064,-0.175 -3.408,0.051 z m -6.107,0.09 c 0.32,0.114 0.561,0.19 0.642,0.189 0.807,-0.002 1.372,-0.08 1.189,-0.127 -0.196,-0.041 -0.173,-0.08 0.105,-0.09 l 0.122,0.004 c 0.318,0.029 0.571,0.045 0.787,0.043 0.243,0 0.386,-0.029 0.493,-0.068 l -3.338,0.049 z M 59.342,81.85 59.391,81.914 59.342,81.85 z m 13.683,12.555 -0.727,0.017 c 0.184,0.02 0.456,0.008 0.727,-0.017 z m -19.134,-0.773 -0.235,0.024 0.235,-0.024 z m 5.42,-11.751 0.031,-0.031 -0.031,-0.04 0.002,0.002 -0.007,-0.009 0.005,0.006 -0.01,-0.012 0.038,0.049 -0.003,0.002 -0.013,0.007 -0.025,0.031 0.008,0.005 0.005,-0.01 z m -5.755,11.919 0.043,-0.086 -0.204,0.036 -0.543,0.078 -0.576,0.054 0.198,0.043 1.183,-0.02 h -0.013 c -0.128,0 -0.119,-0.074 -0.088,-0.105 z m 7.936,-8.737 0.066,-0.05 0.024,-0.019 -0.09,0.069 z M 47.849,93.6 z M 33.042,92.582 c -0.123,-0.048 -0.319,-0.092 -0.635,-0.134 0.055,0.008 0.264,0.07 0.635,0.134 z m 38.387,1.729 0.426,-0.007 -1.024,0.007 h 0.598 z m -9.92,-9.259 0.046,-0.037 -0.044,0.034 -0.002,0.003 z m 0.052,-0.041 -0.003,0.002 -0.003,0.002 0.006,-0.004 z m 0.535,0.052 -0.065,0.055 -0.048,0.131 0.1,0.131 0.013,-0.317 z m -1.003,5.318 0.025,0.015 -0.025,-0.015 -0.045,-0.029 -0.099,0.038 -0.052,0.012 -0.132,0.291 -0.01,0.017 c 0.155,-0.137 0.299,-0.267 0.338,-0.329 z m -4.048,2.373 -0.146,0.018 0.058,0.016 0.088,-0.034 z m 4.441,-7.684 0.008,-0.007 h -0.002 l -0.006,0.007 z m 0.012,-0.008 0.011,-0.01 -0.016,0.011 0.005,-0.001 z m -17.977,6.611 c 0.546,0 1.797,0.077 1.721,0.003 l 1.653,-0.101 c -0.637,0.014 0.118,-0.201 -6.057,0.049 l 2.683,0.049 z m 16.485,-10.164 -0.169,-0.22 0.169,0.22 z m -0.429,0.436 -0.13,-0.164 0.13,0.164 z m -0.271,-0.052 -0.039,0.042 0.124,0.154 0.043,-0.034 -0.128,-0.162 z m 2.379,3.015 0.022,-0.01 0.021,-0.021 -0.021,0.013 -0.004,0.007 -0.018,0.011 z m 0.283,0.322 0.011,0.019 h 0.003 L 61.968,85.23 z m -1.872,-3.7 -0.17,-0.219 0.17,0.219 z M 72.159,48.824 h -0.001 l 0.002,0.006 -10e-4,-0.006 z m -0.266,-0.672 -0.001,0.004 0.027,0.055 h 0.005 l -0.031,-0.059 z m -29.906,33.228 0.011,0.01 -0.028,-0.027 0.017,0.017 z m 48.695,-26.438 -0.004,-0.002 0.002,0.001 0.002,10e-4 z m 0.853,8.87 -0.325,-0.257 0.325,0.257 z M 50.869,52.073 52.44,50.907 c -0.586,0.421 -1.115,0.542 -1.653,1.166 h 0.082 z m 0.813,5.437 c -0.102,0.052 -0.249,0.16 -0.495,0.352 l 0.495,-0.352 z m -4.293,5.644 c 0.162,-0.006 0.24,-0.013 0.413,-0.099 l -0.413,0.099 z m 22.597,10.451 -0.005,0.005 0.006,-0.005 h -10e-4 z m -27.281,8.758 -0.191,-0.19 0.097,0.1 0.094,0.09 z m 52.294,-15.579 0.274,0.218 -0.274,-0.218 z m -54.065,10.913 0.065,0.061 -0.064,-0.066 -0.001,0.005 z M 56.1,55.404 c 1.799,-1.533 1.06,-0.819 2.931,-2.441 -0.972,0.521 -2.446,1.956 -2.931,2.441 z m 43.666,15.378 0.039,0.029 -0.001,-0.001 -0.038,-0.028 z m -3.408,-1.178 -0.437,-0.346 0.437,0.346 z m -27.202,-26.588 0.043,0.086 h 0.002 l -0.045,-0.086 z m 18.975,19.417 1.583,-1.472 -1.321,1.067 -0.262,0.405 z M 60.745,41.815 c 0.02,0 0.119,-0.064 0.354,-0.229 l 0.074,-0.229 c -0.107,0.133 -0.472,0.458 -0.428,0.458 z m 32.807,15.533 0.327,0.25 -0.327,-0.25 z m -53.2,-18.997 -0.066,0.122 1.414,-1.042 c -1.414,0.833 -4.245,2.835 -4.837,3.614 0.57,-0.656 2.797,-2.029 3.489,-2.694 z m 0.201,5.923 c 1.016,-0.733 2.01,-1.471 3.061,-2.221 -1.041,0.731 -2.068,1.473 -3.061,2.221 z m 43.037,2.928 0.066,0.094 -0.066,-0.094 z m -18.943,-5.873 0.034,0.104 -0.034,-0.104 z m -5.888,-5.89 c 1.116,-0.429 2.321,-0.629 3.51,-0.927 l 0.116,0.332 -0.03,0.01 -0.161,0.015 c 0.007,0.038 0.066,0.034 0.166,0.034 h 0.07 c 0.237,1 0.843,1.624 1.143,2.507 0.573,1.675 1.59,3.389 1.59,3.796 v 0.696 H 64.552 L 64.478,41.59 64.305,41.509 c -0.249,0.147 -0.571,0.284 -0.901,0.516 -0.654,0.47 -1.354,0.982 -1.609,1.196 l 0.216,0.745 c 1.317,-1.047 1.625,-1.509 1.329,-1.509 -0.154,0 -0.471,0.113 -0.894,0.331 0.906,-0.738 1.222,-0.833 1.442,-0.895 0.107,-0.033 0.197,-0.063 0.322,-0.155 l 0.233,-0.203 0.156,0.129 0.041,0.237 h 0.005 c -0.149,-1 -0.742,-2.426 -1.34,-4.165 -0.317,-0.927 -0.634,-1.835 -0.884,-2.835 h -0.036 c -0.042,0 -0.081,-0.263 -0.115,-0.364 l 0.036,0.01 c 0.037,0.106 0.075,0.355 0.115,0.355 h 0.006 c -0.044,0 -0.08,-0.266 -0.115,-0.37 l 0.074,-0.035 -0.079,-0.003 -0.374,-1.092 0.371,1.085 -0.038,0.003 -0.304,-0.888 0.299,0.887 c -1.919,0.172 -3.798,0.499 -5.617,0.988 l -0.308,0.43 c 0.443,-0.234 2.394,-0.818 3.186,-0.856 l -0.763,0.388 z m -2.422,0.47 -0.106,0.072 0.06,-0.011 0.046,-0.061 z m -7.613,2.928 c 1.768,-0.956 3.824,-1.914 6.351,-2.866 -2.264,0.766 -4.36,1.76 -6.351,2.866 z m -17.36,18.349 c -0.188,0.324 -0.281,0.49 -0.377,0.958 l 0.377,-0.958 z m 63.642,18.954 -0.08,0.055 v 0.073 l 0.08,-0.128 z m -52.85,2.751 0.274,0.27 0.111,-0.098 -0.297,-0.291 -0.088,0.119 z m 27.42,-14.68 c -0.059,0 -0.154,0.039 -0.266,0.101 l 0.314,-0.087 -0.048,-0.014 z m 11.055,20.876 0.33,-0.251 C 80.909,84.812 80.876,84.76 80.853,84.677 l -0.195,0.049 c -0.041,0.255 -0.064,0.361 -0.027,0.361 z m -8.751,-36.79 0.001,0.001 -0.005,-0.01 0.004,0.009 z m -10.877,31.689 -0.314,-0.454 0.289,0.419 0.025,0.035 z M 104,73.67 l -0.006,0.004 -0.009,0.014 -0.074,-0.054 -0.177,-0.127 0.251,0.181 -0.018,0.033 -0.048,0.081 -0.435,0.685 c -0.584,0.932 -1.208,1.871 -1.839,2.892 -0.327,0.419 -0.471,0.568 -0.513,0.568 -0.055,0 0.05,-0.237 0.152,-0.469 0.106,-0.233 0.207,-0.466 0.141,-0.466 -0.038,0 -0.131,0.082 -0.318,0.287 0.693,-0.929 1.476,-2.219 1.29,-2.219 l -0.093,0.048 c -0.665,0.896 -1.006,1.612 -1.33,2.182 l -0.043,0.019 c -0.063,0 -0.023,-0.159 0.017,-0.313 0.04,-0.159 0.089,-0.315 0.038,-0.315 -0.035,0 -0.107,0.062 -0.244,0.229 0.32,-0.58 0.97,-1.469 1.512,-2.268 0.223,-0.324 0.424,-0.634 0.581,-0.901 l -0.626,0.445 c -0.155,0.201 -0.254,0.313 -0.302,0.352 l -0.036,0.023 0.05,-0.164 -0.241,0.182 c -0.238,0.27 -0.481,0.532 -0.725,0.795 l 0.39,-0.301 c -0.394,0.343 -0.744,0.696 -1.066,1.06 -0.387,0.642 -0.716,1.239 -0.671,1.439 0.294,-0.442 0.635,-1.019 0.797,-1.313 0.256,-0.316 0.376,-0.437 0.419,-0.437 0.135,0 -0.611,1.304 -0.518,1.404 -0.665,0.938 -1.33,1.877 -1.92,2.832 -0.221,0.659 -0.353,1.324 -0.515,1.966 0.798,-1.162 1.01,-1.454 1.055,-1.454 l -0.02,0.143 c -0.015,0.072 -0.028,0.146 0.022,0.146 0.06,0 0.191,-0.102 0.495,-0.422 -0.483,0.595 -1.132,1.761 -1.614,2.856 -0.268,0.559 -0.532,1.088 -0.702,1.532 l -0.585,0.604 -0.357,0.01 v 0.008 c 0,-0.065 0.205,-0.134 0.134,-0.193 l 0.251,-0.019 0.078,-0.225 0.143,-0.879 c 0.096,-0.602 0.296,-1.219 0.428,-1.836 -0.277,0.752 -0.682,1.365 -0.749,2.071 l -0.548,-0.089 -0.073,0.245 0.116,0.005 v -10e-4 c 0,0.225 0.236,0.468 0.528,0.729 l -0.309,0.087 v 0.026 l 0.225,0.015 c 0.558,0.497 0.915,0.703 0.915,0.703 0,0 -0.69,-0.661 -1.558,-1.44 l 0.023,0.002 -0.052,0.207 0.065,-0.216 -0.565,-0.505 -1.329,-1.183 -0.22,0.125 -0.193,-0.061 -0.008,-0.13 h -0.009 l 0.151,0.044 0.268,-0.122 c -0.492,-0.437 -0.81,-0.689 -0.805,-0.689 l 0.092,0.075 -0.036,-0.021 0.037,-0.024 V 82.16 c 0,-0.348 -0.519,-0.52 -0.519,-0.52 0.002,0 0.18,0.262 0.356,0.262 h 0.012 l 0.029,0.044 0.052,0.003 0.096,-0.003 h 0.188 l -0.205,0.206 0.124,0.114 0.059,0.055 0.096,0.093 0.502,0.449 0.325,-0.216 c 0.238,-0.143 0.388,-0.28 0.479,-0.442 0.189,-0.276 0.189,-0.407 0.217,-0.55 0.061,-0.322 0.153,-0.422 1.961,-2.647 -0.519,0.67 -0.391,0.684 -0.42,0.811 0.505,-0.515 1.865,-2.219 2.645,-3.294 l -0.096,0.296 c 0.435,-0.535 0.938,-1.072 1.502,-1.588 l 0.626,-0.967 0.155,-0.08 c 0.087,0 -0.018,0.228 -0.217,0.566 0.29,-0.227 0.589,-0.452 0.899,-0.664 l 0.163,-0.197 0.019,-0.016 0.316,-0.569 0.052,-0.09 -0.226,0.271 -0.503,0.568 c 0.059,-0.291 0.301,-0.718 0.623,-1.179 l 0.061,-0.084 0.012,-0.016 0.205,0.146 0.043,-0.074 -1.145,-0.823 -0.165,-0.12 -0.028,-0.018 -0.059,-0.043 -0.164,-0.118 -0.02,-0.014 -0.055,-0.04 -0.432,-0.312 -0.207,-0.148 -0.065,-0.046 -0.092,-0.065 -0.036,-0.026 -0.161,-0.115 -0.046,-0.034 -0.009,-0.007 -0.003,-10e-4 -0.016,-0.013 -0.03,-0.021 0.045,0.034 -0.075,-0.056 -0.072,-0.052 -0.049,-0.033 -0.007,0.015 -0.012,0.011 -0.026,0.04 0.003,0.002 0.195,0.141 v -0.001 l 0.098,0.071 0.205,0.147 0.004,-0.01 -0.173,-0.124 0.143,0.101 -0.002,-0.001 0.274,0.185 0.002,0.002 c 0.049,0.036 0.294,0.061 0.311,0.072 l 0.239,0.019 v -0.004 c 0,0.018 -0.154,0.045 -0.104,0.082 l -0.006,0.072 0.154,0.146 0.025,0.038 0.214,0.162 0.396,0.29 0.007,0.007 0.046,0.034 0.002,-0.003 0.199,0.146 0.051,0.043 0.015,0.013 V 72.47 c 0,0.098 0.29,0.166 0.35,0.209 l 0.328,0.066 0.322,0.012 v 0.011 l -0.31,0.179 c -0.109,-0.078 -0.519,-0.045 -0.617,-0.045 h -0.001 l -0.004,-0.169 -0.011,-0.092 -0.125,0.167 -0.533,0.833 c -0.074,-0.107 0.142,-0.508 0.533,-1.054 l 0.068,-0.094 v -0.002 l -0.145,-0.098 -0.022,0.016 -0.117,0.174 -0.275,0.362 c -0.369,0.516 -0.871,0.953 -1.387,1.451 -1.073,0.933 -2.367,1.85 -3.681,2.886 -0.602,0.465 -0.682,0.597 -0.565,0.597 0.073,0 0.225,-0.049 0.377,-0.102 0.152,-0.051 0.304,-0.104 0.371,-0.104 0.098,0 0.008,0.115 -0.533,0.517 0.558,-0.231 1.797,-1.127 2.329,-1.683 L 99.3,76 c -1.371,1.721 -5.341,4.173 -7.823,5.965 0.207,-0.173 0.391,-0.328 0.436,-0.417 -2.119,1.035 -4.213,2.161 -6.178,3.309 1.133,-0.434 1.511,-0.747 2.093,-1.107 0.127,0.051 -1.751,1.099 -2.422,1.57 0.711,-0.318 0.963,-0.396 1.058,-0.396 l 0.062,0.041 0.044,0.032 c 0.054,0 0.188,-0.04 0.526,-0.196 -1.182,0.735 -2.187,1.22 -3.69,1.939 l -0.229,0.05 c -0.262,0 0.731,-0.587 0.513,-0.681 -0.732,0.448 -1.33,0.648 -2.007,0.902 l -0.061,0.026 -0.033,-0.063 -0.014,-0.07 H 81.57 c -1.65,-1 -2.546,-1.73 -2.984,-2.042 0.103,0.071 0.023,0.176 0.025,0.176 0,0 -0.45,-0.021 -0.45,-0.166 v -0.014 l 0.22,-0.156 0.196,-0.327 0.226,-0.718 c 0.059,-0.327 0.181,-0.662 0.29,-1.046 l 0.399,0.281 0.026,-0.021 0.093,-0.065 -0.129,-0.104 -0.081,0.123 -0.04,0.08 h -0.004 l -0.01,-0.063 -0.235,-0.175 0.035,-0.153 c 0.055,-0.188 0.11,-0.406 0.159,-0.62 l -0.204,0.565 0.045,0.029 -0.046,-0.027 -0.042,0.113 -0.234,-0.167 0.029,-0.13 -0.03,-0.024 0.03,0.02 c 0.198,-0.908 0.572,-2.213 0.857,-2.768 l -0.302,0.571 c 0.315,-1.207 0.846,-2.119 1.489,-2.664 -0.698,1.182 -1.352,2.409 -1.163,2.409 l 0.091,-0.04 c 0.47,-0.912 0.974,-1.78 1.548,-2.752 l -0.415,0.963 c 0.287,-0.475 0.589,-0.926 0.902,-1.366 -1.884,1.054 -3.522,2.111 -4.477,2.799 -2.263,0.578 -3.557,1.819 -7.004,3.162 0.523,-0.218 1.428,-0.713 2.16,-1.008 0.341,-0.229 0.419,-0.313 0.341,-0.313 -0.11,0 -0.541,0.174 -0.964,0.354 -0.423,0.169 -0.837,0.344 -0.922,0.344 -0.073,0 0.105,-0.129 0.745,-0.507 -0.162,0.098 -0.191,0.143 -0.138,0.143 0.1,0 0.486,-0.147 0.865,-0.363 1.11,-0.563 2.101,-1.191 1.752,-1.191 l -2.824,1.031 0.912,-0.517 -4.286,1.544 0.052,0.046 c 0.113,0 0.353,-0.055 0.497,-0.093 -0.888,0.375 -1.794,0.761 -2.714,1.158 -0.454,0.562 -0.784,0.954 -1.033,1.256 l -0.204,0.24 -0.091,0.111 -0.042,0.054 -0.006,0.007 0.057,0.085 -0.294,-0.43 0.098,-0.085 0.578,-0.505 0.75,-0.653 -0.706,0.301 -0.032,0.039 -0.562,0.658 -0.148,0.166 -0.016,0.02 -0.295,-0.426 -0.071,0.035 0.109,0.159 0.203,0.291 -0.004,0.001 -0.005,0.003 -0.01,0.006 -0.324,-0.455 -0.741,0.379 0.099,0.007 v 0.01 c 0,-0.198 -0.309,-0.282 -0.324,-0.301 l -0.002,0.05 c -0.358,-0.523 -1.054,-1.477 -2.189,-3.133 l -0.01,-0.008 0.009,-0.026 0.043,-0.037 0.084,-0.098 0.179,-0.187 0.337,-0.343 -0.24,-0.349 0.225,0.322 -0.29,-0.422 0.006,-0.005 0.004,-0.001 0.307,0.441 0.012,-0.011 0.042,-0.038 -0.289,-0.426 0.015,-0.005 0.411,-0.203 -0.364,0.127 -0.087,0.035 -0.005,0.002 -0.612,-0.897 c -2.496,1.269 -4.651,2.255 -5.821,2.638 0.302,-0.291 0.268,-0.407 10e-4,-0.407 -0.577,0 -2.256,0.55 -3.986,1.097 l -0.711,0.221 -0.543,0.698 c -0.103,0.24 -0.209,0.45 -0.363,0.7 l -0.027,0.038 -0.012,-0.012 -0.008,-0.041 h -0.006 l -0.039,0.015 -0.245,0.21 -0.106,0.063 c 0.05,-0.055 -0.011,-0.088 -0.177,-0.088 -0.119,0 -0.29,0.016 -0.513,0.057 -0.262,0.042 -0.598,0.12 -0.995,0.225 l -0.648,0.197 -0.362,0.11 -0.186,0.069 -0.096,0.032 -0.048,0.014 0.027,-0.014 0.082,-0.024 0.149,-0.063 0.256,-0.105 0.379,-0.167 c 0.205,-0.101 0.304,-0.163 0.336,-0.208 0.068,-0.082 -0.118,-0.089 -0.266,-0.095 -0.211,-0.018 -0.337,-0.049 0.433,-0.349 L 46.532,83.392 46.345,83.4 46.1,83.369 c 0.12,0.049 -0.297,0.261 -0.781,0.513 l -0.093,0.027 h -0.055 c -0.096,0 -0.189,-0.146 -0.278,-0.232 l -0.35,0.201 0.37,0.371 -0.371,-0.352 -0.237,0.12 -0.555,0.245 -0.284,0.338 -0.013,0.311 h -0.02 c 0.617,0 0.867,0.544 0.865,0.544 -0.001,0 -1.208,-1.397 -2.416,-2.583 -1.21,-1.182 -2.421,-2.411 -2.416,-2.411 l 0.065,0.035 0.019,-0.049 0.048,-0.093 0.086,-0.164 0.091,-0.454 c -1.372,0.862 -2.792,1.763 -4.618,2.962 l -0.038,0.014 -0.024,0.031 -0.384,0.402 -0.105,0.095 -0.019,-0.158 -0.009,-0.171 h -0.007 c 0.078,0 0.116,0.289 0.114,0.289 0,0 -0.124,-0.038 -0.341,-0.242 -0.47,0.313 -0.964,0.688 -1.468,1.015 l -0.362,0.263 -0.021,0.026 -0.006,0.011 -0.553,-0.519 0.553,0.532 0.145,0.14 C 31.927,83.757 30.182,82.1 26.438,78.543 l 0.012,-0.019 0.035,-0.06 0.038,-0.058 c 0.598,0.564 1.565,1.478 2.529,2.399 1.558,1.479 3.121,2.959 3.125,2.959 l -0.079,-0.077 0.006,-0.007 0.014,-0.004 0.049,-0.029 0.208,-0.129 1.024,-0.628 -1.389,-1.316 -0.87,0.571 -0.035,0.021 0.55,0.525 c -0.004,0 -0.773,-0.729 -1.541,-1.456 -0.775,-0.729 -1.543,-1.46 -1.537,-1.46 l 0.041,0.039 0.007,-0.009 0.008,-0.015 0.004,-0.013 0.032,-0.045 0.187,0.179 0.002,-0.002 -0.189,-0.177 0.023,-0.028 0.09,-0.146 0.197,-0.295 0.227,-0.343 -0.678,-0.651 0.061,0.06 0.006,-0.007 0.015,-0.005 0.025,-0.023 0.241,-0.159 0.519,0.491 0.106,-0.158 -0.465,-0.442 0.471,-0.313 1.431,-0.949 c 0.387,-0.4 0.79,-0.773 1.187,-1.137 -0.028,0.068 -0.073,0.165 -0.192,0.333 l 0.605,-0.538 c 0.736,-0.845 0.769,-1.088 2.115,-2.139 l -1.026,1.162 c 0.768,-0.676 1.725,-1.46 3.413,-2.702 l -0.043,-0.007 c -0.237,0 -0.901,0.376 -1.642,0.854 -0.063,0.117 -0.095,0.202 -0.091,0.25 l -0.61,0.444 0.48,-0.55 c -0.803,0.528 -1.664,1.147 -2.183,1.546 l -0.819,0.905 c -1.205,0.215 -2.79,1.91 -3.597,2.245 1.131,-1.216 4.283,-3.319 7.113,-5.289 0.244,-0.323 0.555,-0.72 0.919,-1.154 -1.875,1.022 -4.245,2.495 -6.533,3.994 -0.299,0.26 -0.433,0.351 -0.488,0.351 l -0.024,-0.016 -0.73,0.478 -0.032,0.085 1.365,-0.713 -1.466,0.957 -0.048,0.121 1.635,-0.752 -1.368,0.866 -0.426,0.283 -0.231,0.578 -0.016,0.021 0.831,0.79 -0.16,0.11 -0.782,-0.741 -0.594,0.817 -0.347,0.51 -0.087,0.127 -0.023,0.033 -0.005,0.005 -0.525,-0.494 0.041,-0.061 0.159,-0.242 0.641,-0.971 0.182,-0.258 -1.122,-1.071 1.127,1.062 0.111,-0.141 -1.932,-1.834 1.606,1.518 0.027,-0.015 0.098,-0.047 0.395,-0.188 0.455,-0.222 0.48,-0.57 c 2.006,-2.144 3.864,-3.501 4.83,-4.48 0.653,-0.49 2.534,-2.002 2.748,-2.002 0.042,0 0.013,0.067 -0.118,0.223 0.423,-0.437 0.912,-0.925 1.45,-1.361 0.273,0.032 -1.134,1.062 -1.055,1.213 0.308,-0.251 0.49,-0.376 0.591,-0.48 -0.316,0.551 1.067,-0.04 -1.983,2.62 -0.192,0.087 -0.305,0.125 -0.359,0.125 -0.194,0 0.348,-0.473 0.858,-0.95 0.519,-0.482 1.008,-0.955 0.692,-0.955 l -0.085,0.009 c -1.249,1.098 -0.787,0.972 -0.887,1.15 -0.855,0.711 -1.183,0.897 -1.309,0.897 -0.064,0 -0.073,-0.049 -0.073,-0.102 -0.363,0.498 -2.038,1.571 -2.871,2.514 2.029,-1.308 3.572,-2 5.439,-2.907 l 0.156,-0.183 -0.131,0.17 c 0.579,-0.28 1.188,-0.583 1.852,-0.929 0.572,-0.71 0.729,-0.946 0.603,-0.946 -0.126,0 -0.533,0.234 -1.103,0.468 -0.451,0.421 -0.732,0.721 -1.222,1.237 3.105,-3.727 5.895,-7.251 8.873,-10.954 0.415,-0.512 0.98,-1.08 1.629,-1.676 -1.436,0.652 -1.713,0.616 -4.483,2.387 l 0.342,-0.282 c -1.685,0.72 -3.208,1.752 -4.562,2.618 -0.911,0.807 -1.819,1.622 -2.717,2.44 l -3.206,3 -1.549,1.513 -0.751,0.759 -0.186,0.194 -0.05,0.05 -0.026,0.018 -0.012,0.014 0.078,0.118 -0.189,-0.274 0.023,-0.017 0.069,-0.071 0.125,-0.124 1.113,-1.076 c 1.537,-1.479 3.166,-3.085 3.843,-3.95 l -1.593,1.294 1.327,-1.744 c 0.257,-0.196 0.386,-0.261 0.447,-0.261 l 0.044,0.046 0.153,-0.229 c -0.247,0.135 -0.452,0.243 -0.636,0.332 l 0.656,-0.358 c 0.23,-0.292 0.635,-0.694 1.152,-1.172 -0.987,0.497 -1.964,1.036 -2.913,1.564 -0.342,0.306 -0.746,0.661 -1.182,1.037 0.424,-0.271 0.976,-0.573 1.049,-0.674 0.315,-0.028 0.585,0.229 1.237,-0.077 -0.901,0.483 -1.781,0.77 -2.704,1.77 h -0.047 c -0.347,0 -0.706,0.286 -1.068,0.606 l -1.348,1.009 -0.657,0.56 -0.107,0.074 0.517,0.745 -0.027,0.02 -0.517,-0.766 -0.062,0.059 0.519,0.76 -0.041,0.042 -0.012,0.016 0.056,0.095 c -0.002,0 -0.23,-0.319 -0.583,-0.836 l -0.065,0.08 -0.034,0.256 -0.018,0.279 H 28.7 c 0.446,0 0.624,0.646 0.622,0.646 0,0 -0.664,-1.161 -1.414,-2.265 L 27.666,68.351 27.428,68.2 27.311,67.902 h -0.006 c -0.66,0 -1.01,-1.131 -1.18,-1.381 l 0.038,0.301 -0.064,-0.047 0.005,0.017 0.007,-0.002 0.021,-0.021 0.04,-0.05 0.446,-0.382 -0.605,-0.89 0.17,-0.073 -0.018,-0.028 -0.152,0.088 c -0.12,-0.172 -0.184,-0.43 -0.184,-0.43 L 25.878,64.9 h 0.004 l 0.015,0.169 0.1,0.065 0.043,0.037 C 25.271,64.04 24.676,63.39 24.676,63.39 c 0,0 0.248,-0.489 0.852,1.511 h 0.006 l 0.033,-0.263 0.028,-0.179 0.094,0.091 0.428,0.607 0.076,-0.047 -0.521,-0.772 0.025,-0.015 0.012,-0.007 0.524,0.769 c 1.046,-0.479 1.994,-0.964 2.677,-1.414 l 0.009,-0.003 c 0.1,0 -1.551,0.959 -2.574,1.578 l 0.029,0.046 c 1.76,-0.8 3.004,-1.764 3.755,-1.764 l 0.073,0.004 c -1.859,0.783 -2.132,0.957 -1.944,0.957 l 0.368,-0.053 0.388,-0.054 c 0.146,0 0.114,0.076 -0.414,0.349 0.902,-0.399 1.815,-0.833 2.637,-1.249 0.352,-0.388 0.585,-0.721 0.717,-0.979 l -0.497,0.275 0.526,-0.335 c 0.079,-0.168 0.11,-0.301 0.098,-0.383 l 2.169,-1.524 c 0.004,-0.093 0.127,-0.274 0.334,-0.511 -1.569,0.848 -3.117,1.621 -4.669,2.372 l -4.206,1.918 -0.241,-0.356 0.122,-0.081 0.494,-0.323 c 0.391,-0.243 0.927,-0.547 1.812,-0.985 -0.312,0.071 -0.94,0.31 -1.732,0.631 L 25.54,63.454 25.219,63.589 24,61.806 l 1.113,1.624 0.007,-0.004 0.126,-0.057 0.49,-0.235 c 0.12,-0.094 0.288,-0.201 0.676,-0.381 l -0.348,0.234 4.683,-2.185 c 1.409,-0.555 1.656,-0.555 1.85,-0.555 0.255,0 0.429,0 2.79,-1.127 0.012,-0.1 -0.039,-0.134 -0.141,-0.134 -0.194,0 -0.571,0.127 -1.061,0.205 0.943,-0.484 1.892,-0.978 2.839,-1.499 l 0.791,-0.709 -1.024,0.546 c -0.218,0.188 -0.415,0.367 -0.545,0.517 -0.006,-0.059 0.055,-0.17 0.165,-0.311 l -0.352,0.189 0.37,-0.21 c 0.454,-0.582 1.665,-1.711 2.555,-2.447 l 0.02,0.002 c 0.385,0 1.839,-1.184 3.281,-2.371 1.435,-1.181 2.856,-2.368 3.163,-2.368 0.081,0 0.084,0.085 -0.018,0.283 4.456,-3.843 10.812,-8.73 14.544,-11.604 -4.224,0.843 -6.434,2.517 -10.528,4.614 l -0.039,0.01 c -0.129,0 2.029,-1.18 1.798,-1.244 -2.772,1.782 -5.343,2.839 -9.344,6.029 0.429,-0.356 0.587,-0.565 0.658,-0.691 -0.274,0.315 -1.689,1.51 -2.561,2.316 l -0.17,0.098 c -0.029,0 0.141,-0.151 0.312,-0.3 0.17,-0.154 0.331,-0.305 0.287,-0.305 l -0.062,0.024 c -4.116,3.006 -7.457,6.034 -11.139,8.726 l -0.803,0.569 0.111,0.074 -0.112,-0.074 -0.592,0.416 -0.043,0.037 -0.017,0.012 -0.007,0.007 -1.108,-0.738 -0.161,0.03 c 0.002,0 -0.29,-0.021 -0.29,-0.075 v -0.009 l 0.206,-0.109 0.099,-0.212 0.129,-0.429 0.168,-0.865 c 0.224,-1.148 0.493,-2.313 0.923,-3.443 0.775,-2.279 1.95,-4.519 3.536,-6.627 -1.787,2.445 -1.844,3.724 -1.744,3.799 0.493,-0.834 0.951,-1.682 1.527,-2.46 0.412,-1.075 1.82,-2.758 2.959,-4.195 0.139,-0.063 0.462,-0.309 0.545,-0.309 0.045,0 0.006,0.088 -0.207,0.35 4.345,-3.6 6.386,-6.447 12.871,-9.31 -2.476,1.414 -4.829,3.019 -6.981,4.823 0.615,-0.323 1.266,-0.583 1.896,-0.874 -0.979,0.747 -1.91,1.538 -2.816,2.344 1.79,-1.024 3.084,-2.366 3.547,-2.366 l 0.06,0.009 c -0.355,0.298 -1.292,0.879 -1.232,1.035 1.81,-1.005 1.859,-1.256 3.198,-2.065 -3.446,2.322 -9.797,7.21 -11.964,10.898 l -0.113,0.163 c -0.035,0 0.316,-0.738 0.347,-0.84 -1.013,1.387 -1.779,2.146 -2.67,4.138 -0.076,0.294 -0.088,0.415 -0.057,0.415 0.119,0 0.791,-1.457 1.266,-2.137 0.14,0.26 -0.182,0.688 -0.68,1.743 -0.201,0.037 -0.959,1.462 -1.563,3.132 l -0.051,0.173 c 0.282,-0.249 0.854,-0.68 1.922,-1.424 l 1.737,-0.875 c 2.764,-2.503 6.344,-5.808 9.92,-8.264 L 42.213,45.5 c -0.12,0.145 -0.126,0.199 -0.065,0.199 0.142,0 0.643,-0.298 0.928,-0.43 2.701,-1.795 5.038,-3.674 6.97,-4.323 1.589,-1.015 3.783,-2.334 6.319,-3.2 1.239,-0.473 2.573,-0.802 3.856,-1.079 l 1.911,-0.298 0.235,-0.015 0.115,0.25 0.025,0.301 h 0.007 c 0.759,1 1.139,3.032 1.308,3.534 l -0.007,-0.192 -0.006,-0.048 -0.042,-0.002 -0.011,-0.003 -0.317,0.238 -0.629,0.48 -0.099,0.012 c -0.171,0 -0.049,-0.178 0.268,-0.465 l 0.308,-0.269 0.181,-0.15 0.079,-0.078 -0.015,-0.007 -0.149,-0.035 -0.22,-0.023 v -0.005 c 0,-0.43 0.018,-1.986 -0.635,-2.986 h -0.007 l -0.014,-0.156 -1.28,0.151 c -1.837,0.222 -3.978,0.812 -4.796,1.233 1.268,-0.414 2.59,-0.707 3.912,-0.921 -2.456,0.429 -3.355,0.88 -4.651,1.604 1.638,-0.544 2.757,-0.811 3.845,-1.172 0.538,-0.19 1.1,-0.259 1.722,-0.399 l 0.994,-0.252 0.276,-0.088 h 0.014 l 0.022,0.032 c 0.057,0.173 0.147,0.854 0.382,1.551 0.13,0.37 0.217,0.787 0.217,1.074 v 0.006 l 0.106,0.025 0.005,0.039 -0.066,0.088 -0.432,0.36 -0.009,-0.087 c -0.128,0 -0.566,0.521 -1.433,1.123 l -0.145,0.79 h -0.008 c -0.041,0 -0.186,-0.227 -0.545,0.013 l -4.406,3.256 c 1.032,-0.606 1.244,-0.468 2.407,-1.318 l -0.105,-0.009 c -0.248,0 0.644,-0.71 1.722,-1.467 -0.206,0.202 -0.257,0.275 -0.206,0.275 0.071,0 0.399,-0.206 0.728,-0.407 0.335,-0.206 0.673,-0.409 0.771,-0.409 l 0.021,0.008 c -2.36,1.658 -5.183,3.809 -6.647,5.024 l -0.663,0.141 c -1.559,1.126 -3.101,2.394 -4.404,3.438 5.884,-3.164 11.938,-6.256 18.353,-8.837 l -0.193,-0.368 0.195,0.368 0.047,-0.021 0.012,-0.065 -0.343,-0.656 0.345,0.651 0.037,-0.031 -0.017,-0.03 0.019,0.03 0.17,-0.109 c 0.187,-0.025 0.426,-0.092 0.662,-0.165 l 0.059,-0.027 1.76,3.36 1.477,2.819 0.911,-0.548 c 0.027,-0.059 0.068,-0.118 0.202,-0.2 L 73.457,46.758 75,45.838 c 0.235,-0.063 0.39,-0.082 0.495,-0.082 l 0.101,0.007 0.102,-0.079 -0.073,0.081 0.087,0.029 0.158,0.053 c 0.123,0 0.342,-0.074 0.874,-0.331 -0.065,-0.235 -0.236,-0.156 -0.566,-0.228 l 1.029,-0.628 -0.008,0.148 c 0.217,-0.288 0.578,-0.601 0.827,-0.77 -0.211,0.071 -0.42,0.148 -0.632,0.245 l 1.215,-0.681 0.602,-0.327 0.302,-0.14 c -0.253,-0.346 -0.507,-0.842 -0.515,-0.85 0.009,0.008 0.15,0.62 0.517,0.62 h 0.008 c 0.248,0 0.391,0.623 0.458,0.719 l 0.485,0.632 0.018,0.048 -0.019,0.035 0.359,0.497 0.267,-0.15 0.644,0.89 -0.008,-10e-4 -0.669,-0.884 0.069,-0.061 0.324,-0.383 -0.287,-0.039 V 44.2 c 1,0.793 1.725,1.799 2.463,2.803 1.395,1.902 2.537,3.802 3.537,4.264 v 0.003 l -0.052,0.008 -0.066,0.012 -0.026,0.025 -0.105,0.123 -0.208,0.231 -0.225,0.254 0.186,0.138 c 0.117,-0.149 0.166,-0.201 0.188,-0.201 l 0.006,0.114 c -0.003,0.057 -0.003,0.11 0.049,0.11 l 0.152,-0.075 -0.217,0.187 0.179,0.136 0.277,0.204 0.564,0.418 0.159,-0.182 0.038,-0.045 0.007,-0.007 1.826,1.394 c 1.236,0.938 2.47,1.876 2.78,2.108 l -0.004,0.005 -0.014,0.02 -0.026,0.031 -0.106,0.128 -0.051,0.063 0.209,0.159 -0.005,0.002 -0.211,-0.166 -0.015,0.011 0.465,0.139 0.245,-0.031 v -0.077 l -0.392,0.396 h 0.002 l 0.042,-0.085 c 0.108,0.082 0.348,0.085 0.348,0.162 v 0.005 l -10e-4,0.005 10e-4,-10e-4 v 0.002 l -0.171,-0.001 c 0.624,0.048 0.182,0.099 0.263,0.163 l 0.087,10e-4 0.012,0.003 c -0.067,-0.052 -0.191,-0.105 -0.191,-0.16 v -0.003 l -0.041,0.002 -0.018,0.001 -0.021,0.013 -0.046,0.048 -0.082,0.095 -0.165,0.193 -0.321,0.382 -0.657,0.727 c 0.342,-0.107 0.757,-0.48 1.199,-0.965 l 0.171,-0.197 0.079,-0.094 0.021,-0.027 -0.128,-0.014 0.007,0.11 v 0.006 l 0.128,0.008 0.06,0.006 0.018,0.025 -0.023,0.041 -0.073,0.087 -0.157,0.174 c -0.851,0.933 -1.601,1.785 -2.184,2.53 0.327,-0.632 0.433,-1.113 0.148,-1.113 -0.152,0 -0.408,0.13 -0.791,0.435 0.564,-0.576 1.383,-1.476 2.248,-2.455 l 0.161,-0.179 0.07,-0.078 -0.12,-0.088 -0.002,0.004 -0.248,0.154 -0.345,0.154 -0.023,0.029 -0.332,0.399 c -0.395,0.671 -0.872,1.254 -1.401,1.763 -0.333,0.244 -0.626,0.443 -0.886,0.612 l 0.028,0.067 0.039,-0.005 -2.475,2.112 0.38,0.156 c -1.245,1.341 -1.715,1.435 -2.722,2.756 l 0.184,0.294 c 1.105,-1.018 2.197,-2.071 3.271,-3.151 -1.522,1.74 -0.202,0.718 -1.931,2.556 0.422,-0.543 0.544,-0.745 0.488,-0.745 -0.088,0 -0.62,0.547 -1.172,1.044 -0.551,0.488 -1.12,1.038 -1.28,1.038 H 84.21 l -1.186,1.39 0.273,-0.424 c -1.159,0.88 -1.144,1.268 -2.393,2.403 1.563,-1.234 2.678,-1.964 4.32,-3.942 -0.988,1.222 -2.903,3.299 -3.877,4.311 0.851,-0.4 1.862,-0.955 3.276,-1.875 0.797,-0.591 -0.905,-0.02 1.787,-1.532 l 0.012,-0.003 c 0.031,0 -0.219,0.217 -0.453,0.433 -0.229,0.209 -0.448,0.421 -0.364,0.421 0.086,0 0.46,-0.2 1.398,-0.802 0.957,-0.804 2.119,-1.6 3.408,-2.408 l 0.482,-0.31 0.244,-0.154 0.06,-0.043 0.015,-0.009 -0.004,-0.003 -0.237,-0.19 0.244,0.193 0.002,-0.002 0.148,0.121 c 0.712,0.565 2.153,1.704 4.849,3.836 l -0.008,0.015 -0.006,0.008 -0.013,0.029 -0.084,0.157 -0.01,0.021 c -0.227,0.416 -0.44,0.873 -0.682,1.277 l 0.859,0.684 -0.863,-0.677 -0.009,0.015 -0.037,0.062 c -0.514,0.872 -1.048,1.677 -1.536,2.48 -1.15,1.313 -2.851,3.228 -3.138,3.228 -0.04,0 -0.052,-0.04 -0.027,-0.127 1.658,-1.607 3.749,-4.481 4.441,-5.874 l -0.232,-0.186 -0.001,0.001 C 94.77,68.57 94.665,68.71 94.55,68.844 l 0.218,-0.495 -0.251,-0.2 -0.034,0.105 0.008,-0.122 -0.002,-0.004 -0.01,-0.01 c -3.365,4.422 -2.699,4.36 -5.478,7.976 0.505,-0.443 0.76,-0.594 0.884,-0.594 0.127,0 0.122,0.155 0.108,0.312 -0.013,0.158 -0.035,0.306 0.065,0.306 0.081,0 0.247,-0.099 0.559,-0.386 -1.847,2.088 -3.017,3.51 -3.491,3.542 v 0.046 c 0.043,0 0.156,-0.038 0.377,-0.138 2.093,-1.251 1.791,-1.505 3.811,-2.793 0.214,0.072 -0.751,0.931 -0.466,0.931 0.072,0 0.222,-0.056 0.492,-0.191 0.526,-0.115 2.257,-0.514 4.738,-2.522 0.146,-0.187 0.756,-0.727 1.468,-1.33 l -0.255,0.245 c 0.516,-0.343 1.052,-0.685 1.53,-1.059 l 0.404,-0.71 c -0.158,0.091 -0.44,0.342 -0.734,0.633 0.597,-0.592 1.052,-1.165 1.267,-1.496 l 0.047,-0.073 0.003,-10e-4 0.194,-0.063 0.159,0.001 v 0.016 l -0.26,-0.114 -0.08,0.004 -0.056,0.016 -0.073,0.041 -0.021,0.008 -0.176,0.14 -0.508,0.448 c -1.184,1.158 -2.65,2.234 -4.188,3.227 2.001,-1.391 3.103,-2.51 4.706,-3.919 l 0.309,-0.096 0.347,-0.053 v -0.006 l -0.343,-0.033 -0.193,-0.267 -0.059,-0.261 h 0.594 v 0.514 c -1,-0.051 -0.498,-0.1 -0.564,-0.147 l -0.303,0.066 -0.564,0.562 c -0.398,0.383 -0.821,0.815 -1.312,1.238 -0.932,0.862 -2.06,1.74 -3.132,2.538 1.185,-1.174 2.392,-2.286 3.466,-3.495 0.262,-0.306 0.534,-0.57 0.726,-0.872 l 0.167,-0.291 0.085,-0.116 h 0.004 c -0.267,0 -0.504,-0.308 -0.502,-0.308 0,0 -0.083,0.021 0.213,0.234 l -0.28,0.063 v -0.004 l 0.206,-0.006 -0.475,-0.346 c 0.004,0 0.269,0.097 0.269,0.349 v -0.002 c 1,0.134 0.591,0.221 0.665,0.278 0.752,0.539 2.306,1.496 4.551,3.105 l 0.425,-0.18 -0.322,0.22 0.517,0.365 z m -4.361,-3.09 -10e-4,-0.002 10e-4,0.002 -0.063,-0.048 -0.002,0.016 0.019,0.08 0.036,-0.032 0.01,-0.016 z m -9.413,-15.755 -0.009,-0.007 -0.055,-0.043 -0.192,0.198 -0.004,0.003 0.093,0.069 0.008,0.006 0.063,-0.048 0.096,-0.178 z m 0.095,0.075 -0.03,-0.024 -0.065,0.074 0.095,-0.05 z m 0.029,-0.094 c -0.134,-0.21 -0.22,-0.279 -0.276,-0.279 l -0.078,0.062 -0.003,0.003 v 0.001 l 0.003,-0.004 0.212,0.159 0.018,-0.003 0.013,0.029 -0.001,-10e-4 v 0.002 l 0.001,0.001 v -0.002 l 0.083,0.06 0.004,-0.002 0.024,-0.026 z m -0.614,-0.419 0.239,0.181 0.089,-0.071 c 0.348,0.206 0.377,0.303 0.301,0.368 l -0.002,0.004 h 0.001 l 0.002,-0.004 0.251,0.193 0.037,-0.045 0.024,-0.033 0.016,-0.014 0.006,-0.007 v -0.004 l -0.018,-0.012 0.018,0.011 -0.02,-0.012 -0.002,-0.002 0.001,0.001 -0.013,-0.01 -0.046,-0.036 0.008,0.005 -0.806,-0.618 -0.047,0.06 -0.039,0.045 z m -0.026,0.392 0.112,0.085 0.014,-0.019 0.009,0.002 c 0.054,0 0.086,-0.082 0.111,-0.163 l 0.02,-0.048 -0.042,-0.032 -0.152,0.125 -0.072,0.05 z m -2.373,-1.808 0.088,0.066 0.062,-0.063 0.113,-0.108 0.023,-0.019 -0.001,-0.004 -0.103,-0.076 -0.013,0.012 -0.169,0.192 z M 63.555,39.59 63.66,39.888 h 0.001 L 63.555,39.59 z m -34.13,16.253 -0.086,10e-4 -0.084,0.006 -0.185,0.569 c 0.632,-0.521 0.536,-0.576 0.355,-0.576 z m -3.086,9.468 -0.031,-0.04 -0.071,0.043 0.02,0.033 0.082,-0.036 z m 0.933,2.452 -0.032,10e-4 c -0.087,-0.291 -0.125,-0.515 -0.125,-0.698 l -0.256,-0.373 -0.055,0.076 -0.253,0.381 -0.027,0.041 -0.009,0.015 -0.005,0.013 -0.007,0.005 -0.012,-0.011 0.362,0.532 0.359,0.527 -0.124,-0.195 0.067,-0.052 0.105,-0.093 c 0.096,-0.105 0.118,-0.169 0.012,-0.169 z m 11.021,-11.2 -0.017,-0.039 c -0.133,0 -0.837,0.476 -1.413,0.951 0.337,-0.182 0.661,-0.354 0.979,-0.514 l 0.451,-0.398 z m -8.675,18.342 c -0.054,0 -0.242,0.154 -0.741,0.652 l -0.037,0.088 c 0.219,-0.121 0.444,-0.248 0.676,-0.39 l 0.051,-0.14 c 0.045,-0.105 0.095,-0.21 0.051,-0.21 z m 1.859,-1.147 c -0.061,0 -0.212,0.074 -0.41,0.187 l -0.092,0.125 c -0.322,0.315 -0.574,0.558 -0.774,0.74 0.4,-0.277 0.826,-0.594 1.293,-0.981 l -0.017,-0.071 z m 52.695,-12.407 -0.387,0.19 0.295,-0.143 0.092,-0.047 z m -0.09,-0.111 -0.054,0.043 -0.328,0.277 -0.063,0.053 0.445,-0.373 z m 0.297,-12.122 -0.108,-0.148 -0.019,0.027 0.1,0.138 0.027,-0.017 z m 2.619,3.251 -0.016,0.021 -0.154,0.191 0.2,0.152 0.016,0.012 0.166,-0.212 v -0.001 l -0.003,-0.002 -0.011,-0.009 -0.003,-0.002 -0.195,-0.15 v -10e-4 h -0.001 l 0.001,10e-4 z m -0.151,-0.17 0.016,0.012 0.004,0.002 -0.02,-0.014 z m -0.249,0.211 0.056,0.041 0.007,-0.006 0.196,-0.181 -0.047,-0.036 -0.212,0.182 z m -0.318,-0.246 0.182,0.14 0.172,-0.196 0.035,-0.045 -0.185,-0.141 -0.204,0.242 z m -0.083,0.316 0.013,0.01 -10e-4,-0.002 -0.012,-0.008 z m -0.144,-0.018 0.013,0.01 0.08,0.051 h 0.08 l 0.006,-0.004 -0.151,-0.115 -0.028,0.035 v 0.023 z m -0.727,-2.003 0.244,0.331 0.006,-0.004 0.011,-0.013 h 0.002 l 0.007,0.007 0.34,0.46 -0.343,-0.466 h 0.003 l -0.087,-0.115 0.084,0.115 H 85.59 l -0.204,-0.284 0.014,0.015 -0.022,-0.027 0.008,0.012 -0.031,-0.045 -0.027,0.015 h -0.002 z m -1.888,-3.466 0.088,0.119 -0.088,-0.119 z m -0.275,0.39 0.208,0.287 0.197,-0.032 0.096,0.064 h 0.019 l 0.009,-0.099 -0.079,-0.096 c 0,0 0.024,-0.429 0.081,0.195 h 0.003 c 0.058,0 0.078,-0.109 0.077,-0.109 l -0.005,-0.221 c 0.14,0.185 0.383,0.955 0.801,0.955 h -0.01 l -0.005,0.143 -0.035,0.169 -0.127,0.171 -0.097,0.125 0.112,0.155 0.147,-0.121 0.114,-0.107 0.036,-0.059 v -0.006 c -0.624,-0.968 -1.03,-1.44 -1.185,-1.652 l 0.023,0.006 -0.008,0.011 -0.02,0.004 -0.041,0.026 -0.311,0.191 z m -0.067,0.04 0.214,0.29 0.024,-0.02 -0.21,-0.285 -0.028,0.015 z m -0.953,-1.434 0.048,0.071 h 0.004 l -0.052,-0.071 z m -0.248,-0.205 0.24,0.327 0.022,-0.023 -0.237,-0.324 -0.025,0.02 z m -1.554,-1.34 C 79.21,45.14 79.268,45.2 79.468,45.2 h 0.129 c 0.078,0 0.143,0.007 0.157,0.047 l 0.076,-0.02 c 0.055,0 -0.029,0.095 -0.117,0.205 0.318,-0.16 0.609,-0.308 0.873,-0.451 l 0.105,-0.059 -0.35,-0.478 z m -0.763,1.054 0.045,-0.023 0.02,-0.041 -0.065,0.064 z m 0.355,-1.132 c -0.184,0.168 -0.417,0.313 -0.747,0.426 l 0.042,0.231 1.108,-0.591 -0.202,-0.272 v 0.007 l -0.019,0.018 -0.054,0.06 -0.128,0.121 z m -0.631,18.181 h 0.01 l 0.011,-0.002 -0.021,0.002 z M 78.301,43.939 c 0.157,0.162 0.349,0.286 0.516,0.417 0.312,-0.11 0.696,-0.316 0.913,-0.571 0.007,-0.078 -0.035,-0.109 -0.098,-0.109 -0.104,0 -0.272,0.078 -0.43,0.156 -0.165,0.078 -0.313,0.158 -0.381,0.158 -0.065,0 -0.057,-0.069 0.085,-0.273 -0.206,0.084 -0.407,0.156 -0.605,0.222 z m 0.753,18.678 0.02,0.007 0.02,-0.005 -0.04,-0.002 z m -1.636,2.35 c 0.41,-0.375 0.506,-0.524 0.455,-0.57 l -0.228,0.134 0.162,-0.151 h -0.014 l -0.221,0.022 -0.237,0.028 -0.081,-0.012 c 0.015,0.113 0.072,0.177 0.173,0.177 0.057,0 0.134,-0.02 0.218,-0.065 l -0.201,0.229 c 0.05,0.019 0.058,0.081 -0.026,0.208 z m 0.517,-1.186 c -0.004,-0.032 0.189,-0.313 0.421,-0.648 l -0.727,0.783 0.306,-0.135 z m 0.031,-0.654 0.062,0.007 h 0.006 L 77.966,63.127 z M 77.285,45.322 77.229,45.246 c -0.027,0.047 -0.015,0.073 0.056,0.076 z m -1.384,1.633 c 0.287,-0.184 0.591,-0.374 0.916,-0.567 l 0.113,-0.277 0.135,-0.02 c 0.092,0 0.079,0.051 0.041,0.122 l 0.521,-0.299 c 0.132,-0.25 0.148,-0.467 0.006,-0.522 -0.268,0.207 -0.405,0.297 -0.466,0.315 -0.333,0.247 -0.666,0.476 -1.001,0.683 -0.042,0.17 -0.088,0.324 -0.265,0.565 z m -1.124,1.312 -0.397,0.44 0.455,-0.268 c 0.237,-0.213 0.419,-0.405 0.613,-0.405 l 0.077,0.008 0.23,-0.132 -0.222,0.134 0.074,0.031 c -1.531,0.713 0.228,0.229 -0.369,0.704 0.413,-0.239 0.833,-0.509 1.151,-0.753 l 0.078,-0.249 -0.027,0.002 c -0.097,0 -0.085,-0.086 -0.062,-0.172 0.022,-0.088 0.051,-0.171 -0.007,-0.171 -0.052,0 -0.169,0.066 -0.414,0.251 0.115,-0.127 0.236,-0.251 0.37,-0.375 l -1.55,0.955 z m -3.831,15.016 0.71,-0.614 -0.305,0.26 -0.117,-0.166 -0.376,0.247 0.061,0.227 0.027,0.048 -0.621,0.387 -1.414,1.229 h 0.022 c 0.066,0 0.134,0.123 0.214,0.092 0.15,-0.169 0.833,-0.501 0.578,-0.623 l 1.016,-0.332 -0.277,-0.251 c 0.366,-0.307 0.605,-0.272 0.826,-0.544 l 0.126,-0.063 c -0.281,0.162 -0.409,0.163 -0.47,0.103 z m -0.212,10.315 0.045,0.006 c 0.105,0 0.271,-0.093 0.407,-0.261 l -0.452,0.255 z m -0.753,0.012 -0.266,0.241 0.459,-0.366 -0.183,0.116 -0.005,0.004 c -0.496,0.312 -1.007,0.626 -1.536,0.943 -0.368,0.441 -0.676,0.821 -0.86,1.071 l 1.305,-1.097 -0.05,0.024 0.411,-0.327 0.725,-0.609 z m -9.815,2.618 c 0.067,0.077 -1.314,0.888 -0.657,0.926 0.41,-0.198 0.879,-0.437 1.349,-0.674 0.277,-0.158 0.476,-0.312 0.422,-0.445 l 0.074,0.079 c 0.886,-0.366 0.156,-0.606 1.281,-0.984 -0.03,-0.068 -0.101,-0.108 -0.199,-0.108 -0.118,0 -0.281,0.052 -0.47,0.176 -0.282,0.226 -0.222,0.46 -0.852,0.827 -0.416,-0.085 0.797,-0.368 0.14,-0.535 l -0.041,-0.003 c -0.144,0 -0.401,0.145 -0.657,0.289 -0.249,0.14 -0.501,0.281 -0.627,0.281 l -0.068,-0.032 -0.67,0.413 c 0.029,0.116 0.087,0.213 -0.117,0.447 l 1.092,-0.657 z m -1.938,1.263 c -0.104,0.128 -0.097,0.182 -0.008,0.182 0.087,0 0.247,-0.054 0.463,-0.141 -0.081,-0.049 -0.205,-0.068 -0.355,-0.068 -0.23,0 -0.519,0.049 -0.831,0.098 l -1.206,0.894 0.123,0.027 1.814,-0.992 z M 54.423,57.849 c -0.051,0 -0.156,0.035 -0.329,0.121 -0.461,0.359 -0.672,0.622 -0.47,0.629 l 0.498,-0.245 0.04,-0.05 c 0.203,-0.226 0.395,-0.455 0.261,-0.455 z m -0.095,0.685 -0.093,0.107 0.174,-0.155 -0.081,0.048 z m -0.099,19.976 0.107,-0.013 0.28,-0.146 0.16,-0.126 c -0.175,0.004 -0.387,0.068 -0.547,0.285 z m 0.9,-8.371 C 55.048,70.098 54.971,70.061 54.87,70.061 l -0.216,0.046 0.047,0.347 0.428,-0.315 z m 2.174,-2.984 c 0.087,-0.13 0.192,-0.272 0.347,-0.451 l 0.062,-0.187 0.039,0.073 0.339,-0.357 1.127,-0.696 c 0.377,-0.354 0.761,-0.712 1.162,-1.076 l -0.823,0.393 c 1.04,-0.652 1.513,-1.018 1.72,-1.236 l -0.161,-0.045 c -0.207,0 -0.511,0.152 -0.721,0.521 l 0.03,-0.227 c -0.086,0.277 -0.576,0.804 -0.862,0.86 0.145,-0.162 0.142,-0.213 0.071,-0.213 -0.066,0 -0.187,0.041 -0.312,0.083 -0.117,0.048 -0.239,0.085 -0.31,0.085 l -0.037,-0.001 0.728,-0.612 c -2.563,1.502 -1.817,1.771 -4.264,3.178 -0.218,0.177 -0.28,0.249 -0.243,0.249 0.064,0 0.413,-0.198 0.752,-0.401 0.345,-0.2 0.683,-0.399 0.737,-0.399 0.036,0 -0.108,0.126 -0.575,0.479 -1.487,0.879 -1.473,0.952 -1.664,1.183 l 0.097,0.83 c 0.038,0.027 0.051,0.069 0.034,0.127 0.831,-0.695 1.753,-1.425 2.727,-2.16 z m 1.463,-8.653 0.191,-0.164 -0.211,0.123 c -0.041,0.073 -0.141,0.164 -0.269,0.273 l -0.083,0.115 0.048,-0.029 0.472,-0.426 -0.148,0.108 z m 1.374,-0.778 2.178,-1.404 -0.256,0.189 0.023,-0.004 -0.106,0.21 -0.017,-0.132 C 60.636,57.562 60.478,57.8 60.723,57.8 l 0.057,-0.004 c 0.175,-0.19 0.375,-0.394 0.655,-0.604 v 0.018 l 0.544,-0.474 c 0.403,-0.35 0.857,-0.72 1.386,-1.134 l -0.04,-0.007 -0.089,-0.011 -0.476,0.291 c -0.097,0.106 -0.306,0.237 -0.542,0.371 0.084,-0.12 0.068,-0.159 0.007,-0.159 l -0.245,0.063 -0.258,0.061 -0.069,-0.016 -0.382,0.333 c 0.258,0.179 -0.511,0.707 -1.131,1.196 z m 0.703,-1.223 -0.13,0.06 -0.011,0.048 0.141,-0.108 z m 0.463,-0.628 0.689,-0.463 -0.174,0.035 0.205,-0.054 0.527,-0.356 -0.67,0.288 -0.143,0.132 0.081,-0.01 -0.113,0.039 -0.402,0.389 z m 0.33,-4.72 0.414,-0.463 c -0.367,0.248 -0.623,0.455 -0.676,0.573 l 0.262,-0.11 z m 1.375,3.575 1.002,-0.673 -0.203,0.077 -0.016,-0.069 c -0.529,0.334 -0.939,0.637 -0.783,0.665 z m 0.766,-8.215 c 0.154,-0.175 0.287,-0.336 0.395,-0.487 -0.344,0.238 -0.732,0.521 -1.144,0.833 l 0.749,-0.346 z m -1.115,8.798 -0.504,0.614 c 0.716,-0.427 1.456,-0.935 1.866,-1.256 l 0.33,0.123 0.008,0.063 c 0.602,-0.524 0.228,-0.951 2.593,-1.951 h -0.008 c -0.481,-0.001 -2.618,1.535 -4.285,2.407 z m 6.702,-11.875 -0.022,0.012 0.035,0.062 0.018,-0.014 -0.031,-0.06 z m 0.017,0.028 -0.015,-0.031 h -0.002 l 0.017,0.031 z m -0.047,-0.011 -0.028,0.018 0.033,0.069 0.028,-0.022 -0.033,-0.065 z m -0.001,-0.005 -0.168,-0.317 -0.03,0.02 0.168,0.316 0.03,-0.019 z m -0.209,-0.285 -0.061,0.052 0.162,0.312 0.064,-0.049 -0.165,-0.315 z m 0.103,0.366 0.039,0.071 0.062,-0.048 -0.038,-0.067 -0.063,0.044 z m -1.512,8.067 0.512,-0.24 c 0.594,-0.332 0.972,-0.507 1.246,-0.608 l 0.4,-0.329 c -0.139,0.12 -0.234,0.216 -0.3,0.294 0.193,-0.064 0.331,-0.09 0.47,-0.12 0.403,-0.301 0.51,-0.432 0.782,-0.611 l 0.079,-0.047 0.088,-0.088 c 0.229,-0.215 0.476,-0.429 0.786,-0.672 l 0.284,-0.212 -0.007,-0.014 0.008,-0.004 0.008,0.012 0.06,-0.042 -0.068,0.03 -0.028,-0.056 0.016,-0.008 0.051,-0.03 0.032,0.061 0.011,-0.007 -0.031,-0.06 -0.012,0.005 -0.008,-0.013 -0.066,0.04 0.063,-0.043 -0.095,-0.185 -0.069,0.038 0.101,0.189 0.007,0.011 -0.009,0.007 -0.005,-0.012 -0.01,0.005 0.009,-0.006 -0.1,-0.191 -0.289,0.149 -0.233,0.119 -0.058,0.087 -0.112,0.023 -0.034,-0.002 -0.179,0.09 c -0.215,0.259 -0.767,0.56 -1.374,0.874 -0.606,0.503 -1.242,1.019 -1.926,1.566 z m 3.955,-3.263 -0.032,0.016 -0.107,0.09 0.213,-0.076 -0.025,-0.053 -0.049,0.023 z m 0.042,-0.036 -0.007,-0.01 -0.025,0.021 0.032,-0.011 z m 0.36,0.316 -0.016,0.009 0.091,0.178 0.026,-0.018 -0.094,-0.175 -0.007,0.006 z m 1.383,13.006 -0.108,0.081 0.105,0.237 c 0.275,-0.348 0.504,-0.67 0.666,-0.928 0.055,-0.027 0.129,-0.073 0.284,-0.2 0.164,-0.288 0.191,-0.426 0.137,-0.495 -0.659,0.537 -1.679,1.189 -1.084,1.305 z m 1.307,-13.111 -0.445,0.27 -0.077,0.09 c 0.206,-0.097 0.375,-0.229 0.522,-0.36 z m -0.371,19.04 0.003,-0.001 0.071,-0.058 -0.074,0.059 z m -0.636,0.603 v 0.003 l 0.012,-0.011 -0.012,0.008 z m -0.41,0.115 0.012,0.007 0.043,-0.007 h -0.055 z m 0.425,-8.062 0.038,-0.106 -0.098,-0.096 -0.201,0.235 -0.008,0.071 0.269,-0.104 z m 0.411,-7.69 -2.37,1.296 -0.043,0.083 c 0.504,-0.22 0.996,-0.429 1.466,-0.629 0.329,-0.256 0.634,-0.489 0.947,-0.75 z m -2.385,9.528 -0.061,0.165 c 0.105,-0.032 0.18,-0.073 0.239,-0.12 0.072,-0.152 0.083,-0.261 -0.033,-0.261 l -0.027,0.002 c -0.395,0.354 -0.798,0.694 -1.212,1.039 l 0.194,-0.115 c 0.172,-0.099 0.356,-0.201 0.478,-0.201 l 0.08,0.021 0.342,-0.53 z m -0.853,-11.763 0.573,-0.427 -0.378,0.207 -0.286,0.266 0.091,-0.046 z m 1.422,-1.125 -0.079,-0.156 -0.023,0.023 -0.036,0.032 0.095,0.182 0.025,-0.049 0.018,-0.032 z m -0.152,-0.09 -0.059,0.054 0.075,0.145 -0.009,0.004 -0.074,-0.141 -0.315,0.293 -0.074,0.068 0.167,-0.083 0.295,-0.138 0.027,0.051 0.008,-0.006 -0.025,-0.049 0.024,-0.012 0.039,-0.021 0.005,-0.003 0.014,0.024 0.005,-0.012 -0.003,-0.01 -0.005,-0.003 h -0.012 l -0.083,-0.161 z m -0.003,-0.207 -0.035,-0.068 -0.024,0.015 0.009,0.017 -10e-4,0.004 -0.012,-0.017 0.01,0.017 -0.004,0.002 -0.008,-0.016 -0.037,0.021 0.006,0.013 0.03,0.062 0.002,-10e-4 -0.032,-0.06 0.032,-0.013 0.006,-0.004 0.029,0.053 0.001,-0.002 -0.021,-0.043 0.026,0.041 0.023,-0.021 z m -0.162,-0.231 -0.037,0.02 0.096,0.183 0.034,-0.026 -0.093,-0.177 z m -0.025,-0.05 -0.173,-0.322 -0.037,0.013 0.173,0.332 0.037,-0.023 z m -0.233,-0.232 -0.021,0.038 0.134,0.252 0.069,-0.031 -0.171,-0.33 -0.069,0.031 0.027,0.052 0.031,-0.012 z m 0.056,-0.101 -0.027,-0.055 -0.002,0.003 -0.031,0.026 0.024,0.04 0.036,-0.014 z m -0.071,-0.015 -0.059,0.052 0.005,0.012 0.024,-0.007 0.048,-0.022 -0.018,-0.035 z m -0.314,0.633 0.404,-0.207 0.027,-0.015 -0.131,-0.248 -0.3,0.47 z m -1.729,14.952 0.311,-0.271 c 0.137,-0.143 0.192,-0.235 0.216,-0.306 -0.396,0.329 -0.808,0.671 -1.242,1.047 l 0.065,0.02 0.273,-0.182 -0.242,0.188 0.095,0.008 0.102,-0.005 c -0.164,0.088 -0.379,0.225 -0.611,0.387 -0.116,0.127 -0.209,0.252 -0.287,0.371 l 0.065,-0.009 0.205,0.055 0.006,0.001 c 0.296,-0.217 0.623,-0.474 0.946,-0.744 l 0.001,0.011 c -0.016,-0.155 0.58,-0.745 0.097,-0.571 z m -0.702,5.909 c -0.559,0.329 -1.148,0.657 -1.762,0.988 -0.002,0.051 0.021,0.091 0.083,0.131 0.497,-0.221 0.638,-0.153 1.021,-0.48 -0.083,0.079 -0.144,0.163 -0.103,0.193 0.65,-0.299 0.737,-0.592 0.761,-0.832 z m -0.182,1.734 c -0.266,0.243 -0.488,0.496 -0.7,0.749 0.234,-0.177 0.656,-0.427 1.403,-0.819 l 0.223,-0.073 0.4,-0.405 -0.288,-0.134 c -0.319,0.219 -0.671,0.446 -1.038,0.682 z m -0.009,-6.376 -0.074,0.06 0.025,0.009 0.049,-0.069 z m -1.32,-7.237 -1.789,1.014 -0.361,0.462 c 0.258,-0.115 0.484,-0.184 0.598,-0.184 0.11,0 0.346,0.063 0.27,0.211 -2.102,0.685 -2.073,1.281 -3.073,2.258 v 0.016 l -0.302,0.013 -0.602,0.254 -0.137,0.229 c 0.446,-0.172 1.458,-0.762 2.245,-1.249 l 0.182,-0.159 -0.16,0.133 c 0.386,-0.24 0.705,-0.452 0.862,-0.576 0.175,-0.216 0.508,-0.489 0.895,-0.786 l 0.387,-0.642 0.13,-0.027 c 0.138,0 0.03,0.168 -0.13,0.382 1,-0.735 2.16,-1.52 2.137,-1.819 l -0.014,-0.058 c -0.122,-0.002 -0.608,0.248 -1.138,0.528 z m -3.785,-2.248 -0.2,0.021 -0.143,-0.012 -0.988,0.957 1.331,-0.966 z m 2.241,-1.764 0.166,-0.148 -1.482,0.964 c 0.475,-0.26 0.92,-0.571 1.316,-0.816 z m -3.216,2.043 0.452,-0.293 H 63.13 c -0.111,0 -0.229,0.021 -0.385,0.108 0.104,0.034 0.095,0.101 0.014,0.185 z m -0.98,0.209 -0.065,0.056 0.16,-0.093 -0.095,0.037 z m 0.03,15.642 c -0.676,0.275 -1.414,0.569 -2.126,0.954 -0.061,0.118 -0.162,0.262 -0.256,0.399 0.214,-0.041 0.486,-0.129 0.789,-0.265 -0.183,-0.01 0.759,-0.572 1.593,-1.088 z m -2.606,4.057 0.476,-0.237 -0.392,0.165 -0.084,0.072 z m 0.012,-2.678 0.166,-0.23 -0.217,0.104 -0.158,0.1 0.179,0.027 0.03,-0.001 z m 2.804,-16.005 -0.018,-0.143 -0.312,0.306 0.33,-0.163 z m -2.479,9.047 -0.038,0.007 -0.166,0.196 c 0.152,-0.118 0.247,-0.203 0.204,-0.203 z m -3.896,3.252 0.067,0.004 c 0.741,0 1.61,-1.5 2.698,-1.857 -0.376,0.26 -0.638,0.554 -0.879,0.855 l 1.858,-1.325 0.564,-0.602 c -0.438,0.309 -0.726,0.505 -0.779,0.532 0.466,-0.357 0.823,-0.761 1.011,-1.113 -0.299,0.16 -0.619,0.352 -0.98,0.601 -0.213,0.241 -0.386,0.439 -0.286,0.478 l -0.847,0.55 c -0.031,-0.065 0.094,-0.215 0.259,-0.382 l 0.03,-0.032 c 0.201,-0.199 0.446,-0.427 0.559,-0.577 -0.781,0.591 -1.485,1.093 -2.409,1.805 -0.279,0.287 -0.564,0.622 -0.866,1.063 z m 1.307,4.697 -0.376,0.873 0.399,-0.925 -0.023,0.052 z m -0.81,-4.707 -0.052,0.06 0.455,-0.336 c -0.074,0.028 -0.193,0.106 -0.403,0.276 z m -0.31,6.794 c 0.386,-0.08 0.726,-0.25 1.053,-0.457 l -0.12,0.035 c -0.037,0 0.082,-0.071 0.463,-0.27 l 0.421,-0.307 c -0.428,0.159 -0.775,0.304 -1.068,0.446 l -0.749,0.553 z m 3.61,-0.215 -0.197,0.223 0.603,-0.237 0.034,-0.126 0.711,-0.284 0.147,-0.16 c -0.002,-0.129 0.104,-0.253 0.201,-0.372 l -0.637,0.297 -0.034,0.071 -0.231,0.051 -0.909,0.417 L 59,75.962 c -0.317,0.207 -0.616,0.394 -0.907,0.568 l -0.079,0.144 c 0.57,-0.512 0.783,-0.268 1.427,-0.707 z m 3.638,-2.934 0.104,0.005 c 0.948,0 2.743,-1.135 3.397,-1.62 l 0.516,-0.529 -0.052,0.014 h -0.023 c -1.609,1 -3.36,1.724 -5.149,2.635 -0.52,0.435 -1.052,0.88 -1.604,1.35 l 0.32,-0.183 -0.245,0.516 0.719,-0.361 c 0.053,-0.078 0.079,-0.154 0.037,-0.225 0.455,-0.369 1.113,-0.287 1.496,-0.826 0.115,-0.31 -0.456,-0.475 0.484,-0.776 z m 2.115,1.453 c 0.884,-0.407 1.76,-0.827 2.559,-1.49 0.227,-0.25 0.103,-0.327 0.113,-0.456 -0.137,0.166 -0.28,0.332 -0.436,0.488 -0.358,0.022 -1.393,0.527 -1.666,0.527 -0.104,0 -0.098,-0.071 0.101,-0.277 l -0.019,0.014 c -0.429,0.381 -0.471,0.814 -0.652,1.194 z m 5.188,-1.217 -0.357,0.302 0.357,-0.302 z M 71.65,62.847 c 0.164,0.079 0.071,0.258 0.191,0.258 0.067,0 0.195,-0.052 0.466,-0.212 l -0.025,0.005 c -0.186,0 0.02,-0.444 0.419,-0.837 -0.264,0.144 -0.538,0.321 -0.783,0.598 l -0.135,-0.026 -0.133,0.214 z m 0.588,6.911 c 0.136,-0.068 0.345,-0.207 0.558,-0.345 0.31,-0.196 0.631,-0.392 0.748,-0.392 l 0.045,0.062 0.397,-0.284 c 0.836,-0.821 1.582,-1.588 2.263,-2.312 L 76.19,66.278 c -0.422,0.489 -0.914,1.01 -1.48,1.501 -0.089,0.026 -0.288,0.157 -0.509,0.308 0.153,0.069 0.052,0.341 -0.505,0.636 l 0.081,-0.104 c -0.426,0.136 -0.978,0.669 -1.539,1.139 z m 2.78,-2.433 h 0.01 l -0.015,-0.001 0.005,0.001 z M 74.615,47.851 c 0.221,-0.165 0.455,-0.333 0.701,-0.505 -0.251,0.098 -0.481,0.28 -0.701,0.505 z m -0.139,-0.452 c -0.516,0.294 -1.032,0.587 -1.55,0.903 l 0.186,0.357 c 0.203,-0.28 0.388,-0.58 0.665,-0.722 l -0.269,0.373 0.036,0.034 c 0.112,0 0.447,-0.323 0.629,-0.501 0.098,-0.108 0.218,-0.284 0.303,-0.444 z m -1.973,0.098 0.287,0.548 c 0.903,-0.455 0.464,-0.608 1.411,-1.268 -0.268,-10e-4 -1.004,0.317 -1.698,0.72 z m -0.134,0.071 -0.083,0.045 0.053,0.09 h -0.12 v 0.037 l 0.045,0.007 0.043,0.018 -0.032,0.032 -0.141,0.125 -0.231,0.205 0.327,0.641 -0.33,-0.608 -0.013,0.056 0.011,0.111 h -0.004 l -0.299,-0.196 v 0.006 l 0.153,0.021 0.103,0.02 -0.019,0.008 -0.007,0.004 0.025,0.061 0.021,-0.003 0.012,0.01 0.022,0.018 0.012,0.052 h 0.002 l 0.048,0.031 -0.042,-0.133 -0.012,0.05 -0.026,0.052 H 71.88 l -0.022,-0.033 0.018,0.015 -0.004,-0.016 0.008,0.006 0.004,0.005 -0.003,-0.018 0.148,0.261 0.003,-0.032 0.014,-0.063 0.005,-0.125 h 0.005 c 0.043,0.624 0.08,0.268 0.118,0.335 l 0.055,0.085 0.098,-0.067 -0.096,0.069 -0.055,0.04 0.036,0.066 0.055,-0.042 -0.036,-0.065 0.038,0.062 0.023,-0.021 0.307,-0.21 0.168,-0.123 0.04,-0.058 0.015,-0.07 h 0.006 l 0.014,0.092 -0.038,0.092 -0.137,0.128 -0.282,0.263 -0.099,0.091 0.08,0.155 0.093,-0.206 -0.057,0.256 0.594,-0.434 0.018,-0.019 0.006,-0.014 -0.199,-0.396 -0.03,-0.014 0.039,0.005 -0.037,-0.002 -0.465,0.354 c 0.334,-0.268 -0.066,-0.274 -0.204,-0.342 0.21,-0.082 0.385,-0.155 0.527,-0.225 l 0.033,-0.018 -0.284,-0.537 -0.031,0.01 z m -7.4,-2.797 c 1.619,-1.201 2.204,-1.524 2.405,-1.524 0.116,0 0.101,0.11 0.083,0.22 -0.014,0.116 -0.032,0.222 0.076,0.222 l 0.173,-0.047 c 0.148,-0.069 0.367,-0.202 0.718,-0.436 l 0.281,-0.196 0.161,-0.111 0.012,-0.009 0.041,0.084 -0.12,0.111 -0.341,0.315 c -0.477,0.437 -1.04,0.934 -1.919,1.587 -0.45,0.299 -0.667,0.418 -0.726,0.418 -0.117,0 0.333,-0.432 0.786,-0.863 0.455,-0.436 0.915,-0.866 0.803,-0.866 -0.108,0 -0.794,0.438 -2.633,1.761 l -0.128,0.683 1.386,-0.619 c 0.884,-0.461 1.71,-0.907 2.506,-1.346 l 0.627,-0.473 0.093,-0.073 -0.038,-0.073 -0.106,0.073 0.106,-0.075 -0.164,-0.31 -0.076,0.065 -0.208,0.092 0.208,-0.167 0.048,-0.046 -0.104,-0.194 0.012,-0.012 0.104,0.198 0.04,-0.034 0.02,-0.018 -0.105,-0.198 0.014,-0.009 0.103,0.199 0.013,-0.012 0.014,-0.005 -0.105,-0.193 0.005,0.015 0.007,0.029 0.105,0.056 0.014,-0.089 h 0.008 L 69.196,43.03 69.187,43 69.163,43.117 v 0.003 c 0,0.106 0.12,0.216 0.174,0.32 l 0.021,-0.012 -0.038,-0.075 0.04,0.074 -0.165,-0.322 0.003,-0.005 0.168,0.322 0.022,-0.015 0.007,-0.008 0.002,-0.003 0.006,0.009 -0.031,0.02 0.031,0.057 0.019,-0.029 0.011,-0.022 0.025,-0.203 -0.024,-0.327 h 0.002 l 0.033,0.334 -0.031,0.099 -0.002,-0.178 -0.03,-0.255 h 0.003 l -0.246,0.493 v -0.003 l 0.081,-0.073 0.072,-0.123 -0.092,-0.166 0.224,0.431 0.065,0.132 0.012,0.024 0.021,-0.014 -0.03,-0.057 0.033,0.057 0.062,-0.035 0.337,-0.188 0.087,-0.039 2.184,4.158 0.085,-0.054 0.028,-0.017 C 71.124,45.12 70.361,43.667 69.903,42.786 L 69.9,42.78 l -0.008,-0.013 0.001,0.002 -0.017,-0.035 0.012,0.013 -0.297,-0.583 0.222,0.31 c -0.087,-0.168 -0.16,-0.575 -0.225,-0.575 h -0.005 l 0.58,0.306 v 0.003 l -0.314,0.003 -0.276,0.029 -0.216,0.065 -0.329,0.122 -0.096,0.021 -0.081,0.107 c 0.045,0.09 0.093,0.344 0.149,0.344 h -0.007 c -0.055,0 -0.103,-0.25 -0.155,-0.344 l -0.035,0.014 0.162,0.281 -0.015,-0.004 -0.159,-0.313 -0.047,0.016 -0.022,0.016 -0.002,-0.008 -0.015,0.007 0.006,0.008 -0.018,0.016 -0.191,0.14 0.059,-0.106 -1.232,0.503 c -0.418,0.183 -0.824,0.341 -1.427,0.623 -0.46,0.409 -0.799,0.767 -0.933,1.023 z m -0.417,-0.097 0.857,-0.696 -0.446,0.217 -0.411,0.479 z m -16.76,9.452 0.328,-0.408 c 0.186,-0.075 0.324,-0.095 0.445,-0.095 l 0.167,0.007 2.138,-1.617 0.645,0.015 -0.298,0.241 c 1.148,-0.656 2.038,-1.247 2.356,-1.699 0.297,-0.117 0.464,-0.162 0.527,-0.162 0.183,0 -0.469,0.412 -1.115,0.821 -0.652,0.413 -1.299,0.824 -1.104,0.824 0.1,0 0.425,-0.112 1.089,-0.387 -1.892,1.347 -4.842,2.567 -5.319,3.277 0.791,-0.485 1.079,-0.582 1.235,-0.582 l 0.135,0.024 0.126,0.024 c 0.109,0 0.283,-0.049 0.663,-0.26 l 2.099,-1.405 -0.495,0.248 c 1.88,-1.247 4.479,-2.661 7.255,-4.046 2.056,-1.512 4.233,-3.173 5.783,-4.495 -0.438,0.221 -0.951,0.488 -1.556,0.813 l 0.087,-0.119 c -1.949,0.984 -5.481,2.633 -7.09,3.81 L 55.8,48.62 c -1.058,0.924 -1.484,1.091 -2.099,1.309 l -1.261,0.919 1.243,-0.913 c -0.614,0.219 -1.426,0.497 -3.255,1.636 l 0.576,-0.369 c -1,0.56 -1.391,0.739 -1.511,0.739 -0.159,0 0.191,-0.334 0.21,-0.496 -3.492,1.725 -3.779,2.83 -6.958,4.441 -0.527,0.405 -1.053,0.792 -1.58,1.152 l -0.693,0.719 0.137,-0.068 c 0.011,0.039 0.048,0.064 0.12,0.064 0.199,0 0.659,-0.179 1.537,-0.595 l 0.816,-0.724 c 0.199,-0.101 0.294,-0.141 0.319,-0.141 0.059,0 -0.264,0.226 -0.581,0.451 -0.312,0.229 -0.619,0.456 -0.523,0.456 0.07,0 0.372,-0.131 1.08,-0.495 1.101,-0.792 2.752,-1.69 4.415,-2.579 z m -9.211,15.772 0.858,-0.457 c 0.148,-0.248 -0.048,-0.457 1.201,-1.522 -0.289,0.496 0.789,-0.034 -0.645,1.106 1.362,-0.744 2.82,-1.885 3.919,-2.702 -0.645,0.363 -0.945,0.508 -1.019,0.508 -0.263,0 2.029,-1.638 2.362,-1.977 l 0.399,-0.224 0.792,-0.881 c 0.225,-0.152 0.346,-0.216 0.391,-0.216 0.179,0 -0.95,1.094 -1.777,1.948 l 0.262,-0.125 c 1.921,-1.76 3.815,-3.028 5.035,-4.167 -0.172,0.077 -0.296,0.123 -0.344,0.129 -0.183,-0.341 -0.78,-0.443 -0.809,-0.804 l -0.598,0.611 -0.665,0.603 1.262,-1.227 c -0.008,-0.212 0.173,-0.51 0.725,-0.987 1.986,-1.453 5.1,-3.038 7.654,-4.339 2.005,-1.513 2.893,-2.632 3.717,-3.621 -1.063,0.506 -2.002,0.927 -2.59,1.106 l 0.576,-0.356 c -0.37,0.162 -0.708,0.293 -1.024,0.402 -0.445,0.368 -0.851,0.721 -1.181,1.033 l -0.249,0.163 c -0.045,0 0.268,-0.302 0.572,-0.6 0.164,-0.167 0.329,-0.336 0.426,-0.456 l -0.339,0.107 c -1.732,1.46 -2.31,2.5 -4.523,4.052 l 0.301,-0.369 c -1.199,1.155 -1.604,1.494 -1.691,1.494 -0.058,0 0.033,-0.163 0.124,-0.326 0.084,-0.163 0.167,-0.327 0.079,-0.327 l -0.101,0.035 c 1.388,-1.068 2.843,-2.62 3.959,-3.442 0.153,-0.23 0.36,-0.487 0.613,-0.757 -0.611,0.185 -1.25,0.408 -2.029,0.789 -3.8,4.039 -6.665,7.761 -11.215,12.216 -1.162,0.993 -1.771,1.36 -1.993,1.36 -0.231,0 -0.044,-0.398 0.378,-0.898 -2.265,1.989 -1.7,1.865 -2.813,3.118 z m 11.344,3.005 h 0.012 l 0.166,-0.034 0.499,-0.381 c 0.077,-0.227 0.143,-0.521 0.536,-0.698 0.016,-0.083 -0.02,-0.134 -0.086,-0.134 -0.167,0 -0.538,0.216 -0.797,0.416 -0.034,0.078 -0.091,0.165 -0.175,0.273 l 0.038,0.102 -0.238,0.149 c -0.233,0.363 -0.696,0.757 -0.713,1.049 l 0.489,-0.422 -0.254,0.096 c -0.081,0.028 0.015,-0.043 0.148,-0.115 0.113,-0.06 0.253,-0.119 0.349,-0.119 l 0.099,0.063 -0.181,0.029 -0.65,0.497 0.02,0.089 0.016,0.046 0.195,-0.02 0.238,-0.094 0.785,-0.468 c -0.019,-0.059 0,-0.123 0.061,-0.226 -0.134,0.055 -0.253,0.122 -0.35,0.122 -0.05,0 -0.093,-0.154 -0.126,-0.182 L 49.934,72.903 H 49.9 l -0.094,0.056 0.151,-0.061 -0.032,0.005 z m 2.31,-3.185 c -0.435,0.279 -0.853,0.609 -1.305,0.947 -0.032,0.166 0.103,0.247 0.106,0.333 1.146,-0.504 1.006,-0.894 1.199,-1.28 z m -0.672,-2.693 -0.981,0.58 -0.017,0.02 0.12,0.005 0.227,-0.024 0.651,-0.581 z m 0.204,0.048 0.155,-0.263 -0.134,0.079 -0.021,0.184 z m -8.57,7.233 c 1.715,-1.498 2.028,-1.79 4.089,-3.483 l -0.883,0.547 -0.443,0.382 0.228,-0.248 -1.069,0.666 c -0.627,0.521 -1.3,1.06 -1.742,1.316 -0.002,0.059 0.024,0.082 0.069,0.082 0.075,0 0.195,-0.056 0.305,-0.113 l 0.255,-0.117 c 0.069,-10e-4 -0.081,0.201 -0.809,0.968 z m -1.851,-5.449 c 0.371,-0.171 0.65,-0.282 0.856,-0.348 0.208,-0.171 0.421,-0.358 0.651,-0.563 -0.353,0.229 -0.767,0.465 -1.507,0.911 z m 1.971,-1.342 0.361,-0.354 c -0.428,0.314 -0.852,0.615 -1.24,0.879 l 0.879,-0.525 z m -3.57,7.625 c 1.789,-1.191 3.225,-2.074 4.726,-3.071 l 1.48,-1.56 -0.656,0.429 c -0.404,0.384 -0.858,0.79 -1.388,1.226 0.121,-0.135 0.154,-0.187 0.126,-0.187 -0.078,0 -0.591,0.388 -1.126,0.769 -0.529,0.384 -1.086,0.766 -1.247,0.766 l -0.034,-0.006 c -0.663,0.561 -1.289,1.104 -1.881,1.634 z m 5.017,-9.514 0.448,-0.498 c -0.35,0.279 -0.778,0.599 -1.084,0.824 0.202,-0.112 0.42,-0.222 0.636,-0.326 z M 44.668,71.938 45.5,71.37 c 0.063,-0.086 0.099,-0.162 0.111,-0.218 l -0.943,0.786 z m 3.591,-2.678 c -0.255,0.082 -0.551,0.221 -0.882,0.395 -0.144,0.185 -0.271,0.351 -0.207,0.351 0.072,-0.001 0.363,-0.192 1.089,-0.746 z m -9.563,0.672 -0.232,0.091 -0.158,0.176 0.128,-0.159 c -0.525,0.228 -1.146,0.541 -1.837,0.914 -0.302,0.392 -0.604,0.781 -0.948,1.171 1.114,-0.77 2.173,-1.526 3.047,-2.193 z m -8.402,9.288 -0.102,0.165 0.113,0.106 0.113,-0.151 -0.124,-0.12 z m -0.611,-0.318 0.469,0.443 0.081,-0.182 -0.035,-0.037 -0.392,-0.372 -0.123,0.148 z m -0.845,1.039 -0.085,-0.081 0.082,0.079 0.003,0.002 z m 0.191,0.185 -0.005,-0.007 -0.02,-0.02 -0.025,-0.024 -0.133,-0.134 -0.002,0.005 0.069,0.067 -0.053,-0.05 0.169,0.163 z m 1.719,1.627 0.18,0.163 -1.604,-1.514 c 0.707,0.669 1.156,1.096 1.43,1.359 l -0.006,-0.008 z m 0.939,-0.482 -0.559,-0.533 -0.454,0.274 -0.159,0.116 -0.041,0.034 -0.013,0.018 0.02,0.012 -0.496,-0.484 c -0.26,-0.243 -0.278,-0.484 -0.278,-0.484 10e-4,0 0.456,0.046 0.456,0.169 v -0.014 l -0.262,-0.011 -0.116,-0.087 0.166,-0.383 -0.205,0.41 0.374,-0.536 -0.097,-0.08 -0.117,0.207 0.104,-0.218 -0.523,-0.497 -0.423,0.657 -0.044,0.094 -0.008,0.045 0.023,0.023 0.074,0.005 0.053,-0.096 v 0.002 c 0,0.216 0.39,0.518 0.704,0.821 0.597,0.563 1.04,1.119 1.043,1.119 l -0.033,-0.029 0.011,-0.015 0.16,-0.118 0.328,-0.268 -0.24,0.29 -0.078,0.093 0.3,-0.262 0.33,-0.274 z m 0.433,-0.321 -0.522,-0.495 -0.166,0.099 0.533,0.505 0.155,-0.109 z m 4.395,-1.856 c -0.581,0.457 -1.187,1.029 -1.298,1.029 -0.038,0 -0.014,-0.074 0.097,-0.253 2.717,-1.916 3.971,-2.986 6.79,-5.029 -0.381,-0.057 0.715,-0.983 1.782,-1.908 -1.745,1.081 -3.539,2.186 -5.351,3.3 -1.219,1.123 -2.3,2.179 -3.288,3.199 l 0.048,-0.01 -0.099,0.063 c -0.674,0.701 -1.305,1.38 -1.906,2.057 0,-0.078 0.101,-0.402 0.01,-0.402 -0.053,0 -0.164,0.101 -0.386,0.396 l -0.062,0.108 -0.394,-0.373 -0.161,0.106 0.461,0.435 -0.005,0.009 -0.095,0.157 -0.054,0.088 -0.027,0.041 c 0.445,0.417 0.702,0.665 0.814,0.777 l 0.302,-0.185 -0.935,-0.886 0.094,-0.168 1.004,0.952 0.166,-0.103 0.129,-0.09 c 0.249,-0.386 0.526,-0.759 0.855,-1.132 -0.628,0.683 -1.044,1.042 -1.147,1.042 -0.064,0 -0.014,-0.13 0.171,-0.397 1.4,-1.282 1.177,-1.661 2.485,-2.823 z m 6.253,-0.955 0.099,0.093 0.006,-0.004 0.076,-0.051 0.016,-0.012 0.004,-0.006 -0.115,-0.112 -0.002,0.003 -0.084,0.089 c -0.21,0.226 -0.377,0.429 -0.525,0.632 l -0.354,-0.348 c -0.019,0.133 0.028,0.218 0.102,0.307 l 0.165,0.161 -0.017,0.024 c 0.063,0.089 0.134,0.199 0.193,0.347 l 0.099,-0.102 0.475,0.467 0.045,-0.163 -0.098,-0.098 -0.106,0.075 c -0.081,0 -0.091,-0.214 -0.174,-0.274 l 0.102,0.04 0.012,-0.002 -0.145,-0.143 c 0.152,-0.127 0.302,-0.223 0.459,-0.304 l 0.055,-0.124 -0.039,-0.038 0.013,-0.007 0.027,-0.013 0.034,-0.016 0.042,-0.068 -0.021,-0.021 -0.665,0.324 c 0.028,-0.188 0.255,-0.39 0.432,-0.55 l -0.111,-0.106 z m -0.793,-1.355 0.063,-0.059 -0.084,0.023 0.021,0.036 z m -0.415,0.081 c -0.189,0.177 -0.396,0.368 -0.63,0.572 l 0.428,-0.229 0.242,-0.353 -0.04,0.01 z m -1.506,1.445 c -1.202,0.873 -2.522,1.819 -3.667,2.449 0.458,-0.223 0.685,-0.313 0.748,-0.313 0.162,0 -0.73,0.588 -1.59,1.17 l -0.237,0.159 -0.052,0.086 0.284,-0.076 c 1.213,-0.9 2.754,-1.888 4.082,-2.637 l -0.541,0.415 c 0.294,-0.181 0.569,-0.368 0.833,-0.559 l 0.14,-0.694 z m 1.098,-0.61 -0.113,-0.11 -0.005,0.004 -0.098,0.098 -0.017,-0.016 h -0.002 l -0.063,0.048 -0.01,0.065 0.091,-0.091 0.064,0.061 H 41 l 0.109,-0.038 0.043,-0.021 z m 1.604,4.795 -0.082,-0.082 -0.009,-0.008 0.091,0.09 z m 0.236,0.408 c -0.071,-1 -0.138,-0.455 -0.2,-0.519 l -0.131,-0.26 -0.042,-0.221 h -0.008 c -0.067,0 -0.093,0.427 -0.097,0.425 -0.164,-0.161 -0.457,-0.425 -0.954,-0.425 h 0.005 l 0.007,-0.35 0.008,-0.231 0.041,-0.158 c 0.114,-0.241 0.267,-0.538 0.478,-0.794 -0.069,0.248 -0.231,0.645 -0.117,0.657 0.172,-0.106 0.305,-0.242 0.42,-0.369 l 0.243,-0.469 -0.227,0.442 0.338,-0.405 0.126,-0.396 -0.816,-0.793 c -0.357,0.558 -0.555,1.113 -0.867,1.915 l 0.51,-0.381 c -0.067,0.179 -0.128,0.359 -0.19,0.478 l -0.089,0.467 -0.002,0.385 H 41.42 c 0.618,0 0.97,0.657 1.163,0.847 l -0.025,-0.083 c 10e-4,0 0.032,-0.764 0.117,0.236 h 0.012 l 0.034,-0.185 0.067,-0.015 0.183,0.199 h 0.021 z m 0.588,-0.237 c -0.222,-0.624 -0.39,-0.505 -0.525,-0.63 l 0.021,-0.102 -0.202,-0.204 0.005,-0.01 0.007,-0.009 0.01,-0.033 0.092,-0.237 0.01,-0.026 c -0.119,0.047 -0.24,0.074 -0.361,0.074 -0.148,0 -0.301,-0.043 -0.447,-0.163 l -0.077,0.009 -0.05,-0.004 -0.025,0.049 0.025,-0.05 -0.208,-0.083 0.123,0.116 0.002,-0.004 0.036,0.021 0.041,0.013 0.055,-0.002 0.137,0.024 v -0.007 c 0,0.162 0.139,0.274 0.176,0.311 l -0.267,-0.125 0.077,0.12 C 42.06,81.541 41.934,81.417 41.848,81.417 h -0.006 l -0.075,-0.088 -0.04,-0.071 -0.011,-0.002 c 0.486,0.478 0.729,0.785 0.836,0.785 H 42.6 l 0.121,0.025 -0.399,-0.351 0.011,0.005 -0.002,-0.002 0.391,0.389 0.333,-0.088 -0.248,0.158 -0.012,0.023 0.199,0.223 0.23,0.091 c 0.103,0.012 0.21,0.152 0.345,0.152 h 0.011 z m 0.832,-0.425 0.119,-0.048 0.163,-0.127 -0.243,-0.237 0.161,-0.309 -0.078,-0.079 -0.183,0.087 -0.115,0.048 -0.011,0.007 -0.009,0.008 0.093,0.098 -0.099,-0.098 -0.099,-0.094 0.341,0.332 -0.14,0.26 0.1,0.152 z m 0.279,-0.872 0.002,-0.006 0.098,-0.046 0.036,-0.016 -0.067,-0.062 -0.067,0.124 -0.005,0.006 h 0.003 z m 0.173,2.31 -0.123,-0.12 c -0.092,0.07 -0.18,0.159 -0.262,0.257 l -0.005,0.007 0.006,-0.005 0.384,-0.139 z m 4.28,-12.145 0.431,-0.735 c -0.462,0.348 -0.816,0.421 -1.308,0.466 l 0.101,-0.281 0.03,0.006 0.696,-0.247 -0.087,-0.382 c 0.055,0.134 0.205,0.19 0.393,0.19 0.108,0 0.227,-0.018 0.351,-0.052 l 0.241,-0.414 c -0.151,-0.025 -0.194,-0.124 -0.436,-0.294 0.326,-0.52 0.641,-0.494 0.959,-0.593 l 0.355,-0.606 -1.587,0.988 -1.359,1.205 c 0.04,-0.104 0.359,-0.45 0.651,-0.764 l -1.261,0.782 c -1.897,1.61 -2.799,2.607 -3.476,3.44 l -0.199,0.365 c 0.611,-0.382 0.419,-0.664 0.873,-0.6 l -0.945,0.793 c -0.059,0.018 -0.081,-0.044 -0.07,-0.139 l -0.006,0.019 c -0.352,0.453 -0.682,0.881 -1.127,1.37 l 0.489,-0.128 c 1.03,-1.015 1.96,-1.912 2.433,-2.573 -0.229,0.115 -0.384,0.188 -0.469,0.188 l -0.062,-0.037 0.019,0.004 c 0.138,0 0.645,-0.437 0.939,-0.618 l 0.089,-0.326 c 0.187,-0.082 0.32,-0.114 0.397,-0.114 0.171,0 0.095,0.17 -0.137,0.471 0.517,-0.298 0.871,-1.085 1.536,-1.127 -0.665,0.752 -1.879,1.327 -2.213,1.78 1.52,-1.341 2.085,-0.787 3.759,-2.037 z m -0.594,4.35 -0.024,0.022 0.081,-0.036 -0.057,0.014 z m -0.416,0.376 -0.089,0.084 0.207,-0.133 -0.118,0.049 z m -0.324,-1.442 -0.025,0.074 0.138,-0.102 -0.113,0.028 z m -0.357,0.364 -0.101,0.045 -0.173,0.104 0.274,-0.149 z m -0.163,1.059 -0.05,0.028 0.092,-0.049 -0.042,0.021 z m -0.052,7.423 -0.333,-0.326 -0.377,0.051 0.401,0.394 0.309,-0.119 z m 0.002,0 0.691,-0.246 -0.095,-0.096 0.097,0.093 h 10e-4 l -0.123,-0.118 -0.133,-0.127 -0.041,0.009 0.012,-0.04 -0.194,-0.193 -0.167,0.297 0.016,0.014 -0.027,0.006 -0.003,0.006 -0.041,0.076 -0.006,0.012 -0.006,0.004 -0.076,-0.071 -0.239,0.048 0.334,0.326 z m 1.141,0.194 -0.393,-0.385 c -0.784,0.405 -0.831,0.515 -0.582,0.515 0.162,0 0.443,-0.046 0.728,-0.092 l 0.247,-0.038 z m 0.2,-0.03 -0.209,-0.205 -0.044,0.071 -0.028,0.069 H 48.293 L 47.991,83.47 H 47.99 l 0.303,0.298 0.089,0.09 0.199,-0.03 z m 0.985,-1.199 -0.866,0.265 c -0.12,0.221 -0.182,0.432 -0.267,0.612 l 0.262,0.263 -0.01,0.032 -0.003,0.016 0.058,-0.009 -0.045,-0.04 0.07,-0.216 c 0.106,-0.195 0.101,-0.455 0.408,-0.789 l 0.115,0.057 c 0.063,0 0.14,-0.057 0.278,-0.191 z m 0.738,-2.155 c 0.497,-0.677 0.353,-0.602 0.602,-1.141 -0.124,0.058 -0.266,0.114 -0.431,0.163 l -0.146,-0.065 c -0.093,0.112 -0.168,0.219 -0.225,0.314 l -0.087,-0.043 -0.118,0.026 c -0.146,0.212 -0.184,0.418 -0.333,0.607 l -0.092,-0.059 c -0.246,0.287 -0.589,0.544 -0.951,0.862 0.172,-0.233 0.159,-0.311 0.094,-0.353 l -0.359,0.365 0.078,-0.03 -0.087,0.04 -0.132,0.14 c 0.748,-0.24 1.472,-0.514 2.187,-0.826 z m 1.597,-0.028 c -0.597,0.239 -1.162,0.477 -1.639,0.702 l -0.019,0.012 0.066,0.01 c 0.134,0 0.402,-0.073 0.734,-0.18 l -0.018,0.015 c 0.231,-0.172 0.553,-0.363 0.876,-0.559 z m 0.309,0.15 -0.11,0.018 0.062,-0.018 c 0.587,-0.213 1.17,-0.424 1.533,-0.522 -0.085,-0.126 0.18,-0.284 0.41,-0.444 -0.561,0.198 -1.164,0.418 -1.755,0.643 l -0.4,0.376 0.26,-0.053 z m 12.134,0.399 -1.495,0.688 -0.156,0.071 -0.218,0.211 -0.062,-0.088 -0.068,0.032 0.08,0.117 -0.009,0.01 -0.086,-0.12 -0.151,0.068 -0.184,0.081 0.036,0.079 -0.065,-0.061 -0.07,-0.066 c -0.018,0 0.079,0.169 0.564,0.879 l 0.075,-0.077 0.247,-0.25 -0.057,-0.084 0.015,-0.005 0.052,0.076 0.052,-0.054 0.003,-10e-4 -0.034,-0.046 0.136,-0.052 c 0.378,-0.388 0.83,-0.839 1.395,-1.408 z m 0.123,-0.057 -0.092,0.041 c -0.153,0.193 -0.184,0.291 -0.184,0.291 l 0.276,-0.332 z m 0.745,-4.505 c -1.625,0.907 -3.271,1.965 -4.789,2.735 0.103,0.153 0.224,0.736 0.366,0.736 h 0.008 l 0.005,-0.204 0.015,-0.112 0.027,-0.059 0.396,-0.242 c 0.475,-0.285 0.863,-0.561 2.07,-1.42 l 0.083,-0.001 0.189,-0.007 0.211,-0.013 c 0.479,-0.488 0.954,-0.956 1.419,-1.413 z m 1.542,-1.514 0.056,-0.056 -0.102,-0.033 c -0.23,0 -0.807,0.249 -1.658,0.727 -0.907,0.556 -0.94,0.849 -2.866,1.862 l -0.147,0.021 c -0.179,0 0.287,-0.237 0.723,-0.468 0.441,-0.233 0.853,-0.462 0.544,-0.462 l -0.308,0.036 c -0.622,0.124 -3.599,1.814 -4.013,1.814 -0.094,0 -0.058,-0.082 0.165,-0.29 l 2.568,-1.16 c -0.08,-0.323 1.744,-1.222 1.568,-1.453 l 0.455,-0.26 0.17,-0.208 c -0.929,0.535 -2.037,1.256 -3.016,1.846 l -0.372,0.319 -0.518,0.197 c -0.506,0.277 -0.932,0.475 -1.225,0.529 l 0.005,-0.025 c -0.759,0.324 -1.517,0.667 -1.902,0.871 v -0.008 l -0.101,0.154 -0.03,-0.054 -0.086,0.084 h -0.002 c -0.125,0 -0.908,0.2 -1.932,0.55 -0.187,0.207 -0.406,0.381 -0.665,0.582 0.043,0.043 -0.09,0.188 -0.487,0.465 1.92,-1.071 2.295,-0.892 4.327,-1.937 -1.905,1.106 -0.314,0.618 -1.711,1.496 l 3.375,-1.656 c 0.118,0.063 -3.413,1.776 -2.782,1.776 0.122,0 0.388,-0.059 0.864,-0.207 0.572,-0.328 1.6,-0.811 2.575,-1.279 1.266,-0.615 2.435,-1.198 2.389,-1.395 l 0.13,0.054 c 2.554,-1.222 0.927,-0.976 4.009,-2.432 z m -0.117,2 0.725,-0.02 c 0.111,-0.149 0.184,0.003 0.189,0.003 h 0.022 c 0.082,0 -0.006,-0.226 -0.158,-0.027 l 1.476,-0.922 0.738,-0.862 0.162,-0.206 0.766,-0.828 v -0.101 l -0.724,0.579 0.545,-0.749 c -0.379,0.201 -0.8,0.411 -1.267,0.636 -0.736,0.7 -1.644,1.66 -2.474,2.497 z m 8.117,0.223 c 0.854,-0.478 1.551,-0.941 2.121,-1.383 l 0.906,-0.686 c -2.455,1.236 -4.649,2.311 -5.119,2.323 l 0.255,-0.342 c -0.542,0.145 -1.224,0.471 -1.815,0.805 l -0.305,0.332 0.134,-0.062 -0.159,0.089 c -0.789,0.842 -1.725,1.758 -2.98,2.81 0.908,-0.929 1.641,-1.718 2.304,-2.45 L 69.839,78.683 70,78.564 70.189,78.476 70.298,78.351 70,78.564 c -0.444,0.204 -0.881,0.416 -1.304,0.63 -0.702,0.738 -1.174,1.282 -0.997,1.282 l 0.061,-0.012 0.087,-0.037 c 0.113,-0.054 0.283,-0.157 0.516,-0.308 l -0.306,0.226 0.433,-0.16 -0.631,0.316 c -0.185,0.149 -0.359,0.307 -0.53,0.462 0.243,0.025 0.768,-0.081 -0.53,0.528 l -0.009,0.012 0.305,-0.04 0.173,0.016 0.159,0.012 c 0.234,0 0.65,-0.103 1.981,-0.73 1.811,-1.429 2.724,-0.892 4.441,-2.237 0.199,-0.067 0.309,-0.091 0.367,-0.091 0.109,0 0.019,0.091 -0.079,0.185 -0.1,0.09 -0.205,0.183 -0.13,0.183 0.079,0 0.384,-0.116 1.164,-0.466 2.743,-1.694 2.473,-1.804 2.465,-2.256 -2.72,1.235 -2.762,1.996 -5.022,2.946 l 4.066,-2.758 c -0.844,0.313 -1.441,0.598 -1.926,0.875 z m 5.965,-8.185 c -0.049,0.141 -0.462,0.52 -0.651,0.639 0.973,-0.327 3.003,-2.886 3.958,-4.092 l -0.056,0.01 c -0.078,0 -0.077,-0.071 -0.066,-0.145 0.017,-0.072 0.041,-0.144 -0.006,-0.144 -0.076,0 -0.36,0.215 -1.247,1.009 l 0.134,-0.063 c 0.256,0 -1.547,2.171 -3.353,3.634 l -0.043,-0.699 -2.722,2.487 0.235,-0.253 c -0.437,0.243 -0.917,0.655 -1.44,1.159 0.551,-0.324 1.024,-0.627 1.395,-0.898 0.791,-0.415 1.43,-0.7 2.019,-0.94 0.422,-0.417 1.015,-0.967 1.843,-1.704 z m 21.309,3.413 0.022,0.016 -0.022,-0.017 v 0.001 z m -12.233,2.236 c -0.095,0.069 -0.156,0.102 -0.199,0.102 -0.073,0 -0.088,-0.083 -0.111,-0.169 -0.016,-0.082 -0.039,-0.162 -0.126,-0.162 -0.149,0 -0.491,0.239 -1.33,1.147 -0.702,0.983 -0.797,1.21 -0.715,1.21 l 0.174,-0.09 0.164,-0.092 c 0.059,0 -0.07,0.215 -0.775,1.115 -0.108,0.09 -0.218,0.185 -0.266,0.185 L 86.589,77.8 c -0.621,1.081 -1.012,1.296 -1.542,2.217 l 0.535,-0.24 -0.563,0.289 c -0.081,0.139 -0.163,0.296 -0.247,0.475 l 0.04,-0.016 0.584,-0.264 0.12,-0.244 0.266,-0.327 -0.199,0.087 0.21,-0.099 c 0.4,-0.497 0.812,-0.992 1.265,-1.478 -0.734,1.087 -0.95,1.528 -0.998,1.775 l 1.028,-0.702 -0.071,-0.027 c 3.124,-4.317 -0.277,-0.5 2.778,-4.64 z m -3.755,4.962 0.187,-0.306 -0.235,0.327 0.048,-0.021 z m -0.057,0.035 c -0.137,0.188 -0.266,0.38 -0.391,0.573 l 0.168,-0.069 c 0.057,-0.13 0.144,-0.303 0.273,-0.529 l -0.05,0.025 z m -1.172,0.771 -0.167,0.219 0.098,-0.042 0.069,-0.177 z m 4.645,-14.212 0.219,-0.399 c -0.202,0.199 -0.395,0.399 -0.57,0.613 l 0.351,-0.214 z m 1.441,-0.881 -0.348,-0.275 h -0.001 l -0.548,0.46 -0.145,0.452 1.042,-0.636 v -10e-4 z m -0.564,-0.446 v -0.002 l -0.158,-0.126 -0.004,0.035 -0.028,0.132 -0.037,0.165 0.227,-0.204 z m 0.705,0.231 -10e-4,-0.006 -0.277,-0.221 -0.195,0.151 v 0.001 l 0.354,0.281 0.03,-0.021 0.037,-0.076 0.041,-0.079 0.009,-0.027 0.002,-0.003 z m 4.064,2.492 0.16,-0.344 0.072,-0.182 -0.073,-0.047 -0.097,-0.024 v -0.009 c 0,-0.323 -0.811,-0.73 -1.325,-1.138 -0.977,-0.774 -1.881,-1.539 -2.12,-1.728 l 0.014,0.004 -0.058,0.047 -0.53,0.404 -0.387,0.3 0.383,0.3 0.342,-0.205 0.372,-0.346 0.085,-0.071 0.049,0.162 0.021,0.223 h 0.006 c 1.732,1 3.148,1.574 3.148,1.882 v 0.004 l -0.089,0.008 0.03,0.019 -0.155,0.285 -0.394,1.019 c 0.086,0.067 0.155,0.186 0.237,0.186 h -0.006 c 0.104,-0.001 0.201,-0.482 0.315,-0.749 z m -9.589,0.76 c 0.096,0 0.348,-0.08 0.801,-0.265 1.685,-1.021 2.658,-1.885 3.517,-2.729 l 0.142,-0.107 0.114,-0.398 0.077,-0.139 v -0.04 c 0,-0.044 -0.12,-0.073 -0.118,-0.073 l -0.066,-0.022 0.098,0.04 0.023,-0.019 0.072,-0.008 h 0.002 l -0.022,0.047 0.013,0.075 v -0.001 c 0,0.034 0.11,-0.048 0.181,0.009 l -0.035,-0.13 h 0.021 l 0.028,0.13 c 0.262,-0.23 0.558,-0.325 0.857,-0.548 l 0.443,-0.288 0.134,-0.042 c 0.504,0.399 1.371,1.329 4.371,3.255 v 0.009 l -0.274,0.018 -0.22,0.035 -0.033,0.007 -0.057,0.065 -0.09,0.149 -0.19,0.039 c -0.14,0.253 -0.34,0.515 -0.511,0.515 h 0.375 v 0.508 l -0.141,-10e-4 0.205,0.182 -0.059,0.001 H 95.14 l -0.015,-0.001 c 0.129,-0.259 0.201,-0.469 0.218,-0.605 l 0.019,0.073 c 0.053,0 0.192,-0.207 0.323,-0.407 l 0.194,-0.304 0.089,-0.11 -0.034,0.154 c -0.052,0.146 -0.161,0.407 -0.343,0.835 l 0.419,-0.77 0.007,-0.034 0.024,-0.084 0.094,-0.045 0.028,-0.013 v -0.004 c -1,-0.431 -1.255,-0.979 -1.947,-1.526 -1.298,-1.024 -2.565,-2.055 -2.887,-2.313 l -0.039,0.007 -0.14,0.079 -0.237,0.148 c -0.296,0.194 -0.539,0.354 -0.734,0.496 -0.395,0.283 -0.638,0.484 -0.865,0.678 -0.462,0.385 -0.842,0.789 -2.444,1.67 l 0.025,0.041 c 0.253,0 1.842,-0.785 2.315,-1.282 0.298,0.37 -4.242,3.043 -3.697,3.043 z m -4.552,13.489 0.55,-0.238 c 0.58,-1.636 1.486,-3.567 2.535,-4.961 l -0.088,-0.11 -0.064,0.049 c -0.068,0 0.71,-0.98 1.205,-1.472 l 0.034,-0.045 c -0.184,0.097 -0.312,0.162 -0.342,0.162 -0.029,0 0.018,-0.049 0.158,-0.162 l -0.156,0.073 c -1.254,1.126 -2.602,3.498 -3.297,4.541 0.281,-0.397 0.423,-0.557 0.465,-0.557 0.164,0 -0.977,2.196 -0.882,2.575 l -0.118,0.145 z m -0.538,0.229 0.097,-0.041 -0.02,-0.066 -0.077,0.107 z m -0.101,1.441 0.555,0.398 0.022,-0.134 -0.541,-0.392 -0.036,0.128 z m -0.336,-0.239 0.249,0.178 0.037,-0.128 -0.246,-0.173 -0.036,0.118 -0.004,0.005 z m -0.37,-0.422 h 0.001 l -0.129,-0.092 h -0.002 l 0.13,0.092 z m 3.232,2.567 -1.306,-0.937 c -0.255,0.097 -0.487,0.176 -0.69,0.231 -0.042,-0.151 -0.035,-0.398 0.01,-0.72 l -0.563,-0.405 c -0.157,0.557 -0.282,1.013 -0.37,1.013 l -0.038,-0.03 -0.026,0.075 c -0.005,0 0.174,-0.521 0.347,-1.118 l -0.255,-0.184 c -0.215,0.621 -0.424,1.219 -0.488,1.219 -0.026,0 -0.035,-0.095 -0.004,-0.335 l -0.06,0.29 -0.102,0.378 -0.037,0.104 -0.103,0.017 v 0.016 l 0.064,-0.02 c -0.004,0 0.676,0.406 1.244,0.812 l 1.122,0.809 -0.406,-0.291 0.005,-0.01 0.038,-0.018 0.16,-0.088 1.302,-0.725 0.156,-0.083 z m 0.002,-0.004 -0.077,-0.051 0.076,0.054 10e-4,-0.003 z m 0.198,-0.104 -1.283,-0.919 -0.138,0.056 1.299,0.927 0.122,-0.064 z m 0.293,0.357 -0.061,-0.047 h 0.008 l 0.006,-0.018 0.034,-0.09 -0.192,-0.14 -0.008,0.09 -0.008,0.051 0.221,0.154 z m 0.579,-1.516 c 0.149,-0.32 0.33,-0.666 0.553,-1.076 -0.411,0.22 -0.817,0.432 -1.207,0.624 l -0.199,0.407 0.162,-0.109 c 0.089,0 0.037,0.256 0,0.619 l -0.076,0.637 0.357,-0.194 c 0.114,-0.29 0.218,-0.586 0.41,-0.908 z m 16.344,-12.55 -0.293,0.472 -0.7,1.032 c -0.999,1.407 -2.158,2.955 -2.683,3.527 0.514,-0.844 0.891,-1.535 1.234,-2.196 l -0.682,0.465 0.801,-0.7 0.433,-0.851 0.308,-0.6 c -1.035,1.229 -2.644,1.898 -3.817,3.089 l 0.061,0.36 c -1.173,0.811 -2.776,1.963 -3.46,2.579 1.918,-1.088 2.272,-1.841 4.264,-2.841 h 0.005 c 0.399,0 -0.942,1.096 -1.144,1.256 l 0.201,-0.335 c -2.61,1.354 -3.548,2.603 -6.808,4.318 -0.18,0.098 -0.255,0.126 -0.278,0.126 l 0.148,-0.18 c -0.874,0.545 -1.929,1.164 -2.981,1.736 -0.132,0.335 -0.185,0.596 -0.479,1.228 l -0.03,-0.012 c -0.087,0 -0.249,0.212 -0.438,0.578 l -0.092,0.237 1.621,-0.873 c 1.866,-1.024 3.734,-2.082 5.305,-3.126 l -1.905,0.923 5.205,-2.876 c -1.039,0.698 -2.3,1.449 -3.664,2.286 l 0.07,0.073 c 0.24,0 1.039,-0.234 1.811,-0.708 0.775,-0.477 1.532,-0.65 1.682,-0.65 h 0.014 c 1.22,-2 2.421,-2.294 3.56,-3.37 l -1.677,0.941 c 0.477,-0.439 1.616,-1.261 2.919,-2.246 0.636,-0.509 1.329,-1.072 1.966,-1.699 0.336,-0.291 0.615,-0.655 0.918,-0.978 l 0.211,-0.255 -1.153,-0.827 -0.012,0.012 -0.041,0.061 -0.095,0.123 -0.348,0.484 0.288,-0.67 0.032,-0.087 -0.1,-0.023 -0.279,-0.099 v 0.633 h 0.284 l -0.284,-0.633 v 0.001 l 0.126,0.031 0.072,0.05 -0.096,0.214 z m -0.536,-0.018 -0.417,0.672 c -0.393,0.615 -0.727,1.155 -0.706,1.369 l 0.352,-0.308 -0.346,0.33 c 0.013,0.047 0.05,0.076 0.118,0.076 l 0.093,-0.014 c 0.576,-0.825 0.961,-1.418 1.263,-1.946 l 0.215,-0.395 0.046,-0.095 0.017,-0.03 v -10e-4 l -0.306,-0.217 -0.007,0.008 -0.018,0.037 -0.095,0.171 -0.209,0.343 z m 0.25,-0.726 -0.016,-0.012 10e-4,0.001 0.015,0.011 z m 1.967,1.412 -0.025,-0.019 -0.004,-0.002 0.029,0.021 z m -2.813,5.376 -0.973,1.376 c 0.348,-0.544 0.422,-0.76 0.334,-0.76 -0.166,0 -0.948,0.84 -1.454,1.726 0.154,0.515 -0.041,0.489 -1.481,2.205 0.044,-0.086 0.048,-0.119 0.013,-0.119 -0.128,0 -0.744,0.469 -1.404,0.792 l -0.17,0.262 c 0.453,0.406 1.047,0.812 1.813,1.812 h 0.002 c 0.103,-1 -0.04,-0.965 0.166,-1.543 0.549,-0.993 1.393,-2.646 2.749,-4.753 0.147,-0.352 0.279,-0.735 0.405,-0.998 z m 1.048,-1.784 c -0.624,0.565 -1.072,1.084 -1.101,1.421 l 0.606,-0.64 c 0.142,-0.232 0.304,-0.49 0.495,-0.781 z m 1.273,-1.053 -0.642,0.51 -0.313,0.506 0.29,-0.257 -0.114,0.07 c 0.266,-0.266 0.528,-0.54 0.779,-0.829 z m 1.685,-1.35 0.27,-0.141 h 0.001 l -0.034,-0.023 -0.008,-0.005 0.041,0.028 -0.2,-0.138 v 0.004 l -0.012,0.029 -0.058,0.246 z m -0.331,-0.395 0.014,0.009 0.107,-0.064 0.013,-0.012 0.006,-0.002 -0.101,-0.072 v 0.008 l -0.011,0.026 -0.02,0.052 -0.008,0.055 z m 0.159,0.484 0.148,-0.326 0.021,-0.078 v -0.014 l -0.077,-0.058 -0.004,0.005 -0.068,0.093 -0.128,0.174 -0.226,0.318 -0.096,0.134 0.43,-0.248 z m 0.507,-0.181 -0.005,-0.004 -0.371,0.248 -0.095,0.36 0.277,-0.357 0.139,-0.182 0.033,-0.045 0.021,-0.016 0.001,-0.004 z M 72.16,48.83 72.162,48.833 72.16,48.83 z m 25.864,24.692 -0.019,0.002 c 0.236,0.199 -2.156,1.782 -1.854,1.782 l 0.21,-0.065 c 0.587,-0.534 2.059,-1.719 1.663,-1.719 z M 80.586,44.981 80.382,44.7 80.586,44.981 z M 28.979,80.074 28.913,80.012 29,80.096 28.979,80.074 z m 33.56,-43.143 0.014,0.04 h 0.001 l -0.015,-0.04 z m -5.915,41.955 0.041,-0.046 -0.041,0.046 z m 15.432,-29.936 -0.03,-0.053 -0.765,0.414 c 0.296,-0.145 0.561,-0.258 0.795,-0.361 z m -2.714,-5.665 -0.043,-0.088 -0.265,-0.502 0.308,0.59 z m 31.406,28.092 -0.025,-0.018 -0.023,-0.016 0.048,0.034 z m -30.825,-28.244 -0.102,-0.194 0.102,0.194 z m 0.762,6.448 0.485,-0.227 -0.485,0.227 z m -8.36,33.06 0.399,-0.155 -0.309,-0.45 c -0.144,0.187 -0.202,0.387 -0.09,0.605 z m 0.099,-0.615 0.315,0.455 0.072,-0.026 -0.336,-0.491 -0.051,0.062 z m 7.499,-38.893 0.111,0.21 -0.111,-0.21 z m -44.491,20.85 -0.058,0.038 -0.008,0.006 H 25.36 l -0.393,-0.573 0.629,0.923 0.077,-0.041 -0.241,-0.353 z m 44.441,-13.564 0.434,-0.357 -0.434,0.357 z m -44.654,13.173 -0.013,0.007 -0.02,0.008 -1.063,-1.555 c -0.004,0 0.546,0.808 1.31,1.932 l 0.037,-0.022 -0.251,-0.37 z m 74.227,6.825 0.002,0.002 -0.002,-0.002 z m -3.344,-2.893 0.084,0.066 -0.084,-0.066 z m 1.447,5.752 0.944,-0.892 c -0.355,0.315 -0.71,0.639 -0.944,0.892 z m -6.877,-10.487 -0.241,-0.193 0.241,0.193 z m 0.491,0.335 v -0.003 c 0,0.288 1.597,1.441 3.054,2.599 0.779,0.613 1.946,1.229 1.946,1.714 v 0.007 l 0.145,0.02 0.052,0.068 0.034,0.017 -0.136,0.34 -0.285,0.711 c 0.149,-0.054 0.364,-0.466 0.575,-0.974 l 0.64,0.503 -0.636,-0.505 0.007,-0.017 0.035,-0.079 1.095,0.862 -1.093,-0.866 -0.217,-0.008 -0.217,-0.017 v -0.012 c -3,-2.383 -4.308,-3.67 -5.126,-4.317 l 0.126,-0.156 v 10e-4 c 0,-0.091 -0.312,-0.165 -0.387,-0.223 l 0.224,0.221 -0.022,0.001 -0.025,0.009 -0.035,0.027 -0.044,0.037 -0.117,-0.091 0.115,0.096 -0.078,0.059 -0.235,0.208 -0.429,0.369 0.772,-0.508 0.071,-0.051 0.098,-0.025 0.093,-0.017 z M 74.118,61.008 74.26,60.793 c -0.154,0.157 -0.215,0.247 -0.142,0.215 z m 15.424,-0.886 c 0.079,0 0.349,-0.26 0.747,-0.656 -0.213,0.169 -0.45,0.369 -0.751,0.656 h 0.004 z m 3.238,-3.38 0.005,-0.005 0.005,-0.007 0.008,-0.005 -0.119,-0.09 -0.017,0.018 0.118,0.089 z m -32.554,21.95 -0.252,-0.37 0.252,0.37 z m 9.18,-35.283 -0.003,-0.013 -0.005,0.003 0.008,0.01 z m 3.089,34.988 0.08,0.009 c 0.812,-0.387 1.322,-0.774 2.113,-1.23 -0.896,0.492 -1.991,0.971 -3.299,1.463 0.369,-0.099 0.885,-0.242 1.106,-0.242 z m -3.092,-35.001 -0.039,-0.075 -0.021,-0.036 0.06,0.111 z m -0.438,-0.725 -0.07,-0.135 0.07,0.135 z m -21.128,40.652 -0.025,-0.024 -0.002,-0.001 0.027,0.025 z m 13.189,-3.399 0.039,-0.015 -0.031,-0.042 -0.044,0.017 -0.026,0.009 h -0.005 l 0.034,0.051 0.012,-0.006 0.021,-0.014 z m 8.678,-37.021 c -0.062,-1 -0.111,-0.408 -0.15,-0.482 l 0.11,0.122 0.038,0.051 0.002,0.128 0.003,0.182 h 0.456 v -0.406 c 0,0.391 0.053,0.54 0.054,0.547 l -0.121,-0.012 -0.049,0.012 h -0.028 c 0.334,0.636 0.832,1.608 1.592,3.057 C 70.829,44.613 70.3,43.62 69.965,42.983 l 0.017,0.038 -0.113,-0.212 0.131,0.258 -0.22,-0.421 0.036,0.067 -0.063,-0.12 0.026,0.052 -0.065,-0.123 -0.004,0.006 -0.028,0.009 -0.1,0.033 0.087,0.148 0.02,0.183 h 0.015 z m -22.168,40.539 0.028,-0.071 0.052,-0.133 0.022,-0.058 -0.334,0.078 0.219,0.215 0.013,-0.031 z m 16.613,1.089 0.034,0.051 0.008,-0.009 0.05,-0.041 -0.04,-0.06 -0.052,0.059 z M 79.061,82.57 v 0.005 l 0.052,0.037 0.001,-0.006 -0.053,-0.036 z m -10.048,-39.676 0.017,-0.019 -0.036,-0.07 -0.027,0.024 0.038,0.073 0.008,-0.008 z m -24.174,30.295 -0.105,0.243 0.105,-0.243 z m 24.323,-30.142 -0.197,-0.376 0.196,0.375 0.001,10e-4 z m -40.504,36.679 10e-4,-0.001 -0.087,-0.082 0.086,0.083 z m 40.233,-36.843 -0.167,-0.317 -0.011,0.008 0.166,0.317 0.012,-0.008 z M 29.78,70.125 c 0.412,-0.552 0.968,-1.209 3.059,-2.996 -0.143,0.039 -0.485,0.227 -0.605,0.227 -0.095,0 -0.055,-0.116 0.325,-0.512 l -1.711,1.675 -0.819,0.826 -0.409,0.409 -0.127,0.128 0.226,0.328 0.061,-0.085 z m 2.779,-3.28 0.783,-0.751 c -0.37,0.335 -0.596,0.562 -0.783,0.751 z m 39.744,-19.398 -0.705,-1.346 0.705,1.346 z m -42.595,22.776 -0.014,0.018 0.349,0.507 -0.073,-0.111 h 0.006 l 0.009,-0.017 0.009,-0.005 -0.273,-0.404 -0.013,0.012 z m 3.962,-5.091 -0.153,0.048 0.155,-0.013 -0.002,-0.035 z m 35.221,-22.249 0.041,0.08 0.035,-0.031 0.024,-0.021 -0.039,-0.074 v 0.002 l -0.061,0.044 z m -20.523,28.1 0.073,-0.2 c -0.088,0.128 -0.1,0.18 -0.073,0.2 z m 21.334,-28.49 0.005,0.01 -0.036,-0.071 0.031,0.061 z m -0.031,-0.06 -0.008,-0.014 -0.013,-0.025 0.021,0.039 z m -40.251,27.524 -0.013,0.012 0.234,0.345 0.013,-0.016 0.012,-0.027 0.027,-0.03 -0.227,-0.331 -0.046,0.047 z m 5.897,2.949 c 0.045,0 0.122,-0.035 0.239,-0.11 l 0.101,-0.251 -0.401,0.287 0.061,0.074 z m 46.575,-28.95 h -0.006 c -0.684,-0.624 -1.15,-1.565 -1.147,-1.565 0.002,0 0.335,0.941 1.153,1.565 z m -3.389,40.914 0.098,0.07 -0.231,-0.166 0.133,0.096 z m 0.237,-1.647 c 0.045,0 0.144,-0.19 0.321,-0.649 l -0.234,-0.168 c -0.103,0.48 -0.144,0.817 -0.087,0.817 z m -0.37,1.55 -0.145,-0.104 0.145,0.104 z m 20.055,-8.209 0.09,-0.054 0.171,-0.189 -0.261,0.243 z m -4.105,7.398 c 0.679,0.606 1.357,1.094 1.358,1.094 l -0.033,-0.154 h 0.005 c -1.138,-1 -1.77,-1.462 -2.094,-1.754 L 93.457,83.12 c -0.347,-0.307 -0.487,-0.404 -0.491,-0.404 0,0.001 0.677,0.638 1.354,1.246 z m -31.178,0.829 -0.383,-0.56 0.17,0.257 0.213,0.303 z m -14.363,-0.543 -0.118,-0.118 0.118,0.118 z m -16.156,0.17 0.288,0.273 -0.288,-0.273 z m 45.886,-2.239 0.318,0.227 v -0.003 l -0.318,-0.224 z m 17.155,2.925 0.014,-0.045 -0.023,0.057 -0.005,0.026 0.005,-0.012 0.009,-0.026 z m -17.19,-2.949 0.035,0.024 -0.035,-0.024 z m -11.822,1.446 0.907,-0.489 0.174,-0.221 -1.081,0.71 z m 18.836,-3.535 0.026,-0.049 0.112,-0.21 -0.138,0.259 z m -39.987,4.75 0.005,0.003 0.008,-0.003 h -0.013 z m 23.902,-41.407 0.03,0.057 10e-4,-10e-4 -0.028,-0.055 h -0.003 z m -26.746,38.116 0.309,0.304 -0.098,-0.099 -0.211,-0.205 z m 26.623,-38.352 0.117,0.226 h 10e-4 L 69.28,43.173 z m -23.005,42.396 -0.769,-0.75 h -0.004 l 0.773,0.75 z m 22.076,-1.936 0.782,-0.557 -2.553,1.257 1.771,-0.7 z m 22.416,-1.13 c -0.435,0.331 -0.828,0.617 -0.744,0.617 l 0.043,-0.008 c 0.197,-0.196 0.446,-0.404 0.701,-0.609 z m -57.857,2.188 0.122,0.115 -0.122,-0.115 z m 61.162,-26.942 0.824,0.629 -0.824,-0.629 z m -48.571,27.07 h 0.001 l -0.101,-0.099 0.1,0.099 z m 18.649,-0.281 0.161,0.236 -0.128,-0.187 -0.033,-0.049 z m 23.92,-31.822 -0.97,-0.735 0.97,0.738 v -0.003 z m -0.992,-1.454 v 0.004 l 0.081,0.11 -0.081,-0.114 z m 0.261,0.51 -0.241,0.208 -0.034,0.027 0.037,-0.026 0.238,-0.209 z m -60.881,26.573 -0.327,-0.31 0.327,0.31 z M 77.392,44.274 c -0.221,0.1 -0.443,0.22 -0.677,0.388 l 0.677,-0.388 z m 3.702,0.417 -0.233,-0.319 0.233,0.319 z m 12.344,12.574 v 0.002 l 0.634,0.482 -0.634,-0.484 z m -0.128,-0.102 -0.01,-0.008 0.004,0.003 0.006,0.005 z m -0.631,-0.945 -0.003,0.004 0.075,0.053 -0.072,-0.057 z m 1.443,1.748 c 0,0 -0.051,-0.4 -1.3,-0.987 v -10e-4 c 1.249,0.702 1.3,0.988 1.3,0.988 z m -1.324,-1.242 v 0.001 l 0.083,0.062 -0.083,-0.063 z M 69.28,43.173 69.173,42.965 69.28,43.173 z m -42.844,15.514 0.151,0.101 -0.059,-0.043 -0.092,-0.058 z m 7.486,-14.478 0.044,-0.016 c 0.311,-0.36 0.603,-0.711 0.852,-1.044 -0.797,0.836 -0.964,1.06 -0.896,1.06 z m -7.829,22.618 0.032,0.045 -0.142,-0.207 0.11,0.162 z m 0.365,11.518 0.055,0.053 V 78.397 L 26.458,78.345 z M 68.223,39.587 c -0.003,0 0.394,0.623 0.976,1.872 h 0.002 c -0.696,-1.873 -0.978,-1.872 -0.978,-1.872 z m -42.091,38.448 -0.181,-0.17 0.181,0.17 z m 41.882,-36.792 -0.158,-0.296 0.158,0.296 z m -4.191,-1.115 0.017,0.05 -0.017,-0.05 z m -0.254,-0.17 -0.136,-0.399 0.136,0.399 z m 0.27,0.22 0.102,0.305 -0.102,-0.305 z"
     inkscape:connector-curvature="0"
     id="path4"
     style="fill:#ffffff" />
</svg>
