<?xml version="1.0" encoding="UTF-8" standalone="no"?>
<!-- Created with Inkscape (http://www.inkscape.org/) -->

<svg
   xmlns:dc="http://purl.org/dc/elements/1.1/"
   xmlns:cc="http://creativecommons.org/ns#"
   xmlns:rdf="http://www.w3.org/1999/02/22-rdf-syntax-ns#"
   xmlns:svg="http://www.w3.org/2000/svg"
   xmlns="http://www.w3.org/2000/svg"
   xmlns:inkscape="http://www.inkscape.org/namespaces/inkscape"
   version="1.1"
   width="128"
   height="128"
   id="svg2">
  <metadata
     id="metadata10">
    <rdf:RDF>
      <cc:Work
         rdf:about="">
        <dc:format>image/svg+xml</dc:format>
        <dc:type
           rdf:resource="http://purl.org/dc/dcmitype/StillImage" />
      </cc:Work>
    </rdf:RDF>
  </metadata>
  <defs
     id="defs8" />
  <path
     d="M 97.719,35.068 C 89.301,25.165 72.176,26.181 55.96,36.308 L 48.238,25.994 c -2.373,-3.176 -8.669,-2.484 -14.062,1.547 -5.393,4.03 -7.842,9.871 -5.469,13.046 l 8.975,12.012 C 31.341,60.461 27.126,68.997 25.408,76.932 l 0.51,-0.032 c 1.727,-7.732 5.958,-16.019 12.32,-23.557 l 3.649,4.885 c -4.67,6.101 -7.805,12.682 -9.193,18.921 -1.766,7.941 -0.698,15.324 3.651,20.434 8.636,10.163 26.876,8.033 42.201,-4.821 0.011,0.049 2.709,-2.233 3.884,-3.343 18.869,-17.764 25.71,-42.092 15.289,-54.351 z M 67.447,57.562 c -2.464,2.138 -8.937,1.814 -10.27,0.349 l -13.314,-17.816 0.13,-0.102 c 2.61,-1.951 5.404,-3.123 7.79,-3.436 L 67.447,57.562 z M 74.9,81.384 71.864,57.552 61.234,43.353 c 10.997,-5.421 22.219,-5.311 27.697,1.131 7.026,8.266 1.939,23.809 -11.359,34.741 -0.006,0 -0.862,0.677 -1.09,0.888 L 74.9,81.384 z M 58.126,60.086 c 3.993,1.576 8.456,-0.06 10.191,-1.356 l 0.224,0.299 2.056,13.933 c -0.616,0.124 -1.241,0.394 -1.81,0.819 -0.568,0.423 -1.004,0.946 -1.298,1.501 L 55.478,69.84 c 0.898,-1.402 3.461,-5.556 2.648,-9.754 z M 54.233,68.947 38.138,47.409 c 0.697,-2.116 2.34,-4.445 4.695,-6.477 l 13.279,17.774 c 0,0 2.027,5.19 -1.879,10.241 z M 50.161,34.381 c -0.603,0.064 -1.235,0.185 -1.885,0.36 l -2.97,-3.989 c 0.638,-0.183 1.26,-0.313 1.856,-0.39 l 2.999,4.019 z M 36.058,30.06 c 2.493,-1.862 7.211,-3.315 9.334,-1.855 -2.421,0.281 -5.283,1.463 -7.952,3.457 -2.83,2.114 -4.845,4.694 -5.732,7.048 -1.216,-2.555 1.695,-6.667 4.35,-8.65 z m -2.565,11.13 c 0.813,-2.443 2.878,-5.17 5.843,-7.386 0.329,-0.246 0.661,-0.479 0.994,-0.699 l 2.934,3.937 c -0.392,0.254 -0.783,0.524 -1.169,0.812 -2.863,2.139 -4.895,4.757 -5.764,7.134 L 33.493,41.19 z M 93.59,72.841 C 89.419,80.616 83.882,86.066 78.254,90.968 64.315,103.103 46.411,104.062 38.372,94.597 34.65,90.22 33.503,84.137 34.596,77.522 c 0.985,-5.921 3.77,-12.26 8.12,-18.185 l 9.646,12.911 15.97,6.873 c 0.159,0.089 0.326,0.161 0.503,0.216 l 6.048,2.604 0.261,0.332 3.314,-2.558 V 79.71 c 0,-0.188 0.418,-0.377 0.656,-0.578 C 93.132,67.359 98.502,50.804 91.14,42.153 89.678,40.436 87.801,39.169 85.656,38.318 l 0.026,-0.033 -0.469,-0.141 C 78.578,35.738 69.341,37.246 60.411,42.251 l -3.396,-4.535 c 14.822,-8.28 30.08,-8.608 37.799,0.455 6.896,8.105 5.959,21.582 -1.175,34.649 l -0.049,0.021 z"
     inkscape:connector-curvature="0"
     id="path4"
     style="fill:#2b5889" />
</svg>
