<?xml version="1.0" encoding="UTF-8" standalone="no"?>
<!-- Created with Inkscape (http://www.inkscape.org/) -->

<svg
   xmlns:dc="http://purl.org/dc/elements/1.1/"
   xmlns:cc="http://creativecommons.org/ns#"
   xmlns:rdf="http://www.w3.org/1999/02/22-rdf-syntax-ns#"
   xmlns:svg="http://www.w3.org/2000/svg"
   xmlns="http://www.w3.org/2000/svg"
   xmlns:inkscape="http://www.inkscape.org/namespaces/inkscape"
   version="1.1"
   width="128"
   height="128"
   id="svg2">
  <metadata
     id="metadata10">
    <rdf:RDF>
      <cc:Work
         rdf:about="">
        <dc:format>image/svg+xml</dc:format>
        <dc:type
           rdf:resource="http://purl.org/dc/dcmitype/StillImage" />
      </cc:Work>
    </rdf:RDF>
  </metadata>
  <defs
     id="defs8" />
  <path
     d="m 102.553,78.601 c 0.317,0.36 0.763,0.477 0.763,0.477 0,0 -2.633,2.746 -5.296,3.373 -2.673,0.623 -4.146,-0.227 -5.306,-0.25 -1.16,-0.033 -2.136,0.233 -3.34,-0.017 l -3.04,-1.26 -1.796,0.31 -0.263,0.533 c -0.353,0.3 -1.617,2.14 -2.58,3.603 l -1.03,1.413 c 0.253,0.137 0.897,0.447 1.11,0.327 0.27,-0.153 2.343,-1.943 3.57,-2.43 1.223,-0.483 2.603,-0.477 3.79,-0.487 1.18,-0.01 3.98,1.103 4.903,1.79 0.923,0.687 1.51,2.05 1.51,2.05 0,0 -1.477,2.163 -3.613,3.343 -2.13,1.177 -5.299,-0.213 -6.633,-0.733 -1.333,-0.527 -3.486,-2.656 -3.763,-2.823 -0.207,-0.117 -1.027,-0.233 -1.463,-0.293 -0.733,0.89 -1.483,1.72 -2.036,2.226 -1.003,0.93 -5.006,4.023 -5.773,4.55 l -0.923,0.523 0.04,0.03 c 0.227,0.133 1.64,0.48 2.236,0.227 0.59,-0.257 2.19,-1.727 3.87,-2.376 1.677,-0.64 4.596,0.267 5.756,0.843 1.153,0.577 2.806,2.636 3.1,3.283 0.293,0.647 0.787,1.2 0.787,1.2 0,0 -0.507,1.287 -1.49,1.993 -0.987,0.713 -2.336,0.627 -4.446,1.233 -2.116,0.603 -4.043,-0.857 -5.066,-1.463 -1.02,-0.603 -2.57,-3.566 -2.986,-4.026 -0.42,-0.46 -1.807,-0.383 -2.063,-0.41 l -0.387,-0.203 c -1.267,0.637 -2.9,1.377 -3.69,1.676 -0.568,0.213 -1.218,0.527 -1.854,0.868 2.508,1.625 5.614,4.078 5.941,4.501 0,0 -0.45,1.377 -0.663,1.64 -0.217,0.267 -0.43,0.127 -0.593,-0.01 -0.17,-0.14 0.067,-0.72 -0.357,-1.077 -0.43,-0.357 -3.593,-3.153 -4.62,-3.853 -0.255,-0.174 -0.545,-0.361 -0.855,-0.55 -0.314,0.191 -0.607,0.38 -0.865,0.556 -1.027,0.7 -4.19,3.496 -4.62,3.853 -0.423,0.357 -0.187,0.937 -0.357,1.077 -0.163,0.137 -0.377,0.277 -0.593,0.01 -0.213,-0.263 -0.663,-1.64 -0.663,-1.64 0.327,-0.424 3.442,-2.883 5.952,-4.509 -0.64,-0.344 -1.294,-0.66 -1.866,-0.874 -0.79,-0.3 -2.423,-1.04 -3.69,-1.677 l -0.387,0.203 c -0.257,0.027 -1.643,-0.05 -2.063,0.41 -0.417,0.46 -1.966,3.423 -2.986,4.026 -1.023,0.607 -2.95,2.066 -5.066,1.463 -2.11,-0.607 -3.46,-0.52 -4.446,-1.233 -0.983,-0.707 -1.49,-1.993 -1.49,-1.993 0,0 0.493,-0.553 0.787,-1.2 0.293,-0.647 1.946,-2.706 3.1,-3.283 1.16,-0.577 4.08,-1.483 5.756,-0.843 1.68,0.65 3.28,2.12 3.87,2.376 0.597,0.253 2.01,-0.093 2.236,-0.227 l 0.04,-0.03 -0.923,-0.523 c -0.767,-0.527 -4.77,-3.62 -5.773,-4.55 -0.553,-0.507 -1.303,-1.337 -2.036,-2.226 -0.437,0.06 -1.257,0.177 -1.463,0.293 -0.277,0.167 -2.43,2.296 -3.763,2.823 -1.333,0.52 -4.503,1.91 -6.633,0.733 -2.136,-1.18 -3.613,-3.343 -3.613,-3.343 0,0 0.587,-1.363 1.51,-2.05 0.923,-0.687 3.723,-1.8 4.903,-1.79 1.187,0.01 2.566,0.003 3.79,0.487 1.227,0.487 3.3,2.276 3.57,2.43 0.213,0.12 0.857,-0.19 1.11,-0.327 l -1.03,-1.413 c -0.963,-1.463 -2.226,-3.303 -2.58,-3.603 l -0.263,-0.533 -1.797,-0.31 -3.04,1.26 c -1.203,0.25 -2.18,-0.017 -3.34,0.017 -1.16,0.023 -2.633,0.873 -5.306,0.25 -2.663,-0.627 -5.296,-3.373 -5.296,-3.373 0,0 0.447,-0.117 0.763,-0.477 0.327,-0.36 0.58,-0.72 1.127,-1.523 0.547,-0.807 1.38,-1.35 3.126,-2.38 1.733,-1.027 4.413,-0.15 5.116,0.11 0.697,0.26 1.86,0.307 3.21,1.257 1.353,0.953 2.963,3.796 3.59,4.2 0.57,0.36 1.48,0.18 1.637,0.14 -0.103,-0.427 -0.22,-0.88 -0.397,-1.243 -0.397,-0.82 -1.953,-4.54 -2.453,-5.823 -0.553,-0.317 -1.733,-1.007 -2.03,-1.227 -0.403,-0.293 -0.867,-0.327 -2.16,0.07 -1.303,0.39 -4.293,0.627 -6.203,-0.347 -1.9,-0.973 -4.466,-4.213 -5.06,-5.743 -0.587,-1.533 -0.94,-4.09 -0.94,-4.09 0,0 1.3,0.04 1.917,0.007 0.627,-0.033 2.186,-0.457 4.22,-0.203 2.026,0.25 4.55,1.08 6.146,3.093 1.597,2.016 1.727,6.036 2.26,6.616 0.38,0.417 1.147,0.763 1.556,0.933 -0.373,-1.506 -0.997,-4.896 -1.107,-6.339 l -0.227,-2.926 c -0.407,-0.413 -1.18,-1.197 -1.566,-1.507 -0.54,-0.423 -3.56,0.043 -5.853,-1.39 -2.286,-1.437 -5.089,-4.82 -5.839,-6.226 -0.757,-1.406 -0.763,-2.31 -0.97,-4 l -0.46,-3.483 c 0,0 2.496,0.39 4.24,0.827 1.737,0.437 2.97,1.22 3.993,2.076 1.027,0.853 0.787,0.12 2.056,1.337 1.263,1.217 2.506,3.32 3.126,5.339 0.627,2.026 0.257,4.68 0.383,5.146 0.083,0.313 0.533,0.787 0.827,1.073 l -0.3,-4.003 C 38.281,56.467 38.331,54.41 38.401,53.194 l 0.157,-1.313 c -0.403,-0.4 -1.693,-1.667 -2.346,-2.193 -0.79,-0.627 -3.106,-0.51 -4.916,-1.87 -1.733,-1.297 -4.486,-4.986 -3.99,-8.302 0.493,-3.316 2.096,-5.589 2.096,-5.589 0,0 3.366,0.8 5.363,2.436 1.996,1.636 4.25,5.279 3.9,7.956 -0.36,2.673 -2.003,3.756 -1.96,4.63 0.04,0.75 1.543,1.8 1.986,2.09 0.063,-0.477 0.113,-0.903 0.083,-1.207 -0.11,-1.07 0.567,-2.933 0.567,-2.933 0,0 0.71,-1.59 0.817,-2.09 0.107,-0.5 -0.253,-1.623 -0.61,-2.713 -0.357,-1.093 0.17,-3.27 0.063,-4.533 -0.11,-1.263 0.353,-3.596 0.427,-4.18 0.06,-0.573 0.883,-2.553 1.19,-3.023 l 0.82,-1.507 c 0.397,-0.62 1.03,-0.943 1.53,-1.397 0.507,-0.453 1.07,-1.037 1.42,-1.473 0.35,-0.437 1.223,-0.697 1.633,-0.853 0.41,-0.16 1.103,-1.133 1.103,-1.133 0,0 0.037,1.117 0.187,1.646 0.157,0.53 0.593,0.843 0.827,2.09 0.227,1.25 0.45,2.3 0.477,3.393 0.033,1.09 -0.273,3.393 -0.787,4.53 -0.52,1.137 -1.25,2.533 -2.546,4.326 -1.29,1.793 -4.773,4.39 -5.149,4.903 l -0.9,2.65 c 0,0 -0.387,1.743 -0.447,3.846 l 0.166,0.047 c 0.32,0.063 1.126,-0.537 1.543,-0.967 0.417,-0.433 0.299,-0.997 0.712,-2.123 0.413,-1.133 1.718,-3.87 3.321,-5.646 1.607,-1.78 3.68,-2.383 5.596,-2.623 1.916,-0.24 5.447,1.173 5.447,1.173 0,0 -0.355,2.406 -1.129,4.463 -0.77,2.05 -4.651,4.4 -6.557,5.116 -1.903,0.71 -6.571,0.123 -7.001,0.193 L 39.71,51.981 39,51.907 v 0.047 c 0,1.716 -0.235,2.28 -0.092,3.663 0.143,1.383 0.098,2.806 0.388,3.82 l 0.59,1.646 0.527,-0.317 c 0.227,-0.267 0.593,-1.163 1.033,-2.663 0.447,-1.503 2.656,-3.966 4.06,-5.25 1.393,-1.283 5.533,-2.233 6.576,-1.89 l 3.436,0.06 c 0,0 -0.64,2.67 -1.09,3.82 -0.443,1.153 -0.177,1.697 -0.68,2.693 -0.497,0.993 -0.781,1.403 -2.321,2.723 -1.543,1.327 -3.744,1.82 -5.511,1.693 -1.773,-0.13 -4.733,-0.643 -5.299,-0.56 -0.573,0.08 -0.746,0.343 -0.746,0.343 l -0.053,-0.073 c -0.173,0.507 -0.275,1.383 -0.218,2.273 0.067,0.947 0.163,3.353 0.593,5.223 0.437,1.867 0.869,4.676 1.253,5.043 L 42,74.842 v 0.007 l 0.648,-0.487 c 0.35,-0.597 0.271,-1.903 0.808,-4.596 0.537,-2.69 3.74,-5.806 6.026,-6.953 2.286,-1.14 6.829,-1.203 6.829,-1.203 0,0 -0.39,2.57 -0.677,3.266 -0.293,0.703 -0.047,1.213 -0.697,3.156 -0.66,1.946 -2.76,3.796 -5.123,5.253 -2.363,1.46 -6.209,1.103 -6.553,1.457 l -0.713,0.783 c 0.107,0.59 0.26,1.396 0.527,1.83 0.41,0.67 1.327,3.56 2.86,5.549 0.747,0.963 1.28,1.713 1.636,2.226 0.18,-0.173 1.087,-1.03 1.393,-1.497 0.347,-0.52 -0.773,-2.643 -0.567,-5.286 0.21,-2.65 1.62,-3.936 3.47,-5.536 l 5.969,-1.447 c 0,0 0.377,1.636 0.483,3.666 0.103,2.023 -1.23,4.386 -2.99,6.009 -1.767,1.62 -4.793,1.583 -5.739,2.73 -0.47,0.567 -1.703,1.793 -1.72,1.81 l 0.247,0.383 c 0,0 0.61,1.167 1.43,2.02 0.597,0.623 2.79,2.583 4.71,4 0.197,-0.327 0.477,-0.833 0.587,-1.193 0.183,-0.573 -0.803,-1.237 -0.607,-5.096 0.177,-3.406 4.1,-5.553 5.169,-6.276 1.06,-0.723 2.553,-1.87 2.553,-1.87 0,0 2.626,4.64 -0.143,9.356 -1.53,2.62 -6.229,3.666 -6.466,4.093 l -0.59,1.347 c 0.533,0.373 1.04,0.693 1.463,0.907 l 3.87,2.126 c 1.453,0.676 1.906,0.458 3.909,1.621 1.994,-1.156 2.447,-0.94 3.897,-1.615 l 3.87,-2.126 c 0.423,-0.213 0.93,-0.533 1.463,-0.907 l -0.59,-1.347 c -0.237,-0.427 -4.936,-1.473 -6.466,-4.093 -2.77,-4.716 -0.143,-9.356 -0.143,-9.356 0,0 1.493,1.147 2.553,1.87 1.07,0.723 4.993,2.87 5.169,6.276 0.197,3.86 -0.79,4.523 -0.607,5.096 0.11,0.36 0.39,0.867 0.587,1.193 1.927,-1.417 4.113,-3.376 4.71,-4 0.82,-0.853 1.43,-2.02 1.43,-2.02 l 0.247,-0.383 c -0.017,-0.017 -1.25,-1.243 -1.72,-1.81 -0.947,-1.147 -3.973,-1.11 -5.739,-2.73 -1.76,-1.623 -3.093,-3.986 -2.99,-6.009 0.107,-2.03 0.483,-3.666 0.483,-3.666 l 5.969,1.447 c 1.85,1.6 3.26,2.886 3.47,5.536 0.207,2.643 -0.913,4.766 -0.567,5.286 0.307,0.467 1.213,1.323 1.393,1.497 0.357,-0.513 0.89,-1.263 1.637,-2.226 1.533,-1.99 2.45,-4.88 2.86,-5.549 0.267,-0.433 0.42,-1.24 0.527,-1.83 l -0.712,-0.783 c -0.337,-0.353 -4.188,0.003 -6.551,-1.457 -2.363,-1.456 -4.46,-3.306 -5.12,-5.253 -0.65,-1.943 -0.397,-2.453 -0.69,-3.156 -0.287,-0.697 -0.664,-3.266 -0.664,-3.266 0,0 4.568,0.063 6.855,1.203 2.286,1.147 5.541,4.263 6.077,6.953 l 0.709,4.596 0.651,0.487 v -0.007 l 0.552,-0.64 c 0.383,-0.367 0.712,-3.176 1.149,-5.043 0.43,-1.87 0.577,-4.276 0.643,-5.223 0.057,-0.89 -0.02,-1.766 -0.193,-2.273 l -0.04,0.073 c 0,0 -0.167,-0.263 -0.74,-0.343 -0.567,-0.083 -3.523,0.43 -5.296,0.56 -1.766,0.127 -3.966,-0.367 -5.509,-1.693 -1.54,-1.32 -1.823,-1.73 -2.32,-2.723 C 73.743,56.543 74.01,56 73.566,54.85 73.116,53.7 72.48,51.027 72.48,51.027 l 3.438,-0.06 c 1.043,-0.343 5.186,0.607 6.579,1.89 1.403,1.283 3.619,3.746 4.066,5.249 0.44,1.5 0.819,2.396 1.045,2.663 l 0.551,0.317 0.639,-1.646 c 0.29,-1.013 0.148,-2.436 0.291,-3.82 C 89.232,54.236 89,53.674 89,51.957 V 51.91 l -0.71,0.077 -1.883,-0.967 c -0.43,-0.07 -5.05,0.517 -6.953,-0.197 -1.906,-0.717 -5.763,-3.066 -6.533,-5.116 -0.767,-2.053 -1.117,-4.46 -1.117,-4.46 0,0 3.54,-1.417 5.456,-1.177 1.917,0.24 3.993,0.843 5.599,2.623 1.603,1.776 2.91,4.513 3.323,5.646 0.413,1.127 0.297,1.69 0.713,2.123 0.417,0.43 1.223,1.03 1.543,0.967 l 0.167,-0.047 c -0.06,-2.103 -0.447,-3.846 -0.447,-3.846 l -0.903,-2.65 c -0.373,-0.517 -3.856,-3.11 -5.146,-4.903 -1.297,-1.793 -2.026,-3.19 -2.546,-4.326 -0.513,-1.137 -0.82,-3.44 -0.787,-4.53 0.027,-1.093 0.25,-2.143 0.477,-3.393 0.233,-1.247 0.67,-1.56 0.827,-2.09 0.15,-0.53 0.187,-1.646 0.187,-1.646 0,0 0.693,0.973 1.113,1.137 0.41,0.157 1.283,0.417 1.633,0.853 0.35,0.437 0.913,1.02 1.42,1.473 0.5,0.453 1.133,0.777 1.53,1.396 l 0.82,1.507 c 0.303,0.47 1.127,2.453 1.19,3.026 0.073,0.58 0.533,2.916 0.427,4.176 -0.107,1.263 0.42,3.44 0.063,4.533 -0.357,1.087 -0.717,2.213 -0.61,2.71 0.107,0.5 0.817,2.09 0.817,2.09 0,0 0.677,1.863 0.567,2.933 -0.033,0.303 0.017,0.727 0.083,1.207 0.443,-0.29 1.946,-1.34 1.986,-2.09 0.043,-0.873 -1.603,-1.956 -1.96,-4.63 -0.35,-2.676 1.903,-6.319 3.9,-7.956 2.003,-1.637 5.363,-2.436 5.363,-2.436 0,0 1.603,2.273 2.096,5.589 0.497,3.316 -2.256,7.006 -3.99,8.302 -1.813,1.36 -4.13,1.243 -4.92,1.873 -0.653,0.527 -1.943,1.793 -2.346,2.193 l 0.157,1.313 c 0.07,1.217 0.12,3.276 -0.007,5.173 l -0.3,4.003 c 0.293,-0.287 0.743,-0.76 0.827,-1.073 0.127,-0.467 -0.243,-3.12 0.383,-5.146 0.617,-2.023 1.86,-4.126 3.13,-5.343 1.263,-1.217 1.023,-0.483 2.05,-1.337 1.023,-0.857 2.256,-1.64 3.993,-2.076 1.74,-0.437 4.236,-0.827 4.236,-0.827 l -0.46,3.48 c -0.207,1.69 -0.213,2.593 -0.97,4 -0.75,1.407 -3.553,4.79 -5.839,6.226 -2.293,1.433 -5.313,0.967 -5.853,1.39 -0.387,0.31 -1.16,1.093 -1.567,1.507 L 89.002,66.1 c -0.11,1.443 -0.733,4.833 -1.107,6.339 0.41,-0.17 1.177,-0.517 1.557,-0.933 0.533,-0.58 0.663,-4.6 2.26,-6.616 1.596,-2.013 4.12,-2.843 6.146,-3.093 2.033,-0.253 3.593,0.17 4.22,0.203 0.617,0.033 1.916,-0.007 1.916,-0.007 0,0 -0.353,2.556 -0.96,4.1 -0.587,1.53 -3.16,4.77 -5.06,5.743 -1.91,0.973 -4.896,0.737 -6.189,0.343 -1.293,-0.397 -1.756,-0.363 -2.16,-0.07 -0.297,0.22 -1.477,0.91 -2.03,1.227 -0.5,1.283 -2.056,5.003 -2.453,5.823 -0.177,0.363 -0.293,0.817 -0.397,1.243 0.157,0.04 1.067,0.22 1.637,-0.14 0.627,-0.403 2.236,-3.246 3.59,-4.2 1.35,-0.95 2.513,-0.997 3.21,-1.257 0.703,-0.26 3.383,-1.137 5.116,-0.11 1.747,1.03 2.58,1.573 3.126,2.38 0.549,0.806 0.802,1.166 1.129,1.526 z"
     inkscape:connector-curvature="0"
     id="path4" />
</svg>
