<?xml version="1.0" encoding="UTF-8" standalone="no"?>
<!-- Created with Inkscape (http://www.inkscape.org/) -->

<svg
   xmlns:dc="http://purl.org/dc/elements/1.1/"
   xmlns:cc="http://creativecommons.org/ns#"
   xmlns:rdf="http://www.w3.org/1999/02/22-rdf-syntax-ns#"
   xmlns:svg="http://www.w3.org/2000/svg"
   xmlns="http://www.w3.org/2000/svg"
   xmlns:inkscape="http://www.inkscape.org/namespaces/inkscape"
   version="1.1"
   width="128"
   height="128"
   viewBox="-14 -14 128 128"
   id="svg2">
  <metadata
     id="metadata10">
    <rdf:RDF>
      <cc:Work
         rdf:about="">
        <dc:format>image/svg+xml</dc:format>
        <dc:type
           rdf:resource="http://purl.org/dc/dcmitype/StillImage" />
      </cc:Work>
    </rdf:RDF>
  </metadata>
  <defs
     id="defs8" />
  <path
     d="M 59.295,61.353 C 67.59,65.387 76.299,72.793 79.847,81.356 75.297,85.043 74.705,85.504 69.357,90 64.206,80.084 57.969,74.619 49.44,72.431 44.433,78.884 36.281,86.42 23.534,89.9 20.693,83.887 19.919,82.187 18,77.65 28.195,75.287 31.91,72.064 36.901,62.504 36.544,50.9 39.526,39.49 46.967,34.925 c 3.868,1.268 10.267,5.084 12.087,5.662 -0.258,1.178 0.59,2.516 3.714,3.2 2.37,0.519 7.945,1.338 13.324,-3.543 3.299,5.072 5.908,9.973 5.908,9.973 0,0 -10.298,10.227 -22.484,7.016 -0.083,1.589 -0.143,2.095 -0.221,4.12 z M 60.741,32.756 C 54.513,32.756 49.305,27.663 49.305,21.378 49.306,15.093 54.513,10 60.741,10 c 6.225,0 11.514,5.093 11.514,11.379 0,6.283 -5.289,11.377 -11.514,11.377 z"
     inkscape:connector-curvature="0"
     id="path4"
     style="fill:#ffffff" />
</svg>
