<?xml version="1.0" encoding="UTF-8" standalone="no"?>
<!-- Created with Inkscape (http://www.inkscape.org/) -->

<svg
   xmlns:dc="http://purl.org/dc/elements/1.1/"
   xmlns:cc="http://creativecommons.org/ns#"
   xmlns:rdf="http://www.w3.org/1999/02/22-rdf-syntax-ns#"
   xmlns:svg="http://www.w3.org/2000/svg"
   xmlns="http://www.w3.org/2000/svg"
   xmlns:inkscape="http://www.inkscape.org/namespaces/inkscape"
   version="1.1"
   width="128"
   height="128"
   viewBox="0 0 128 128"
   id="Layer_1"
   xml:space="preserve"><metadata
     id="metadata8"><rdf:RDF><cc:Work
         rdf:about=""><dc:format>image/svg+xml</dc:format><dc:type
           rdf:resource="http://purl.org/dc/dcmitype/StillImage" /></cc:Work></rdf:RDF></metadata><defs
     id="defs6" /><path
     d="m 64,24.001 c -22.091,0 -40,17.907 -40,39.998 0,22.091 17.909,40 40,40 22.091,0 40,-17.909 40,-40 C 104,41.908 86.091,24.001 64,24.001 z m -5.869,20.876 c 11.745,0 24.103,2.416 33.13,7.718 1.217,0.689 2.061,1.728 2.061,3.633 0,2.18 -1.753,3.747 -3.773,3.747 -0.814,0 -1.298,-0.198 -2.061,-0.616 -7.24,-4.341 -18.476,-6.732 -29.342,-6.732 -5.424,0 -10.933,0.552 -15.979,1.921 -0.581,0.146 -1.316,0.437 -2.051,0.437 -2.134,0 -3.771,-1.688 -3.771,-3.822 0,-2.174 1.347,-3.394 2.8,-3.823 5.702,-1.68 12.067,-2.463 18.986,-2.463 z m -0.816,13.744 c 10.47,0 20.599,2.608 28.562,7.373 1.335,0.766 1.826,1.738 1.826,3.162 0,1.732 -1.379,3.131 -3.118,3.131 -0.868,0 -1.414,-0.351 -2.004,-0.694 -6.507,-3.861 -15.525,-6.426 -25.4,-6.426 -5.065,0 -9.437,0.709 -13.055,1.673 -0.78,0.215 -1.217,0.446 -1.946,0.446 -1.72,0 -3.125,-1.402 -3.125,-3.136 0,-1.701 0.825,-2.872 2.488,-3.341 4.497,-1.235 9.089,-2.188 15.772,-2.188 z m 0.549,13.062 c 8.753,0 16.554,2.008 23.266,6.031 0.999,0.583 1.585,1.179 1.585,2.659 0,1.442 -1.173,2.502 -2.488,2.502 -0.647,0 -1.088,-0.224 -1.693,-0.593 -5.797,-3.507 -13.025,-5.351 -20.697,-5.351 -4.28,0 -8.588,0.549 -12.616,1.388 -0.655,0.142 -1.48,0.395 -1.972,0.395 -1.519,0 -2.532,-1.207 -2.532,-2.514 0,-1.681 0.97,-2.518 2.176,-2.748 4.94,-1.126 9.86,-1.769 14.971,-1.769 z"
     inkscape:connector-curvature="0"
     id="path3101" /></svg>