<?xml version="1.0" encoding="UTF-8" standalone="no"?>
<!-- Created with Inkscape (http://www.inkscape.org/) -->

<svg
   xmlns:dc="http://purl.org/dc/elements/1.1/"
   xmlns:cc="http://creativecommons.org/ns#"
   xmlns:rdf="http://www.w3.org/1999/02/22-rdf-syntax-ns#"
   xmlns:svg="http://www.w3.org/2000/svg"
   xmlns="http://www.w3.org/2000/svg"
   xmlns:inkscape="http://www.inkscape.org/namespaces/inkscape"
   version="1.1"
   width="128"
   height="128"
   id="svg2">
  <metadata
     id="metadata10">
    <rdf:RDF>
      <cc:Work
         rdf:about="">
        <dc:format>image/svg+xml</dc:format>
        <dc:type
           rdf:resource="http://purl.org/dc/dcmitype/StillImage" />
      </cc:Work>
    </rdf:RDF>
  </metadata>
  <defs
     id="defs8" />
  <path
     d="m 103.969,51.364 -0.028,-0.149 -0.06,-0.288 -0.054,-0.166 -0.088,-0.25 -0.077,-0.168 -0.117,-0.227 -0.098,-0.16 -0.145,-0.208 -0.118,-0.149 -0.172,-0.185 -0.137,-0.135 -0.194,-0.164 -0.156,-0.118 -0.057,-0.042 -36.561,-24.377 c -1.155,-0.77 -2.659,-0.77 -3.814,0 l -36.562,24.374 -0.057,0.042 -0.155,0.118 -0.195,0.164 -0.138,0.135 -0.17,0.185 -0.119,0.149 -0.144,0.208 -0.099,0.16 -0.117,0.227 -0.077,0.168 -0.088,0.25 -0.054,0.166 -0.06,0.288 -0.027,0.149 C 24.011,51.511 24,51.661 24,51.812 v 24.375 c 0,0.151 0.011,0.301 0.031,0.45 l 0.027,0.147 0.06,0.288 0.054,0.166 0.088,0.252 0.077,0.166 0.117,0.229 0.099,0.158 0.144,0.208 0.119,0.149 0.17,0.185 0.138,0.134 0.195,0.164 0.155,0.118 0.057,0.042 36.562,24.375 C 62.67,103.806 63.336,104 64,104 c 0.664,0 1.329,-0.194 1.906,-0.579 l 36.562,-24.375 0.057,-0.042 0.156,-0.118 0.194,-0.164 0.137,-0.134 0.172,-0.185 0.118,-0.149 0.145,-0.208 0.098,-0.158 0.117,-0.229 0.077,-0.166 0.088,-0.252 0.054,-0.166 0.06,-0.288 0.028,-0.147 C 103.988,76.491 104,76.341 104,76.19 V 51.812 c 0,-0.151 -0.012,-0.301 -0.031,-0.448 z M 67.438,33.861 94.372,51.816 82.341,59.864 67.437,49.894 V 33.861 z m -6.876,0 V 49.895 L 45.659,59.865 33.627,51.817 60.562,33.861 z M 30.875,58.247 39.476,64 30.875,69.753 V 58.247 z M 60.562,94.138 33.628,76.183 45.66,68.137 60.563,78.105 V 94.138 z M 64,72.132 51.841,63.999 64,55.867 76.158,64 64,72.132 z m 3.438,22.006 V 78.104 l 14.904,-9.968 12.031,8.046 -26.935,17.956 z m 29.686,-24.386 -8.6,-5.753 8.6,-5.753 v 11.506 z"
     inkscape:connector-curvature="0"
     id="path4" />
</svg>
