<?xml version="1.0" encoding="UTF-8" standalone="no"?>
<!-- Created with Inkscape (http://www.inkscape.org/) -->

<svg
   xmlns:dc="http://purl.org/dc/elements/1.1/"
   xmlns:cc="http://creativecommons.org/ns#"
   xmlns:rdf="http://www.w3.org/1999/02/22-rdf-syntax-ns#"
   xmlns:svg="http://www.w3.org/2000/svg"
   xmlns="http://www.w3.org/2000/svg"
   xmlns:inkscape="http://www.inkscape.org/namespaces/inkscape"
   version="1.1"
   width="128"
   height="128"
   id="svg2">
  <metadata
     id="metadata10">
    <rdf:RDF>
      <cc:Work
         rdf:about="">
        <dc:format>image/svg+xml</dc:format>
        <dc:type
           rdf:resource="http://purl.org/dc/dcmitype/StillImage" />
      </cc:Work>
    </rdf:RDF>
  </metadata>
  <defs
     id="defs8" />
  <path
     d="m 31.985,67.43 c -0.872,2.117 -3.3,3.124 -5.438,2.243 -2.096,-0.868 -3.106,-3.288 -2.233,-5.402 0.877,-2.124 3.309,-3.158 5.405,-2.292 2.138,0.881 3.138,3.327 2.266,5.451 m 2.882,-10.79 c 0.87,-2.112 -0.133,-4.558 -2.271,-5.443 -2.1,-0.865 -4.535,0.166 -5.405,2.276 -0.875,2.122 0.133,4.554 2.233,5.419 2.141,0.881 4.569,-0.133 5.443,-2.252 m 4.054,-3.646 c 2.133,0.882 4.561,-0.128 5.436,-2.25 0.87,-2.114 -0.13,-4.563 -2.264,-5.445 -2.103,-0.863 -4.537,0.168 -5.409,2.283 -0.875,2.124 0.137,4.547 2.237,5.412 m 10.506,3.541 c 2.138,0.884 4.566,-0.126 5.438,-2.242 0.872,-2.112 -0.128,-4.568 -2.269,-5.447 -2.095,-0.863 -4.532,0.171 -5.405,2.287 -0.869,2.112 0.138,4.542 2.236,5.402 M 96.012,67.43 c 0.91,2.114 3.328,3.113 5.443,2.216 2.103,-0.872 3.103,-3.3 2.228,-5.405 -0.884,-2.131 -3.319,-3.134 -5.424,-2.264 -2.119,0.871 -3.133,3.32 -2.247,5.453 m 2.527,-8.543 c 2.124,-0.868 3.124,-3.297 2.24,-5.431 -0.898,-2.117 -3.321,-3.132 -5.433,-2.243 -2.122,0.872 -3.105,3.307 -2.235,5.433 0.882,2.129 3.319,3.132 5.428,2.241 m -9.508,-5.858 c 2.103,-0.872 3.108,-3.309 2.24,-5.433 -0.886,-2.129 -3.323,-3.131 -5.443,-2.264 -2.11,0.894 -3.113,3.326 -2.228,5.454 0.873,2.106 3.31,3.111 5.431,2.243 m -11.362,2.866 c 2.103,-0.872 3.105,-3.304 2.228,-5.409 -0.884,-2.126 -3.321,-3.132 -5.44,-2.266 -2.105,0.901 -3.108,3.333 -2.226,5.464 0.873,2.097 3.31,3.1 5.438,2.211 m -22.32,-15.384 0.313,7.982 5.822,-3.072 c 0.123,0.128 0.266,0.258 0.396,0.36 -0.59,2.387 -2.06,6.367 -2.968,8.565 -1.117,2.705 0.164,5.805 2.866,6.919 2.702,1.112 5.81,-0.178 6.927,-2.882 0.777,-1.887 0.393,-3.933 -0.825,-5.393 -1.304,-2.254 -2.605,-5.097 -3.321,-7.285 0.185,-0.14 0.353,-0.318 0.484,-0.514 l 6.279,3.257 0.266,-7.958 -6.564,2.126 -0.19,-0.256 2.581,-7.27 -7.782,-0.218 2.307,7.133 c -0.194,0.123 -0.356,0.27 -0.498,0.432 l -6.093,-1.926 z m 39.573,30.297 c 0.529,2.939 0.616,4.274 -0.047,6.18 -0.953,-0.955 -1.811,-2.676 -2.494,-5.293 l -2.897,9.276 c 1.721,-1.15 3.034,-1.882 4.533,-1.904 -2.712,5.699 -6.054,7.142 -8.188,6.728 -2.612,-0.514 -3.824,-2.875 -3.366,-4.867 0.583,-2.804 3.501,-3.492 4.817,-0.225 2.643,-5.213 -1.726,-6.912 -4.556,-5.41 4.376,-4.253 4.888,-8.064 1.427,-12.751 -4.869,3.679 -4.959,7.349 -2.83,12.542 -2.797,-3.274 -7.249,-1.543 -5.704,3.708 2.091,-3.162 4.769,-1.154 4.324,1.88 -0.365,2.622 -3.869,4.705 -8.188,4.267 -6.199,-0.586 -6.526,-4.862 -6.637,-8.392 1.512,-0.284 4.253,1.164 6.566,4.471 l 0.953,-9.861 c -2.572,2.6 -4.893,3.112 -7.453,3.158 0.877,-2.627 4.829,-6.984 4.829,-6.984 L 57.675,67.272 c 0,0 3.923,4.367 4.779,7.026 -2.567,-0.078 -4.874,-0.583 -7.417,-3.231 l 0.861,9.868 c 2.337,-3.283 5.077,-4.696 6.599,-4.412 -0.154,3.534 -0.524,7.806 -6.713,8.368 -4.321,0.375 -7.787,-1.747 -8.147,-4.371 -0.427,-3.018 2.287,-5.016 4.338,-1.84 1.598,-5.255 -2.826,-7.005 -5.668,-3.75 2.19,-5.187 2.133,-8.868 -2.735,-12.592 -3.497,4.641 -2.999,8.482 1.33,12.798 -2.819,-1.557 -7.199,0.088 -4.618,5.35 1.351,-3.274 4.243,-2.541 4.845,0.275 0.408,1.986 -0.801,4.329 -3.428,4.812 -2.152,0.396 -5.471,-1.076 -8.133,-6.803 1.5,0.035 2.809,0.792 4.509,1.96 l -2.792,-9.297 c -0.704,2.608 -1.602,4.319 -2.553,5.248 -0.645,-1.88 -0.55,-3.245 0.024,-6.17 l -5.912,2.072 c 3.063,4.179 6.173,10.027 8.61,20.275 7.571,-1.263 20.481,-2.017 28.299,-1.991 7.808,0.04 20.713,0.917 28.249,2.261 2.553,-10.238 5.713,-16.041 8.811,-20.19 l -5.891,-2.13 z"
     inkscape:connector-curvature="0"
     id="path4" />
</svg>
