<?xml version="1.0" encoding="UTF-8" standalone="no"?>
<!-- Created with Inkscape (http://www.inkscape.org/) -->

<svg
   xmlns:dc="http://purl.org/dc/elements/1.1/"
   xmlns:cc="http://creativecommons.org/ns#"
   xmlns:rdf="http://www.w3.org/1999/02/22-rdf-syntax-ns#"
   xmlns:svg="http://www.w3.org/2000/svg"
   xmlns="http://www.w3.org/2000/svg"
   xmlns:inkscape="http://www.inkscape.org/namespaces/inkscape"
   version="1.1"
   width="128"
   height="128"
   id="svg2">
  <metadata
     id="metadata10">
    <rdf:RDF>
      <cc:Work
         rdf:about="">
        <dc:format>image/svg+xml</dc:format>
        <dc:type
           rdf:resource="http://purl.org/dc/dcmitype/StillImage" />
      </cc:Work>
    </rdf:RDF>
  </metadata>
  <defs
     id="defs8" />
  <path
     d="M 103.23,48.085 65.317,86.014 c -0.5,0.496 -1.17,0.774 -1.875,0.772 l -0.003,-0.002 -0.019,10e-4 -0.3,-0.018 C 62.535,86.703 61.986,86.44 61.563,86.016 L 40.427,64.836 C 39.398,63.81 39.402,62.149 40.43,61.124 l 6.244,-6.237 c 0.491,-0.488 1.168,-0.765 1.858,-0.767 0.695,-0.002 1.368,0.28 1.856,0.771 L 63.446,67.973 93.28,38.128 c 0.499,-0.495 1.158,-0.77 1.861,-0.768 0.704,-0.003 1.357,0.272 1.858,0.77 l 6.234,6.243 c 1.024,1.028 1.023,2.688 -0.003,3.712 z m -2.342,9.136 -32.113,32.126 c -1.387,1.373 -3.222,2.129 -5.175,2.129 l -1.425,-0.002 -0.3,-0.201 C 60.567,90.962 59.357,90.287 58.4,89.327 L 37.273,68.156 c -1.385,-1.381 -2.148,-3.219 -2.147,-5.174 0,-1.957 0.764,-3.796 2.148,-5.176 l 6.251,-6.246 c 1.358,-1.35 3.236,-2.127 5.171,-2.131 1.928,0 3.814,0.786 5.169,2.148 L 63.606,61.336 84.301,40.633 70.519,26.851 c -3.649,-3.648 -9.618,-3.648 -13.266,0 L 26.736,57.367 c -3.649,3.648 -3.649,9.619 0,13.266 l 30.517,30.516 c 3.649,3.648 9.618,3.648 13.266,0 l 30.515,-30.516 c 3.649,-3.648 3.649,-9.618 0,-13.266 l -0.146,-0.146 z"
     inkscape:connector-curvature="0"
     id="path4"
     style="fill:#1769b4" />
</svg>
