<?xml version="1.0" encoding="UTF-8" standalone="no"?>
<!-- Created with Inkscape (http://www.inkscape.org/) -->

<svg
   xmlns:dc="http://purl.org/dc/elements/1.1/"
   xmlns:cc="http://creativecommons.org/ns#"
   xmlns:rdf="http://www.w3.org/1999/02/22-rdf-syntax-ns#"
   xmlns:svg="http://www.w3.org/2000/svg"
   xmlns="http://www.w3.org/2000/svg"
   xmlns:inkscape="http://www.inkscape.org/namespaces/inkscape"
   version="1.1"
   width="128"
   height="128"
   id="svg2">
  <metadata
     id="metadata10">
    <rdf:RDF>
      <cc:Work
         rdf:about="">
        <dc:format>image/svg+xml</dc:format>
        <dc:type
           rdf:resource="http://purl.org/dc/dcmitype/StillImage" />
      </cc:Work>
    </rdf:RDF>
  </metadata>
  <defs
     id="defs8" />
  <path
     d="M 102.423,52.887 C 97.607,36.206 82.235,24.003 64.001,24.003 45.767,24.003 30.394,36.206 25.577,52.887 24.557,56.419 24,60.142 24,64 c 0,2.476 0.237,4.899 0.67,7.252 3.413,18.63 19.718,32.745 39.332,32.745 19.614,0 35.915,-14.116 39.333,-32.745 C 103.766,68.899 104,66.476 104,64 c 0,-3.858 -0.56,-7.581 -1.577,-11.113 z M 88.979,72.548 c -3.221,-1.358 -5.906,-4.12 -7.908,-6.916 -2.297,-3.212 -4.65,-6.368 -7.224,-9.361 -2.42,-2.811 -4.994,-5.506 -7.792,-7.94 -2.787,-2.431 -5.823,-4.744 -9.167,-6.35 -2.243,-1.081 -4.551,-1.894 -6.944,-2.579 -0.268,-0.075 -0.999,-0.406 -1.215,-0.074 -0.134,0.206 -0.031,0.591 -0.003,0.819 l 0.177,1.484 c 0.716,5.931 0.985,12.191 -0.855,17.949 -0.989,3.104 -2.788,5.94 -5.193,8.139 -1.991,1.82 -4.833,3.664 -7.656,3.532 -0.522,-0.021 -1.044,-0.111 -1.56,-0.283 -3.025,-1.019 -3.201,-4.283 -3.218,-6.969 -0.022,-2.885 0.326,-5.768 1.041,-8.564 0.219,-0.862 0.487,-1.706 0.774,-2.55 3.303,-9.578 10.948,-17.379 20.55,-20.78 3.597,-1.275 7.4,-1.918 11.215,-1.918 11.225,0 21.905,5.772 28.076,15.149 1.546,2.351 2.784,4.896 3.695,7.55 H 95.76 c 0.289,0.844 0.56,1.687 0.782,2.55 0.708,2.796 1.059,5.678 1.041,8.564 -0.043,5.432 -1.786,11.424 -8.604,8.548 z"
     inkscape:connector-curvature="0"
     id="path4" />
</svg>
