<?xml version="1.0" encoding="UTF-8" standalone="no"?>
<!-- Created with Inkscape (http://www.inkscape.org/) -->

<svg
   xmlns:dc="http://purl.org/dc/elements/1.1/"
   xmlns:cc="http://creativecommons.org/ns#"
   xmlns:rdf="http://www.w3.org/1999/02/22-rdf-syntax-ns#"
   xmlns:svg="http://www.w3.org/2000/svg"
   xmlns="http://www.w3.org/2000/svg"
   xmlns:inkscape="http://www.inkscape.org/namespaces/inkscape"
   version="1.1"
   width="128"
   height="128"
   id="svg2">
  <metadata
     id="metadata10">
    <rdf:RDF>
      <cc:Work
         rdf:about="">
        <dc:format>image/svg+xml</dc:format>
        <dc:type
           rdf:resource="http://purl.org/dc/dcmitype/StillImage" />
      </cc:Work>
    </rdf:RDF>
  </metadata>
  <defs
     id="defs8" />
  <path
     d="m 47.517,42.348 c 0.502,-0.491 1.053,-0.887 1.646,-1.172 0.034,0.241 0.052,0.522 0.052,0.843 0,1.301 -0.289,1.952 -0.867,1.952 -0.509,0 -0.785,-0.546 -0.831,-1.623 z M 41.674,52.36 c -0.119,0.085 -0.265,0.159 -0.443,0.219 -1.432,0.476 -2.863,3.34 -2.387,1.717 0.341,-1.158 1.797,-2.508 2.604,-3.187 -0.079,-0.558 -0.137,-1.156 -0.167,-1.779 -2.925,0.878 -5.086,3.884 -5.086,7.448 0,4.196 2.995,7.618 6.705,7.704 0.083,-0.765 0.204,-1.376 0.34,-1.946 -1.209,-0.272 -2.755,-0.628 -3.729,-2.131 -1.049,-1.622 0.764,0.191 1.718,0.573 0.954,0.381 0.096,-0.573 -0.094,-1.527 -0.18,-0.899 0.824,0.993 2.535,1.378 0.12,-0.511 0.234,-1.074 0.328,-1.761 0,0 -1.145,-2.575 -2.1,-5.82 -0.079,-0.272 -0.155,-0.571 -0.224,-0.888 z m 8.061,10.268 c 0,0.315 0.017,0.59 0.05,0.829 0.448,0.303 0.913,0.549 1.388,0.731 0.178,-0.321 0.27,-0.835 0.27,-1.557 0,-1.301 -0.285,-1.952 -0.854,-1.952 -0.57,0 -0.854,0.65 -0.854,1.949 z m 23.975,0.004 c 0,-1.301 -0.285,-1.952 -0.853,-1.952 -0.57,0 -0.855,0.65 -0.855,1.949 l 0.019,0.511 c 0.447,0.41 0.931,0.746 1.449,0.996 0.159,-0.325 0.24,-0.823 0.24,-1.504 z m 3.624,13.359 0.01,0.543 c -0.002,3.133 -1.017,7.229 -3.201,10.7 -0.36,0.361 -0.608,0.688 -0.659,0.941 l -0.007,0.046 c -1.034,1.429 -2.284,2.715 -3.764,3.733 -2.113,1.452 -2.016,3.507 -5.099,3.507 l -3.018,0.054 c -2.749,0 -5.4,-0.387 -6.215,-3.245 -3.76,-3.387 -6.084,-9.912 -6.085,-15.115 0,-0.441 0.016,-0.872 0.05,-1.292 0.466,-5.784 4.761,-8.354 7.02,-9.313 0.508,-0.216 0.722,-0.479 0.723,-0.784 0.001,-0.189 -0.081,-0.401 -0.226,-0.624 -0.233,-0.359 -0.42,-0.824 -0.419,-1.357 0.002,-0.696 0.327,-1.545 1.296,-2.466 0.742,-0.707 1.534,-1.169 2.29,-1.169 l 10e-4,-0.169 h 0.023 c 1.956,0 3.668,1.933 3.668,1.933 0,0 2.235,-1.389 4.153,-1.389 0.751,0 1.452,0.274 1.954,0.918 0.651,0.836 0.877,1.66 0.878,2.373 0,1.239 -0.682,2.217 -1.005,2.621 l -0.024,0.071 c -10e-4,0.719 7.41,3.074 7.656,9.483 z M 61.049,73.955 c 0,0 0.19,3.054 -0.319,3.882 -0.509,0.826 -1.725,1.633 -2.227,1.781 -0.501,0.147 1.72,0.318 2.291,0.128 0.573,-0.192 0.444,-1.274 0.699,-1.973 0.255,-0.699 0.701,-3.563 0.955,-3.817 0.254,-0.255 -0.382,-0.255 -0.637,0.128 -0.254,0.381 -0.827,-0.765 -0.762,-0.129 z m -2.64,-8.875 c 0.667,0.286 1.526,-0.38 1.622,0.191 0.096,0.573 0.382,1.05 0.382,1.05 0,0 0.954,-0.669 0.476,-1.527 -0.476,-0.859 -1.146,-1.527 -1.908,-1.24 -0.764,0.286 -1.241,1.24 -0.572,1.526 z m 5.517,21.017 c 0,0 -1.296,-4.092 -5.24,-3.455 -3.944,0.635 -2.418,5.089 -2.418,5.089 3.244,-2.99 7.658,-1.634 7.658,-1.634 z m 0.275,3.756 c -0.015,-0.224 -0.604,0.39 -1.203,0.28 -0.844,-0.155 -2.788,-0.633 -3.774,1.753 0,0 3.007,-0.555 3.646,-0.256 0.833,0.39 1.365,-1.271 1.331,-1.777 z M 65.47,67.179 c -0.955,-0.476 -1.528,-1.908 -1.528,-1.908 -0.286,-0.859 -0.572,1.146 -1.622,1.432 -1.05,0.286 -0.287,0.668 0.191,0.954 0.477,0.286 0.096,4.104 0.763,2.29 0.668,-1.814 0.572,-1.623 0.954,-2.1 0.383,-0.476 2.197,-0.19 1.242,-0.668 z m 3.348,-3.625 c -0.764,-0.286 -1.432,0.381 -1.909,1.24 -0.476,0.858 0.477,1.527 0.477,1.527 0,0 0.286,-0.477 0.381,-1.05 0.096,-0.572 0.955,0.095 1.623,-0.191 0.667,-0.286 0.191,-1.24 -0.572,-1.526 z M 75.07,43.971 c 0.578,0 0.867,-0.651 0.867,-1.952 0,-0.418 -0.033,-0.761 -0.092,-1.045 -0.552,0.189 -1.09,0.464 -1.61,0.815 l -0.006,0.227 c 0,1.303 0.28,1.955 0.841,1.955 z m -30.36,4.08 c -0.16,0.805 -0.263,1.651 -0.298,2.528 0.233,-0.301 0.351,-0.863 0.351,-1.69 -10e-4,-0.319 -0.019,-0.597 -0.053,-0.838 z m 12.545,9.661 c 0.578,0 0.867,-0.65 0.867,-1.952 0,-1.301 -0.284,-1.951 -0.853,-1.951 -0.57,0 -0.854,0.649 -0.854,1.948 0,1.303 0.28,1.955 0.84,1.955 z m -8.05,3.063 c -0.339,0.46 -0.411,1.062 -0.418,1.805 C 48.096,61.929 46.99,61.138 46.99,60.233 V 60.07 l -0.175,0.022 c -0.498,-0.828 -0.966,-1.744 -1.32,-2.732 0.237,-0.431 0.33,-0.968 0.33,-1.612 0,-0.76 -0.188,-1.375 -0.537,-1.845 -0.214,-0.288 -0.475,-0.487 -0.77,-0.599 -0.072,-0.652 -0.113,-1.296 -0.116,-1.926 0.345,-0.101 0.636,-0.309 0.874,-0.629 0.349,-0.468 0.522,-1.093 0.522,-1.873 0,-0.761 -0.175,-1.375 -0.523,-1.845 -0.077,-0.104 -0.16,-0.195 -0.249,-0.275 0.393,-1.323 0.957,-2.494 1.66,-3.449 0.079,0.205 0.179,0.392 0.302,0.56 0.346,0.475 0.796,0.712 1.35,0.712 0.578,0 1.041,-0.234 1.389,-0.702 0.349,-0.468 0.523,-1.092 0.523,-1.873 0,-0.439 -0.06,-0.827 -0.176,-1.169 0.225,-0.061 0.455,-0.109 0.69,-0.139 0.211,-0.026 0.665,-0.04 0.878,-0.04 l 1.346,0.121 v 0.309 c 2,0.521 2.956,1.894 3.966,2.894 h 0.416 c 1.313,2 2.269,4.649 2.618,7.419 0.346,2.754 0.071,5.555 -0.772,7.807 -0.829,0.157 -1.455,0.619 -2.129,1.261 -0.548,0.521 -1.096,1.12 -1.096,1.671 v -2.07 l -2,0.488 v 0.587 l 1,-0.244 v 3.398 c 0,0.09 -0.804,-0.316 -1.09,-0.316 h -0.138 l -0.639,0.311 c -0.38,0 -0.758,0.109 -1.132,0.026 0.323,-0.462 0.487,-1.009 0.487,-1.76 0,-0.76 -0.174,-1.346 -0.522,-1.815 -0.349,-0.469 -0.804,-0.689 -1.367,-0.689 -0.569,10e-4 -1.037,0.251 -1.385,0.721 z m 6.785,-9.793 h 2 v -4.654 l -2,0.488 v 0.587 l 1,-0.244 v 3.823 h -1 z m -0.614,4.779 c 0,0.758 0.173,1.375 0.519,1.85 0.346,0.474 0.796,0.712 1.35,0.712 0.578,0 1.041,-0.234 1.39,-0.702 0.348,-0.468 0.522,-1.093 0.522,-1.873 0,-0.76 -0.174,-1.375 -0.522,-1.845 -0.348,-0.469 -0.804,-0.704 -1.367,-0.704 -0.567,0 -1.024,0.235 -1.372,0.706 -0.346,0.47 -0.52,1.088 -0.52,1.856 z m -4.453,-6.872 c 0,0.759 0.173,1.375 0.52,1.85 0.345,0.475 0.795,0.712 1.35,0.712 0.578,0 1.041,-0.234 1.389,-0.702 0.349,-0.468 0.522,-1.093 0.522,-1.873 0,-0.761 -0.174,-1.375 -0.522,-1.845 -0.348,-0.469 -0.804,-0.704 -1.367,-0.704 -0.567,0 -1.024,0.235 -1.371,0.705 -0.348,0.472 -0.521,1.091 -0.521,1.857 z m 0,6.872 c 0,0.758 0.173,1.375 0.52,1.85 0.345,0.474 0.795,0.712 1.35,0.712 0.578,0 1.041,-0.234 1.389,-0.702 0.349,-0.468 0.522,-1.093 0.522,-1.873 0,-0.76 -0.174,-1.375 -0.522,-1.845 -0.348,-0.469 -0.804,-0.704 -1.367,-0.704 -0.567,0 -1.024,0.235 -1.371,0.706 -0.348,0.47 -0.521,1.088 -0.521,1.856 z M 46.99,50.982 h 2 v -4.654 l -2,0.488 v 0.587 l 1,-0.244 v 3.823 h -1 z m 3,7 h -1 v -4.784 l -2,0.488 v 0.586 l 1,-0.244 v 3.953 h 2 z m 2.812,-7.141 c 0.578,0 0.867,-0.65 0.867,-1.952 0,-1.301 -0.284,-1.951 -0.854,-1.951 -0.569,0 -0.853,0.649 -0.853,1.948 0,1.304 0.279,1.955 0.84,1.955 z m 0,6.871 c 0.578,0 0.867,-0.65 0.867,-1.952 0,-1.301 -0.284,-1.951 -0.854,-1.951 -0.569,0 -0.853,0.649 -0.853,1.948 0,1.303 0.279,1.955 0.84,1.955 z m 26.735,-3.903 c -0.569,0 -0.854,0.649 -0.854,1.948 0,1.303 0.28,1.955 0.841,1.955 0.578,0 0.867,-0.65 0.867,-1.952 0,-1.301 -0.285,-1.951 -0.854,-1.951 z m 3.453,-2.827 h 1.594 c -0.003,1 0.098,1.443 0.026,2.092 l -1.62,0.613 v 0.586 l 1,-0.244 v 2.853 c 0,0.253 -0.474,0.1 -0.567,1.1 h -0.23 c -0.289,1 -0.366,1.437 -0.728,2.035 l -1.475,0.54 v 0.683 c 0,1.343 -2,2.359 -3,2.922 V 60.07 l -2,0.488 v 0.587 l 1,-0.244 v 3.597 l 0.006,-0.515 H 75.99 v 0.667 l -0.279,0.011 c -0.232,0 -0.434,-0.016 -0.663,-0.047 -0.267,-0.036 -0.532,-0.093 -0.786,-0.169 0.326,-0.463 0.488,-1.07 0.488,-1.825 0,-0.76 -0.175,-1.376 -0.524,-1.845 -0.348,-0.469 -0.804,-0.704 -1.366,-0.704 -0.568,0 -1.024,0.235 -1.371,0.705 -0.139,0.188 -0.247,0.401 -0.331,0.637 C 71.032,61.2 70.9,60.99 70.74,60.785 c -0.242,-0.311 -0.52,-0.567 -0.839,-0.769 -0.994,-2.31 -1.379,-5.272 -0.95,-8.408 0.215,-1.571 0.431,-3.054 0.991,-4.393 l 0.05,-0.055 v 3.823 h 1 v -4.654 l -0.745,-0.013 c 0.357,-0.756 0.92,-1.333 1.365,-2.333 h 0.42 c 0.377,-1 0.779,-0.963 1.198,-1.347 0.067,0.503 0.227,0.935 0.482,1.285 0.346,0.475 0.796,0.686 1.35,0.686 0.578,0 1.04,-0.247 1.388,-0.715 0.349,-0.468 0.521,-1.099 0.521,-1.879 0,-0.48 -0.075,-0.904 -0.213,-1.268 0.279,-0.046 0.55,-0.074 0.832,-0.074 0.232,0 0.361,0.015 0.591,0.047 0.321,0.044 0.811,0.12 0.811,0.22 v 3.045 h 1 v -2.607 c 1,0.454 1.603,1.111 2.207,1.93 0.079,0.205 0.204,0.393 0.328,0.563 0.079,0.107 0.19,0.201 0.278,0.284 0.412,0.708 0.941,1.505 1.212,2.368 l -1.025,0.295 v 0.587 l 1,-0.244 v 3.823 H 82.99 z m -11,7 h -1 v -4.784 l -2,0.488 v 0.586 l 1,-0.244 v 3.953 h 2 v 10e-4 z m 5,0 h -1 v -4.784 l -2,0.488 v 0.586 l 1,-0.244 v 3.953 h 2 v 10e-4 z m -0.017,-9.105 c 0,-0.761 -0.174,-1.375 -0.523,-1.845 -0.348,-0.469 -0.804,-0.704 -1.367,-0.704 -0.567,0 -1.024,0.235 -1.372,0.705 -0.347,0.47 -0.521,1.089 -0.521,1.856 0,0.759 0.174,1.375 0.52,1.85 0.346,0.475 0.796,0.712 1.35,0.712 0.578,0 1.041,-0.234 1.389,-0.702 0.349,-0.468 0.524,-1.092 0.524,-1.872 z m 4.453,6.871 c 0,-0.76 -0.174,-1.375 -0.523,-1.845 -0.348,-0.469 -0.804,-0.704 -1.367,-0.704 -0.567,0 -1.024,0.235 -1.372,0.706 -0.347,0.47 -0.521,1.089 -0.521,1.856 0,0.758 0.174,1.375 0.52,1.85 0.346,0.474 0.796,0.712 1.35,0.712 0.578,0 1.041,-0.234 1.389,-0.702 0.35,-0.469 0.524,-1.093 0.524,-1.873 z m 0,-6.871 c 0,-0.761 -0.174,-1.375 -0.523,-1.845 -0.348,-0.469 -0.804,-0.704 -1.367,-0.704 -0.567,0 -1.024,0.235 -1.372,0.705 -0.347,0.47 -0.521,1.089 -0.521,1.856 0,0.759 0.174,1.375 0.52,1.85 0.346,0.475 0.796,0.712 1.35,0.712 0.578,0 1.041,-0.234 1.389,-0.702 0.35,-0.468 0.524,-1.092 0.524,-1.872 z m -1.889,-1.939 c -0.569,0 -0.854,0.649 -0.854,1.948 0,1.303 0.28,1.955 0.841,1.955 0.578,0 0.867,-0.65 0.867,-1.952 0,-1.3 -0.285,-1.951 -0.854,-1.951 z m 7.828,2.421 c -0.04,0.589 -0.104,1.191 -0.187,1.81 0.819,0.697 2.202,2.003 2.532,3.127 0.477,1.623 -0.954,-1.241 -2.386,-1.717 -0.13,-0.044 -0.237,-0.097 -0.335,-0.155 -0.128,0.781 -0.275,1.593 -0.43,2.445 -0.238,1.31 -1.717,5.44 -1.717,5.44 0,0 0.09,0.161 0.221,0.473 1.602,-0.468 2.531,-2.198 2.357,-1.331 -0.19,0.954 -1.049,1.908 -0.095,1.527 0.953,-0.382 2.767,-2.195 1.718,-0.573 -0.895,1.382 -2.274,1.795 -3.43,2.064 0.141,0.561 0.271,1.229 0.363,1.998 3.56,-0.27 6.384,-3.614 6.384,-7.688 -0.001,-3.528 -2.117,-6.507 -4.995,-7.42 z M 63.18,43.418 c 0.23,0.548 0.549,0.98 0.912,1.283 0.838,0.7 1.915,0.699 2.714,-0.233 1.145,-1.337 2.481,-3.244 4.199,-4.39 1.329,-0.886 0.773,-0.744 -0.254,-0.192 -0.3,0.161 -0.64,0.357 -0.985,0.573 -1.528,0.955 -3.532,2.959 -3.532,2.959 0,0 0.668,-2.481 0.954,-3.818 0.286,-1.336 -0.096,-1.145 -0.763,0.096 -0.669,1.241 -1.432,3.818 -1.432,3.818 0,0 -0.953,-3.15 -1.336,-3.628 -0.382,-0.477 1.044,3.972 0.763,3.532 -1.833,-2.881 -5.63,-5.44 -4.677,-4.105 0,10e-4 2.673,2.292 3.437,4.105 z M 104,64 c 0,22.092 -17.909,40 -39.999,40 -22.092,0 -40,-17.908 -40,-40 0,-22.091 17.908,-40 40,-40 C 86.091,24 104,41.909 104,64 z m -10.833,-6.649 -0.006,-0.287 0.006,-0.286 c 0,-3.969 -2.455,-7.312 -5.764,-8.252 0.055,-2.38 -0.378,-4.596 -1.798,-7.014 -2.701,-4.601 -7.08,-5.185 -10.938,-3.815 l -0.004,-0.004 c -1.908,-1.401 -3.754,-2.004 -6.618,-3.18 0.254,-1.273 -3.054,-2.546 -2.291,-1.655 0.762,0.893 0.891,2.036 -2.418,2.672 -2.15,0.414 -4.729,1.364 -6.272,1.978 -4.199,-2.085 -9.932,-1.181 -12.685,1.71 -2.401,2.521 -3.14,6.136 -3.121,9.279 -3.363,0.898 -5.87,4.268 -5.87,8.28 l 0.006,0.286 -0.006,0.287 c 0,4.502 3.158,8.197 7.139,8.494 -0.375,0.718 -0.881,1.476 -1.415,1.673 -1.082,0.397 0.426,0.701 1.229,0.187 0.805,-0.514 -0.805,3.097 -1.856,4.359 -1.051,1.26 1.723,-0.406 2.343,-1.03 0.05,-0.05 0.094,-0.138 0.133,-0.252 0.068,0.889 0.159,1.877 0.275,2.982 0.259,2.469 0.837,4.681 1.67,6.646 0.236,0.827 0.463,1.568 0.619,1.941 0.477,1.145 0.572,2.005 0.19,2.386 -0.289,0.29 0.628,-0.135 1.214,-0.69 1.134,1.601 2.482,2.966 3.991,4.102 0.241,0.466 0.491,0.925 0.758,1.36 0.813,1.328 1.721,2.468 2.701,3.395 0.507,1.476 1.498,2.524 2.948,3.119 1.376,0.563 3.003,0.636 4.267,0.636 0.534,0 1.069,-0.014 1.586,-0.028 0.501,-0.013 0.974,-0.025 1.432,-0.025 2.532,0 3.486,-1.206 4.327,-2.27 0.414,-0.522 0.805,-1.016 1.42,-1.439 1.263,-0.869 2.417,-1.954 3.44,-3.221 0.459,0.997 1.21,1.889 1.125,1.564 -0.13,-0.497 -0.13,-1.266 0.285,-2.273 0.222,-0.54 1.161,-1.931 1.983,-3.105 2.486,-2.406 4.749,-5.336 6.355,-8.568 0.589,0.932 2.011,2.744 1.419,1.382 -0.42,-0.969 -0.472,-2.938 -0.289,-4.026 l 0.246,-0.713 c 0.075,-0.075 0.159,-0.073 0.252,0.034 0.627,0.72 2.16,0.852 1.233,0.165 -0.497,-0.368 -0.775,-1.361 -0.927,-2.204 0.544,-2.372 0.676,-4.414 0.602,-6.095 3.956,-0.325 7.084,-4.005 7.084,-8.485 z M 75.083,46.938 c -0.569,0 -0.854,0.649 -0.854,1.948 0,1.303 0.28,1.955 0.841,1.955 0.578,0 0.867,-0.65 0.867,-1.952 0,-1.3 -0.285,-1.951 -0.854,-1.951 z"
     inkscape:connector-curvature="0"
     id="path4"
     style="fill:#ffffff" />
</svg>
