<?xml version="1.0" encoding="UTF-8" standalone="no"?>
<!-- Created with Inkscape (http://www.inkscape.org/) -->

<svg
   xmlns:dc="http://purl.org/dc/elements/1.1/"
   xmlns:cc="http://creativecommons.org/ns#"
   xmlns:rdf="http://www.w3.org/1999/02/22-rdf-syntax-ns#"
   xmlns:svg="http://www.w3.org/2000/svg"
   xmlns="http://www.w3.org/2000/svg"
   xmlns:inkscape="http://www.inkscape.org/namespaces/inkscape"
   version="1.1"
   width="128"
   height="128"
   id="svg2">
  <metadata
     id="metadata10">
    <rdf:RDF>
      <cc:Work
         rdf:about="">
        <dc:format>image/svg+xml</dc:format>
        <dc:type
           rdf:resource="http://purl.org/dc/dcmitype/StillImage" />
      </cc:Work>
    </rdf:RDF>
  </metadata>
  <defs
     id="defs8" />
  <path
     d="m 79.331,61.324 c -0.731,0.394 -0.928,0.618 -0.59,0.618 l 0.731,-0.084 c 4.034,-1.138 6.718,-1.939 8.025,-2.459 0.815,-0.338 1.237,-0.253 1.223,0.239 l -0.253,0.815 c -4.16,7.814 -7.069,12.859 -8.699,15.164 -1.63,2.277 -2.768,3.837 -3.443,4.652 -0.674,0.815 -1.307,1.504 -1.925,2.066 -0.562,0.562 -0.942,0.801 -1.138,0.717 -0.155,-0.07 -0.14,-0.675 0.056,-1.771 0.197,-1.096 0.52,-4.371 0.928,-9.753 0.436,-5.383 0.534,-8.123 0.366,-8.18 -0.113,-0.028 -0.197,-0.056 -0.309,-0.028 -1.996,1.349 -3.752,1.785 -5.242,1.363 -0.492,-0.155 -0.942,-0.408 -1.391,-0.801 l -0.267,-0.239 -0.239,-0.267 c -0.393,-0.45 -0.646,-0.899 -0.801,-1.391 -0.422,-1.49 0.014,-3.246 1.363,-5.242 0.028,-0.112 0,-0.197 -0.028,-0.309 -0.057,-0.169 -2.797,-0.07 -8.18,0.365 -5.382,0.408 -8.643,0.745 -9.753,0.928 -1.096,0.197 -1.687,0.225 -1.785,0.042 -0.056,-0.169 0.183,-0.548 0.717,-1.139 0.576,-0.604 1.251,-1.251 2.08,-1.911 0.829,-0.661 2.375,-1.813 4.666,-3.429 2.291,-1.644 7.336,-4.553 15.15,-8.713 l 0.815,-0.253 c 0.492,-0.014 0.562,0.393 0.239,1.223 -0.52,1.307 -1.321,3.991 -2.459,8.025 l -0.088,0.73 c 0,0.337 0.225,0.141 0.618,-0.59 1.167,-2.74 2.431,-5.523 3.809,-8.39 2.634,-5.488 5.228,-10.051 7.808,-13.717 C 76.09,27.196 70.21,25.845 64,25.845 41.909,25.845 24,42.927 24,64 c 0,21.072 17.909,38.155 40,38.155 22.091,0 40,-17.083 40,-38.155 0,-4.984 -1.002,-9.744 -2.824,-14.109 -3.62,2.519 -8.097,5.053 -13.454,7.624 -2.868,1.378 -5.65,2.643 -8.391,3.809 z m -12.494,9.29 c 0.014,0.464 -0.028,0.984 -0.112,1.518 -0.281,1.687 -0.984,3.317 -2.122,4.933 -3.528,4.989 -10.47,8.559 -20.828,10.709 L 43.171,87.9 v -0.028 h -0.028 l 0.126,-0.604 c 2.15,-10.358 5.72,-17.3 10.709,-20.828 1.616,-1.138 3.247,-1.841 4.933,-2.122 0.534,-0.084 1.054,-0.126 1.518,-0.112 -0.225,-0.056 -0.042,-0.042 0.562,0.028 0.127,0.014 0.197,0.112 0.197,0.281 0.014,0.154 -0.562,0.646 -1.673,1.476 -1.11,0.829 -2.206,2.178 -3.303,4.006 -1.096,1.855 -1.672,3.078 -1.729,3.696 -0.042,0.604 0.492,0.408 1.644,-0.576 1.139,-0.97 2.108,-1.686 2.895,-2.164 0.773,-0.492 1.293,-0.731 1.56,-0.801 0.253,-0.056 0.351,-0.07 0.351,-0.042 0.028,0 0.014,0.098 -0.042,0.351 -0.07,0.267 -0.309,0.787 -0.801,1.56 -0.478,0.787 -1.194,1.757 -2.164,2.895 -0.984,1.153 -1.181,1.687 -0.576,1.644 0.618,-0.056 1.841,-0.632 3.696,-1.729 1.827,-1.096 3.176,-2.193 4.005,-3.303 0.829,-1.11 1.321,-1.687 1.476,-1.673 0.169,0 0.267,0.07 0.281,0.197 0.071,0.604 0.085,0.787 0.029,0.562 z M 83.762,35.348 c 1.082,-1.082 2.377,-1.82 3.749,-2.219 0.659,0.457 1.302,0.933 1.929,1.426 -1.547,0.145 -3.055,0.808 -4.239,1.992 -2.699,2.699 -2.699,7.075 0,9.774 2.699,2.699 7.075,2.699 9.774,0 1.118,-1.118 1.769,-2.523 1.961,-3.977 0.472,0.652 0.923,1.318 1.352,1.999 -0.417,1.249 -1.12,2.423 -2.114,3.418 -3.428,3.428 -8.985,3.428 -12.413,0 -3.427,-3.428 -3.426,-8.985 0.001,-12.413 z m 9.09,2.225 c 0.41,0.407 0.81,0.822 1.2,1.246 1.284,1.912 1.085,4.524 -0.605,6.213 -1.921,1.921 -5.035,1.921 -6.956,0 -1.921,-1.921 -1.921,-5.035 0,-6.956 1.733,-1.733 4.438,-1.899 6.361,-0.503 z"
     inkscape:connector-curvature="0"
     id="path4" />
</svg>
