<?xml version="1.0" encoding="UTF-8" standalone="no"?>
<!-- Created with Inkscape (http://www.inkscape.org/) -->

<svg
   xmlns:dc="http://purl.org/dc/elements/1.1/"
   xmlns:cc="http://creativecommons.org/ns#"
   xmlns:rdf="http://www.w3.org/1999/02/22-rdf-syntax-ns#"
   xmlns:svg="http://www.w3.org/2000/svg"
   xmlns="http://www.w3.org/2000/svg"
   xmlns:inkscape="http://www.inkscape.org/namespaces/inkscape"
   version="1.1"
   width="128"
   height="128"
   id="svg2">
  <metadata
     id="metadata10">
    <rdf:RDF>
      <cc:Work
         rdf:about="">
        <dc:format>image/svg+xml</dc:format>
        <dc:type
           rdf:resource="http://purl.org/dc/dcmitype/StillImage" />
      </cc:Work>
    </rdf:RDF>
  </metadata>
  <defs
     id="defs8" />
  <path
     d="M 95.818,36.727 H 70.292 c 0.055,-0.796 0.079,-1.63 0.066,-2.528 C 70.291,29.05 68.55,24 62.772,24 c -4.216,0 -4.807,3.689 -8.362,3.689 -1.9,0 -2.256,-1.838 -5.846,-1.838 -3.59,0 -3.615,3.666 -6.36,3.666 -0.907,0 -2.724,-0.884 -4.572,-0.884 -2.725,0 -5.45,1.769 -5.45,6.366 0,2.759 0.357,5.307 1.367,7.359 0.805,1.632 1.681,2.484 1.681,4.535 0,1.916 -1.23,4.417 -1.23,7.277 0,2.656 2.29,7.548 2.29,7.548 0,0 -2.29,4.89 -2.29,7.512 0,2.512 1.23,5.263 1.23,7.178 0,2.052 -0.876,3.353 -1.681,4.985 -1.012,2.052 -1.367,4.216 -1.367,6.975 0,4.597 2.755,6.536 5.482,6.536 1.388,0 2.716,-0.726 4.27,-0.401 2.852,0.595 1.816,4.994 7.267,4.994 3.634,0 3.749,-0.691 5.722,-0.28 3.688,0.772 3.715,4.783 9.081,4.783 5.455,0 6.361,-3.678 6.361,-8.276 0,-2.405 -0.311,-4.607 -1.463,-8.105 -0.168,-0.51 -0.348,-1.116 -0.507,-1.799 H 95.819 V 36.727 z M 60.364,91.272 42.182,85.818 V 37.636 L 60.364,34.909 V 91.272 z M 67.356,65.063 67.121,64.5 c 0,0 2.335,-4.195 2.335,-7.293 0,-0.356 -0.012,-0.709 -0.035,-1.059 0.58,-0.21 1.202,-0.33 1.853,-0.33 3.012,0 5.455,2.443 5.455,5.455 0,3.012 -2.443,5.455 -5.455,5.455 -1.538,-10e-4 -2.926,-0.64 -3.918,-1.665 z M 85.82,62.18 c 0,0.503 -0.408,0.909 -0.909,0.909 h -1.984 c -0.519,0 -0.965,0.367 -1.092,0.87 -0.257,1.021 -0.659,1.984 -1.183,2.865 -0.267,0.451 -0.222,1.034 0.149,1.405 l 1.398,1.399 c 0.356,0.355 0.356,0.93 0,1.285 l -1.285,1.285 c -0.356,0.355 -0.931,0.355 -1.285,0 l -1.4,-1.399 c -0.386,-0.387 -0.996,-0.385 -1.468,-0.11 -0.853,0.497 -1.775,0.881 -2.754,1.133 -0.515,0.133 -0.918,0.57 -0.918,1.105 v 1.982 c 0,0.503 -0.405,0.909 -0.909,0.909 h -1.818 c -0.503,0 -0.909,-0.406 -0.909,-0.909 v -1.461 l 0.004,-0.075 -0.004,-0.093 v -0.354 l -0.018,-0.099 c -0.071,-1.193 -0.356,-2.531 -0.707,-3.783 0.802,0.263 1.655,0.409 2.545,0.409 4.519,0 8.182,-3.663 8.182,-8.182 0,-4.519 -3.663,-8.182 -8.182,-8.182 -0.829,0 -1.629,0.125 -2.384,0.355 l -0.098,-0.315 c -0.27,-0.717 -0.477,-1.471 -0.622,-2.286 l 0.368,-0.123 c 0.517,-0.133 0.915,-0.571 0.915,-1.104 v -1.983 c 0,-0.503 0.406,-0.909 0.909,-0.909 h 1.818 c 0.504,0 0.909,0.406 0.909,0.909 v 1.982 c 0,0.518 0.367,0.964 0.871,1.092 1.02,0.257 1.983,0.659 2.865,1.183 0.451,0.266 1.033,0.222 1.404,-0.149 l 1.401,-1.401 c 0.355,-0.355 0.929,-0.355 1.285,0 l 1.285,1.285 c 0.356,0.355 0.356,0.93 0,1.285 l -1.401,1.401 c -0.387,0.387 -0.385,0.998 -0.107,1.47 0.495,0.851 0.879,1.774 1.13,2.752 0.134,0.516 0.572,0.916 1.105,0.916 h 1.984 c 0.501,0 0.909,0.408 0.909,0.909 v 1.822 z"
     inkscape:connector-curvature="0"
     id="path4"
     style="fill:#ffffff" />
</svg>
