<?xml version="1.0" encoding="UTF-8" standalone="no"?>
<!-- Created with Inkscape (http://www.inkscape.org/) -->

<svg
   xmlns:dc="http://purl.org/dc/elements/1.1/"
   xmlns:cc="http://creativecommons.org/ns#"
   xmlns:rdf="http://www.w3.org/1999/02/22-rdf-syntax-ns#"
   xmlns:svg="http://www.w3.org/2000/svg"
   xmlns="http://www.w3.org/2000/svg"
   xmlns:inkscape="http://www.inkscape.org/namespaces/inkscape"
   version="1.1"
   width="128"
   height="128"
   id="svg2">
  <metadata
     id="metadata10">
    <rdf:RDF>
      <cc:Work
         rdf:about="">
        <dc:format>image/svg+xml</dc:format>
        <dc:type
           rdf:resource="http://purl.org/dc/dcmitype/StillImage" />
      </cc:Work>
    </rdf:RDF>
  </metadata>
  <defs
     id="defs8" />
  <path
     d="m 32.661,103.266 h 39.046 c 0,0 -8.661,-19.67 -6.459,-37.725 2.202,-18.055 16.44,-26.275 24.514,-27.156 8.073,-0.881 12.477,4.11 12.477,4.11 L 104,39.853 c 0,0 -11.596,-11.743 -26.275,-10.422 -14.679,1.321 -24.808,11.009 -31.119,22.752 -6.311,11.743 -9.982,19.963 -12.477,32.294 -2.496,12.33 -1.468,18.789 -1.468,18.789 z m -7.78,-19.67 7.633,0.587 -1.321,7.633 -7.193,-0.88 0.881,-7.34 z m 12.036,-16.146 2.055,-5.725 -6.752,-2.642 -2.202,6.165 6.899,2.202 z m 9.542,-19.67 3.963,-4.697 -5.138,-3.376 -4.11,4.55 5.285,3.523 z m 10.422,-18.202 3.523,4.257 4.844,-2.789 -3.523,-3.963 -4.844,2.495 z m 17.174,-4.844 0.881,4.257 6.018,-0.147 -0.587,-3.817 -6.312,-0.293 z m 20.404,4.55 -0.147,2.642 4.11,2.202 0.881,-1.321 -4.844,-3.523 z m -0.881,11.303 v 2.202 l 3.963,0.44 v -1.761 l -3.963,-0.881 z m -12.624,1.908 1.908,3.523 2.789,-2.202 -0.587,-2.349 -4.11,1.028 z m -6.018,4.551 2.936,4.404 -1.761,3.083 -4.257,-4.697 3.082,-2.79 z m -5.872,12.183 -1.908,3.817 4.991,4.257 1.174,-4.844 -4.257,-3.23 z m -2.055,13.358 -0.294,5.138 6.165,2.642 -0.294,-4.844 -5.577,-2.936 z m 1.762,18.202 1.468,5.284 7.78,0.44 -2.789,-5.725 h -6.459 z"
     inkscape:connector-curvature="0"
     id="path4" />
</svg>
