<?xml version="1.0" encoding="UTF-8" standalone="no"?>
<!-- Created with Inkscape (http://www.inkscape.org/) -->

<svg
   xmlns:dc="http://purl.org/dc/elements/1.1/"
   xmlns:cc="http://creativecommons.org/ns#"
   xmlns:rdf="http://www.w3.org/1999/02/22-rdf-syntax-ns#"
   xmlns:svg="http://www.w3.org/2000/svg"
   xmlns="http://www.w3.org/2000/svg"
   xmlns:inkscape="http://www.inkscape.org/namespaces/inkscape"
   version="1.1"
   width="128"
   height="128"
   id="svg2">
  <metadata
     id="metadata10">
    <rdf:RDF>
      <cc:Work
         rdf:about="">
        <dc:format>image/svg+xml</dc:format>
        <dc:type
           rdf:resource="http://purl.org/dc/dcmitype/StillImage" />
      </cc:Work>
    </rdf:RDF>
  </metadata>
  <defs
     id="defs8" />
  <path
     d="m 68.234,56.334 5.465,2.546 8.148,-2.432 V 50.793 C 81.559,41.17 73.694,33.453 64,33.453 c -9.658,0 -17.503,7.662 -17.847,17.236 v 25.83 c 0,2.338 -1.895,4.234 -4.234,4.234 -2.338,0 -4.234,-1.895 -4.234,-4.234 V 65.572 H 24 v 11.093 c 0,9.877 8.006,17.883 17.883,17.883 9.79,0 17.725,-7.869 17.863,-17.625 l 0.02,-25.513 c 0,-2.338 1.895,-4.234 4.234,-4.234 2.338,0 4.234,1.896 4.234,4.234 v 4.924 z m 22.08,9.238 V 77.03 c 0,2.338 -1.895,4.234 -4.234,4.234 -2.338,0 -4.234,-1.895 -4.234,-4.234 V 65.791 l -8.148,2.432 -5.465,-2.546 v 11.147 c 0.085,9.801 8.06,17.723 17.883,17.723 9.877,0 17.883,-8.006 17.883,-17.883 V 65.571 H 90.314 z"
     inkscape:connector-curvature="0"
     id="path4"
     style="fill:#000000" />
</svg>
