<?xml version="1.0" encoding="UTF-8" standalone="no"?>
<!-- Created with Inkscape (http://www.inkscape.org/) -->

<svg
   xmlns:dc="http://purl.org/dc/elements/1.1/"
   xmlns:cc="http://creativecommons.org/ns#"
   xmlns:rdf="http://www.w3.org/1999/02/22-rdf-syntax-ns#"
   xmlns:svg="http://www.w3.org/2000/svg"
   xmlns="http://www.w3.org/2000/svg"
   xmlns:inkscape="http://www.inkscape.org/namespaces/inkscape"
   version="1.1"
   width="128"
   height="128"
   id="svg2">
  <metadata
     id="metadata10">
    <rdf:RDF>
      <cc:Work
         rdf:about="">
        <dc:format>image/svg+xml</dc:format>
        <dc:type
           rdf:resource="http://purl.org/dc/dcmitype/StillImage" />
      </cc:Work>
    </rdf:RDF>
  </metadata>
  <defs
     id="defs8" />
  <path
     d="m 68.129,30.06 c 2.873,-3.378 7.729,-5.891 11.736,-6.06 0.511,4.692 -1.37,9.391 -4.15,12.777 -2.785,3.38 -7.343,6.012 -11.817,5.661 -0.608,-4.591 1.646,-9.378 4.231,-12.378 z m 22.796,64.009 c -3.325,4.876 -6.764,9.724 -12.194,9.825 -5.343,0.101 -7.056,-3.175 -13.154,-3.175 -6.104,0 -8.014,3.074 -13.059,3.276 -5.242,0.197 -9.228,-5.267 -12.58,-10.122 -6.847,-9.926 -12.076,-28.068 -5.046,-40.31 3.481,-6.08 9.719,-9.926 16.477,-10.028 5.148,-0.095 10.012,3.482 13.155,3.482 3.15,0 9.053,-4.294 15.258,-3.664 2.597,0.108 9.887,1.05 14.57,7.922 -0.371,0.244 -8.701,5.107 -8.601,15.236 0.101,12.1 10.571,16.122 10.692,16.177 -0.095,0.284 -1.673,5.741 -5.518,11.381 z"
     inkscape:connector-curvature="0"
     id="path4" />
</svg>
