<?xml version="1.0" encoding="UTF-8" standalone="no"?>
<!-- Created with Inkscape (http://www.inkscape.org/) -->

<svg
   xmlns:dc="http://purl.org/dc/elements/1.1/"
   xmlns:cc="http://creativecommons.org/ns#"
   xmlns:rdf="http://www.w3.org/1999/02/22-rdf-syntax-ns#"
   xmlns:svg="http://www.w3.org/2000/svg"
   xmlns="http://www.w3.org/2000/svg"
   xmlns:inkscape="http://www.inkscape.org/namespaces/inkscape"
   version="1.1"
   width="128"
   height="128"
   id="svg2">
  <metadata
     id="metadata10">
    <rdf:RDF>
      <cc:Work
         rdf:about="">
        <dc:format>image/svg+xml</dc:format>
        <dc:type
           rdf:resource="http://purl.org/dc/dcmitype/StillImage" />
      </cc:Work>
    </rdf:RDF>
  </metadata>
  <defs
     id="defs8" />
  <path
     d="M 96.246,46.156 H 76.2 v -4.98 h 20.047 l -0.001,4.98 z m -33.39,20.417 c 1.293,2.003 1.94,4.436 1.94,7.291 0,2.954 -0.729,5.603 -2.212,7.943 -0.943,1.549 -2.114,2.857 -3.521,3.909 -1.585,1.219 -3.461,2.053 -5.618,2.5 -2.164,0.447 -4.506,0.673 -7.028,0.673 H 24 V 39.111 h 24.04 c 6.059,0.099 10.355,1.854 12.892,5.302 1.522,2.115 2.276,4.652 2.276,7.601 0,3.044 -0.764,5.478 -2.3,7.329 -0.855,1.037 -2.118,1.98 -3.79,2.832 2.532,0.927 4.454,2.388 5.738,4.398 z M 35.48,58.736 h 10.533 c 2.164,0 3.915,-0.412 5.262,-1.234 1.347,-0.821 2.019,-2.281 2.019,-4.377 0,-2.316 -0.89,-3.852 -2.674,-4.592 -1.533,-0.514 -3.495,-0.779 -5.875,-0.779 H 35.48 v 10.982 z m 18.828,14.418 c 0,-2.587 -1.057,-4.373 -3.166,-5.332 -1.18,-0.546 -2.844,-0.824 -4.978,-0.844 H 35.48 v 13.265 h 10.519 c 2.161,0 3.834,-0.283 5.041,-0.873 2.177,-1.086 3.268,-3.151 3.268,-6.216 z m 49.375,-8.098 c 0.243,1.628 0.352,3.991 0.308,7.079 H 78.03 c 0.144,3.584 1.38,6.09 3.727,7.523 1.414,0.9 3.13,1.339 5.139,1.339 2.117,0 3.844,-0.536 5.173,-1.636 0.724,-0.583 1.364,-1.407 1.916,-2.445 h 9.515 c -0.249,2.116 -1.395,4.262 -3.453,6.444 -3.19,3.466 -7.665,5.205 -13.41,5.205 -4.747,0 -8.93,-1.467 -12.561,-4.388 -3.62,-2.932 -5.436,-7.687 -5.436,-14.283 0,-6.186 1.632,-10.92 4.907,-14.216 3.285,-3.301 7.527,-4.945 12.755,-4.945 3.099,0 5.892,0.554 8.384,1.668 2.485,1.115 4.538,2.869 6.155,5.28 1.462,2.123 2.404,4.578 2.842,7.375 z m -9.365,0.929 c -0.175,-2.478 -1.003,-4.354 -2.492,-5.635 -1.478,-1.285 -3.324,-1.931 -5.525,-1.931 -2.397,0 -4.247,0.69 -5.563,2.045 -1.324,1.353 -2.148,3.192 -2.485,5.521 h 16.065 z"
     inkscape:connector-curvature="0"
     id="path4" />
</svg>
