<?xml version="1.0" encoding="UTF-8" standalone="no"?>
<!-- Created with Inkscape (http://www.inkscape.org/) -->

<svg
   xmlns:dc="http://purl.org/dc/elements/1.1/"
   xmlns:cc="http://creativecommons.org/ns#"
   xmlns:rdf="http://www.w3.org/1999/02/22-rdf-syntax-ns#"
   xmlns:svg="http://www.w3.org/2000/svg"
   xmlns="http://www.w3.org/2000/svg"
   xmlns:inkscape="http://www.inkscape.org/namespaces/inkscape"
   version="1.1"
   width="128"
   height="128"
   id="svg2">
  <metadata
     id="metadata10">
    <rdf:RDF>
      <cc:Work
         rdf:about="">
        <dc:format>image/svg+xml</dc:format>
        <dc:type
           rdf:resource="http://purl.org/dc/dcmitype/StillImage" />
      </cc:Work>
    </rdf:RDF>
  </metadata>
  <defs
     id="defs8" />
  <path
     d="m 53.605,81.574 h 8.963 V 44.177 h -8.963 v 37.397 z m 11.364,0 h 8.963 V 54.647 H 64.969 V 81.574 z M 38.029,54.086 c -1.787,0 -3.494,0.338 -5.066,0.947 V 44.177 H 24 l 0.006,23.931 c 0,7.744 6.278,14.023 14.023,14.023 7.745,0 14.023,-6.279 14.023,-14.023 0,-7.744 -6.278,-14.022 -14.023,-14.022 z m 0,19.002 c -2.75,0 -4.979,-2.229 -4.979,-4.979 0,-2.75 2.229,-4.979 4.979,-4.979 2.75,0 4.979,2.229 4.979,4.979 0,2.75 -2.229,4.979 -4.979,4.979 z M 89.977,54.086 c -7.745,0 -14.023,6.278 -14.023,14.023 L 75.948,92.04 H 84.91 V 81.184 c 1.572,0.61 3.279,0.948 5.067,0.948 7.744,0 14.023,-6.278 14.023,-14.023 0,-7.745 -6.278,-14.023 -14.023,-14.023 z m 0,19.002 c -2.75,0 -4.979,-2.229 -4.979,-4.979 0,-2.75 2.229,-4.979 4.979,-4.979 2.75,0 4.979,2.229 4.979,4.979 0,2.75 -2.229,4.979 -4.979,4.979 z M 84.14,41.396 c 0,-3.002 -2.434,-5.436 -5.436,-5.436 -3.002,0 -5.436,2.434 -5.436,5.436 0,3.002 2.434,5.436 5.436,5.436 3.002,0 5.436,-2.434 5.436,-5.436 z"
     inkscape:connector-curvature="0"
     id="path4" />
</svg>
