<?xml version="1.0" encoding="UTF-8" standalone="no"?>
<!-- Created with Inkscape (http://www.inkscape.org/) -->

<svg
   xmlns:dc="http://purl.org/dc/elements/1.1/"
   xmlns:cc="http://creativecommons.org/ns#"
   xmlns:rdf="http://www.w3.org/1999/02/22-rdf-syntax-ns#"
   xmlns:svg="http://www.w3.org/2000/svg"
   xmlns="http://www.w3.org/2000/svg"
   xmlns:inkscape="http://www.inkscape.org/namespaces/inkscape"
   version="1.1"
   width="128"
   height="128"
   id="svg2">
  <metadata
     id="metadata10">
    <rdf:RDF>
      <cc:Work
         rdf:about="">
        <dc:format>image/svg+xml</dc:format>
        <dc:type
           rdf:resource="http://purl.org/dc/dcmitype/StillImage" />
      </cc:Work>
    </rdf:RDF>
  </metadata>
  <defs
     id="defs8" />
  <path
     d="M 95.667,28.5 H 33.364 C 28.447,28.5 24,32.81 24,37.67 V 64.061 C 24,83.494 40.402,99.5 60.065,99.5 h 8.901 C 88.629,99.5 104,83.494 104,64.061 V 37.67 c 0,-4.86 -3.417,-9.17 -8.333,-9.17 z M 64.61,85.972 C 49.862,85.972 38,74.237 38,59.662 V 46.5 h 13 v 13.162 c 0,7.287 6.059,13.115 13.433,13.115 7.372,0 13.432,-6.277 13.432,-13.277 h 13.352 c 0.001,15 -11.861,26.472 -26.607,26.472 z m 26.384,-30.71 -12.905,-3.297 3.115,-12.756 13.128,3.298 -3.338,12.755 z"
     inkscape:connector-curvature="0"
     id="path4"
     style="fill-rule:evenodd" />
</svg>
