<?xml version="1.0" encoding="UTF-8" standalone="no"?>
<!-- Created with Inkscape (http://www.inkscape.org/) -->

<svg
   xmlns:dc="http://purl.org/dc/elements/1.1/"
   xmlns:cc="http://creativecommons.org/ns#"
   xmlns:rdf="http://www.w3.org/1999/02/22-rdf-syntax-ns#"
   xmlns:svg="http://www.w3.org/2000/svg"
   xmlns="http://www.w3.org/2000/svg"
   xmlns:inkscape="http://www.inkscape.org/namespaces/inkscape"
   version="1.1"
   width="128"
   height="128"
   id="svg2">
  <metadata
     id="metadata10">
    <rdf:RDF>
      <cc:Work
         rdf:about="">
        <dc:format>image/svg+xml</dc:format>
        <dc:type
           rdf:resource="http://purl.org/dc/dcmitype/StillImage" />
      </cc:Work>
    </rdf:RDF>
  </metadata>
  <defs
     id="defs8" />
  <path
     d="M 34.345,54.966 C 28.702,54.966 24,57.36 24,64.582 c 0,5.722 3.162,9.325 10.49,9.325 8.626,0 9.179,-5.682 9.179,-5.682 h -4.18 c 0,0 -0.896,3.06 -5.254,3.06 -3.55,0 -6.103,-2.398 -6.103,-5.759 h 15.974 v -2.109 c 0,-3.325 -2.11,-8.451 -9.761,-8.451 z m -0.146,2.696 c 3.379,0 5.682,2.07 5.682,5.172 H 28.225 c 0,-3.294 3.007,-5.172 5.974,-5.172 z m 9.904,-9.689 V 70.28 c 0,1.266 -0.09,3.044 -0.09,3.044 H 48 c 0,0 0.143,-1.277 0.143,-2.444 0,0 1.97,3.081 7.325,3.081 5.64,0 9.47,-3.915 9.47,-9.525 0,-5.219 -3.519,-9.416 -9.461,-9.416 -5.565,0 -7.294,3.005 -7.294,3.005 V 47.973 h -4.08 z m 10.345,9.807 c 3.83,0 6.265,2.842 6.265,6.657 0,4.09 -2.813,6.766 -6.238,6.766 -4.087,0 -6.292,-3.191 -6.292,-6.729 0,-3.298 1.979,-6.694 6.265,-6.694 z m 20.398,-2.814 c -8.489,0 -9.033,4.648 -9.033,5.391 h 4.225 c 0,0 0.222,-2.714 4.517,-2.714 2.791,0 4.954,1.277 4.954,3.734 v 0.874 h -4.954 c -6.576,0 -10.053,1.924 -10.053,5.828 0,3.842 3.212,5.933 7.554,5.933 5.916,0 7.822,-3.269 7.822,-3.269 0,1.3 0.1,2.582 0.1,2.582 h 3.756 c 0,0 -0.146,-1.588 -0.146,-2.604 v -8.783 c 0,-5.76 -4.645,-6.972 -8.742,-6.972 z m 4.662,9.908 v 1.166 c 0,1.52 -0.938,5.3 -6.461,5.3 -3.024,0 -4.321,-1.509 -4.321,-3.26 0.001,-3.186 4.367,-3.206 10.782,-3.206 z m 1.805,-9.178 h 4.753 l 6.822,13.667 6.806,-13.667 H 104 L 91.603,80.027 h -4.517 l 3.577,-6.783 -9.35,-17.548 z"
     inkscape:connector-curvature="0"
     id="path4" />
</svg>
