<?xml version="1.0" encoding="UTF-8" standalone="no"?>
<!-- Created with Inkscape (http://www.inkscape.org/) -->

<svg width="128" height="128" xml:space="preserve" >
   <g id="g12" transform="matrix(0.04793873,0,0,0.04793873,-1.8019e-6,36.196855)">
        <path
         d="M 43.0273,0 18.8711,0 C 8.30469,0 0,7.55859 0,18.125 0,28.6914 8.30469,37.7539 18.8711,37.7539 l 21.1406,0 c 56.6289,0 70.9683,30.1953 70.9683,88.3201 l 0,332.227 c 0,12.832 10.567,22.656 23.399,22.656 12.851,0 21.898,-9.824 21.898,-22.656 l 0,-329.199 C 156.277,47.5781 125.328,0 43.0273,0"
         style="fill:#ffffff;fill-opacity:1;fill-rule:nonzero;stroke:none"
         id="path14"
         inkscape:connector-curvature="0" />
        <path
         d="m 134.379,571.563 c -15.098,0 -27.918,12.082 -27.918,27.187 0,15.09 12.82,27.18 27.918,27.18 15.109,0 27.199,-12.09 27.199,-27.18 0,-15.105 -12.09,-27.187 -27.199,-27.187"
         style="fill:#ffffff;fill-opacity:1;fill-rule:nonzero;stroke:none"
         id="path16"
         inkscape:connector-curvature="0" />
        <path
         d="m 395.41,447.004 c -73.226,0 -128.344,-60.41 -128.344,-132.891 0,-72.5 55.118,-132.902 128.344,-132.902 73.238,0 127.606,60.402 127.606,132.902 0,72.481 -54.368,132.891 -127.606,132.891 z M 545.676,144.219 c -12.832,0 -22.66,9.824 -22.66,22.656 l 0,38.508 c -22.657,-33.227 -72.485,-64.192 -129.11,-64.192 -92.867,0 -171.39,77.032 -171.39,172.922 0,95.875 77.011,172.891 172.894,172.891 95.891,0 172.899,-77.016 172.899,-172.891 0,0 0,0 0,-147.238 0,-12.832 -9.801,-22.656 -22.633,-22.656"
         style="fill:#ffffff;fill-opacity:1;fill-rule:nonzero;stroke:none"
         id="path18"
         inkscape:connector-curvature="0" />
        <path
         d="m 920.398,141.191 c -12.832,0 -22.644,9.825 -22.644,22.657 l 0,169.875 c 0,61.16 -48.328,110.254 -110.242,110.254 -61.914,0 -110.239,-49.094 -110.239,-110.254 l 0,-169.875 c 0,-12.832 -9.824,-22.657 -22.644,-22.657 -12.82,0 -22.649,9.825 -22.649,22.657 l 0,165.343 c 0,86.075 67.961,154.786 155.532,154.786 87.593,0 155.547,-68.711 155.547,-154.786 0,-117.035 0,-165.343 0,-165.343 0,-12.832 -9.817,-22.657 -22.661,-22.657"
         style="fill:#ffffff;fill-opacity:1;fill-rule:nonzero;stroke:none"
         id="path20"
         inkscape:connector-curvature="0" />
        <path
         d="m 1181.04,443.977 c -66.44,0 -127.59,-46.086 -127.59,-115.539 l 0,-164.59 c 0,-12.078 -10.59,-22.657 -22.68,-22.657 -12.07,0 -21.88,9.825 -21.88,22.657 l 0,294.453 c 0,12.832 9.06,22.656 21.88,22.656 12.09,0 22.68,-9.824 22.68,-22.656 0,-11.317 0,-38.496 0,-38.496 26.4,41.523 71.72,64.172 127.59,64.172 11.31,0 19.63,-9.055 19.63,-20.391 0,-11.309 -8.32,-19.609 -19.63,-19.609"
         style="fill:#ffffff;fill-opacity:1;fill-rule:nonzero;stroke:none"
         id="path22"
         inkscape:connector-curvature="0" />
        <path
         d="m 1388.68,447.004 c -73.24,0 -128.36,-60.41 -128.36,-132.891 0,-72.5 55.12,-132.902 128.36,-132.902 73.22,0 127.6,60.402 127.6,132.902 0,72.481 -54.38,132.891 -127.6,132.891 z m 150.24,-302.785 c -12.84,0 -22.64,9.824 -22.64,22.656 l 0,38.508 c -22.66,-33.227 -72.5,-64.192 -129.12,-64.192 -92.87,0 -171.39,77.032 -171.39,172.922 0,95.875 77.01,172.891 172.91,172.891 95.9,0 172.89,-77.016 172.89,-172.891 0,0 0,0 0,-147.238 0,-12.832 -9.8,-22.656 -22.65,-22.656"
         style="fill:#ffffff;fill-opacity:1;fill-rule:nonzero;stroke:none"
         id="path24"
         inkscape:connector-curvature="0" />
        <path
         d="m 1654.03,571.563 c -15.1,0 -27.93,12.082 -27.93,27.187 0,15.09 12.83,27.18 27.93,27.18 15.12,0 26.45,-12.09 26.45,-27.18 0,-15.105 -11.33,-27.187 -26.45,-27.187"
         style="fill:#ffffff;fill-opacity:1;fill-rule:nonzero;stroke:none"
         id="path26"
         inkscape:connector-curvature="0" />
        <path
         d="m 1654.03,141.191 c -12.83,0 -23.4,9.825 -23.4,22.657 l 0,294.453 c 0,12.832 10.57,22.656 23.4,22.656 12.85,0 21.92,-9.824 21.92,-22.656 l 0,-294.453 c 0,-12.832 -9.07,-22.657 -21.92,-22.657"
         style="fill:#ffffff;fill-opacity:1;fill-rule:nonzero;stroke:none"
         id="path28"
         inkscape:connector-curvature="0" />
        <path
         d="m 2034.15,141.191 c -12.83,0 -22.66,9.825 -22.66,22.657 l 0,169.875 c 0,61.16 -48.32,110.254 -110.23,110.254 -61.91,0 -110.24,-49.094 -110.24,-110.254 l 0,-169.875 c 0,-12.832 -9.8,-22.657 -22.63,-22.657 -12.83,0 -22.66,9.825 -22.66,22.657 l 0,165.343 c 0,86.075 67.97,154.786 155.53,154.786 87.6,0 155.55,-68.711 155.55,-154.786 0,-117.035 0,-165.343 0,-165.343 0,-12.832 -9.83,-22.657 -22.66,-22.657"
         style="fill:#ffffff;fill-opacity:1;fill-rule:nonzero;stroke:none"
         id="path30"
         inkscape:connector-curvature="0" />
        <path
         d="m 2099.55,472.113 3.41,0 c 3.97,0 7.19,1.325 7.19,4.535 0,2.84 -2.08,4.739 -6.62,4.739 -1.9,0 -3.22,-0.196 -3.98,-0.387 l 0,-8.887 z m -0.18,-17.593 -7.2,0 0,31.023 c 2.84,0.57 6.81,0.949 11.93,0.949 5.87,0 8.5,-0.949 10.78,-2.273 1.69,-1.324 3.02,-3.781 3.02,-6.809 0,-3.402 -2.65,-6.055 -6.42,-7.191 l 0,-0.379 c 3.01,-1.133 4.72,-3.406 5.66,-7.563 0.96,-4.73 1.51,-6.625 2.28,-7.757 l -7.76,0 c -0.94,1.132 -1.51,3.968 -2.46,7.562 -0.56,3.406 -2.45,4.922 -6.43,4.922 l -3.4,0 0,-12.484 z m -19.12,16.265 c 0,-13.808 10.23,-24.785 24.22,-24.785 13.63,0 23.64,10.977 23.64,24.594 0,13.816 -10.01,24.98 -23.83,24.98 -13.8,0 -24.03,-11.164 -24.03,-24.789 z m 55.81,0 c 0,-17.59 -13.8,-31.398 -31.78,-31.398 -17.78,0 -31.96,13.808 -31.96,31.398 0,17.215 14.18,31.028 31.96,31.028 17.98,0 31.78,-13.813 31.78,-31.028"
         style="fill:#ffffff;fill-opacity:1;fill-rule:nonzero;stroke:none"
         id="path32"
         inkscape:connector-curvature="0" />
    </g>
</svg>
