<?xml version="1.0" encoding="UTF-8" standalone="no"?>
<!-- Created with Inkscape (http://www.inkscape.org/) -->

<svg
   xmlns:dc="http://purl.org/dc/elements/1.1/"
   xmlns:cc="http://creativecommons.org/ns#"
   xmlns:rdf="http://www.w3.org/1999/02/22-rdf-syntax-ns#"
   xmlns:svg="http://www.w3.org/2000/svg"
   xmlns="http://www.w3.org/2000/svg"
   xmlns:inkscape="http://www.inkscape.org/namespaces/inkscape"
   version="1.1"
   width="128"
   height="128"
   id="svg2">
  <metadata
     id="metadata12">
    <rdf:RDF>
      <cc:Work
         rdf:about="">
        <dc:format>image/svg+xml</dc:format>
        <dc:type
           rdf:resource="http://purl.org/dc/dcmitype/StillImage" />
      </cc:Work>
    </rdf:RDF>
  </metadata>
  <defs
     id="defs10" />
  <path
     d="M 64.001,30.662 C 42.466,30.662 25.596,58.06 24,81.201 30.756,92.926 47.052,97.338 64.001,97.338 80.948,97.338 97.245,92.927 104,81.201 102.404,58.06 85.534,30.662 64.001,30.662 z m 0.496,61.223 c -31.803,0 -34.843,-13.478 -34.843,-13.478 l 0.592,-3.199 c 0,0 8.751,-18.891 14.258,-18.891 5.507,0 7.834,7.835 12.311,7.835 4.478,0 14.237,-17.281 17.728,-17.281 3.493,0 9.402,6.536 14.237,12.535 4.835,5.999 9.591,16.283 9.591,16.283 l 0.472,2.942 C 98.844,78.63 96.302,91.885 64.497,91.885 z"
     inkscape:connector-curvature="0"
     id="path4" />
  <path
     d="m 57.313,71.524 c -4.939,0 -7.47,-4.873 -8.842,-7.883 -1.235,-2.709 -1.448,-6.99 -4.953,-7.107 0.345,-0.137 0.675,-0.218 0.986,-0.218 5.507,0 7.834,7.835 12.311,7.835 4.478,0 14.237,-17.281 17.728,-17.281 0.657,0 1.399,0.231 2.203,0.645 -0.594,-0.079 -1.356,-0.023 -1.945,0.566 -1.128,1.128 -11.373,23.443 -17.488,23.443 z"
     inkscape:connector-curvature="0"
     id="path6"
     style="opacity:0.5" />
</svg>
