<?xml version="1.0" encoding="UTF-8" standalone="no"?>
<!-- Created with Inkscape (http://www.inkscape.org/) -->

<svg
   xmlns:dc="http://purl.org/dc/elements/1.1/"
   xmlns:cc="http://creativecommons.org/ns#"
   xmlns:rdf="http://www.w3.org/1999/02/22-rdf-syntax-ns#"
   xmlns:svg="http://www.w3.org/2000/svg"
   xmlns="http://www.w3.org/2000/svg"
   xmlns:inkscape="http://www.inkscape.org/namespaces/inkscape"
   version="1.1"
   width="128"
   height="128"
   id="svg2">
  <metadata
     id="metadata10">
    <rdf:RDF>
      <cc:Work
         rdf:about="">
        <dc:format>image/svg+xml</dc:format>
        <dc:type
           rdf:resource="http://purl.org/dc/dcmitype/StillImage" />
      </cc:Work>
    </rdf:RDF>
  </metadata>
  <defs
     id="defs8" />
  <path
     d="M 82.681,90.706 C 92.807,84.354 99.556,72.998 99.556,60.042 99.556,40.137 83.636,24 63.998,24 44.36,24 28.444,40.137 28.444,60.042 c 0,19.907 15.916,36.042 35.554,36.042 2.889,0 5.694,-0.357 8.382,-1.018 3.375,6.14 8.517,10.486 19.432,8.409 v -6.109 c 0,-0.001 -7,-1.761 -9.131,-6.66 z M 82.432,64.807 c 0,6.018 -1.915,11.479 -5.026,15.514 -3.908,-4.16 -10.033,-7.58 -17.805,-7.144 v 7.084 c 0,0 5.273,0.209 8.882,6.412 -1.352,0.397 -2.76,0.613 -4.212,0.613 -10.031,0 -18.159,-10.063 -18.159,-22.479 v -9.286 c 0,-12.415 8.128,-22.479 18.159,-22.479 10.031,0 18.162,10.063 18.162,22.478 -0.001,1.595 -0.001,7.694 -0.001,9.287 z"
     inkscape:connector-curvature="0"
     id="path4"
     style="fill:#ffffff" />
</svg>
