<?xml version="1.0" encoding="UTF-8" standalone="no"?>
<!-- Created with Inkscape (http://www.inkscape.org/) -->

<svg
   xmlns:dc="http://purl.org/dc/elements/1.1/"
   xmlns:cc="http://creativecommons.org/ns#"
   xmlns:rdf="http://www.w3.org/1999/02/22-rdf-syntax-ns#"
   xmlns:svg="http://www.w3.org/2000/svg"
   xmlns="http://www.w3.org/2000/svg"
   xmlns:inkscape="http://www.inkscape.org/namespaces/inkscape"
   version="1.1"
   width="128"
   height="128"
   id="svg2">
  <metadata
     id="metadata10">
    <rdf:RDF>
      <cc:Work
         rdf:about="">
        <dc:format>image/svg+xml</dc:format>
        <dc:type
           rdf:resource="http://purl.org/dc/dcmitype/StillImage" />
      </cc:Work>
    </rdf:RDF>
  </metadata>
  <defs
     id="defs8" />
  <path
     d="m 83.846,63.873 c 1.438,3.511 2.164,7.316 2.164,11.419 0,7.669 -2.63,14.371 -7.889,20.105 C 72.861,101.133 66.1,104 57.838,104 49.542,104 42.764,101.133 37.505,95.398 32.246,89.664 29.616,82.961 29.616,75.293 c 0,-7.601 2.488,-14.194 7.466,-19.777 5.475,-6.155 12.393,-9.233 20.755,-9.233 3.516,0 6.775,0.552 9.783,1.643 -0.977,1.91 -1.86,4.25 -2.099,6.764 -2.39,-0.993 -4.958,-1.495 -7.709,-1.495 -5.784,0 -10.754,2.17 -14.909,6.508 -4.155,4.339 -6.233,9.586 -6.233,15.741 0,3.969 0.947,7.668 2.842,11.1 1.895,3.431 4.454,6.08 7.679,7.946 2.14,1.239 4.422,2.057 6.84,2.474 C 74.704,88.934 72.264,49.738 72.115,47.6 l 0.181,0.54 C 84.447,80.574 57.96,97.28 57.96,97.28 l -0.227,0.008 0.079,0.002 c 3.855,0 7.396,-0.933 10.62,-2.8 3.224,-1.866 5.784,-4.515 7.679,-7.946 1.894,-3.431 2.842,-7.13 2.842,-11.1 0,-3.22 -0.576,-6.189 -1.718,-8.912 1.902,-0.396 4.197,-1.174 6.611,-2.659 z M 61.025,24 c 6.66,11.177 10.274,21.211 11.091,23.6 L 72.109,47.504 C 70.481,30.269 61.025,24 61.025,24 z m 33.256,1.817 c -3.382,7.186 -9.645,8.522 -9.645,8.522 -6.263,1.59 -8.455,4.006 -8.455,4.006 -6.263,6.296 -1.329,13.931 -1.329,13.931 13.52,-3.076 18.463,-14.188 18.463,-14.188 -0.601,7.465 -16.697,16.284 -16.697,16.284 5.324,5.215 10.413,4.586 13.772,2.586 4.454,-2.65 6.59,-8.455 6.59,-8.455 4.315,-12.891 -2.699,-22.686 -2.699,-22.686 z"
     inkscape:connector-curvature="0"
     id="path4"
     style="fill:#000000" />
</svg>
