<?xml version="1.0" encoding="UTF-8" standalone="no"?>
<!-- Created with Inkscape (http://www.inkscape.org/) -->

<svg
   xmlns:dc="http://purl.org/dc/elements/1.1/"
   xmlns:cc="http://creativecommons.org/ns#"
   xmlns:rdf="http://www.w3.org/1999/02/22-rdf-syntax-ns#"
   xmlns:svg="http://www.w3.org/2000/svg"
   xmlns="http://www.w3.org/2000/svg"
   xmlns:inkscape="http://www.inkscape.org/namespaces/inkscape"
   version="1.1"
   width="128"
   height="128"
   id="svg2">
  <metadata
     id="metadata10">
    <rdf:RDF>
      <cc:Work
         rdf:about="">
        <dc:format>image/svg+xml</dc:format>
        <dc:type
           rdf:resource="http://purl.org/dc/dcmitype/StillImage" />
      </cc:Work>
    </rdf:RDF>
  </metadata>
  <defs
     id="defs8" />
  <path
     d="m 64,24 c -19.076,0 -34.652,5.128 -34.652,11.496 0,1.677 4.16,25.726 5.81,35.263 0.74,4.277 11.793,10.548 28.833,10.548 l 0.018,-0.051 v 0.051 c 17.04,0 28.093,-6.271 28.833,-10.548 1.65,-9.537 5.81,-33.586 5.81,-35.263 C 98.652,29.128 83.076,24 64,24 z m 0,49.581 c -6.084,0 -11.015,-4.932 -11.015,-11.015 0,-6.084 4.932,-11.015 11.015,-11.015 6.083,0 11.015,4.931 11.015,11.015 0,6.083 -4.932,11.015 -11.015,11.015 z M 63.994,39.049 C 51.738,39.03 41.806,36.9 41.81,34.292 c 0.004,-2.608 9.944,-4.706 22.2,-4.686 12.256,0.019 22.188,2.149 22.184,4.757 -0.005,2.609 -9.944,4.706 -22.2,4.686 z m 26.137,42.624 -0.028,0.293 C 88.779,89.055 87.811,94.084 87.641,94.85 86.485,100.064 76.284,103.999 64,104 H 63.999 C 51.715,103.999 41.514,100.065 40.358,94.85 40.188,94.084 39.22,89.055 37.896,81.966 l -0.028,-0.293 c 0,-0.933 0.597,-1.355 1.226,-1.355 0.527,0 0.949,0.373 0.949,0.373 0,0 8.534,6.757 23.957,6.757 15.423,-10e-4 23.956,-6.758 23.956,-6.758 0,0 0.422,-0.373 0.949,-0.373 0.63,0.001 1.226,0.423 1.226,1.356 z M 69.51,62.563 c 0,3.049 -2.471,5.52 -5.52,5.52 -3.049,0 -5.52,-2.471 -5.52,-5.52 0,-3.049 2.471,-5.52 5.52,-5.52 3.048,0 5.52,2.471 5.52,5.52 z"
     inkscape:connector-curvature="0"
     id="path4" />
</svg>
