<?xml version="1.0" encoding="UTF-8" standalone="no"?>
<!-- Created with Inkscape (http://www.inkscape.org/) -->

<svg
   xmlns:dc="http://purl.org/dc/elements/1.1/"
   xmlns:cc="http://creativecommons.org/ns#"
   xmlns:rdf="http://www.w3.org/1999/02/22-rdf-syntax-ns#"
   xmlns:svg="http://www.w3.org/2000/svg"
   xmlns="http://www.w3.org/2000/svg"
   xmlns:inkscape="http://www.inkscape.org/namespaces/inkscape"
   version="1.1"
   width="128"
   height="128"
   id="svg2">
  <metadata
     id="metadata10">
    <rdf:RDF>
      <cc:Work
         rdf:about="">
        <dc:format>image/svg+xml</dc:format>
        <dc:type
           rdf:resource="http://purl.org/dc/dcmitype/StillImage" />
      </cc:Work>
    </rdf:RDF>
  </metadata>
  <defs
     id="defs8" />
  <path
     d="m 70.204,31.237 c -3.417,-3.417 -9.008,-3.417 -12.424,0 L 26.563,62.455 c -3.417,3.417 -3.417,9.008 0,12.425 l 22.275,22.276 c 1.552,1.351 3.579,2.17 5.798,2.17 H 73.35 c 2.439,0 4.646,-0.988 6.244,-2.586 l 21.844,-21.845 c 3.417,-3.416 3.417,-9.008 0,-12.425 L 70.204,31.237 z M 47.533,72.685 c -0.228,0.228 -0.543,0.369 -0.89,0.369 h -2.67 c -0.316,0 -0.606,-0.117 -0.827,-0.31 l -3.178,-3.178 c -0.488,-0.487 -0.488,-1.285 0,-1.773 L 63.107,44.655 c 0.487,-0.488 1.284,-0.488 1.772,0 l 4.456,4.456 c 0.488,0.487 0.488,1.285 0,1.773 L 47.533,72.685 z m 21.801,15.568 -3.116,3.116 c -0.228,0.228 -0.543,0.369 -0.89,0.369 h -2.67 c -0.317,0 -0.606,-0.117 -0.828,-0.31 L 58.653,88.25 c -0.488,-0.487 -0.488,-1.285 0,-1.773 l 4.454,-4.454 c 0.487,-0.487 1.285,-0.487 1.772,0 l 4.456,4.456 c 0.487,0.489 0.487,1.287 -10e-4,1.774 z m 0,-18.684 -12.459,12.459 c -0.228,0.228 -0.543,0.368 -0.89,0.369 h -2.67 c -0.317,0 -0.606,-0.118 -0.827,-0.31 l -3.179,-3.178 c -0.488,-0.488 -0.488,-1.285 0,-1.773 L 63.105,63.34 c 0.487,-0.488 1.285,-0.488 1.773,0 l 4.456,4.456 c 0.488,0.488 0.488,1.286 0,1.773 z"
     inkscape:connector-curvature="0"
     id="path4" />
</svg>
