<?xml version="1.0" encoding="UTF-8" standalone="no"?>
<!-- Created with Inkscape (http://www.inkscape.org/) -->

<svg
   xmlns:dc="http://purl.org/dc/elements/1.1/"
   xmlns:cc="http://creativecommons.org/ns#"
   xmlns:rdf="http://www.w3.org/1999/02/22-rdf-syntax-ns#"
   xmlns:svg="http://www.w3.org/2000/svg"
   xmlns="http://www.w3.org/2000/svg"
   xmlns:inkscape="http://www.inkscape.org/namespaces/inkscape"
   version="1.1"
   width="128"
   height="128"
   id="svg2">
  <metadata
     id="metadata10">
    <rdf:RDF>
      <cc:Work
         rdf:about="">
        <dc:format>image/svg+xml</dc:format>
        <dc:type
           rdf:resource="http://purl.org/dc/dcmitype/StillImage" />
      </cc:Work>
    </rdf:RDF>
  </metadata>
  <defs
     id="defs8" />
  <path
     d="m 94.295,61.501 c 0.029,-0.468 0.071,-0.932 0.071,-1.406 0,-12.944 -10.655,-23.437 -23.799,-23.437 -9.478,0 -17.638,5.468 -21.466,13.365 -1.857,-1.418 -4.182,-2.27 -6.712,-2.27 -6.064,0 -10.979,4.841 -10.979,10.811 0,1.122 0.172,2.206 0.496,3.222 C 27.178,64.555 24,69.618 24,75.427 c 0,8.685 7.083,15.729 15.87,15.862 l 0.186,0.01 0.065,0.002 0.065,-0.002 h 47.198 c 0.288,0.014 0.569,0.043 0.861,0.043 8.701,0 15.755,-6.945 15.755,-15.514 0,-6.459 -4.008,-11.99 -9.705,-14.327 z M 45.476,79.34 c -1.598,-1.446 -2.592,-3.2 -2.991,-5.266 -0.132,-0.691 -0.198,-1.414 -0.198,-2.175 -0.002,-2.945 1.069,-5.379 3.216,-7.297 2.145,-1.92 4.873,-2.882 8.186,-2.88 3.401,0 6.607,1.272 9.438,3.818 0.707,0.634 1.389,1.349 2.048,2.141 l 3.641,4.282 c 0.63,0.863 1.307,1.608 2.005,2.236 1.869,1.679 3.899,2.519 5.612,2.519 1.458,0 2.675,-0.446 3.655,-1.341 0.855,-0.814 1.337,-1.788 1.444,-2.916 l 0.022,-0.494 c 0,-0.49 -0.069,-0.954 -0.21,-1.389 -0.233,-0.725 -0.66,-1.377 -1.28,-1.959 -0.968,-0.924 -2.188,-1.379 -3.666,-1.379 -1.817,0 -3.613,0.612 -5.582,2.519 L 67.592,65.968 67.2,65.527 c 2.819,-2.763 5.634,-3.799 9.424,-3.799 3.358,0 6.076,0.954 8.156,2.858 l 0.047,0.038 c 2.113,1.9 3.173,4.356 3.173,7.37 0,0.745 -0.067,1.458 -0.198,2.137 -0.397,2.039 -1.393,3.777 -2.985,5.217 -1.563,1.44 -3.471,2.341 -5.724,2.7 -0.751,0.119 -1.541,0.18 -2.369,0.18 -3.477,-0.002 -6.694,-1.246 -9.46,-3.729 -0.747,-0.672 -1.462,-1.434 -2.141,-2.289 l -3.642,-4.251 c -0.616,-0.853 -1.282,-1.59 -1.975,-2.214 -1.865,-1.675 -3.921,-2.513 -5.683,-2.513 -0.547,0 -1.059,0.065 -1.537,0.192 -0.794,0.213 -1.489,0.606 -2.088,1.177 -0.733,0.699 -1.193,1.503 -1.375,2.412 -0.061,0.302 -0.093,0.618 -0.091,0.944 0,1.292 0.466,2.398 1.397,3.315 l 0.071,0.067 c 1.001,0.915 2.23,1.371 3.688,1.371 1.833,0 3.637,-0.615 5.602,-2.54 l 3.208,3.745 0.354,0.427 c -2.929,2.795 -5.713,3.852 -9.357,3.85 -3.356,0.001 -6.094,-0.95 -8.219,-2.852 z"
     inkscape:connector-curvature="0"
     id="path4"
     style="fill:#ffffff" />
</svg>
