<?xml version="1.0" encoding="UTF-8" standalone="no"?>
<!-- Created with Inkscape (http://www.inkscape.org/) -->

<svg
   xmlns:dc="http://purl.org/dc/elements/1.1/"
   xmlns:cc="http://creativecommons.org/ns#"
   xmlns:rdf="http://www.w3.org/1999/02/22-rdf-syntax-ns#"
   xmlns:svg="http://www.w3.org/2000/svg"
   xmlns="http://www.w3.org/2000/svg"
   xmlns:inkscape="http://www.inkscape.org/namespaces/inkscape"
   version="1.1"
   width="128"
   height="128"
   id="svg2">
  <metadata
     id="metadata10">
    <rdf:RDF>
      <cc:Work
         rdf:about="">
        <dc:format>image/svg+xml</dc:format>
        <dc:type
           rdf:resource="http://purl.org/dc/dcmitype/StillImage" />
      </cc:Work>
    </rdf:RDF>
  </metadata>
  <defs
     id="defs8" />
  <path
     d="M 43.855,27.523 C 33.564,31.599 26.572,39.452 24.62,50.031 c -1.199,6.5 -0.743,13.586 2.124,19.653 0.639,1.349 1.406,2.648 2.318,3.849 0.442,0.586 0.916,1.146 1.43,1.677 0.914,-0.325 1.796,-0.732 2.637,-1.208 3.478,-1.964 6.045,-4.989 9.024,-7.532 -9.957,-11.535 0.596,-25.83 13.797,-29.018 12.289,-2.963 28.945,2.151 32.672,14.795 1.542,5.237 0.532,11.026 -3.738,14.818 -2.234,1.984 -5.068,3.297 -8.065,3.831 -1.75,0.31 -3.547,0.359 -5.316,0.185 -0.986,-0.099 -1.966,-0.266 -2.931,-0.492 -1.636,-0.386 -3.091,-0.328 -3.091,-2.092 V 47.76 c 0,-1.413 0.139,-1.148 -1.033,-1.293 -0.925,-0.113 -1.848,-0.204 -2.776,-0.276 -3.26,-0.255 -6.668,-0.43 -9.903,0.127 -1.21,0.208 -1.286,0.014 -1.286,1.326 v 10.935 c 0,7.722 0.581,15.534 0.262,23.242 -0.092,2.297 -0.156,7.81 -2.727,8.948 -2.98,1.317 -5.613,-1.468 -8.363,-2.05 0.377,3.87 -2.044,11.537 2.468,13.49 4.136,1.792 8.895,2.459 13.256,0.98 9.135,-3.099 12.09,-13.266 10.932,-21.619 14.102,4.213 29.324,-2.836 35.355,-15.571 4.294,-9.068 2.481,-20.331 -3.984,-28.042 C 85.575,23.51 60.993,20.739 43.855,27.523 z"
     inkscape:connector-curvature="0"
     id="path4"
     style="fill:#ffffff" />
</svg>
