<?xml version="1.0" encoding="UTF-8" standalone="no"?>
<!-- Created with Inkscape (http://www.inkscape.org/) -->

<svg
   xmlns:dc="http://purl.org/dc/elements/1.1/"
   xmlns:cc="http://creativecommons.org/ns#"
   xmlns:rdf="http://www.w3.org/1999/02/22-rdf-syntax-ns#"
   xmlns:svg="http://www.w3.org/2000/svg"
   xmlns="http://www.w3.org/2000/svg"
   xmlns:inkscape="http://www.inkscape.org/namespaces/inkscape"
   version="1.1"
   width="128"
   height="128"
   id="svg2">
  <metadata
     id="metadata10">
    <rdf:RDF>
      <cc:Work
         rdf:about="">
        <dc:format>image/svg+xml</dc:format>
        <dc:type
           rdf:resource="http://purl.org/dc/dcmitype/StillImage" />
      </cc:Work>
    </rdf:RDF>
  </metadata>
  <defs
     id="defs8" />
  <path
     d="m 77.698,64.998 c 2.45,-1.418 4.835,-1.482 7.284,-1.482 1.226,0.064 2.449,0.13 3.739,0.064 1.29,-0.064 2.643,-0.258 4.061,-0.709 4.577,-1.546 7.607,-3.61 11.217,-7.349 0,3.481 -1.29,6.188 -5.157,9.154 -4.061,3.094 -8.51,4.641 -13.667,4.963 -1.804,0.128 -2.966,-0.064 -4.061,-0.194 -1.097,-0.13 -2.257,-0.194 -3.997,0 -2.966,0.386 -4.577,1.095 -6.897,2.643 2.062,-3.416 3.803,-5.028 7.477,-7.092 M 45.466,46.305 c 2.773,1.481 4.9,2.449 6.897,3.481 1.998,1.032 3.868,2.127 6.189,3.739 2.45,1.806 4.319,4.771 3.482,8.703 -0.58,2.578 -1.806,4.9 -3.545,7.286 0.837,-3.482 0.837,-5.738 -1.097,-9.219 -1.482,-2.643 -4.833,-4.189 -8.509,-5.802 -1.869,-0.772 -3.868,-1.676 -5.737,-2.643 -1.869,-1.031 -3.674,-2.191 -5.221,-3.739 -2.836,-2.708 -4.319,-5.221 -5.028,-9.089 -0.452,-2.578 0.258,-5.028 1.031,-6.511 1.354,6.122 5.544,10.635 11.538,13.794 m 4.899,22.238 c 2.837,0.195 3.997,1.419 4.189,3.416 0.13,0.709 0.064,1.226 -0.193,1.934 -0.839,-1.032 -1.934,-1.354 -3.159,-1.418 -0.644,-0.064 -1.288,-0.064 -1.998,-0.064 -0.644,0 -1.353,-0.064 -1.997,-0.194 -3.481,-0.644 -5.802,-1.16 -10.057,-5.673 -0.837,-0.902 -1.418,-1.806 -1.806,-2.578 -0.128,-0.195 -0.257,-0.388 -0.321,-0.581 3.028,2.322 8.314,4.643 15.342,5.158 M 44.757,58.1 c 1.548,0.581 3.094,1.16 4.512,1.741 1.355,0.581 2.708,1.16 3.803,1.741 2.321,1.288 3.805,2.707 4.061,4.77 0.195,1.095 0.129,4.125 -1.289,6.059 0.128,-0.709 0.193,-1.418 0,-2.386 C 55.392,67.512 53.652,66.094 51.59,65.192 50.558,64.739 49.461,64.418 48.366,64.096 47.271,63.838 46.174,63.58 45.207,63.322 37.924,61.26 31.735,57.907 30.575,52.235 c -0.388,-1.934 -0.452,-3.61 -0.452,-4.708 0,-0.45 0,-0.772 0.063,-1.03 2.323,6.381 8.64,9.282 14.571,11.603 m 38.099,-1.804 c 0,0 -0.258,-0.774 -1.613,-0.581 -0.515,0.064 -1.031,0.064 -1.547,0.064 -1.097,0 -2.192,-0.128 -3.16,-0.323 -1.16,-0.258 -1.546,-0.322 -2.708,-0.322 -4.319,0 -8.573,3.223 -10.055,7.735 -3.289,10.25 -12.894,17.663 -24.239,17.663 -5.802,0 -11.539,-1.933 -15.471,-5.221 C 24,75.829 24,76.151 24,76.538 c 0,1.354 0,2.643 0.58,4.19 0.837,2.127 2.707,4.061 5.415,4.061 5.093,0 8.187,-2.322 13.537,-3.224 1.548,-0.258 2.773,-0.451 5.158,-0.451 h 3.997 c 8.123,0 14.955,-5.221 17.47,-12.507 1.741,-5.479 6.188,-10.057 12.699,-12.312 M 47.465,82.34 c -0.645,0.322 -1.224,0.579 -1.998,1.095 -1.095,0.708 -2.385,1.999 -3.61,3.352 -1.289,1.29 -2.578,2.708 -3.545,3.61 -1.032,0.966 -2.385,1.548 -3.868,1.548 -1.289,0 -2.449,-0.453 -3.416,-1.162 -1.481,-1.16 -2.835,-2.578 -3.931,-4.125 2.062,1.288 3.931,1.739 6.446,1.354 1.611,-0.194 3.094,-1.032 4.512,-1.934 0.774,-0.451 1.482,-0.902 2.192,-1.354 0.709,-0.451 1.418,-0.904 2.127,-1.224 1.868,-0.902 3.158,-1.095 5.091,-1.16 m -5.673,10.701 c 0.837,-0.709 1.481,-1.611 1.997,-2.514 0.58,-0.966 1.032,-1.933 1.482,-2.9 0.839,-1.934 1.741,-3.676 3.287,-4.642 0.58,-0.323 1.29,-0.516 1.998,-0.579 0.579,-0.064 1.16,-0.064 1.741,-0.064 -0.195,0.128 -0.323,0.194 -0.453,0.322 -0.321,0.195 -0.644,0.453 -0.968,0.774 -0.837,0.902 -1.353,2.45 -1.739,4.061 l -0.516,2.322 c -0.192,0.772 -0.386,1.481 -0.644,2.062 -1.032,2.256 -3.094,3.61 -5.479,3.61 -2.129,0 -3.932,-0.388 -5.737,-1.16 1.997,0.128 3.739,-0.064 5.028,-1.29 M 72.993,73.186 c 2.192,-0.644 4.061,-0.323 5.865,0.064 0.966,0.258 1.934,0.451 2.9,0.579 1.032,0.13 2.129,0.195 3.287,0.064 3.546,-0.451 6.253,-1.29 8.573,-2.255 2.129,-0.903 3.998,-1.999 5.996,-3.159 -1.677,2.449 -4.256,5.349 -8.51,7.671 -3.223,1.739 -6.575,2.899 -11.796,2.513 -1.162,-0.063 -1.998,-0.258 -2.773,-0.516 -0.775,-0.258 -1.418,-0.579 -2.062,-0.902 -1.355,-0.581 -2.836,-1.16 -5.544,-1.03 -0.837,0 -1.353,0.063 -2.064,0.194 1.998,-1.613 3.482,-2.45 6.124,-3.224"
     inkscape:connector-curvature="0"
     id="path4" />
</svg>
