<?xml version="1.0" encoding="UTF-8" standalone="no"?>
<!-- Created with Inkscape (http://www.inkscape.org/) -->

<svg
   xmlns:dc="http://purl.org/dc/elements/1.1/"
   xmlns:cc="http://creativecommons.org/ns#"
   xmlns:rdf="http://www.w3.org/1999/02/22-rdf-syntax-ns#"
   xmlns:svg="http://www.w3.org/2000/svg"
   xmlns="http://www.w3.org/2000/svg"
   xmlns:inkscape="http://www.inkscape.org/namespaces/inkscape"
   version="1.1"
   width="128"
   height="128"
   id="svg2">
  <metadata
     id="metadata10">
    <rdf:RDF>
      <cc:Work
         rdf:about="">
        <dc:format>image/svg+xml</dc:format>
        <dc:type
           rdf:resource="http://purl.org/dc/dcmitype/StillImage" />
      </cc:Work>
    </rdf:RDF>
  </metadata>
  <defs
     id="defs8" />
  <path
     d="m 104,36.336 c 0,5.461 -4.394,9.835 -9.8,9.835 -5.461,0 -9.849,-4.374 -9.849,-9.835 0,-5.42 4.389,-9.794 9.849,-9.794 5.406,0 9.8,4.374 9.8,9.794 z m -9.8,17.826 c -5.461,0 -9.849,4.421 -9.849,9.829 0,5.426 4.389,9.832 9.849,9.832 5.406,0 9.8,-4.406 9.8,-9.832 0,-5.408 -4.394,-9.829 -9.8,-9.829 z m 0,27.65 c -5.461,0 -9.849,4.392 -9.849,9.832 0,5.426 4.389,9.814 9.849,9.814 5.406,0 9.8,-4.389 9.8,-9.814 0,-5.441 -4.394,-9.832 -9.8,-9.832 z M 63.997,26.542 c -5.423,0 -9.812,4.374 -9.812,9.794 0,5.461 4.389,9.835 9.812,9.835 5.426,0 9.818,-4.374 9.818,-9.835 0,-5.42 -4.392,-9.794 -9.818,-9.794 z m 0,27.62 c -5.423,0 -9.812,4.421 -9.812,9.829 0,5.426 4.389,9.832 9.812,9.832 5.426,0 9.818,-4.406 9.818,-9.832 0,-5.408 -4.392,-9.829 -9.818,-9.829 z M 33.814,26.542 c -5.423,0 -9.814,4.374 -9.814,9.794 0,5.461 4.391,9.835 9.814,9.835 5.423,0 9.832,-4.374 9.832,-9.835 0,-5.42 -4.409,-9.794 -9.832,-9.794 z"
     inkscape:connector-curvature="0"
     id="path4" />
</svg>
