<?xml version="1.0" encoding="UTF-8" standalone="no"?>
<!-- Created with Inkscape (http://www.inkscape.org/) -->

<svg
   xmlns:dc="http://purl.org/dc/elements/1.1/"
   xmlns:cc="http://creativecommons.org/ns#"
   xmlns:rdf="http://www.w3.org/1999/02/22-rdf-syntax-ns#"
   xmlns:svg="http://www.w3.org/2000/svg"
   xmlns="http://www.w3.org/2000/svg"
   xmlns:inkscape="http://www.inkscape.org/namespaces/inkscape"
   version="1.1"
   width="128"
   height="128"
   id="svg2">
  <metadata
     id="metadata10">
    <rdf:RDF>
      <cc:Work
         rdf:about="">
        <dc:format>image/svg+xml</dc:format>
        <dc:type
           rdf:resource="http://purl.org/dc/dcmitype/StillImage" />
      </cc:Work>
    </rdf:RDF>
  </metadata>
  <defs
     id="defs8" />
  <path
     d="m 83.11,73.013 v 1.788 c 0,0.128 0.235,0.32 0.221,0.32 h 0.007 c 0,9 -7.229,17.418 -15.229,19.077 v 4.103 c 0,0.319 -0.635,0.82 -0.714,0.82 h 4.314 c 1.271,0 2.303,1.228 2.303,2.5 0,1.272 -1.032,2.5 -2.303,2.5 H 56.352 c -1.273,0 -2.305,-1.228 -2.305,-2.5 0,-1.272 1.033,-2.5 2.305,-2.5 h 4.232 c -0.079,0 -0.474,-0.501 -0.474,-0.82 V 94.197 C 51.11,92.535 44.648,84.121 44.648,75.121 h 0.024 c -0.015,0 0.439,-0.204 0.439,-0.339 v -1.787 c 0,-1.95 1.05,-3.531 3,-3.531 1.95,0 3,1.581 3,3.531 v 1.787 c 0,0.135 0.591,0.339 0.576,0.339 h 0.01 c 0,7 5.506,12.297 12.297,12.297 6.792,0 12.298,-5.297 12.298,-12.297 h 0.021 c -0.013,0 -0.202,-0.192 -0.202,-0.32 v -1.788 c 0,-1.949 1.549,-3.53 3.5,-3.53 1.948,0 3.499,1.581 3.499,3.53 z m -11,-22.122 c 0,-4.291 -3.438,-7.77 -7.679,-7.77 H 62.79 c -4.241,0 -7.679,3.479 -7.679,7.77 v 25.461 c 0,4.291 3.438,7.77 7.679,7.77 h 1.641 c 4.241,0 7.679,-3.479 7.679,-7.77 V 50.891 z M 64.609,39.243 c 1.884,0 3.5,-1.526 3.5,-3.411 v -8.544 c 0,-1.883 -1.616,-3.41 -3.5,-3.41 -1.883,0 -3.5,1.527 -3.5,3.41 v 8.544 c 10e-4,1.885 1.617,3.411 3.5,3.411 z m 23.029,7.878 h -8.543 c -1.884,0 -3.411,1.617 -3.411,3.5 0,1.884 1.527,3.5 3.411,3.5 h 8.543 c 1.883,0 3.41,-1.616 3.41,-3.5 0,-1.883 -1.527,-3.5 -3.41,-3.5 z m -10.365,-4.307 6.041,-6.041 c 1.331,-1.331 1.331,-3.491 -10e-4,-4.823 -1.332,-1.332 -3.492,-1.332 -4.823,0 l -6.04,6.04 c -1.333,1.332 -1.332,3.491 0,4.823 1.331,1.333 3.491,1.333 4.823,10e-4 z m -24.957,7.807 c 0,-1.883 -1.527,-3.5 -3.411,-3.5 h -8.543 c -1.884,0 -3.41,1.616 -3.41,3.5 0,1.883 1.526,3.5 3.41,3.5 h 8.543 c 1.885,0 3.411,-1.617 3.411,-3.5 z m -1.156,-8.08 c 1.333,1.332 3.491,1.332 4.823,0.001 1.332,-1.333 1.332,-3.492 0.001,-4.824 l -6.041,-6.041 c -1.332,-1.332 -3.491,-1.333 -4.824,0.001 -1.331,1.331 -1.331,3.491 0,4.822 l 6.041,6.041 z"
     inkscape:connector-curvature="0"
     id="path4" />
</svg>
