<?xml version="1.0" encoding="UTF-8" standalone="no"?>
<!-- Created with Inkscape (http://www.inkscape.org/) -->

<svg
   xmlns:dc="http://purl.org/dc/elements/1.1/"
   xmlns:cc="http://creativecommons.org/ns#"
   xmlns:rdf="http://www.w3.org/1999/02/22-rdf-syntax-ns#"
   xmlns:svg="http://www.w3.org/2000/svg"
   xmlns="http://www.w3.org/2000/svg"
   xmlns:inkscape="http://www.inkscape.org/namespaces/inkscape"
   version="1.1"
   width="128"
   height="128"
   id="svg2">
  <metadata
     id="metadata10">
    <rdf:RDF>
      <cc:Work
         rdf:about="">
        <dc:format>image/svg+xml</dc:format>
        <dc:type
           rdf:resource="http://purl.org/dc/dcmitype/StillImage" />
      </cc:Work>
    </rdf:RDF>
  </metadata>
  <defs
     id="defs8" />
  <path
     d="m 49.935,87.374 c -4.84,-1.21 -7.538,-5.058 -7.546,-10.768 -0.003,-1.826 0.13,-2.7 0.585,-3.874 1.116,-2.878 4.074,-5.05 7.965,-5.849 1.937,-0.398 2.533,-0.825 2.533,-1.813 0,-0.31 0.231,-1.234 0.512,-2.052 1.28,-3.72 3.649,-6.82 6.181,-8.088 2.65,-1.327 3.987,-1.627 7.192,-1.61 4.552,0.024 6.824,1.012 9.999,4.347 l 1.747,1.835 1.566,-0.541 c 7.574,-2.621 15.124,1.84 15.733,9.297 l 0.166,2.04 1.491,0.534 c 4.26,1.526 6.262,4.731 5.899,9.442 -0.238,3.081 -1.678,5.54 -3.96,6.761 l -1.072,0.574 -23.84,0.046 C 56.765,87.691 50.943,87.626 49.935,87.374 z m -17.87,-3.293 c 1.023,0.243 8.417,0.321 8.647,0.091 0.09,-0.09 -0.068,-0.617 -0.35,-1.171 -0.75,-1.469 -1.29,-4.035 -1.291,-6.132 -0.002,-5.761 3.468,-10.264 9.413,-12.214 1.92,-0.629 2.37,-0.907 2.37,-1.462 0,-0.783 1.418,-3.935 2.53,-5.625 1.561,-2.37 3.627,-4.189 6.196,-5.456 6.434,-3.172 14.002,-2.169 18.64,2.469 l 1.645,1.644 1.802,-0.47 c 0.992,-0.259 2.127,-0.477 2.523,-0.485 0.908,-0.019 0.947,-0.665 0.177,-2.971 -2.41,-7.217 -8.925,-11.946 -16.486,-11.964 -2.705,-0.006 -4.967,0.497 -7.141,1.589 -2.015,1.012 -4.476,2.999 -5.695,4.597 -2.06,2.701 -1.95,2.618 -2.925,2.228 -3.072,-1.229 -6.621,-1.444 -9.445,-0.571 -5.228,1.615 -8.972,6.643 -9.196,12.349 -0.036,0.919 -0.148,1.803 -0.248,1.966 -0.101,0.162 -0.738,0.435 -1.417,0.606 -3.214,0.809 -5.775,2.87 -7.112,5.723 C 24.068,70.174 24,70.611 24,73.336 c 0,2.864 0.042,3.102 0.839,4.722 1.404,2.855 4.399,5.351 7.226,6.023 z"
     inkscape:connector-curvature="0"
     id="path4" />
</svg>
