<?xml version="1.0" encoding="UTF-8" standalone="no"?>
<!-- Created with Inkscape (http://www.inkscape.org/) -->

<svg
   xmlns:dc="http://purl.org/dc/elements/1.1/"
   xmlns:cc="http://creativecommons.org/ns#"
   xmlns:rdf="http://www.w3.org/1999/02/22-rdf-syntax-ns#"
   xmlns:svg="http://www.w3.org/2000/svg"
   xmlns="http://www.w3.org/2000/svg"
   xmlns:inkscape="http://www.inkscape.org/namespaces/inkscape"
   version="1.1"
   width="128"
   height="128"
   id="svg2">
  <metadata
     id="metadata10">
    <rdf:RDF>
      <cc:Work
         rdf:about="">
        <dc:format>image/svg+xml</dc:format>
        <dc:type
           rdf:resource="http://purl.org/dc/dcmitype/StillImage" />
        <dc:title />
      </cc:Work>
    </rdf:RDF>
  </metadata>
  <defs
     id="defs8" />
  <path
     d="m 55.62,24 c -0.51,4.123 -1.44,7.515 -2.791,10.183 -1.35,2.67 -3.141,4.954 -5.374,6.858 -2.233,1.903 -4.913,3.365 -8.046,4.384 v 11.398 h 8.76 v 28.036 c 0,3.653 0.383,6.44 1.149,8.363 0.765,1.924 2.141,3.741 4.124,5.449 1.982,1.708 4.378,3.023 7.189,3.946 2.809,0.921 6.039,1.383 9.694,1.383 3.22,0 6.215,-0.323 8.985,-0.969 2.768,-0.648 5.863,-1.773 9.281,-3.382 v -12.58 c -4.008,2.634 -8.037,3.951 -12.085,3.951 -2.279,0 -4.304,-0.53 -6.072,-1.593 -1.336,-0.784 -2.25,-1.836 -2.742,-3.153 C 67.2,84.957 66.956,81.979 66.956,77.342 V 56.823 H 85.953 V 44.264 H 66.956 V 24 H 55.62 z"
     inkscape:connector-curvature="0"
     id="path4"
     style="fill:#ffffff" />
</svg>
