<?xml version="1.0" encoding="UTF-8" standalone="no"?>
<!-- Created with Inkscape (http://www.inkscape.org/) -->

<svg
   xmlns:dc="http://purl.org/dc/elements/1.1/"
   xmlns:cc="http://creativecommons.org/ns#"
   xmlns:rdf="http://www.w3.org/1999/02/22-rdf-syntax-ns#"
   xmlns:svg="http://www.w3.org/2000/svg"
   xmlns="http://www.w3.org/2000/svg"
   xmlns:inkscape="http://www.inkscape.org/namespaces/inkscape"
   version="1.1"
   width="128"
   height="128"
   id="svg2">
  <metadata
     id="metadata10">
    <rdf:RDF>
      <cc:Work
         rdf:about="">
        <dc:format>image/svg+xml</dc:format>
        <dc:type
           rdf:resource="http://purl.org/dc/dcmitype/StillImage" />
      </cc:Work>
    </rdf:RDF>
  </metadata>
  <defs
     id="defs8" />
  <path
     d="M 64.003,36.053 C 79.415,36.053 91.95,48.591 91.95,64 91.95,79.409 79.412,91.947 64.003,91.947 48.591,91.947 36.056,79.409 36.056,64 36.053,48.591 48.591,36.053 64.003,36.053 M 64.003,24 C 41.908,24 24,41.908 24,64 c 0,22.092 17.908,40 40,40 22.092,0 40,-17.908 40,-40 C 104,41.908 86.092,24 64.003,24 z m 6.419,46.549 c -3.601,3.601 -9.436,3.601 -13.037,0 -3.601,-3.604 -3.601,-9.443 0,-13.041 6.777,-6.777 20.95,-7.916 20.95,-7.916 0,0 -1.133,14.18 -7.913,20.957 z"
     inkscape:connector-curvature="0"
     id="path4"
     style="fill:#ffffff" />
</svg>
