<?xml version="1.0" encoding="UTF-8" standalone="no"?>
<svg width="128" height="128" >
    <path
       fill="#D1AD5A"
       d="m 65.961673,22.514991 c -4.011416,0.02695 -8.001563,0.407128 -11.183125,1.149879 -18.036737,4.210749 -31.98068,18.372504 -34.563975,35.105093 -3.211988,20.804726 15.229563,38.19398 40.471189,38.19398 l 5.81703,0 c -0.02316,8.524507 -0.0676,8.522617 -0.0676,8.522617 0,0 3.474113,-0.9644 7.958958,-3.08888 C 92.377375,93.878951 105.45933,79.42969 107.7406,64.384073 110.47803,46.329876 99.264963,30.137908 79.850429,24.115802 76.32395,23.021939 71.119244,22.480346 65.961709,22.514991 z m 11.205671,21.960413 c 3.478487,-0.156076 6.648304,1.198532 8.545171,4.013299 1.88751,2.800867 2.167961,9.281169 2.299756,20.337055 l 0.09018,8.004051 -5.726843,0.02255 0,-11.273313 c 0,-13.991525 -0.891107,-16.161672 -6.651254,-16.211022 -3.424489,-0.02932 -8.375338,2.741353 -9.01865,6.583614 -0.182811,6.91707 -0.207594,13.959224 -0.09018,20.878174 l -4.667152,-0.02255 -0.135279,-13.775987 c 0,0 0.19305,-8.725826 -0.721492,-10.191074 -0.471083,-0.754753 -1.961556,-1.916463 -1.961556,-1.916463 -3.883777,-3.337506 -9.809485,-1.463309 -12.152631,3.697647 -1.122063,2.471419 -1.384903,4.753867 -1.39789,12.581016 l 0,9.559768 c 0,0 -3.764442,0.0069 -5.726842,0.06764 0,0 -0.04509,-7.948432 -0.04509,-16.413942 l 0,-15.399344 c 1.978072,-0.127144 5.771936,0 5.771936,0 0,0 0.188771,0.122452 0,5.163177 l 2.953607,-2.525222 c 5.045617,-4.318858 11.588251,-4.186775 15.376798,0.315653 l 1.80373,2.141929 3.269261,-2.502675 c 2.587638,-1.975192 5.47893,-3.012589 8.184423,-3.133981 z"
       />
</svg>

