<?xml version="1.0" encoding="UTF-8" standalone="no"?>
<!-- Created with Inkscape (http://www.inkscape.org/) -->

<svg
   xmlns:dc="http://purl.org/dc/elements/1.1/"
   xmlns:cc="http://creativecommons.org/ns#"
   xmlns:rdf="http://www.w3.org/1999/02/22-rdf-syntax-ns#"
   xmlns:svg="http://www.w3.org/2000/svg"
   xmlns="http://www.w3.org/2000/svg"
   xmlns:inkscape="http://www.inkscape.org/namespaces/inkscape"
   version="1.1"
   width="128"
   height="128"
   id="svg2">
  <metadata
     id="metadata10">
    <rdf:RDF>
      <cc:Work
         rdf:about="">
        <dc:format>image/svg+xml</dc:format>
        <dc:type
           rdf:resource="http://purl.org/dc/dcmitype/StillImage" />
      </cc:Work>
    </rdf:RDF>
  </metadata>
  <defs
     id="defs8" />
  <path
     d="M 47.612,81.501 H 99.931 C 93.802,94.174 81.466,102.71 67.647,104 h -7.332 c -4.383,-0.409 -8.636,-1.543 -12.701,-3.37 -0.002,-0.574 -0.002,-18.297 -0.002,-19.129 z M 80.492,27.594 C 75.274,25.219 69.724,24 63.998,24 c -4.766,0 -9.458,0.92 -13.967,2.614 1.057,0.961 29.098,26.462 30.46,27.705 0.001,-1.836 0.001,-26.161 0.001,-26.725 z M 45.775,28.446 C 32.343,35.352 24,48.971 24,64.084 c 0,3.442 0.518,6.941 1.455,10.411 C 26.541,73.507 60.218,42.849 60.912,42.214 60.235,41.598 46.228,28.86 45.775,28.446 z m -2.364,69.87 V 63.852 c -1.335,1.219 -16.068,14.635 -16.527,15.052 3.207,8.056 9.058,14.892 16.527,19.412 z m 41.3,-68.425 v 47.388 h 17.022 C 103.221,73.012 104,68.572 104,64.084 104,50.154 96.609,37.149 84.711,29.891 z"
     inkscape:connector-curvature="0"
     id="path4" />
</svg>
