<?xml version="1.0" encoding="UTF-8" standalone="no"?>
<!-- Created with Inkscape (http://www.inkscape.org/) -->

<svg
   xmlns:dc="http://purl.org/dc/elements/1.1/"
   xmlns:cc="http://creativecommons.org/ns#"
   xmlns:rdf="http://www.w3.org/1999/02/22-rdf-syntax-ns#"
   xmlns:svg="http://www.w3.org/2000/svg"
   xmlns="http://www.w3.org/2000/svg"
   xmlns:inkscape="http://www.inkscape.org/namespaces/inkscape"
   version="1.1"
   width="128"
   height="128"
   viewBox="0 0 128 128"
   id="Layer_1"
   xml:space="preserve"><metadata
     id="metadata8"><rdf:RDF><cc:Work
         rdf:about=""><dc:format>image/svg+xml</dc:format><dc:type
           rdf:resource="http://purl.org/dc/dcmitype/StillImage" /></cc:Work></rdf:RDF></metadata><defs
     id="defs6" /><path
     d="M 103.805,73.388 C 105.317,62.356 97.721,55.183 92.675,51.676 85.21,46.488 75.804,43.928 66.701,43.454 55.955,43.348 45.521,44.748 35.966,51.395 V 30.956 H 24.001 v 37.037 c -0.136,15.509 10.302,22.151 23.742,27.245 4.883,1.205 10.294,1.807 16.233,1.807 5.84,0 11.19,-0.602 16.049,-1.807 4.859,-1.205 9.055,-3.141 12.589,-5.267 3.534,-2.126 6.282,-4.613 8.245,-7.462 1.964,-2.849 2.945,-5.889 2.946,-9.121 l 0,0 z M 67.501,90.439 C 54.06,90.859 38.307,86.801 36.778,71.033 c -0.85,-8.762 7.877,-19.795 27.198,-20.475 7.944,-0.28 26.475,4.15 27.74,19.119 0.781,9.229 -10.774,20.343 -24.215,20.762 z"
     inkscape:connector-curvature="0"
     id="text2406" /></svg>