<?xml version="1.0" encoding="UTF-8" standalone="no"?>
<!-- Created with Inkscape (http://www.inkscape.org/) -->

<svg
   xmlns:dc="http://purl.org/dc/elements/1.1/"
   xmlns:cc="http://creativecommons.org/ns#"
   xmlns:rdf="http://www.w3.org/1999/02/22-rdf-syntax-ns#"
   xmlns:svg="http://www.w3.org/2000/svg"
   xmlns="http://www.w3.org/2000/svg"
   xmlns:inkscape="http://www.inkscape.org/namespaces/inkscape"
   version="1.1"
   width="128"
   height="128"
   id="svg2">
  <metadata
     id="metadata10">
    <rdf:RDF>
      <cc:Work
         rdf:about="">
        <dc:format>image/svg+xml</dc:format>
        <dc:type
           rdf:resource="http://purl.org/dc/dcmitype/StillImage" />
      </cc:Work>
    </rdf:RDF>
  </metadata>
  <defs
     id="defs8" />
  <path
     d="m 43.255,35.367 c 1.422,-0.838 2.91,-1.579 4.461,-2.223 3.272,-1.355 6.644,-2.198 10.117,-2.527 l 3.763,4.283 -1.716,4.407 c -3.389,0.678 -6.578,1.909 -9.569,3.694 l -0.647,0.4 -0.635,-5.803 -5.774,-2.231 z m -7.198,5.611 c -2.878,2.903 -5.171,6.193 -6.877,9.868 l 6.847,-1.445 4.168,5.092 c 0.144,-0.331 0.296,-0.661 0.457,-0.99 1.804,-3.692 4.325,-6.728 7.557,-9.109 l -0.625,-5.689 -5.971,-2.31 c -1.986,1.324 -3.839,2.852 -5.556,4.583 z m 34.091,45.018 -0.158,0.066 -2.107,9.257 8.04,6.799 0.279,-0.087 c 4.675,-1.473 8.865,-3.819 12.575,-7.031 3.653,-3.167 6.594,-6.899 8.825,-11.199 0.85,-1.639 1.586,-3.313 2.206,-5.025 L 88.96,81.113 82.495,73.286 c -0.42,1.118 -0.951,2.217 -1.591,3.297 -2.565,4.318 -6.151,7.457 -10.756,9.413 z m 19.966,-34.4 -11.705,1.387 c 2.479,2.624 4.098,5.794 4.858,9.508 0.641,3.132 0.573,6.141 -0.203,9.027 l 6.495,7.86 10.832,-2.33 c 0.68,-2.168 1.18,-4.391 1.503,-6.673 0.673,-4.746 0.54,-9.471 -0.4,-14.174 -0.947,-4.741 -2.659,-9.192 -5.136,-13.351 -0.587,-0.983 -1.21,-1.933 -1.873,-2.849 l -4.371,11.595 z m -61.74,1.13 c -1.784,4.495 -2.68,9.161 -2.689,13.996 -0.006,2.9 0.309,5.739 0.946,8.516 l 5.307,-6.27 7.387,1.685 c -0.308,-1.046 -0.552,-2.124 -0.73,-3.233 -0.628,-3.9 -0.312,-7.657 0.95,-11.269 l -4.122,-5.032 -6.996,1.475 -0.053,0.132 z m 4.145,17.972 -5.413,6.388 c 0.357,1.264 0.784,2.514 1.278,3.751 1.811,4.526 4.418,8.532 7.82,12.022 2.028,2.081 4.25,3.879 6.668,5.392 L 42.475,88.696 49.809,84.5 c -1.916,-1.163 -3.655,-2.627 -5.217,-4.394 -2.065,-2.34 -3.628,-4.914 -4.689,-7.721 l -7.384,-1.687 z m 11.556,18.88 0.396,9.618 c 1.117,0.62 2.271,1.184 3.467,1.692 4.463,1.9 9.116,2.926 13.965,3.084 4.155,0.15 8.226,-0.296 12.209,-1.338 l -7.963,-6.732 2.087,-9.191 c -3.82,1.243 -7.743,1.4 -11.768,0.467 -1.795,-0.413 -3.484,-1.012 -5.061,-1.796 l -7.332,4.196 z M 86.889,32.203 C 83.034,29.243 78.764,27.105 74.082,25.787 71.869,25.161 69.629,24.7 67.364,24.406 65.755,24.197 64.135,24.072 62.499,24.03 59.784,23.948 57.065,24.025 54.34,24.26 l 9.062,10.319 -4.196,10.767 c 1.073,-0.041 2.17,-0.008 3.294,0.1 4.968,0.51 9.418,2.258 13.347,5.243 0.378,0.287 0.742,0.582 1.094,0.887 l 12.044,-1.424 4.381,-11.623 c -1.886,-2.35 -4.044,-4.458 -6.477,-6.326 z"
     inkscape:connector-curvature="0"
     id="path4"
     style="fill:#ffffff;fill-rule:evenodd" />
</svg>
