<?xml version="1.0" encoding="UTF-8" standalone="no"?>
<!-- Created with Inkscape (http://www.inkscape.org/) -->

<svg
   xmlns:dc="http://purl.org/dc/elements/1.1/"
   xmlns:cc="http://creativecommons.org/ns#"
   xmlns:rdf="http://www.w3.org/1999/02/22-rdf-syntax-ns#"
   xmlns:svg="http://www.w3.org/2000/svg"
   xmlns="http://www.w3.org/2000/svg"
   xmlns:inkscape="http://www.inkscape.org/namespaces/inkscape"
   version="1.1"
   width="128"
   height="128"
   id="svg2">
  <metadata
     id="metadata10">
    <rdf:RDF>
      <cc:Work
         rdf:about="">
        <dc:format>image/svg+xml</dc:format>
        <dc:type
           rdf:resource="http://purl.org/dc/dcmitype/StillImage" />
      </cc:Work>
    </rdf:RDF>
  </metadata>
  <defs
     id="defs8" />
  <path
     d="m 24.906,67.408 c -0.167,0 -0.299,0.129 -0.321,0.313 L 24,72.164 l 0.585,4.367 c 0.022,0.184 0.154,0.313 0.321,0.313 0.161,0 0.293,-0.128 0.319,-0.311 l 0.693,-4.369 -0.693,-4.445 C 25.2,67.537 25.067,67.408 24.906,67.408 z m 3.29,-2.428 c -0.028,-0.191 -0.165,-0.323 -0.333,-0.323 -0.17,0 -0.31,0.136 -0.333,0.323 l -0.786,7.184 0.786,7.026 c 0.023,0.188 0.163,0.324 0.333,0.324 0.168,0 0.305,-0.133 0.332,-0.323 L 29.09,72.164 28.196,64.98 z m 12.393,-6.627 c -0.323,0 -0.589,0.264 -0.605,0.6 l -0.626,13.219 0.626,8.542 c 0.016,0.334 0.282,0.597 0.605,0.597 0.321,0 0.586,-0.264 0.606,-0.599 v 0.002 l 0.708,-8.543 -0.708,-13.219 c -0.02,-0.336 -0.285,-0.599 -0.606,-0.599 z m -6.414,4.594 c -0.248,0 -0.45,0.198 -0.47,0.462 l -0.706,8.758 0.706,8.473 c 0.019,0.262 0.222,0.46 0.47,0.46 0.245,0 0.447,-0.198 0.469,-0.46 l 0.802,-8.473 -0.802,-8.76 c -0.022,-0.262 -0.224,-0.46 -0.469,-0.46 z m 12.932,18.362 c 0.4,0 0.725,-0.323 0.742,-0.736 l 0.614,-8.399 -0.614,-17.598 c -0.016,-0.413 -0.342,-0.736 -0.742,-0.736 -0.403,0 -0.729,0.323 -0.743,0.737 l -0.544,17.597 0.544,8.402 c 0.014,0.41 0.34,0.733 0.743,0.733 z m 13.344,0.04 c 0.55,0 1.005,-0.454 1.015,-1.011 L 61.895,72.18 61.466,51.855 c -0.009,-0.557 -0.465,-1.011 -1.015,-1.011 -0.551,0 -1.007,0.454 -1.015,1.012 l -0.383,20.317 0.383,8.17 c 0.008,0.553 0.463,1.006 1.015,1.006 z m -6.723,-0.032 c 0.479,0 0.865,-0.385 0.878,-0.875 v 0.006 L 55.128,72.176 54.606,54.45 c -0.013,-0.491 -0.399,-0.874 -0.878,-0.874 -0.482,0 -0.869,0.384 -0.88,0.874 l -0.464,17.726 0.465,8.27 c 0.01,0.487 0.396,0.871 0.879,0.871 z M 37.369,81.24 c 0.285,0 0.515,-0.228 0.537,-0.528 l 0.755,-8.544 -0.755,-8.128 c -0.021,-0.3 -0.251,-0.527 -0.537,-0.527 -0.289,0 -0.519,0.228 -0.538,0.53 l -0.665,8.125 0.665,8.543 c 0.019,0.301 0.249,0.529 0.538,0.529 z m -6.364,-0.469 c 0.208,0 0.376,-0.165 0.401,-0.392 l 0.849,-8.214 -0.848,-8.525 c -0.025,-0.228 -0.193,-0.392 -0.402,-0.392 -0.211,0 -0.38,0.166 -0.401,0.392 l -0.747,8.525 0.747,8.213 c 0.022,0.229 0.191,0.393 0.401,0.393 z M 57.077,54.156 c -0.521,0 -0.938,0.414 -0.948,0.944 l -0.423,17.078 0.423,8.218 c 0.01,0.523 0.427,0.937 0.948,0.937 0.519,0 0.934,-0.413 0.946,-0.943 v 0.007 L 58.498,72.179 58.023,55.098 C 58.011,54.57 57.596,54.156 57.077,54.156 z M 43.835,81.327 c 0.36,0 0.656,-0.293 0.674,-0.668 l 0.66,-8.486 -0.66,-16.242 c -0.018,-0.375 -0.314,-0.668 -0.674,-0.668 -0.363,0 -0.659,0.293 -0.675,0.668 l -0.585,16.242 0.586,8.489 c 0.015,0.371 0.311,0.665 0.674,0.665 z m 7.379,-0.801 v -0.004 l 0.568,-8.346 -0.568,-18.191 c -0.013,-0.452 -0.37,-0.806 -0.81,-0.806 -0.442,0 -0.798,0.354 -0.811,0.806 l -0.504,18.19 0.505,8.35 c 0.012,0.447 0.368,0.801 0.81,0.801 0.44,0 0.795,-0.354 0.81,-0.803 v 0.003 z M 94.161,61.69 c -1.349,0 -2.635,0.273 -3.806,0.764 -0.783,-8.868 -8.22,-15.825 -17.291,-15.825 -2.22,0 -4.383,0.437 -6.295,1.176 -0.743,0.287 -0.94,0.583 -0.947,1.157 v 31.231 c 0.008,0.602 0.475,1.104 1.063,1.163 0.025,0.003 27.1,0.016 27.276,0.016 5.434,0 9.839,-4.406 9.839,-9.841 0,-5.436 -4.405,-9.841 -9.839,-9.841 z M 63.811,48.934 c -0.591,0 -1.076,0.486 -1.085,1.081 l -0.444,22.167 0.444,8.045 c 0.008,0.587 0.493,1.072 1.084,1.072 0.589,0 1.075,-0.485 1.083,-1.081 v 0.009 L 65.375,72.181 64.893,50.013 C 64.885,49.42 64.4,48.934 63.811,48.934 z"
     inkscape:connector-curvature="0"
     id="path4"
     style="fill:#ffffff" />
</svg>
