<?xml version="1.0" encoding="UTF-8" standalone="no"?>
<!-- Created with Inkscape (http://www.inkscape.org/) -->

<svg
   xmlns:dc="http://purl.org/dc/elements/1.1/"
   xmlns:cc="http://creativecommons.org/ns#"
   xmlns:rdf="http://www.w3.org/1999/02/22-rdf-syntax-ns#"
   xmlns:svg="http://www.w3.org/2000/svg"
   xmlns="http://www.w3.org/2000/svg"
   xmlns:inkscape="http://www.inkscape.org/namespaces/inkscape"
   version="1.1"
   width="128"
   height="128"
   id="svg2">
  <metadata
     id="metadata10">
    <rdf:RDF>
      <cc:Work
         rdf:about="">
        <dc:format>image/svg+xml</dc:format>
        <dc:type
           rdf:resource="http://purl.org/dc/dcmitype/StillImage" />
      </cc:Work>
    </rdf:RDF>
  </metadata>
  <defs
     id="defs8" />
  <path
     d="m 71,42.804 19,-4.913 v 6.206 l -19,4.911 v -6.204 z m -33,1.293 19,4.911 V 42.804 L 38,37.89 v 6.207 z m 33,17.509 19,-4.911 v -6.203 l -19,4.912 v 6.202 z M 38,56.695 57,61.606 V 55.403 L 38,50.491 v 6.204 z m 33,17.512 19,-4.911 v -6.204 l -19,4.912 v 6.203 z M 38,69.296 57,74.207 V 68.004 L 38,63.092 v 6.204 z M 100,28.998 V 74.18 c 0,2.791 -2.11,5.443 -4.8,6.171 l -27.546,7.482 c 0.546,2.405 1.614,4.371 2.644,5.79 0.658,0.887 1.578,1.848 3.057,2.634 0.316,0.169 0.289,0.341 -0.062,0.405 l -4.422,0.857 -0.634,6.138 c -0.037,0.356 -0.284,0.452 -0.54,0.202 -2.305,-2.244 -3.991,-5.092 -4.968,-7.935 -1.015,-2.956 -1.558,-5.543 -1.808,-7.959 L 32.802,80.351 C 30.111,79.623 28,76.971 28,74.18 V 28.998 C 28,26.152 30.18,24 32.95,24 c 0.474,0 0.989,0.063 1.463,0.195 l 24.448,6.603 C 59.574,31.015 60,31.289 61,31.595 v -0.007 c 0,0 1.412,0.653 3.161,2.294 1.283,-1.22 2.989,-2.453 5.319,-3.088 L 93.567,24.195 C 94.042,24.063 94.595,24 95.066,24 97.84,24 100,26.152 100,28.998 z M 34.523,74.578 61,81.722 V 39.072 C 60,38.219 58.812,37.053 57.108,36.521 L 34,30.315 V 74.18 c 0,0.115 0.405,0.348 0.523,0.398 z M 93.842,74.167 93.843,30.315 70.988,36.554 C 69.1,37.068 67.7,38.458 67.07,39.301 67.102,39.547 67,39.796 67,40.051 v 41.68 l 26.422,-7.157 c 0.106,-0.046 0.403,-0.279 0.42,-0.407 z"
     inkscape:connector-curvature="0"
     id="path4"
     style="fill:#ffffff" />
</svg>
