<?xml version="1.0" encoding="UTF-8" standalone="no"?>
<!-- Created with Inkscape (http://www.inkscape.org/) -->

<svg
   xmlns:dc="http://purl.org/dc/elements/1.1/"
   xmlns:cc="http://creativecommons.org/ns#"
   xmlns:rdf="http://www.w3.org/1999/02/22-rdf-syntax-ns#"
   xmlns:svg="http://www.w3.org/2000/svg"
   xmlns="http://www.w3.org/2000/svg"
   xmlns:inkscape="http://www.inkscape.org/namespaces/inkscape"
   version="1.1"
   width="128"
   height="128"
   id="svg2">
  <metadata
     id="metadata10">
    <rdf:RDF>
      <cc:Work
         rdf:about="">
        <dc:format>image/svg+xml</dc:format>
        <dc:type
           rdf:resource="http://purl.org/dc/dcmitype/StillImage" />
      </cc:Work>
    </rdf:RDF>
  </metadata>
  <defs
     id="defs8" />
  <path
     d="M 92.524,24 H 51.977 c -5.563,0 -9.2,2.692 -10.444,8.602 L 28.734,93.367 C 27.144,100.526 30.203,104 37.131,104 h 40.091 c 3.626,0 5.222,-0.535 6.476,-1.784 1.816,-1.931 2.718,-6.151 2.718,-8.088 C 86.416,91.069 84.039,89 79.378,89 H 46.221 l 4.011,-19 h 25.889 c 3.406,0 4.881,-0.617 6.014,-1.751 1.706,-1.816 2.509,-5.731 2.509,-7.431 C 84.644,57.979 82.366,56 78.052,56 H 53.187 l 3.901,-17 h 33.268 c 3.753,0 5.227,-0.72 6.476,-2.084 1.816,-1.816 2.845,-5.999 2.845,-7.82 C 99.678,25.915 97.174,24 92.524,24 z"
     inkscape:connector-curvature="0"
     id="path4"
     style="fill:#ffffff" />
</svg>
