<?xml version="1.0" encoding="UTF-8" standalone="no"?>
<!-- Created with Inkscape (http://www.inkscape.org/) -->

<svg
   xmlns:dc="http://purl.org/dc/elements/1.1/"
   xmlns:cc="http://creativecommons.org/ns#"
   xmlns:rdf="http://www.w3.org/1999/02/22-rdf-syntax-ns#"
   xmlns:svg="http://www.w3.org/2000/svg"
   xmlns="http://www.w3.org/2000/svg"
   xmlns:inkscape="http://www.inkscape.org/namespaces/inkscape"
   version="1.1"
   width="128"
   height="128"
   id="svg2">
  <metadata
     id="metadata10">
    <rdf:RDF>
      <cc:Work
         rdf:about="">
        <dc:format>image/svg+xml</dc:format>
        <dc:type
           rdf:resource="http://purl.org/dc/dcmitype/StillImage" />
      </cc:Work>
    </rdf:RDF>
  </metadata>
  <defs
     id="defs8" />
  <path
     d="M 57.607,91.661 C 44.364,92.967 32.931,86.982 32.07,78.287 31.21,69.593 41.253,61.485 54.494,60.176 67.739,58.865 79.171,64.852 80.031,73.544 80.889,82.242 70.852,90.352 57.607,91.661 M 84.096,62.797 C 82.97,62.46 82.197,62.23 82.787,60.75 c 1.277,-3.214 1.41,-5.987 0.024,-7.965 -2.597,-3.71 -9.703,-3.51 -17.847,-0.099 0,-0.005 -2.557,1.119 -1.904,-0.91 1.253,-4.028 1.064,-7.401 -0.886,-9.349 C 57.756,38.006 46.005,42.595 35.927,52.668 28.382,60.215 24,68.214 24,75.13 c 0,13.229 16.965,21.272 33.563,21.272 21.757,0 36.23,-12.641 36.23,-22.677 0,-6.063 -5.108,-9.505 -9.697,-10.928 M 98.544,38.587 C 93.29,32.762 85.54,30.541 78.386,32.062 h -0.002 c -1.654,0.354 -2.71,1.983 -2.355,3.635 0.352,1.652 1.98,2.71 3.635,2.356 5.089,-1.081 10.596,0.501 14.333,4.638 3.731,4.138 4.745,9.782 3.146,14.729 l 0.001,10e-4 c -0.521,1.613 0.36,3.336 1.974,3.858 1.608,0.52 3.335,-0.361 3.856,-1.968 l 10e-4,-0.012 c 2.242,-6.96 0.826,-14.893 -4.431,-20.712 m -8.069,7.282 c -2.557,-2.836 -6.333,-3.914 -9.818,-3.173 -1.425,0.303 -2.333,1.705 -2.027,3.132 0.305,1.419 1.705,2.332 3.126,2.023 v 0.002 c 1.704,-0.361 3.551,0.165 4.803,1.549 1.251,1.388 1.588,3.278 1.05,4.937 h 0.002 c -0.447,1.384 0.311,2.871 1.696,3.321 1.387,0.444 2.873,-0.312 3.32,-1.699 1.095,-3.393 0.411,-7.257 -2.152,-10.092 M 58.338,75.913 c -0.463,0.793 -1.488,1.174 -2.289,0.843 -0.79,-0.325 -1.036,-1.21 -0.588,-1.989 0.462,-0.774 1.446,-1.152 2.233,-0.84 0.799,0.293 1.086,1.189 0.644,1.986 m -4.221,5.417 c -1.28,2.044 -4.024,2.939 -6.09,1.995 -2.036,-0.927 -2.637,-3.301 -1.355,-5.293 1.265,-1.984 3.915,-2.868 5.967,-2.009 2.074,0.884 2.737,3.242 1.478,5.307 m 4.814,-14.464 c -6.302,-1.64 -13.426,1.501 -16.163,7.054 -2.788,5.664 -0.091,11.951 6.275,14.007 6.596,2.126 14.369,-1.132 17.073,-7.246 2.665,-5.976 -0.664,-12.129 -7.185,-13.815"
     inkscape:connector-curvature="0"
     id="path4"
     style="fill:#ffffff" />
</svg>
