<?xml version="1.0" encoding="UTF-8" standalone="no"?>
<!-- Created with Inkscape (http://www.inkscape.org/) -->

<svg
   xmlns:dc="http://purl.org/dc/elements/1.1/"
   xmlns:cc="http://creativecommons.org/ns#"
   xmlns:rdf="http://www.w3.org/1999/02/22-rdf-syntax-ns#"
   xmlns:svg="http://www.w3.org/2000/svg"
   xmlns="http://www.w3.org/2000/svg"
   xmlns:inkscape="http://www.inkscape.org/namespaces/inkscape"
   version="1.1"
   width="128"
   height="128"
   id="svg2">
  <metadata
     id="metadata10">
    <rdf:RDF>
      <cc:Work
         rdf:about="">
        <dc:format>image/svg+xml</dc:format>
        <dc:type
           rdf:resource="http://purl.org/dc/dcmitype/StillImage" />
      </cc:Work>
    </rdf:RDF>
  </metadata>
  <defs
     id="defs8" />
  <path
     d="m 103.875,47.226 h -13 v 13 h -4 v -13 h -13 v -3 h 13 v -14 h 4 v 14 h 13 v 3 z m -37.75,35.469 c 0,7.56 -7.319,15.079 -20.569,15.079 -11.623,0 -21.43,-4.729 -21.43,-12.289 0,-7.676 8.946,-15.079 20.569,-15.079 l 3.629,-0.035 c -1.591,-1.547 -2.849,-3.444 -2.849,-5.782 0,-1.387 0.443,-2.723 1.063,-3.909 -0.632,0.045 -1.277,0.059 -1.941,0.059 -9.546,0 -15.943,-6.773 -15.943,-15.188 0,-8.235 8.832,-15.325 18.215,-15.325 H 67.8 l -4.684,3 H 56.48 c 4.402,2 6.747,6.999 6.747,12.264 0,4.423 -2.45,8.312 -5.911,11.017 -3.377,2.639 -4.018,3.787 -4.018,6.031 0,1.914 3.618,5.193 5.51,6.532 5.528,3.911 7.317,7.564 7.317,13.625 z M 55.702,46.076 C 54.771,38.995 49.644,33.313 44.253,33.151 38.861,32.99 35.245,38.41 36.176,45.492 c 0.931,7.081 6.056,12.952 11.449,13.114 5.39,0.16 9.007,-5.448 8.077,-12.53 z m 5.042,37.473 c 0,-0.737 -0.09,-1.457 -0.256,-2.158 -0.882,-3.456 -4.011,-5.17 -8.372,-8.203 -1.586,-0.513 -3.333,-0.815 -5.208,-0.835 -8.034,-0.087 -15.231,4.897 -15.231,10.884 0,6.109 5.802,11.194 13.836,11.194 11.294,0.001 15.231,-4.773 15.231,-10.882 z"
     inkscape:connector-curvature="0"
     id="path4"
     style="fill:#cc3732" />
</svg>
