<?xml version="1.0" encoding="UTF-8" standalone="no"?>
<!-- Created with Inkscape (http://www.inkscape.org/) -->

<svg
   xmlns:dc="http://purl.org/dc/elements/1.1/"
   xmlns:cc="http://creativecommons.org/ns#"
   xmlns:rdf="http://www.w3.org/1999/02/22-rdf-syntax-ns#"
   xmlns:svg="http://www.w3.org/2000/svg"
   xmlns="http://www.w3.org/2000/svg"
   xmlns:inkscape="http://www.inkscape.org/namespaces/inkscape"
   version="1.1"
   width="128"
   height="128"
   id="svg2">
  <metadata
     id="metadata10">
    <rdf:RDF>
      <cc:Work
         rdf:about="">
        <dc:format>image/svg+xml</dc:format>
        <dc:type
           rdf:resource="http://purl.org/dc/dcmitype/StillImage" />
      </cc:Work>
    </rdf:RDF>
  </metadata>
  <defs
     id="defs8" />
  <path
     d="m 93.269653,27.743257 c -3.317927,0 -6.234685,2.02165 -7.477954,4.909769 l -15.106978,-3.55014 a 1.6619338,1.6619338 0 0 0 -0.528744,-0.07554 1.6619338,1.6619338 0 0 0 -1.435163,1.208558 l -5.816187,18.430513 c -10.030502,0.152327 -19.120696,2.81683 -25.908467,7.175815 -1.734378,-1.504206 -3.965787,-2.492651 -6.420466,-2.492651 -5.422704,0 -9.819535,4.487758 -9.819535,9.89507 0,3.556028 1.828693,6.725175 4.683162,8.459908 -0.137776,0.890267 -0.226484,1.800289 -0.226484,2.719256 0,7.351727 4.541593,13.928334 11.556839,18.506048 7.01527,4.577714 16.537718,7.326887 27.041491,7.326887 10.505272,0 20.025858,-2.749176 27.041491,-7.326887 7.015655,-4.577711 11.632372,-11.154321 11.632372,-18.506048 0,-0.868265 -0.10152,-1.725437 -0.22648,-2.568187 2.99239,-1.697813 4.98529,-4.946897 4.98529,-8.610977 0,-5.40657 -4.3944,-9.89507 -9.819527,-9.89507 -2.537779,0 -4.813059,1.050098 -6.571535,2.643721 -0.01692,-0.01161 -0.05777,0.0116 -0.07541,0 -6.426508,-4.178015 -14.954241,-6.834664 -24.39777,-7.25135 l 5.060838,-16.013396 13.74735,3.248 c 0.04061,4.416572 3.650957,8.006698 8.082233,8.006698 4.449622,0 8.157771,-3.630362 8.157771,-8.082233 0,-4.454132 -3.709092,-8.157769 -8.157771,-8.157769 z m 0,3.323536 c 2.651625,0 4.834233,2.175997 4.834233,4.834233 0,2.654448 -2.18355,4.758698 -4.834233,4.758698 -2.661994,0 -4.758698,-2.103308 -4.758698,-4.758698 0,-2.659178 2.095761,-4.834233 4.758698,-4.834233 z M 63.811046,51.989957 c 9.919314,0 18.861026,2.64253 25.228653,6.79814 l 0.981955,0.679815 c 0.02901,0.02055 0.04664,0.05504 0.07541,0.07554 0.547621,0.3913 1.082215,0.794895 1.586233,1.208558 1.032156,0.847081 1.958589,1.715014 2.794791,2.643721 0.02418,0.02653 0.05172,0.04895 0.07541,0.07554 0.04714,0.05267 0.104663,0.09816 0.15107,0.15107 0.37487,0.428032 0.726754,0.917269 1.057489,1.359628 0.371534,0.496897 0.743891,0.997824 1.057488,1.510698 0.627193,1.025749 1.129712,2.020584 1.510697,3.096931 0.02611,0.07411 0.05052,0.152254 0.07541,0.226604 0.156387,0.464884 0.269726,0.963475 0.377675,1.435163 0.01692,0.07626 0.05922,0.150127 0.07541,0.226604 l 0.151069,0.755349 c 0.01209,0.07522 -0.0097,0.151191 0,0.226606 0.09282,0.656965 0.15107,1.293855 0.15107,1.963906 0,5.975649 -3.754048,11.556379 -10.121675,15.711258 -6.367604,4.154878 -15.309267,6.79814 -25.228653,6.79814 -9.917816,0 -18.86139,-2.643267 -25.228654,-6.79814 -6.367222,-4.154878 -10.046121,-9.735613 -10.046121,-15.711262 0,-0.746956 0.03795,-1.459994 0.151069,-2.190512 0.05415,-0.350484 0.146961,-0.711372 0.226484,-1.057488 0.07034,-0.300211 0.137051,-0.609029 0.226483,-0.906419 0.02876,-0.09737 0.04471,-0.205189 0.07542,-0.302139 0.218508,-0.688015 0.513541,-1.373353 0.830885,-2.039443 0.256431,-0.538212 0.587552,-1.064176 0.906418,-1.586232 0.318576,-0.516686 0.680297,-1.010711 1.057488,-1.510698 0.200138,-0.265238 0.388165,-0.570819 0.604279,-0.830884 0.142853,-0.171011 0.303445,-0.360116 0.45321,-0.528744 0.141885,-0.160448 0.305185,-0.29499 0.45321,-0.453209 0.335157,-0.357077 0.691029,-0.712155 1.057488,-1.057489 0.975814,-0.919995 2.068229,-1.821298 3.248,-2.643721 l 0.755345,-0.528751 c 6.367289,-4.155607 15.310935,-6.79814 25.228654,-6.79814 z m -33.235352,4.683164 c 1.343191,0 2.518104,0.491431 3.55014,1.208558 -3.551058,2.843573 -6.17363,6.269974 -7.629024,10.04614 -1.363834,-1.174532 -2.417116,-2.729896 -2.417116,-4.683163 0,-3.614575 2.902884,-6.571535 6.496,-6.571535 z m 66.848378,0 c 3.596788,0 6.495998,2.956218 6.495998,6.571535 0,2.093448 -1.10842,3.744085 -2.64372,4.909768 -1.424479,-3.792072 -4.100178,-7.179827 -7.629023,-10.046141 1.085043,-0.818136 2.323211,-1.435162 3.776745,-1.435162 z m -46.453958,8.762047 c -2.389925,0 -4.305489,1.915565 -4.305489,4.305489 0,2.386902 1.915564,4.305489 4.305489,4.305489 2.38388,0 4.305488,-1.918587 4.305488,-4.305489 0,-2.389924 -1.921608,-4.305489 -4.305488,-4.305489 z m 26.059537,0 c -2.383857,0 -4.305488,1.915565 -4.305488,4.305489 0,2.386902 1.921632,4.305489 4.305488,4.305489 2.386903,0 4.305489,-1.918587 4.305489,-4.305489 0,-2.389924 -1.918587,-4.305489 -4.305489,-4.305489 z M 50.74351,83.865681 a 1.6619338,1.6619338 0 0 0 -0.679814,2.870326 c 3.717306,3.717298 9.238823,4.288255 13.671815,4.305489 0.07179,2.78e-4 0.15542,0 0.226482,0 a 1.6619338,1.6619338 0 0 0 0.07542,0 c 0.0713,0 0.154696,2.8e-4 0.226484,0 4.43565,-0.01716 9.952598,-0.589754 13.671815,-4.305489 a 1.6619338,1.6619338 0 0 0 -1.359627,-2.870326 1.6619338,1.6619338 0 0 0 -0.981955,0.528744 c -2.620685,2.618243 -7.232205,3.300093 -11.330233,3.323536 -0.07445,4.25e-4 -0.15252,0 -0.226484,0 a 1.6619338,1.6619338 0 0 0 -0.07542,0 c -0.07396,0 -0.152277,4.25e-4 -0.226482,0 -4.095273,-0.02345 -8.713537,-0.706855 -11.330235,-3.323536 a 1.6619338,1.6619338 0 0 0 -1.510697,-0.528744 1.6619338,1.6619338 0 0 0 -0.15107,0 z"
     inkscape:connector-curvature="0"
     id="path4"
     style="fill:#ffffff" />
</svg>
