<?xml version="1.0" encoding="UTF-8" standalone="no"?>
<!-- Created with Inkscape (http://www.inkscape.org/) -->

<svg
   xmlns:dc="http://purl.org/dc/elements/1.1/"
   xmlns:cc="http://creativecommons.org/ns#"
   xmlns:rdf="http://www.w3.org/1999/02/22-rdf-syntax-ns#"
   xmlns:svg="http://www.w3.org/2000/svg"
   xmlns="http://www.w3.org/2000/svg"
   xmlns:inkscape="http://www.inkscape.org/namespaces/inkscape"
   version="1.1"
   width="128"
   height="128"
   id="svg2">
  <metadata
     id="metadata36">
    <rdf:RDF>
      <cc:Work
         rdf:about="">
        <dc:format>image/svg+xml</dc:format>
        <dc:type
           rdf:resource="http://purl.org/dc/dcmitype/StillImage" />
      </cc:Work>
    </rdf:RDF>
  </metadata>
  <defs
     id="defs4">
    <filter
       filterUnits="userSpaceOnUse"
       x="24"
       y="42.998001"
       width="80"
       height="42.002998"
       color-interpolation-filters="sRGB"
       id="filter6">
      <feColorMatrix
         id="feColorMatrix8"
         values="1 0 0 0 0 0 1 0 0 0 0 0 1 0 0 0 0 0 1 0" />
    </filter>
  </defs>
  <mask
     id="b">
    <linearGradient
       x1="55.283001"
       y1="54.619999"
       x2="44.773998"
       y2="48.551998"
       id="a"
       gradientUnits="userSpaceOnUse">
      <stop
         id="stop12"
         style="stop-color:#231f20;stop-opacity:1"
         offset="0" />
      <stop
         id="stop14"
         style="stop-color:#2d292a;stop-opacity:1"
         offset="0.03" />
      <stop
         id="stop16"
         style="stop-color:#6c696a;stop-opacity:1"
         offset="0.227" />
      <stop
         id="stop18"
         style="stop-color:#a19f9f;stop-opacity:1"
         offset="0.41600001" />
      <stop
         id="stop20"
         style="stop-color:#c9c8c9;stop-opacity:1"
         offset="0.58999997" />
      <stop
         id="stop22"
         style="stop-color:#e7e6e6;stop-opacity:1"
         offset="0.74699998" />
      <stop
         id="stop24"
         style="stop-color:#f9f9f9;stop-opacity:1"
         offset="0.88200003" />
      <stop
         id="stop26"
         style="stop-color:#000000;stop-opacity:1"
         offset="0.97799999" />
    </linearGradient>
    <path
       d="m 40.566,56.082 c 1.5,-0.898 3.214,-1.344 5.198,-1.344 0.19,0 0.391,0.002 0.587,0.018 2.994,0.124 5.305,1.081 7.146,2.959 l 5.785,-10.669 c -1.435,-0.991 -3.063,-1.837 -4.869,-2.511 -2.059,-0.779 -4.239,-1.243 -6.494,-1.428 l -7.353,12.975 z"
       inkscape:connector-curvature="0"
       id="path28"
       style="fill:url(#a)" />
    <path
       d="m 47.911,43.099 c -0.302,-0.025 -0.606,-0.062 -0.909,-0.077 -4.086,-0.16 -7.86,0.597 -11.271,2.277 -3.464,1.706 -6.27,4.209 -8.344,7.425 -2.071,3.209 -3.202,6.78 -3.364,10.608 -0.251,5.762 1.65,10.807 5.642,14.992 3.951,4.155 9.075,6.388 15.235,6.653 3.934,0.155 7.55,-0.472 10.763,-1.883 0.721,-0.322 1.428,-0.69 2.139,-1.106 0.391,-0.229 0.76,-0.478 1.126,-0.737 l 0.271,-0.19 c 0.198,-0.13 0.397,-0.268 0.454,-0.319 0.547,-0.401 1.058,-0.845 1.555,-1.306 l 0.175,-0.159 c 0.295,-0.285 0.583,-0.577 0.862,-0.88 l 1.034,-1.199 c 0.166,-0.191 0.327,-0.384 0.479,-0.595 l 0.106,-0.16 0.13,-0.177 c 1.539,-2.655 6.602,-12.463 6.602,-12.463 l -0.005,-0.018 0.301,-0.591 0.247,-0.463 c 0.74,-1.382 1.373,-2.436 2.078,-3.464 2.014,-2.925 4.693,-4.364 8.441,-4.519 2.911,-0.115 5.302,0.66 7.26,2.41 1.956,1.748 2.911,3.774 3.028,6.379 0.069,1.686 -0.283,3.257 -1.085,4.792 -0.786,1.513 -1.872,2.671 -3.317,3.543 -1.485,0.908 -3.161,1.387 -5.123,1.468 -3.078,0.164 -5.643,-0.132 -7.817,-2.146 0,0 -2.1,-1.981 -3.476,-3.612 l -5.573,11.047 c 0.954,0.754 2.418,1.885 3.471,2.578 1.034,0.721 2.133,1.364 3.317,1.887 2.877,1.262 6.086,1.908 9.541,1.908 0.402,0 0.81,-0.012 1.224,-0.025 6.154,-0.265 11.282,-2.499 15.231,-6.653 3.99,-4.185 5.886,-9.23 5.642,-14.992 -0.16,-3.832 -1.296,-7.402 -3.364,-10.604 -2.079,-3.224 -4.886,-5.723 -8.351,-7.433 -3.097,-1.525 -6.519,-2.297 -10.171,-2.297 -0.362,0 -0.729,0.008 -1.11,0.024 -2.564,0.118 -5.047,0.622 -7.379,1.501 -2.348,0.88 -4.397,2.031 -6.075,3.413 -0.339,0.277 -0.712,0.621 -1.108,0.999 l -0.289,0.293 -0.393,0.426 0.008,10e-4 -0.186,0.183 -0.09,0.103 -0.466,0.507 c -0.346,0.398 -0.678,0.796 -0.986,1.19 l -0.015,-0.016 c -0.642,0.802 -1.235,1.63 -1.668,2.379 -0.295,0.477 -0.582,0.965 -0.861,1.462 l -3.821,7.945 0.004,0.005 -0.2,0.399 -0.426,0.884 c -0.833,1.739 -1.732,3.479 -2.735,4.911 -2.396,2.703 -5.126,3.919 -8.716,3.732 -1.958,-0.081 -3.639,-0.56 -5.125,-1.468 -1.443,-0.873 -2.53,-2.034 -3.311,-3.536 -0.806,-1.542 -1.159,-3.118 -1.088,-4.805 0.111,-2.597 1.073,-4.625 3.022,-6.369 0.467,-0.417 0.962,-0.779 1.479,-1.087 0.005,-0.002 0.054,-0.107 0.211,-0.111 l 7.302,-12.856"
       inkscape:connector-curvature="0"
       id="path30" />
  </mask>
  <path
     d="m 100.615,52.728 c -2.079,-3.224 -4.886,-5.723 -8.351,-7.433 -3.097,-1.525 -6.519,-2.297 -10.171,-2.297 -0.362,0 -0.729,0.008 -1.11,0.024 -2.564,0.118 -5.047,0.622 -7.379,1.501 -2.348,0.88 -4.397,2.031 -6.075,3.413 -0.339,0.277 -0.712,0.621 -1.108,0.999 l -0.289,0.293 -0.393,0.426 0.008,10e-4 -0.186,0.183 -0.09,0.103 -0.466,0.507 c -0.346,0.398 -0.678,0.796 -0.986,1.19 l -0.015,-0.016 c -0.642,0.802 -1.235,1.63 -1.668,2.379 -0.295,0.477 -0.582,0.965 -0.861,1.462 l -3.821,7.945 0.004,0.005 -0.2,0.399 -0.426,0.884 c -0.833,1.739 -1.732,3.479 -2.735,4.911 -2.396,2.703 -5.126,3.919 -8.716,3.732 -1.958,-0.081 -3.639,-0.56 -5.125,-1.468 -1.443,-0.873 -2.53,-2.034 -3.311,-3.536 -0.806,-1.542 -1.159,-3.118 -1.088,-4.805 0.111,-2.597 1.073,-4.625 3.022,-6.369 0.467,-0.417 0.962,-0.779 1.479,-1.087 1.5,-0.898 3.214,-1.343 5.199,-1.343 0.191,0 0.391,0.002 0.586,0.017 2.994,0.124 5.306,1.081 7.147,2.959 l 5.785,-10.669 c -1.435,-0.992 -3.064,-1.836 -4.87,-2.512 -2.059,-0.777 -4.239,-1.242 -6.493,-1.427 -0.302,-0.025 -0.606,-0.062 -0.909,-0.077 -4.086,-0.16 -7.86,0.597 -11.271,2.277 -3.464,1.706 -6.27,4.209 -8.344,7.425 -2.071,3.209 -3.202,6.78 -3.364,10.608 -0.251,5.762 1.65,10.807 5.642,14.992 3.951,4.155 9.075,6.388 15.235,6.653 3.934,0.155 7.55,-0.472 10.763,-1.883 0.721,-0.322 1.428,-0.69 2.139,-1.106 0.391,-0.229 0.76,-0.478 1.126,-0.737 l 0.271,-0.19 c 0.198,-0.13 0.397,-0.268 0.454,-0.319 0.547,-0.401 1.058,-0.845 1.555,-1.306 l 0.175,-0.159 c 0.295,-0.285 0.583,-0.577 0.862,-0.88 l 1.034,-1.199 c 0.166,-0.191 0.327,-0.384 0.479,-0.595 l 0.106,-0.16 0.13,-0.177 c 1.539,-2.655 6.602,-12.463 6.602,-12.463 l -0.005,-0.018 0.301,-0.591 0.247,-0.463 c 0.74,-1.382 1.373,-2.436 2.078,-3.464 2.014,-2.925 4.693,-4.364 8.441,-4.519 2.911,-0.115 5.302,0.66 7.26,2.41 1.956,1.748 2.911,3.774 3.028,6.379 0.069,1.686 -0.283,3.257 -1.085,4.792 -0.786,1.513 -1.872,2.671 -3.317,3.543 -1.485,0.908 -3.161,1.387 -5.123,1.468 -3.078,0.164 -5.643,-0.132 -7.817,-2.146 0,0 -2.1,-1.981 -3.476,-3.612 l -5.573,11.047 c 0.954,0.754 2.418,1.885 3.471,2.578 1.034,0.721 2.133,1.364 3.317,1.887 2.877,1.262 6.086,1.908 9.541,1.908 0.402,0 0.81,-0.012 1.224,-0.025 6.154,-0.265 11.282,-2.499 15.231,-6.653 3.99,-4.185 5.886,-9.23 5.642,-14.992 -0.163,-3.832 -1.299,-7.402 -3.367,-10.604 z"
     inkscape:connector-curvature="0"
     mask="url(#b)"
     id="path32" />
</svg>
