<?xml version="1.0" encoding="UTF-8" standalone="no"?>
<!-- Created with Inkscape (http://www.inkscape.org/) -->

<svg
   xmlns:dc="http://purl.org/dc/elements/1.1/"
   xmlns:cc="http://creativecommons.org/ns#"
   xmlns:rdf="http://www.w3.org/1999/02/22-rdf-syntax-ns#"
   xmlns:svg="http://www.w3.org/2000/svg"
   xmlns="http://www.w3.org/2000/svg"
   xmlns:inkscape="http://www.inkscape.org/namespaces/inkscape"
   version="1.1"
   width="128"
   height="128"
   id="svg2">
  <metadata
     id="metadata10">
    <rdf:RDF>
      <cc:Work
         rdf:about="">
        <dc:format>image/svg+xml</dc:format>
        <dc:type
           rdf:resource="http://purl.org/dc/dcmitype/StillImage" />
      </cc:Work>
    </rdf:RDF>
  </metadata>
  <defs
     id="defs8" />
  <path
     d="m 50.968,102.08 c -0.464,0.106 -0.841,0.451 -1.115,0.786 h 6.888 c -0.706,-1.324 -1.553,-2.98 -1.656,-3.46 10e-4,0 -3.153,2.452 -4.117,2.674 M 40.411,99.625 c 0.045,-0.699 0,-3.07 -0.438,-3.592 0,0 -0.261,1.446 -0.48,1.93 l -2.187,4.903 H 41.3 l -0.361,-0.963 c -0.222,-0.484 -0.573,-1.579 -0.528,-2.278 M 93.526,84.67 c -0.528,1.095 -1.356,1.314 -1.885,1.401 -0.522,0.09 -0.699,0.396 -1.314,1.14 -0.612,0.744 -1.356,1.881 -4.03,5.783 -2.671,3.898 -10.686,2.407 -15.155,1.488 -4.465,-0.921 -5.126,-2.323 -5.477,-5.432 -0.351,-3.112 1.93,-4.955 2.587,-5.261 0.657,-0.306 3.547,-1.446 5.345,-3.022 1.794,-1.575 4.688,-1.885 5.126,-1.885 0.435,0 1.621,-0.09 5.561,-0.528 3.943,-0.435 7.928,0.615 10.644,1.45 2.287,0.702 6.869,3.264 9.069,4.497 V 31.097 c 0,-3.289 -2.668,-5.96 -5.96,-5.96 h -6.105 c 2.181,1.846 5.474,5.522 6.024,9.201 0.693,4.594 -4.443,6.124 -4.865,6.273 l -0.599,0.242 c -1.53,-3.183 -0.148,-4.562 0.483,-5.493 0.628,-0.931 -0.303,-1.382 -1.266,-1.804 -0.957,-0.419 -1.289,-0.838 -1.437,-1.35 -0.151,-0.512 -0.242,-1.234 -0.599,-1.981 -0.361,-0.754 -1.05,-0.87 -1.685,-0.931 -0.628,-0.061 -1.14,-0.422 -1.501,-0.512 l -0.899,-0.09 0.029,0.512 c 0,0 -1.74,-0.902 -3.425,-2.133 -1.195,-0.876 -1.511,-1.163 -1.985,-1.936 H 77.56 c 0.145,0.706 0.387,1.111 0.612,1.424 0.303,0.422 -0.512,1.562 -1.289,1.801 -0.78,0.242 -2.587,-0.325 -2.587,-0.325 -2.548,0.689 -2.461,0.271 -5.493,0.715 -3.032,0.451 -3.573,2.465 -4.111,3.692 -0.544,1.234 0.419,0.783 -1.021,2.822 -1.443,2.042 -4.533,2.706 -5.796,2.674 -1.26,-0.029 -0.87,-0.181 -0.809,3.782 0.061,3.963 0.628,3.421 1.952,3.753 1.321,0.332 1.83,-1.443 2.043,-1.711 0.209,-0.271 0.238,-0.631 -0.061,-0.66 -1.466,-0.145 -2.345,-0.451 -2.761,-0.841 -0.419,-0.39 0.18,-1.169 0.87,-1.653 0.689,-0.48 2.764,-1.592 3.363,-1.859 0.599,-0.271 2.342,-0.838 3.125,-0.992 0.78,-0.148 0.899,0.541 1.079,0.902 0.158,0.312 0.061,0.66 0.747,0.57 4.091,-0.535 4.987,0.116 5.254,0.09 0.271,-0.032 0.631,-0.329 0.693,-0.841 0.058,-0.506 -1.382,-0.809 -2.043,-0.992 -0.66,-0.181 -4.446,-0.242 -4.446,-0.242 0,0 -0.96,-0.751 -1.14,-2.548 -0.18,-1.801 4.352,-3.631 5.973,-4.082 1.624,-0.451 5.557,-1.024 10.029,-0.422 4.478,0.599 6.366,3.396 7.149,6.459 0.783,3.061 -1.591,4.021 -1.952,4.053 -0.358,0.029 -1.14,0.783 -1.469,1.35 -0.332,0.57 -1.382,1.353 -2.129,1.804 -0.754,0.448 -1.894,1.44 -1.894,1.44 0,0 -0.029,0.747 -0.963,1.111 -0.931,0.358 -1.621,-1.534 -2.191,-2.793 -0.567,-1.26 -1.079,-1.804 -1.562,-2.79 -0.48,-0.992 -1.26,-1.205 -1.559,-1.205 -0.303,0 -0.39,0.512 -0.39,1.321 0,0.812 -0.747,1.624 -2.014,2.432 -1.26,0.812 -3.814,-0.567 -4.111,-0.689 l -2.162,-0.873 c -0.419,-0.177 -0.573,-0.448 -0.931,-0.87 -0.361,-0.419 -1.018,0.303 -1.234,0.451 -0.209,0.151 -0.509,0.419 0.032,1.111 0.541,0.689 2.252,1.26 3.061,1.501 0.812,0.238 1.711,1.321 2.194,1.711 0.48,0.39 0.992,0.754 1.321,0.538 2.233,-1.421 4.955,-1.804 5.399,-1.804 0.451,0 2.342,0.032 1.414,2.916 -1.276,3.959 -5.438,4.771 -8.647,4.894 -3.215,0.119 -4.865,-0.689 -5.045,-0.689 -0.177,0 -0.209,0.358 -0.122,0.358 0.093,0 1.144,0.754 1.927,1.292 0.776,0.541 2.097,1.382 2.642,1.382 0.541,0 2.31,-0.599 2.912,-0.754 0.599,-0.148 2.072,-0.509 3.241,-0.87 1.173,-0.358 5.673,-3.992 6.482,-4.804 0.812,-0.809 1.443,-2.703 1.743,-2.79 0.296,-0.09 0.87,0.39 1.321,0.451 0.451,0.055 1.411,-1.292 1.653,-2.255 0.242,-0.957 0.303,-1.079 0.57,-1.14 0.271,-0.061 0.358,0.599 0.358,0.599 0,0 0.332,1.685 0.18,4.024 -0.148,2.345 -0.364,2.945 -1.05,4.926 -0.693,1.981 -3.061,2.191 -3.84,2.432 -0.78,0.242 -2.735,0.87 -4.117,1.111 -1.382,0.238 -2.1,-0.512 -3.032,-0.931 -0.329,-0.148 -2.129,-0.451 -2.278,0.061 -0.648,2.194 3.241,3.389 3.869,3.541 4.121,0.983 9.849,-0.989 10.148,-3.45 0.454,-3.708 0.87,-4.143 1.353,-4.684 0.48,-0.541 1.772,-0.09 1.772,-0.09 0.48,-0.483 2.732,-2.133 2.732,-2.133 0,0 0.722,-0.358 0.358,-0.931 -0.358,-0.567 -0.599,-2.88 2.255,-2.581 2.851,0.303 3.811,4.32 3.811,4.32 0,0 1.144,2.374 0.329,8.408 -0.809,6.031 -8.856,12.223 -16.179,14.53 -7.326,2.313 -10.809,2.046 -11.711,2.046 -0.899,0 -2.703,-0.722 -3.302,-0.841 -0.599,-0.119 -2.129,-1.144 -2.642,-1.353 -0.512,-0.209 -2.278,-1.111 -2.671,-1.289 -0.39,-0.181 -1.772,-1.05 -2.581,-1.624 -0.812,-0.567 -1.021,-1.173 -1.292,-1.772 -0.271,-0.599 -1.74,-1.769 -1.92,-1.92 -0.18,-0.148 0,-0.39 0,-0.39 1.678,0.722 13.028,2.31 13.93,2.342 0.902,0.029 5.013,0.148 5.554,0.148 0.541,0 1.501,0.332 1.53,-0.361 0.032,-0.689 -3.148,-1.169 -3.512,-1.202 -0.358,-0.029 -1.949,-0.061 -3.122,-0.209 -1.173,-0.148 -3.995,-4.536 -4.385,-5.103 -0.387,-0.57 -0.538,-0.422 -1.26,-0.78 -0.722,-0.361 -3.241,-2.31 -3.544,-2.645 l -0.058,-1.917 c -0.303,-0.335 -1.266,0.206 -2.023,0.548 -1.791,0.809 -2.452,-0.116 -2.452,-0.116 l -2.452,-2.574 -0.583,1.285 c 0,0 6.189,5.026 7.941,6.427 1.756,1.401 0.467,1.869 0.467,1.869 0,0 -1.285,1.401 -1.753,1.517 -0.467,0.116 -4.204,-0.583 -7.123,-1.401 -2.919,-0.818 -3.853,-1.753 -6.775,-4.32 -2.919,-2.568 -4.088,-9.227 -3.737,-10.515 0.351,-1.285 0.467,-3.27 0.232,-3.853 -0.232,-0.583 -0.699,-2.568 0.351,-2.568 1.05,0 1.869,2.336 4.32,5.138 2.451,2.802 5.139,3.737 6.189,3.154 1.05,-0.583 -0.351,-2.336 -0.934,-3.386 -0.583,-1.05 -0.467,-1.401 -2.803,-4.32 -2.336,-2.919 -0.702,-5.138 -0.232,-6.189 0.467,-1.05 1.869,-3.038 2.22,-6.311 0.19,-1.749 0.876,-2.928 1.891,-3.972 h -24.9 c -3.296,0 -5.96,2.671 -5.96,5.96 v 21.192 c 1.627,0.544 5.245,1.788 5.892,2.319 0.841,0.689 8.299,6.324 8.019,16.424 -0.029,1.079 0.338,1.43 0.809,1.952 0.271,0.296 2.883,2.822 2.432,4.381 -1.202,-1.772 -2.4,-2.703 -2.761,-2.883 -0.358,-0.181 -0.747,-0.39 -1.018,0.274 -0.271,0.657 -0.512,2.432 -4.082,1.92 -3.273,-0.47 -5.973,-1.028 -9.288,-5.525 v 25.557 c 0,3.289 2.664,5.96 5.96,5.96 h 4.752 c 0.525,-1.066 0.822,-1.756 1.215,-2.671 0.567,-1.314 2.41,-5.999 3.286,-7.49 0.873,-1.492 2.146,-3.46 2.146,-3.46 0,0 -0.393,-3.112 -0.306,-4.91 0.084,-1.794 1.05,-5.783 1.05,-5.783 0,0 0.351,-0.654 0.174,-1.356 -0.174,-0.699 -0.438,-1.443 -0.261,-2.713 0.174,-1.269 0.744,-3.241 1.753,-4.159 1.008,-0.918 1.707,-1.446 2.274,-1.401 0.573,0.045 1.447,0.873 2.587,3.547 0,0 -0.612,0.084 -1.095,-0.045 -0.48,-0.132 -0.174,0.261 -0.084,0.393 0.084,0.129 1.224,1.008 0.657,2.104 -0.57,1.095 -3.302,4.388 -2.719,5.168 0.396,0.528 0.615,0.045 1.227,-0.612 0.612,-0.657 1.968,-2.236 2.191,-2.146 0.219,0.09 -0.438,2.368 -2.803,4.819 0,0 0.657,0.306 0,1.53 -0.657,1.227 -1.624,2.497 -1.753,2.758 -0.132,0.264 -0.132,0.876 0.261,0.528 0.393,-0.351 4.117,-3.328 7.751,-3.328 2.629,0 2.851,0.809 3.331,1.05 0.435,0.216 1.095,0.963 1.224,1.356 0.132,0.39 0.306,0.696 0.963,0.918 0.66,0.216 2.806,0.744 3.112,3.547 0,0 1.14,1.401 -0.267,3.547 0,0 10.979,-1.479 15.635,8.802 h 21.78 c 3.293,0 5.96,-2.671 5.96,-5.96 V 85.211 c -1.862,-1.099 -5.889,-1.598 -6.44,-1.598 -0.66,0 -3.502,-0.045 -4.03,1.05 M 45.701,59.773 c -0.351,0.09 -0.754,-0.081 -1.305,0.47 -0.177,0.174 -0.393,0.561 -0.406,0.941 -0.032,1.14 -2.497,-0.045 -2.803,-0.142 -0.786,-0.245 -2.014,-0.999 -4.729,-4.062 -2.719,-3.07 -3.679,-9.375 -3.769,-11.872 -0.09,-2.497 1.008,-7.052 4.249,-11.343 3.241,-4.294 8.892,-5.039 9.636,-5.039 0.744,0 1.447,0.09 1.492,0.528 l -0.09,0.963 c 0,0 0.393,0.963 0.261,2.497 -0.296,3.499 -3.631,6.221 -5.254,7.577 -1.621,1.356 -1.447,3.154 -1.401,4.948 0.045,1.791 1.447,7.751 1.753,8.76 0.306,1.008 2.287,4.478 2.597,4.916 0.306,0.438 0.116,0.764 -0.229,0.854 m 8.693,18.374 c -1.772,-1.26 -2.79,-3.634 -3.869,-6.698 -1.082,-3.061 -1.711,-5.196 -2.194,-6.572 -0.48,-1.382 -0.809,-1.501 -0.87,-1.865 -0.061,-0.358 0.061,-0.567 0.209,-0.715 0,0 2.642,0.419 4.836,1.408 2.191,0.992 2.129,1.173 4.017,2.432 1.894,1.26 2.645,3.869 3.154,4.832 0.512,0.963 2.258,1.695 2.5,1.817 l 1.028,0.689 c 7.629,2.912 12.745,3.141 12.986,3.202 l 0.358,0.271 c -0.722,1.108 -7.506,1.321 -7.506,1.321 0,0 -2.339,-0.061 -6.182,1.05 -3.847,1.108 -6.698,0.09 -8.47,-1.173"
     inkscape:connector-curvature="0"
     id="path4"
     style="fill:#ffffff" />
</svg>
