<?xml version="1.0" encoding="UTF-8" standalone="no"?>
<!-- Created with Inkscape (http://www.inkscape.org/) -->

<svg
   xmlns:dc="http://purl.org/dc/elements/1.1/"
   xmlns:cc="http://creativecommons.org/ns#"
   xmlns:rdf="http://www.w3.org/1999/02/22-rdf-syntax-ns#"
   xmlns:svg="http://www.w3.org/2000/svg"
   xmlns="http://www.w3.org/2000/svg"
   xmlns:inkscape="http://www.inkscape.org/namespaces/inkscape"
   version="1.1"
   width="128"
   height="128"
   id="svg2">
  <metadata
     id="metadata10">
    <rdf:RDF>
      <cc:Work
         rdf:about="">
        <dc:format>image/svg+xml</dc:format>
        <dc:type
           rdf:resource="http://purl.org/dc/dcmitype/StillImage" />
      </cc:Work>
    </rdf:RDF>
  </metadata>
  <defs
     id="defs8" />
  <path
     d="m 104,39.189 c -2.943,1.305 -6.107,2.188 -9.427,2.584 3.388,-2.031 5.991,-5.248 7.216,-9.08 -3.171,1.881 -6.684,3.247 -10.423,3.983 -2.994,-3.19 -7.259,-5.183 -11.98,-5.183 -9.064,0 -16.413,7.348 -16.413,16.412 0,1.286 0.145,2.539 0.425,3.74 -13.641,-0.685 -25.735,-7.219 -33.83,-17.149 -1.413,2.424 -2.222,5.243 -2.222,8.251 0,5.694 2.897,10.718 7.302,13.661 -2.69,-0.085 -5.221,-0.824 -7.434,-2.053 l -0.002,0.206 c 0,7.952 5.658,14.586 13.166,16.094 -1.377,0.375 -2.827,0.576 -4.324,0.576 -1.058,0 -2.086,-0.103 -3.088,-0.295 2.089,6.52 8.15,11.266 15.332,11.398 -5.617,4.402 -12.694,7.026 -20.384,7.026 -1.325,0 -2.631,-0.078 -3.915,-0.23 7.263,4.657 15.891,7.375 25.16,7.375 30.189,0 46.698,-25.01 46.698,-46.699 0,-0.712 -0.016,-1.419 -0.048,-2.123 3.208,-2.312 5.991,-5.203 8.191,-8.494 z"
     inkscape:connector-curvature="0"
     id="path4"
     style="fill:#27c9ff" />
</svg>
