<?xml version="1.0" encoding="UTF-8" standalone="no"?>
<!-- Created with Inkscape (http://www.inkscape.org/) -->

<svg
   xmlns:dc="http://purl.org/dc/elements/1.1/"
   xmlns:cc="http://creativecommons.org/ns#"
   xmlns:rdf="http://www.w3.org/1999/02/22-rdf-syntax-ns#"
   xmlns:svg="http://www.w3.org/2000/svg"
   xmlns="http://www.w3.org/2000/svg"
   xmlns:inkscape="http://www.inkscape.org/namespaces/inkscape"
   version="1.1"
   width="128"
   height="128"
   id="svg2">
  <metadata
     id="metadata10">
    <rdf:RDF>
      <cc:Work
         rdf:about="">
        <dc:format>image/svg+xml</dc:format>
        <dc:type
           rdf:resource="http://purl.org/dc/dcmitype/StillImage" />
      </cc:Work>
    </rdf:RDF>
  </metadata>
  <defs
     id="defs8" />
  <path
     d="m 32.35,88.381 c 0.026,0.078 0.029,0.168 -0.04,0.208 -0.072,0.04 -0.152,0 -0.201,-0.064 -5.122,-6.718 -8.283,-15.106 -8.283,-24.208 0,-11.123 4.797,-21.185 11.797,-28.429 v -0.003 c 0,0.043 3.072,-3.388 16.608,10.082 0.041,0.032 0.088,0.075 0.088,0.133 l -0.017,0.113 C 44.261,55.79 29.306,78.967 32.35,88.381 z M 92.623,35.889 v -0.003 c 0,0.043 -3.324,-3.388 -16.863,10.082 -0.038,0.032 -0.24,0.075 -0.24,0.133 l -0.03,0.113 c 8.041,9.576 22.995,32.753 19.948,42.167 -0.023,0.078 -0.041,0.168 0.028,0.208 0.069,0.04 0.151,0 0.2,-0.064 5.125,-6.718 8.507,-15.106 8.507,-24.208 0.001,-11.122 -4.55,-21.185 -11.55,-28.428 z M 43.881,30.061 c 6.983,-1.57 18.789,5.778 19.904,6.449 l 0.084,0.032 0.087,-0.032 c 1.113,-0.671 12.924,-8.018 19.907,-6.449 0.078,0.017 0.159,0.003 0.191,-0.072 0.038,-0.072 0.006,-0.156 -0.063,-0.194 -5.908,-3.454 -12.782,-5.431 -20.121,-5.431 -7.336,0 -14.207,1.977 -20.115,5.431 -0.072,0.038 -0.104,0.121 -0.07,0.194 0.034,0.074 0.118,0.089 0.196,0.072 z m 20.121,25.512 -0.133,0.093 -0.13,-0.173 C 51.789,64.584 31.327,88.756 37.568,93.756 h 0.003 c 7.024,7 16.228,9.88 26.298,9.88 10.076,0 19.277,-2.88 26.304,-9.88 h 0.003 C 96.417,88.757 75.951,64.664 64.002,55.573 z"
     inkscape:connector-curvature="0"
     id="path4"
     style="fill:#ffffff" />
</svg>
