<?xml version="1.0" encoding="UTF-8" standalone="no"?>
<!-- Created with Inkscape (http://www.inkscape.org/) -->

<svg
   xmlns:dc="http://purl.org/dc/elements/1.1/"
   xmlns:cc="http://creativecommons.org/ns#"
   xmlns:rdf="http://www.w3.org/1999/02/22-rdf-syntax-ns#"
   xmlns:svg="http://www.w3.org/2000/svg"
   xmlns="http://www.w3.org/2000/svg"
   xmlns:inkscape="http://www.inkscape.org/namespaces/inkscape"
   version="1.1"
   width="128"
   height="128"
   id="svg2">
  <metadata
     id="metadata10">
    <rdf:RDF>
      <cc:Work
         rdf:about="">
        <dc:format>image/svg+xml</dc:format>
        <dc:type
           rdf:resource="http://purl.org/dc/dcmitype/StillImage" />
      </cc:Work>
    </rdf:RDF>
  </metadata>
  <defs
     id="defs8" />
  <path
     d="m 49.954,24.598 3.726,6.479 C 46.898,34.404 42.3,40.919 42.3,48.392 h 43.4 c 0,-7.473 -4.597,-13.987 -11.381,-17.315 l 3.727,-6.479 c 0,0 0.178,-0.344 -0.158,-0.537 -0.335,-0.193 -0.559,0.137 -0.559,0.137 l -3.784,6.536 c -2.882,-1.283 -6.12,-2.007 -9.546,-2.007 -3.426,0 -6.665,0.724 -9.546,2.007 l -3.784,-6.536 c 0,0 -0.211,-0.33 -0.548,-0.137 -0.336,0.192 -0.168,0.537 -0.167,0.537 z m 3.726,12.55 c 1.137,0 2.064,0.927 2.064,2.064 0,1.137 -0.927,2.035 -2.064,2.035 -1.137,0 -2.064,-0.898 -2.064,-2.035 0,-1.138 0.927,-2.064 2.064,-2.064 z m 20.64,0 c 1.138,0 2.064,0.927 2.064,2.064 0,1.137 -0.926,2.035 -2.064,2.035 -1.137,0 -2.064,-0.898 -2.064,-2.035 0,-1.138 0.927,-2.064 2.064,-2.064 z m -32.195,13.77 v 32.925 c 0,1.634 1.975,3.773 3.608,3.773 h 5.164 v 11.226 c 0,2.858 2.081,5.159 4.673,5.159 2.591,0 4.673,-2.302 4.673,-5.159 V 87.615 h 7.511 v 11.226 c 0,2.858 2.082,5.159 4.673,5.159 2.591,0 4.701,-2.302 4.701,-5.159 V 87.615 h 5.135 c 1.634,0 3.608,-2.139 3.608,-3.773 V 50.918 H 42.125 z m -11.876,4.471 v 19.535 c 0,2.849 2.094,5.16 4.677,5.16 2.583,0 4.676,-2.311 4.676,-5.16 V 55.389 c 0,-2.85 -2.094,-5.16 -4.676,-5.16 -2.583,0 -4.677,2.31 -4.677,5.16 z m 58.149,0 v 19.535 c 0,2.849 2.093,5.16 4.676,5.16 2.583,0 4.677,-2.311 4.677,-5.16 V 55.389 c 0,-2.85 -2.093,-5.16 -4.677,-5.16 -2.582,0 -4.676,2.31 -4.676,5.16 z"
     inkscape:connector-curvature="0"
     id="path4" />
</svg>
