<?xml version="1.0" encoding="UTF-8" standalone="no"?>
<!-- Created with Inkscape (http://www.inkscape.org/) -->

<svg
   xmlns:dc="http://purl.org/dc/elements/1.1/"
   xmlns:cc="http://creativecommons.org/ns#"
   xmlns:rdf="http://www.w3.org/1999/02/22-rdf-syntax-ns#"
   xmlns:svg="http://www.w3.org/2000/svg"
   xmlns="http://www.w3.org/2000/svg"
   xmlns:inkscape="http://www.inkscape.org/namespaces/inkscape"
   version="1.1"
   width="128"
   height="128"
   id="svg2">
  <metadata
     id="metadata10">
    <rdf:RDF>
      <cc:Work
         rdf:about="">
        <dc:format>image/svg+xml</dc:format>
        <dc:type
           rdf:resource="http://purl.org/dc/dcmitype/StillImage" />
      </cc:Work>
    </rdf:RDF>
  </metadata>
  <defs
     id="defs8" />
  <path
     d="M 56.369,103.944 C 46.277,102.901 41.702,101.233 37.47,97.052 33.356,92.988 31.704,89.188 30.991,82.155 30.821,80.478 30.706,71.559 30.706,60.069 V 40.796 l -0.772,-0.772 c -0.55,-0.55 -1.249,-0.866 -2.432,-1.098 -1.884,-0.371 -2.794,-1.091 -2.323,-1.838 0.264,-0.419 1.225,-0.459 10.822,-0.459 9.597,0 10.558,0.041 10.822,0.459 0.533,0.846 -0.41,1.449 -2.85,1.822 -2.54,0.389 -3.331,0.809 -3.742,1.986 -0.394,1.13 -0.399,36.179 -0.006,39.805 0.374,3.445 1.167,6.788 2.002,8.436 0.984,1.941 3.15,4.168 5.029,5.17 5.12,2.729 14.499,3.262 21.056,1.197 3.002,-0.946 4.081,-1.543 5.869,-3.249 1.925,-1.837 3.005,-3.981 3.808,-7.559 0.6,-2.675 0.611,-3.091 0.766,-27.836 l 0.157,-25.12 0.633,-1.57 C 80.817,27.013 82.807,25.229 85.96,24.417 87.228,24.09 89.24,24 95.261,24 h 7.683 v 0.805 c 0,1.037 -0.388,1.224 -3.395,1.638 -1.344,0.185 -2.846,0.501 -3.336,0.702 -1.756,0.72 -1.688,-0.4 -1.688,27.487 0,25.912 -0.11,29.234 -1.094,33.081 -0.871,3.406 -2.747,6.651 -5.349,9.253 -4.953,4.953 -11.471,6.836 -24.244,7.006 -3.511,0.046 -6.872,0.034 -7.469,-0.028 z"
     inkscape:connector-curvature="0"
     id="path4"
     style="fill:#ffffff" />
</svg>
