<?xml version="1.0" encoding="UTF-8" standalone="no"?>
<!-- Created with Inkscape (http://www.inkscape.org/) -->

<svg
   xmlns:dc="http://purl.org/dc/elements/1.1/"
   xmlns:cc="http://creativecommons.org/ns#"
   xmlns:rdf="http://www.w3.org/1999/02/22-rdf-syntax-ns#"
   xmlns:svg="http://www.w3.org/2000/svg"
   xmlns="http://www.w3.org/2000/svg"
   xmlns:inkscape="http://www.inkscape.org/namespaces/inkscape"
   version="1.1"
   width="128"
   height="128"
   id="svg2">
  <metadata
     id="metadata10">
    <rdf:RDF>
      <cc:Work
         rdf:about="">
        <dc:format>image/svg+xml</dc:format>
        <dc:type
           rdf:resource="http://purl.org/dc/dcmitype/StillImage" />
      </cc:Work>
    </rdf:RDF>
  </metadata>
  <defs
     id="defs8" />
  <path
     d="m 97.672,85.499 c -4.364,-0.118 -7.697,0.287 -10.547,1.489 -0.81,0.342 -2.101,0.35 -2.233,1.365 0.445,0.467 0.514,1.163 0.868,1.737 0.681,1.101 1.829,2.577 2.854,3.351 1.12,0.845 2.274,1.75 3.475,2.482 2.136,1.302 4.52,2.046 6.576,3.351 1.212,0.769 2.416,1.737 3.598,2.605 0.584,0.429 0.977,1.096 1.737,1.365 v -0.124 c -0.399,-0.508 -0.502,-1.207 -0.868,-1.737 L 101.519,99.77 C 99.942,97.677 97.94,95.838 95.811,94.31 94.114,93.092 90.315,91.446 89.607,89.471 l -0.124,-0.124 c 1.203,-0.135 2.613,-0.571 3.723,-0.868 1.866,-0.5 3.533,-0.371 5.46,-0.868 l 2.606,-0.745 V 86.37 c -0.974,-0.999 -1.668,-2.322 -2.73,-3.226 -2.778,-2.366 -5.811,-4.73 -8.934,-6.701 C 87.876,75.35 85.736,74.639 83.9,73.713 83.283,73.401 82.198,73.24 81.79,72.72 80.826,71.491 80.301,69.933 79.557,68.501 77.999,65.502 76.47,62.226 75.09,59.07 74.149,56.918 73.534,54.796 72.36,52.865 66.726,43.602 60.661,38.01 51.266,32.515 49.267,31.346 46.86,30.885 44.317,30.282 l -4.095,-0.248 c -0.833,-0.348 -1.7,-1.367 -2.482,-1.861 -3.112,-1.966 -11.095,-6.243 -13.401,-0.62 -1.456,3.549 2.175,7.012 3.474,8.81 0.912,1.262 2.079,2.676 2.73,4.095 0.428,0.932 0.503,1.867 0.869,2.854 0.902,2.43 1.687,5.075 2.854,7.321 0.59,1.136 1.24,2.334 1.986,3.35 0.457,0.624 1.241,0.898 1.364,1.861 -0.766,1.072 -0.81,2.737 -1.241,4.095 -1.939,6.115 -1.208,13.715 1.613,18.241 0.866,1.389 2.904,4.369 5.708,3.226 2.452,-0.999 1.904,-4.094 2.606,-6.825 0.159,-0.619 0.061,-1.074 0.372,-1.489 v 0.124 l 2.234,4.466 c 1.653,2.662 4.587,5.445 7.073,7.322 1.289,0.974 2.304,2.657 3.971,3.226 V 88.106 H 59.828 C 59.505,87.602 59,87.394 58.587,86.989 c -0.971,-0.952 -2.051,-2.136 -2.854,-3.226 -2.261,-3.07 -4.259,-6.43 -6.08,-9.927 -0.87,-1.67 -1.625,-3.512 -2.358,-5.212 -0.282,-0.655 -0.279,-1.646 -0.868,-1.986 -0.803,1.245 -1.985,2.252 -2.606,3.723 -0.993,2.351 -1.121,5.217 -1.489,8.19 l -0.249,0.124 c -1.728,-0.417 -2.336,-2.196 -2.977,-3.722 -1.625,-3.86 -1.927,-10.075 -0.497,-14.518 0.37,-1.149 2.042,-4.77 1.365,-5.832 -0.323,-1.06 -1.389,-1.672 -1.985,-2.482 -0.738,-1.001 -1.475,-2.319 -1.986,-3.475 -1.33,-3.01 -1.95,-6.388 -3.35,-9.43 -0.669,-1.454 -1.801,-2.926 -2.73,-4.219 -1.029,-1.432 -2.181,-2.487 -2.978,-4.219 -0.284,-0.615 -0.669,-1.601 -0.248,-2.233 0.134,-0.427 0.322,-0.605 0.745,-0.744 0.72,-0.555 2.724,0.185 3.474,0.496 1.99,0.827 3.651,1.614 5.336,2.73 0.809,0.537 1.627,1.574 2.605,1.861 h 1.117 c 1.747,0.402 3.704,0.125 5.336,0.62 2.885,0.877 5.469,2.24 7.817,3.723 7.152,4.516 13,10.944 17,18.613 0.643,1.235 0.922,2.413 1.489,3.723 1.144,2.641 2.584,5.359 3.722,7.941 1.135,2.577 2.242,5.177 3.847,7.322 0.844,1.127 4.103,1.732 5.584,2.358 1.038,0.439 2.739,0.896 3.723,1.489 1.878,1.133 3.698,2.482 5.46,3.723 0.879,0.618 3.585,1.978 3.72,3.099 z M 42.206,38.222 c -0.91,-0.017 -1.553,0.099 -2.234,0.248 v 0.124 h 0.124 c 0.434,0.892 1.2,1.466 1.737,2.234 l 1.241,2.605 0.124,-0.124 c 0.768,-0.541 1.121,-1.408 1.117,-2.73 -0.308,-0.324 -0.353,-0.73 -0.62,-1.117 -0.355,-0.514 -1.041,-0.807 -1.489,-1.24 z"
     inkscape:connector-curvature="0"
     id="path4" />
</svg>
