<?xml version="1.0" encoding="UTF-8" standalone="no"?>
<!-- Created with Inkscape (http://www.inkscape.org/) -->

<svg
   xmlns:dc="http://purl.org/dc/elements/1.1/"
   xmlns:cc="http://creativecommons.org/ns#"
   xmlns:rdf="http://www.w3.org/1999/02/22-rdf-syntax-ns#"
   xmlns:svg="http://www.w3.org/2000/svg"
   xmlns="http://www.w3.org/2000/svg"
   xmlns:inkscape="http://www.inkscape.org/namespaces/inkscape"
   version="1.1"
   width="128"
   height="128"
   id="svg2">
  <metadata
     id="metadata10">
    <rdf:RDF>
      <cc:Work
         rdf:about="">
        <dc:format>image/svg+xml</dc:format>
        <dc:type
           rdf:resource="http://purl.org/dc/dcmitype/StillImage" />
      </cc:Work>
    </rdf:RDF>
  </metadata>
  <defs
     id="defs8" />
  <path
     d="m 48.492,49.648 c 0,-1.614 1.305,-2.919 2.919,-2.919 1.614,0 2.919,1.305 2.919,2.919 0,1.614 -1.305,2.919 -2.919,2.919 -1.615,-10e-4 -2.919,-1.306 -2.919,-2.919 z m 55.379,19.365 c -0.755,1.82 -2.197,3.296 -4.051,3.983 0.034,0.206 0.034,0.446 0.034,0.687 0,3.949 -1.305,8.618 -8.584,8.618 -5.494,0 -7.039,-2.438 -7.039,-5.185 0,-4.361 5.528,-4.67 10.747,-6.009 l -0.172,-1.889 c -0.892,1.099 -3.09,2.06 -5.94,2.06 -2.188,0 -3.741,-0.828 -4.721,-2.166 -1.615,2.948 -4.069,4.398 -7.123,4.398 -2.132,0 -3.839,-1.408 -4.42,-3.34 -1.791,2.157 -4.243,3.34 -7.253,3.34 -2.847,0 -4.777,-1.214 -5.648,-2.984 -1.568,1.998 -3.679,2.984 -6.197,2.984 -2.644,0 -4.636,-2.163 -4.636,-4.807 l 0.003,-0.276 c -3.001,3.443 -7.75,5.083 -13.258,5.083 -6.009,0 -8.075,-3.777 -8.075,-5.494 l 0.043,-3.434 c 0,-9.957 -0.483,-12.704 -0.483,-14.524 v -0.103 c 0,-0.206 0.039,-0.446 -0.202,-0.446 -0.24,0 -0.295,0.034 -0.57,0.378 -0.412,0.549 -0.997,0.721 -1.615,0.446 -0.618,-0.343 -0.906,-0.996 -0.597,-1.717 0.858,-1.923 2.114,-2.919 3.969,-2.919 3.296,0 4.015,2.197 4.015,4.67 v 0.103 c 0,1.408 0.043,4.155 0.043,6.283 1.133,-0.927 2.979,-2.129 5.76,-2.129 4.12,0 6.927,3.777 6.927,8.927 0,2.026 -0.485,3.673 -1.309,4.944 2.988,-1.313 5.106,-4.11 5.285,-9.516 l -0.115,-1.783 c 0,-1.408 1.171,-2.578 2.579,-2.578 1.408,0 2.577,1.161 2.577,2.569 0,4.464 -0.342,7.027 -0.342,11.147 0,0.652 0.55,1.178 1.202,1.178 2.055,0 4.254,-2.388 4.59,-9.345 l -0.058,-2.025 h -0.412 c -0.858,0 -1.545,-0.642 -1.545,-1.5 0,-0.858 0.687,-1.5 1.545,-1.5 H 59.1 c -0.069,-2 -0.103,-2.8 -0.103,-4.036 0,-1.408 1.167,-2.629 2.575,-2.629 1.408,0 2.575,1.15 2.575,2.558 0,1.064 -0.034,2.361 -0.069,3.837 1.099,-0.034 2.369,-0.073 4.018,-0.073 0.961,0 1.716,0.753 1.716,1.715 0,0.961 -0.755,1.716 -1.716,1.716 -1.683,0 -2.988,-10e-4 -4.121,-0.035 -0.103,2.815 -0.172,5.871 -0.172,8.618 0,1.476 0.755,2.747 2.404,2.747 3.535,0 6.017,-2.859 6.32,-9.842 -0.084,-6.337 -0.313,-9.064 -0.313,-11.446 0,-1.408 1.167,-2.575 2.575,-2.575 1.408,0 2.575,1.167 2.575,2.575 0,2.919 -0.343,6.009 -0.343,20.086 0,0.652 0.549,1.202 1.202,1.202 1.93,0 3.988,-2.187 4.509,-8.222 -0.098,-1.432 -0.218,-2.676 -0.218,-3.795 0,-1.408 1.167,-2.575 2.575,-2.575 1.408,0 2.575,1.167 2.575,2.575 0,1.888 -0.345,4.635 -0.345,6.695 0,1.717 0.685,3.09 2.745,3.09 3.125,0 4.459,-1.888 4.459,-3.605 0,-2.06 -0.351,-4.292 -0.351,-6.18 0,-1.408 1.15,-2.575 2.558,-2.575 1.407,0 2.66,1.167 2.66,2.575 0,1.888 -0.293,4.12 -0.293,7.039 V 65.2 c 0,1.751 0.155,3.262 0.361,4.567 0.618,-0.343 1.245,-0.996 2.035,-2.129 0.412,-0.584 1.069,-0.79 1.721,-0.481 0.687,0.379 1.001,1.032 0.657,1.856 z M 40.082,63.554 c 0,-2.919 -1.305,-4.635 -3.262,-4.635 -3.056,0 -4.395,2.129 -4.464,3.811 l -0.172,5.459 c 0,0 1.064,1.373 3.434,1.373 2.266,0 4.464,-1.717 4.464,-6.008 z m 55.137,11.33 -0.034,-0.618 c -3.88,0.755 -6.318,1.065 -6.318,2.85 0,0.79 0.584,1.717 2.404,1.717 3.089,0 4.017,-1.888 3.948,-3.949 z"
     inkscape:connector-curvature="0"
     id="path4"
     style="fill:#ffffff" />
</svg>
