<?xml version="1.0" encoding="UTF-8" standalone="no"?>
<!-- Created with Inkscape (http://www.inkscape.org/) -->

<svg
   xmlns:dc="http://purl.org/dc/elements/1.1/"
   xmlns:cc="http://creativecommons.org/ns#"
   xmlns:rdf="http://www.w3.org/1999/02/22-rdf-syntax-ns#"
   xmlns:svg="http://www.w3.org/2000/svg"
   xmlns="http://www.w3.org/2000/svg"
   xmlns:inkscape="http://www.inkscape.org/namespaces/inkscape"
   version="1.1"
   width="128"
   height="128"
   id="svg2">
  <metadata
     id="metadata10">
    <rdf:RDF>
      <cc:Work
         rdf:about="">
        <dc:format>image/svg+xml</dc:format>
        <dc:type
           rdf:resource="http://purl.org/dc/dcmitype/StillImage" />
      </cc:Work>
    </rdf:RDF>
  </metadata>
  <defs
     id="defs8" />
  <path
     d="M 90.221,24 H 68.572 c -5.674,0 -12.82,0.837 -18.807,5.769 -4.524,3.888 -6.725,9.237 -6.725,14.069 0,8.188 6.306,16.485 17.444,16.485 1.051,0 2.202,-0.107 3.366,-0.209 -0.526,1.256 -1.057,2.306 -1.057,4.093 0,3.256 1.683,5.247 3.153,7.138 -4.724,0.313 -13.554,0.837 -20.073,4.825 -6.2,3.682 -8.095,9.031 -8.095,12.812 -10e-4,7.77 7.358,15.018 22.598,15.018 18.076,0 27.643,-9.973 27.643,-19.849 0,-7.237 -4.204,-10.812 -8.828,-14.697 L 75.406,66.516 C 74.255,65.569 72.679,64.312 72.679,62 c 0,-2.308 1.576,-3.781 2.94,-5.146 4.412,-3.463 8.828,-7.138 8.828,-14.907 0,-7.981 -5.049,-12.181 -7.463,-14.175 h 6.519 L 90.221,24 z M 80.98,88.248 c 0,6.509 -5.363,11.336 -15.453,11.336 -11.243,0 -18.497,-5.355 -18.497,-12.804 0,-7.46 6.727,-9.972 9.036,-10.812 4.417,-1.472 10.091,-1.681 11.035,-1.681 1.052,0 1.578,0 2.422,0.103 7.99,5.668 11.457,8.505 11.457,13.858 z M 72.571,54.444 c -1.683,1.676 -4.523,2.938 -7.151,2.938 -9.035,0 -13.132,-11.656 -13.132,-18.687 0,-2.731 0.526,-5.563 2.309,-7.769 1.683,-2.1 4.623,-3.466 7.357,-3.466 8.721,0 13.244,11.759 13.244,19.316 0.001,1.892 -0.213,5.249 -2.627,7.668 z"
     inkscape:connector-curvature="0"
     id="path4" />
</svg>
