<?xml version="1.0" encoding="UTF-8" standalone="no"?>
<!-- Created with Inkscape (http://www.inkscape.org/) -->

<svg
   xmlns:dc="http://purl.org/dc/elements/1.1/"
   xmlns:cc="http://creativecommons.org/ns#"
   xmlns:rdf="http://www.w3.org/1999/02/22-rdf-syntax-ns#"
   xmlns:svg="http://www.w3.org/2000/svg"
   xmlns="http://www.w3.org/2000/svg"
   xmlns:inkscape="http://www.inkscape.org/namespaces/inkscape"
   version="1.1"
   width="128"
   height="128"
   id="svg2">
  <metadata
     id="metadata10">
    <rdf:RDF>
      <cc:Work
         rdf:about="">
        <dc:format>image/svg+xml</dc:format>
        <dc:type
           rdf:resource="http://purl.org/dc/dcmitype/StillImage" />
      </cc:Work>
    </rdf:RDF>
  </metadata>
  <defs
     id="defs8" />
  <path
     d="M 103.605,33.058 C 102.566,30.202 99.825,28.28 96.786,28.28 H 31.255 c -2.989,0 -5.714,1.88 -6.779,4.678 C 24.16,33.79 24,34.655 24,35.534 v 24.138 l 0.276,4.801 c 1.158,10.92 6.826,20.459 15.595,27.114 l 0.477,0.355 0.1,0.07 c 4.702,3.437 9.964,5.764 15.641,6.909 2.621,0.53 5.3,0.799 7.963,0.799 2.458,0 4.93,-0.226 7.358,-0.678 l 0.875,-0.175 0.256,-0.092 c 5.435,-1.189 10.486,-3.455 15.011,-6.763 l 0.1,-0.07 0.477,-0.355 c 8.768,-6.654 14.437,-16.194 15.594,-27.114 L 104,59.672 V 35.534 c 0,-0.834 -0.101,-1.662 -0.395,-2.476 z M 86.666,58.203 67.85,76.25 c -1.063,1.017 -2.431,1.528 -3.798,1.528 -1.368,0 -2.736,-0.511 -3.797,-1.528 L 41.437,58.203 C 39.251,56.107 39.179,52.634 41.275,50.448 43.372,48.26 46.844,48.19 49.03,50.286 L 64.052,64.691 79.071,50.286 c 2.186,-2.097 5.658,-2.025 7.755,0.16 2.097,2.188 2.025,5.659 -0.16,7.757 z"
     inkscape:connector-curvature="0"
     id="path4" />
</svg>
