<?xml version="1.0" encoding="UTF-8" standalone="no"?>
<!-- Created with Inkscape (http://www.inkscape.org/) -->

<svg
   xmlns:dc="http://purl.org/dc/elements/1.1/"
   xmlns:cc="http://creativecommons.org/ns#"
   xmlns:rdf="http://www.w3.org/1999/02/22-rdf-syntax-ns#"
   xmlns:svg="http://www.w3.org/2000/svg"
   xmlns="http://www.w3.org/2000/svg"
   xmlns:inkscape="http://www.inkscape.org/namespaces/inkscape"
   version="1.1"
   width="128"
   height="128"
   id="svg2">
  <metadata
     id="metadata14">
    <rdf:RDF>
      <cc:Work
         rdf:about="">
        <dc:format>image/svg+xml</dc:format>
        <dc:type
           rdf:resource="http://purl.org/dc/dcmitype/StillImage" />
      </cc:Work>
    </rdf:RDF>
  </metadata>
  <defs
     id="defs12" />
  <g
     id="g4"
     style="fill:#ffffff;fill-rule:evenodd">
    <path
       d="M 39.376,95.402 C 50.691,71.294 66.661,49.841 85.215,29.865 90.111,23.327 99.177,21.754 99.454,27.717 99.435,30.055 99.397,32.355 99.34,34.629 76.882,53.013 58.82,75.022 43.412,99.048 41.878,97.986 40.513,96.772 39.376,95.402 z"
       inkscape:connector-curvature="0"
       id="path6"
       style="opacity:0.5" />
    <path
       d="M 33.722,88.964 C 22.104,64.605 29.937,46.48 58.297,34.938 L 33.722,88.964 z M 82.29,96.962 C 94.704,86.419 98.639,62.981 99.341,34.628 76.883,53.012 58.821,75.021 43.413,99.047 c 10.057,6.911 27.619,6.924 38.877,-2.085 z"
       inkscape:connector-curvature="0"
       id="path8" />
  </g>
</svg>
