<?xml version="1.0" encoding="UTF-8" standalone="no"?>
<!-- Created with Inkscape (http://www.inkscape.org/) -->

<svg
   xmlns:dc="http://purl.org/dc/elements/1.1/"
   xmlns:cc="http://creativecommons.org/ns#"
   xmlns:rdf="http://www.w3.org/1999/02/22-rdf-syntax-ns#"
   xmlns:svg="http://www.w3.org/2000/svg"
   xmlns="http://www.w3.org/2000/svg"
   xmlns:inkscape="http://www.inkscape.org/namespaces/inkscape"
   version="1.1"
   width="128"
   height="128"
   id="svg2">
  <metadata
     id="metadata10">
    <rdf:RDF>
      <cc:Work
         rdf:about="">
        <dc:format>image/svg+xml</dc:format>
        <dc:type
           rdf:resource="http://purl.org/dc/dcmitype/StillImage" />
      </cc:Work>
    </rdf:RDF>
  </metadata>
  <defs
     id="defs8" />
  <path
     d="m 37.219,39.495 h 7.513 c 0.43,0 0.776,-0.35 0.777,-0.777 0,-0.003 -0.091,-6.438 -0.091,-8.227 V 30.47 c 0,-1.47 0.308,-2.751 0.846,-3.825 l 0.257,-0.482 -0.086,0.048 -14.589,14.465 -0.055,0.085 0.773,-0.379 c 1.271,-0.573 2.811,-0.887 4.655,-0.887 z M 95.641,37.919 C 95.045,34.726 93.147,33.153 91.43,32.535 89.578,31.866 85.824,31.173 81.107,30.617 77.312,30.17 72.851,30.206 70.157,30.289 69.834,28.074 68.28,26.051 66.542,25.35 61.911,23.486 54.755,23.936 52.917,24.451 c -1.46,0.408 -3.076,1.244 -3.975,2.533 -0.603,0.861 -0.993,1.963 -0.996,3.504 0,0.872 0.024,2.926 0.046,4.751 0.022,1.831 0.046,3.468 0.046,3.479 -10e-4,1.63 -1.322,2.956 -2.959,2.958 H 37.57 c -1.602,0 -2.826,0.269 -3.76,0.694 -0.936,0.425 -1.599,0.998 -2.103,1.676 -1.003,1.346 -1.177,3.008 -1.173,4.704 0,0 0.015,1.386 0.349,4.067 0.278,2.075 2.528,16.571 4.665,20.979 0.829,1.715 1.381,2.43 3.009,3.186 3.628,1.553 11.914,3.281 15.797,3.776 3.876,0.496 6.309,1.539 7.76,-1.501 0.005,-0.008 0.29,-0.756 0.683,-1.855 1.259,-3.815 1.434,-7.199 1.434,-9.648 0,-0.249 0.365,-0.26 0.365,0 0,1.729 -0.33,7.848 4.292,9.49 1.825,0.647 5.61,1.224 9.456,1.675 3.478,0.4 6.002,1.768 6.002,10.691 0,5.429 -1.14,6.173 -7.101,6.173 -4.832,0 -6.673,0.125 -6.673,-3.714 0,-3.102 3.068,-2.777 5.343,-2.777 1.016,0 0.278,-0.756 0.278,-2.67 0,-1.904 1.191,-3.005 0.065,-3.033 -7.864,-0.216 -12.491,-0.009 -12.491,9.826 0,8.928 3.417,10.586 14.578,10.586 8.751,0 11.835,-0.287 15.449,-11.498 0.715,-2.213 2.444,-8.967 3.491,-20.308 C 97.946,65.024 96.66,43.382 95.641,37.919 z M 80.387,61.841 c -1.081,-0.038 -2.121,0.03 -3.091,0.186 0.273,-2.204 1.183,-4.908 4.405,-4.795 3.567,0.123 4.067,3.494 4.08,5.778 -1.504,-0.67 -3.366,-1.098 -5.394,-1.169 z"
     inkscape:connector-curvature="0"
     id="path4"
     style="fill:#ffffff" />
</svg>
