<?xml version="1.0" encoding="UTF-8" standalone="no"?>
<!-- Created with Inkscape (http://www.inkscape.org/) -->

<svg
   xmlns:dc="http://purl.org/dc/elements/1.1/"
   xmlns:cc="http://creativecommons.org/ns#"
   xmlns:rdf="http://www.w3.org/1999/02/22-rdf-syntax-ns#"
   xmlns:svg="http://www.w3.org/2000/svg"
   xmlns="http://www.w3.org/2000/svg"
   xmlns:inkscape="http://www.inkscape.org/namespaces/inkscape"
   version="1.1"
   width="128"
   height="128"
   id="svg2">
  <metadata
     id="metadata10">
    <rdf:RDF>
      <cc:Work
         rdf:about="">
        <dc:format>image/svg+xml</dc:format>
        <dc:type
           rdf:resource="http://purl.org/dc/dcmitype/StillImage" />
      </cc:Work>
    </rdf:RDF>
  </metadata>
  <defs
     id="defs8" />
  <path
     d="m 40.016,57.686 c 2.497,0 4.162,0.461 4.994,1.383 0.831,0.922 1.029,2.505 0.594,4.747 -0.454,2.336 -1.33,4.002 -2.627,5.001 -1.297,0.999 -3.271,1.498 -5.921,1.498 h -3.998 l 2.454,-12.629 h 4.504 z M 24,83.098 h 6.573 l 1.559,-8.022 h 5.63 c 2.484,0 4.528,-0.26 6.132,-0.783 1.604,-0.522 3.063,-1.397 4.375,-2.625 1.101,-1.012 1.993,-2.129 2.675,-3.35 0.682,-1.22 1.166,-2.568 1.452,-4.041 0.695,-3.577 0.171,-6.363 -1.573,-8.359 -1.744,-1.996 -4.517,-2.994 -8.32,-2.994 H 29.863 L 24,83.098 z M 57.225,44.902 h 6.521 l -1.559,8.022 h 5.81 c 3.655,0 6.177,0.638 7.565,1.913 1.388,1.275 1.803,3.342 1.249,6.198 l -2.729,14.042 h -6.625 l 2.594,-13.351 c 0.295,-1.519 0.187,-2.555 -0.326,-3.107 -0.513,-0.552 -1.604,-0.829 -3.272,-0.829 h -5.212 l -3.359,17.287 h -6.521 l 5.864,-30.175 z m 34.096,12.784 c 2.497,0 4.162,0.461 4.994,1.383 0.831,0.922 1.029,2.505 0.594,4.747 -0.454,2.336 -1.329,4.002 -2.627,5.001 -1.297,0.999 -3.271,1.498 -5.921,1.498 h -3.998 l 2.454,-12.629 h 4.504 z M 75.305,83.098 h 6.573 l 1.559,-8.022 h 5.63 c 2.484,0 4.528,-0.26 6.132,-0.783 1.604,-0.522 3.063,-1.397 4.375,-2.625 1.101,-1.012 1.993,-2.129 2.675,-3.35 0.682,-1.22 1.166,-2.568 1.452,-4.041 0.695,-3.577 0.171,-6.363 -1.573,-8.359 -1.744,-1.996 -4.517,-2.994 -8.32,-2.994 H 81.17 l -5.865,30.174 z"
     inkscape:connector-curvature="0"
     id="path4"
     style="fill:#ffffff" />
</svg>
