<?xml version="1.0" encoding="UTF-8" standalone="no"?>
<!-- Created with Inkscape (http://www.inkscape.org/) -->

<svg
   xmlns:dc="http://purl.org/dc/elements/1.1/"
   xmlns:cc="http://creativecommons.org/ns#"
   xmlns:rdf="http://www.w3.org/1999/02/22-rdf-syntax-ns#"
   xmlns:svg="http://www.w3.org/2000/svg"
   xmlns="http://www.w3.org/2000/svg"
   xmlns:inkscape="http://www.inkscape.org/namespaces/inkscape"
   version="1.1"
   width="128"
   height="128"
   id="svg2">
  <metadata
     id="metadata10">
    <rdf:RDF>
      <cc:Work
         rdf:about="">
        <dc:format>image/svg+xml</dc:format>
        <dc:type
           rdf:resource="http://purl.org/dc/dcmitype/StillImage" />
      </cc:Work>
    </rdf:RDF>
  </metadata>
  <defs
     id="defs8" />
  <path
     d="m 64.75,24.125 c -24.450301,0 -44.28125,19.649357 -44.28125,43.875 0,13.658378 6.309146,25.861427 16.1875,33.90625 6.841979,-8.361231 16.778118,-13.60633 27.875,-13.53125 11.081881,0.07498 21.033837,5.440964 27.875,13.875 10.1245,-8.0387 16.625,-20.39499 16.625,-34.25 0,-24.225643 -19.830949,-43.875 -44.28125,-43.875 z m -0.21875,27.40625 c 8.986328,0 16.28125,7.345035 16.28125,16.40625 0,9.061215 -7.294922,16.40625 -16.28125,16.40625 -8.986328,0 -16.25,-7.345035 -16.25,-16.40625 0,-9.061215 7.263672,-16.40625 16.25,-16.40625 z"
     inkscape:connector-curvature="0"
     id="path4" />
</svg>
