<?xml version="1.0" encoding="UTF-8" standalone="no"?>
<!-- Created with Inkscape (http://www.inkscape.org/) -->

<svg
   xmlns:dc="http://purl.org/dc/elements/1.1/"
   xmlns:cc="http://creativecommons.org/ns#"
   xmlns:rdf="http://www.w3.org/1999/02/22-rdf-syntax-ns#"
   xmlns:svg="http://www.w3.org/2000/svg"
   xmlns="http://www.w3.org/2000/svg"
   xmlns:inkscape="http://www.inkscape.org/namespaces/inkscape"
   version="1.1"
   width="128"
   height="128"
   id="svg2">
  <metadata
     id="metadata10">
    <rdf:RDF>
      <cc:Work
         rdf:about="">
        <dc:format>image/svg+xml</dc:format>
        <dc:type
           rdf:resource="http://purl.org/dc/dcmitype/StillImage" />
      </cc:Work>
    </rdf:RDF>
  </metadata>
  <defs
     id="defs8" />
  <path
     d="m 30.89,24 h 38.88 c 7.171,0 12.922,1.644 17.255,4.93 4.331,3.289 6.498,8.255 6.498,14.902 0,4.033 -0.991,7.489 -2.969,10.364 -1.979,2.877 -4.799,5.099 -8.459,6.667 v 0.223 c 4.93,1.047 8.664,3.381 11.205,7.003 2.538,3.624 3.81,8.162 3.81,13.613 0,3.138 -0.561,6.07 -1.681,8.796 -1.122,2.728 -2.877,5.08 -5.267,7.059 -2.39,1.98 -5.453,3.548 -9.187,4.705 -3.737,1.16 -8.179,1.737 -13.334,1.737 H 30.89 V 24 z m 14.006,33.502 h 22.858 c 3.362,0 6.162,-0.953 8.402,-2.857 2.242,-1.906 3.362,-4.65 3.362,-8.235 0,-4.033 -1.008,-6.872 -3.024,-8.516 -2.017,-1.641 -4.93,-2.465 -8.74,-2.465 H 44.896 v 22.073 z m 0,35.07 h 24.762 c 4.258,0 7.564,-1.102 9.916,-3.305 2.352,-2.202 3.53,-5.322 3.53,-9.357 0,-3.957 -1.178,-7.003 -3.53,-9.13 -2.352,-2.129 -5.658,-3.194 -9.916,-3.194 H 44.896 v 24.986 z"
     inkscape:connector-curvature="0"
     id="path4"
     style="fill:#ffffff" />
</svg>
