<?xml version="1.0" encoding="UTF-8" standalone="no"?>
<!-- Created with Inkscape (http://www.inkscape.org/) -->

<svg
   xmlns:dc="http://purl.org/dc/elements/1.1/"
   xmlns:cc="http://creativecommons.org/ns#"
   xmlns:rdf="http://www.w3.org/1999/02/22-rdf-syntax-ns#"
   xmlns:svg="http://www.w3.org/2000/svg"
   xmlns="http://www.w3.org/2000/svg"
   xmlns:inkscape="http://www.inkscape.org/namespaces/inkscape"
   version="1.1"
   width="128"
   height="128"
   id="svg2">
  <metadata
     id="metadata10">
    <rdf:RDF>
      <cc:Work
         rdf:about="">
        <dc:format>image/svg+xml</dc:format>
        <dc:type
           rdf:resource="http://purl.org/dc/dcmitype/StillImage" />
      </cc:Work>
    </rdf:RDF>
  </metadata>
  <defs
     id="defs8" />
  <path
     d="m 98.993,56.525 c 0,3.205 -2.601,5.806 -5.806,5.806 -3.205,0 -5.806,-2.601 -5.806,-5.806 0,-3.205 2.601,-5.806 5.806,-5.806 3.205,0 5.806,2.601 5.806,5.806 z M 93.158,45.717 c -5.953,0 -10.788,4.801 -10.842,10.741 l -6.755,9.68 c -0.275,-0.028 -0.555,-0.045 -0.837,-0.045 -1.509,0 -2.92,0.415 -4.131,1.139 L 40,54.928 c -0.8,-3.63 -4.043,-6.364 -7.905,-6.364 -4.459,0 -8.095,3.647 -8.095,8.106 0,4.459 3.636,8.095 8.095,8.095 1.509,0 2.92,-0.415 4.131,-1.139 l 30.593,12.282 c 0.791,3.638 4.035,6.375 7.905,6.375 4.192,0 7.65,-3.213 8.05,-7.302 L 93.158,67.389 C 99.143,67.389 104,62.542 104,56.559 104,50.571 99.144,45.717 93.158,45.717 z m 0,3.573 c 4.01,0 7.269,3.258 7.269,7.269 0,4.01 -3.258,7.257 -7.269,7.257 -4.011,0 -7.269,-3.247 -7.269,-7.257 0,-4.01 3.259,-7.269 7.269,-7.269 z m -61.063,1.418 c 2.286,0 4.261,1.277 5.259,3.16 l -2.959,-1.184 v 0.011 c -2.384,-0.856 -5.032,0.309 -5.985,2.68 -0.953,2.371 0.143,5.054 2.456,6.085 v 0.011 l 2.512,1.005 c -0.413,0.09 -0.843,0.145 -1.284,0.145 -3.299,0 -5.951,-2.652 -5.951,-5.951 10e-4,-3.299 2.653,-5.962 5.952,-5.962 z m 42.629,17.529 c 3.299,0 5.951,2.652 5.951,5.951 0,3.299 -2.652,5.951 -5.951,5.951 -2.295,0 -4.276,-1.279 -5.27,-3.171 0.979,0.395 1.959,0.786 2.936,1.184 2.426,0.975 5.188,-0.197 6.163,-2.624 0.975,-2.426 -0.209,-5.177 -2.635,-6.152 l -2.479,-0.994 c 0.414,-0.09 0.844,-0.145 1.285,-0.145 z"
     inkscape:connector-curvature="0"
     id="path4"
     style="fill:#000000" />
</svg>
