<?xml version="1.0" encoding="UTF-8" standalone="no"?>
<!-- Created with Inkscape (http://www.inkscape.org/) -->

<svg
   xmlns:dc="http://purl.org/dc/elements/1.1/"
   xmlns:cc="http://creativecommons.org/ns#"
   xmlns:rdf="http://www.w3.org/1999/02/22-rdf-syntax-ns#"
   xmlns:svg="http://www.w3.org/2000/svg"
   xmlns="http://www.w3.org/2000/svg"
   xmlns:inkscape="http://www.inkscape.org/namespaces/inkscape"
   version="1.1"
   width="128"
   height="128"
   id="svg2">
  <metadata
     id="metadata10">
    <rdf:RDF>
      <cc:Work
         rdf:about="">
        <dc:format>image/svg+xml</dc:format>
        <dc:type
           rdf:resource="http://purl.org/dc/dcmitype/StillImage" />
      </cc:Work>
    </rdf:RDF>
  </metadata>
  <defs
     id="defs8" />
  <path
     d="m 65.874,24 c -21.832,0 -32.84,15.653 -32.84,28.706 0,7.903 2.992,14.934 9.41,17.555 1.052,0.43 1.995,0.015 2.3,-1.15 0.212,-0.807 0.714,-2.841 0.939,-3.688 0.308,-1.153 0.188,-1.557 -0.661,-2.561 -1.851,-2.183 -3.033,-5.009 -3.033,-9.011 0,-11.613 8.689,-22.008 22.624,-22.008 12.34,0 19.12,7.54 19.12,17.61 0,13.249 -5.864,24.431 -14.568,24.431 -4.807,0 -8.406,-3.975 -7.252,-8.851 1.381,-5.821 4.056,-12.104 4.056,-16.306 0,-3.761 -2.019,-6.899 -6.197,-6.899 -4.914,0 -8.862,5.084 -8.862,11.894 0,4.337 1.465,7.271 1.465,7.271 0,0 -5.029,21.308 -5.91,25.039 -1.756,7.432 -0.264,16.542 -0.138,17.463 0.074,0.545 0.775,0.675 1.092,0.263 0.453,-0.592 6.306,-7.818 8.296,-15.037 0.563,-2.044 3.232,-12.631 3.232,-12.631 1.597,3.045 6.263,5.728 11.225,5.728 14.772,0 24.793,-13.467 24.793,-31.492 C 94.966,36.694 83.421,24 65.874,24 z"
     inkscape:connector-curvature="0"
     id="path4"
     style="fill:#ffffff" />
</svg>
