<?xml version="1.0" encoding="UTF-8" standalone="no"?>
<!-- Created with Inkscape (http://www.inkscape.org/) -->

<svg
   xmlns:dc="http://purl.org/dc/elements/1.1/"
   xmlns:cc="http://creativecommons.org/ns#"
   xmlns:rdf="http://www.w3.org/1999/02/22-rdf-syntax-ns#"
   xmlns:svg="http://www.w3.org/2000/svg"
   xmlns="http://www.w3.org/2000/svg"
   xmlns:inkscape="http://www.inkscape.org/namespaces/inkscape"
   version="1.1"
   width="128"
   height="128"
   id="svg2">
  <metadata
     id="metadata10">
    <rdf:RDF>
      <cc:Work
         rdf:about="">
        <dc:format>image/svg+xml</dc:format>
        <dc:type
           rdf:resource="http://purl.org/dc/dcmitype/StillImage" />
      </cc:Work>
    </rdf:RDF>
  </metadata>
  <defs
     id="defs8" />
  <path
     d="m 97.885,91.742 -9.948,2.295 C 90.721,90.515 92.118,86.208 92.118,81.108 92.114,75.871 90.666,71.407 87.77,67.713 86.848,66.539 85.718,65.43 84.424,64.37 81.643,62.093 78.024,60.07 73.522,58.315 66.936,55.702 62.643,53.617 60.633,52.076 58.629,50.528 57.61,48.804 57.61,46.887 c 0,-4.863 3.068,-7.294 9.189,-7.294 6.825,0 12.167,1.638 15.991,4.91 L 87.846,30.896 C 84.194,29.038 80.41,27.687 76.5,26.813 75.508,26.593 74.508,26.405 73.499,26.248 l 8.785,-2.027 c 4.24,-0.975 8.452,1.664 9.445,5.897 L 103.795,82.3 c 0.982,4.236 -1.657,8.465 -5.91,9.442 z M 70.808,75.289 C 68.749,73.461 64.751,71.31 58.801,68.837 55.262,67.368 52.226,65.731 49.655,63.94 42.823,59.179 39.39,53.291 39.39,46.253 c 0,-4.666 1.28,-8.581 3.833,-11.755 0.45,-0.559 0.94,-1.096 1.469,-1.608 l -14.58,3.362 c -4.248,0.983 -6.884,5.205 -5.908,9.442 l 12.07,52.183 c 0.979,4.23 5.201,6.877 9.441,5.905 l 5.982,-1.381 -0.468,-0.116 C 48.24,101.488 44.386,99.836 39.658,97.304 l 6.24,-13.951 c 5.242,4.158 11.158,6.239 17.747,6.239 6.836,0 10.232,-2.431 10.247,-7.293 -10e-4,-2.851 -1.036,-5.19 -3.084,-7.01 z"
     inkscape:connector-curvature="0"
     id="path4"
     style="fill:#ffffff" />
</svg>
